<svg width="40" height="40" viewBox="0 0 40 40" fill="none" xmlns="http://www.w3.org/2000/svg">
<rect width="40" height="40" rx="20" fill="#C95589" fill-opacity="0.05"/>
<path d="M25.3333 15.3333C25.3333 14.9667 25.0333 14.6667 24.6667 14.6667H15.3333C14.9667 14.6667 14.6667 14.9667 14.6667 15.3333V24.6667C14.6667 26.5067 16.16 28 18 28H22C23.84 28 25.3333 26.5067 25.3333 24.6667V15.3333ZM17.6667 26C17.1133 26 16.6667 25.5533 16.6667 25C16.6667 24.4467 17.1133 24 17.6667 24C18.22 24 18.6667 24.4467 18.6667 25C18.6667 25.5533 18.22 26 17.6667 26ZM17.3333 20C17.3333 18.5267 18.5267 17.3333 20 17.3333C21.4733 17.3333 22.6667 18.5267 22.6667 20C22.6667 21.4733 21.4733 22.6667 20 22.6667C18.5267 22.6667 17.3333 21.4733 17.3333 20ZM22.3333 26C21.78 26 21.3333 25.5533 21.3333 25C21.3333 24.4467 21.78 24 22.3333 24C22.8867 24 23.3333 24.4467 23.3333 25C23.3333 25.5533 22.8867 26 22.3333 26ZM21.3333 20C21.3333 20.7333 20.7333 21.3333 20 21.3333C19.2667 21.3333 18.6667 20.7333 18.6667 20C18.6667 19.2667 19.2667 18.6667 20 18.6667C20.7333 18.6667 21.3333 19.2667 21.3333 20ZM28 14.6667V15.3333C28 16.3133 27.46 17.1667 26.6667 17.6267V14.6667C26.6667 13.9333 26.0667 13.3333 25.3333 13.3333H14.6667C13.9333 13.3333 13.3333 13.9333 13.3333 14.6667V17.6267C12.54 17.1667 12 16.3133 12 15.3333V14.6667C12 13.1933 13.1933 12 14.6667 12H25.3333C26.8067 12 28 13.1933 28 14.6667Z" fill="#C95589"/>
</svg>
