<svg width="61" height="60" viewBox="0 0 61 60" fill="none" xmlns="http://www.w3.org/2000/svg">
<rect width="60.6287" height="60" rx="30" fill="#C95589" fill-opacity="0.05"/>
<path d="M41.9557 33.2134C39.8526 37.0994 33.5655 40.5252 27.9119 40.8642C25.1225 41.0316 23.0107 40.4239 21.8359 39.2856L21.9283 39.3737L21.9547 39.3979C22.1747 39.5983 22.3727 39.7678 22.4387 39.8228C22.6191 39.9726 22.8787 40.1729 23.048 40.2984C23.367 40.5186 23.5276 40.6331 23.8224 40.8202C23.9588 40.9039 24.126 41.0007 24.2272 41.0602L24.5043 41.2121C25.6043 41.7999 27.1441 42.0928 29.0382 41.9739C34.1088 41.6678 39.7448 38.5987 41.6301 35.1135C41.7904 34.8188 41.925 34.5109 42.0327 34.1932C42.196 33.6977 42.3282 33.1926 42.4286 32.6806C42.5276 32.1716 42.5945 31.6569 42.6288 31.1394C42.6288 31.1196 42.6288 31.0998 42.6288 31.08C42.6288 31.0602 42.6288 31.0051 42.6288 30.9677C42.5768 31.7576 42.3466 32.5253 41.9557 33.2134Z" fill="#C95589" fill-opacity="0.6"/>
<path d="M42.2092 27.0552C42.0867 26.6151 41.9398 26.1821 41.7692 25.7584C41.6856 25.5514 41.5932 25.3335 41.4899 25.1133C41.4679 25.0649 41.4195 24.9614 41.3513 24.8249L41.2963 24.7148L41.2809 24.6862C41.2809 24.6752 41.2677 24.6642 41.2655 24.6553C41.2413 24.6069 41.2105 24.5519 41.1995 24.5276C41.811 25.6769 41.7582 27.1366 40.8783 28.7593C38.6301 32.9028 31.9272 36.5554 25.8974 36.9165C21.7859 37.163 19.0493 35.8156 18.4355 33.614C18.4355 33.6404 18.4509 33.6646 18.4575 33.691C18.4861 33.7901 18.5521 34.0235 18.6489 34.3031C18.7853 34.7016 18.9151 35.0208 19.0009 35.2168C19.1065 35.4634 19.2341 35.7452 19.4409 36.1437C20.3934 37.927 22.9606 38.9706 26.6255 38.7527C32.6531 38.3894 39.3582 34.7368 41.5976 30.5933C42.3148 29.2833 42.4908 28.0767 42.2092 27.0552Z" fill="#C95589" fill-opacity="0.6"/>
<path d="M38.7747 21.3471C38.3904 20.9843 37.9825 20.6475 37.5537 20.3387C37.2568 20.1186 36.9774 19.9446 36.8938 19.8984C36.6122 19.7135 36.3614 19.5748 36.258 19.5219C38.0179 20.5237 38.5613 22.329 37.3976 24.4801C35.5189 27.9719 29.8785 31.0521 24.7859 31.3559C20.2168 31.6289 17.6628 29.5593 18.5647 26.6113C18.4115 27.0959 18.2874 27.5892 18.193 28.0886C18.1754 28.1877 18.1204 28.4893 18.0742 28.8702C18.0324 29.2159 18.017 29.4581 18.006 29.654C17.8542 32.3643 20.6018 34.1454 25.1203 33.8746C30.776 33.5356 37.0632 30.1098 39.164 26.2238C40.2397 24.2357 40.011 22.514 38.7747 21.3471Z" fill="#C95589" fill-opacity="0.6"/>
<path d="M29.557 18.0172C26.9524 18.1791 24.4663 19.1635 22.4559 20.8287C22.3327 20.93 21.169 22.0353 20.7401 22.8103C19.4202 25.2497 21.2306 27.0551 24.779 26.8415C28.3273 26.628 32.276 24.4945 33.5959 22.0485C34.9158 19.6024 33.1075 17.8036 29.557 18.0172Z" fill="#C95589" fill-opacity="0.6"/>
</svg>
