<svg width="16" height="16" viewBox="0 0 16 16" fill="none" xmlns="http://www.w3.org/2000/svg">
<path d="M12.6653 5.616V4.66666C12.6653 2.08934 10.576 0 7.99869 0C5.42134 0 3.33203 2.08934 3.33203 4.66666V5.616C2.11872 6.14553 1.33378 7.34284 1.33203 8.66666V12.6667C1.33422 14.5067 2.82531 15.9978 4.66534 16H11.332C13.172 15.9978 14.6631 14.5067 14.6653 12.6667V8.66666C14.6636 7.34284 13.8787 6.14553 12.6653 5.616ZM8.66534 11.3333C8.66534 11.7015 8.36688 12 7.99869 12C7.6305 12 7.33203 11.7015 7.33203 11.3333V10C7.33203 9.63181 7.6305 9.33334 7.99869 9.33334C8.36688 9.33334 8.66534 9.63181 8.66534 10V11.3333ZM11.332 5.33334H4.66534V4.66669C4.66534 2.82575 6.15772 1.33334 7.99869 1.33334C9.83966 1.33334 11.332 2.82572 11.332 4.66669V5.33334Z" fill="#C95589"/>
</svg>
