<svg width="60" height="60" viewBox="0 0 60 60" fill="none" xmlns="http://www.w3.org/2000/svg">
<rect width="60" height="60" rx="30" fill="#C95589" fill-opacity="0.05"/>
<g clip-path="url(#clip0_2003_3161)">
<path d="M30 25V18.46C30.913 18.806 31.753 19.339 32.465 20.05L35.949 23.536C36.661 24.247 37.194 25.087 37.54 26H31C30.448 26 30 25.551 30 25ZM26.584 37H23C22.448 37 22 36.552 22 36C22 35.448 22.448 35 23 35H26.07C26.029 34.672 26 34.34 26 34C26 33.66 26.022 33.328 26.063 33H23C22.448 33 22 32.552 22 32C22 31.448 22.448 31 23 31H26.593C26.889 30.272 27.292 29.602 27.778 29H23C22.448 29 22 28.552 22 28C22 27.448 22.448 27 23 27H28.774C28.295 26.469 28 25.77 28 25V18.024C27.839 18.013 27.678 18 27.515 18H23C20.243 18 18 20.243 18 23V37C18 39.757 20.243 42 23 42H33C33.114 42 33.221 41.974 33.333 41.966C30.267 41.712 27.692 39.732 26.584 37ZM38.911 37.497C39.85 36.178 40.276 34.469 39.871 32.654C39.377 30.443 37.594 28.658 35.381 28.173C31.016 27.217 27.218 31.016 28.173 35.381C28.658 37.594 30.443 39.377 32.654 39.871C34.47 40.277 36.179 39.85 37.497 38.911L40.293 41.707C40.683 42.097 41.317 42.097 41.707 41.707C42.097 41.317 42.097 40.683 41.707 40.293L38.911 37.497ZM34.776 36.464L34.772 36.468C34.028 37.212 32.714 37.214 31.949 36.449L30.434 34.874C30.062 34.487 30.062 33.875 30.434 33.488C30.827 33.079 31.481 33.079 31.874 33.488L33.369 35.041L36.269 32.07C36.661 31.668 37.307 31.668 37.699 32.07C38.079 32.458 38.079 33.079 37.699 33.467L34.774 36.464H34.776Z" fill="#5B55C9"/>
<path d="M30 25V18.46C30.913 18.806 31.753 19.339 32.465 20.05L35.949 23.536C36.661 24.247 37.194 25.087 37.54 26H31C30.448 26 30 25.551 30 25ZM26.584 37H23C22.448 37 22 36.552 22 36C22 35.448 22.448 35 23 35H26.07C26.029 34.672 26 34.34 26 34C26 33.66 26.022 33.328 26.063 33H23C22.448 33 22 32.552 22 32C22 31.448 22.448 31 23 31H26.593C26.889 30.272 27.292 29.602 27.778 29H23C22.448 29 22 28.552 22 28C22 27.448 22.448 27 23 27H28.774C28.295 26.469 28 25.77 28 25V18.024C27.839 18.013 27.678 18 27.515 18H23C20.243 18 18 20.243 18 23V37C18 39.757 20.243 42 23 42H33C33.114 42 33.221 41.974 33.333 41.966C30.267 41.712 27.692 39.732 26.584 37Z" fill="#C95589"/>
</g>
<defs>
<clipPath id="clip0_2003_3161">
<rect width="24" height="24" fill="white" transform="translate(18 18)"/>
</clipPath>
</defs>
</svg>
