<svg width="40" height="40" viewBox="0 0 40 40" fill="none" xmlns="http://www.w3.org/2000/svg">
<rect width="40" height="39.3332" fill="white"/>
<g clip-path="url(#clip0_144_8391)">
<path d="M20.846 16.9865L25.384 12.4485C25.982 11.8505 26.9527 11.8505 27.5507 12.4485C28.1487 13.0465 28.1487 14.0172 27.5507 14.6152L23.0127 19.1532C22.4707 19.6952 21.736 19.9998 20.9693 19.9998H19.9993V19.0298C19.9993 18.2632 20.304 17.5285 20.846 16.9865ZM25.8307 18.2212L23.9553 20.0965C23.1633 20.8885 22.09 21.3332 20.97 21.3332H19.3333C18.9653 21.3332 18.6667 21.0345 18.6667 20.6665V19.0298C18.6667 18.6772 18.7147 18.3332 18.798 17.9998H15.3333C13.4927 17.9998 12 19.4925 12 21.3332V23.9998C12 25.8405 13.4927 27.3332 15.3333 27.3332H24.6667C26.5073 27.3332 28 25.8405 28 23.9998V21.3332C28 19.9065 27.094 18.6958 25.8307 18.2212ZM15.6667 23.9712C15.1147 23.9712 14.6667 23.5232 14.6667 22.9712C14.6667 22.4192 15.1147 21.9712 15.6667 21.9712C16.2187 21.9712 16.6667 22.4192 16.6667 22.9712C16.6667 23.5232 16.2187 23.9712 15.6667 23.9712ZM19 23.9712C18.448 23.9712 18 23.5232 18 22.9712C18 22.4192 18.448 21.9712 19 21.9712C19.552 21.9712 20 22.4192 20 22.9712C20 23.5232 19.552 23.9712 19 23.9712Z" fill="#C95589"/>
</g>
<defs>
<clipPath id="clip0_144_8391">
<rect width="16" height="15.3332" fill="white" transform="translate(12 12)"/>
</clipPath>
</defs>
</svg>
