<svg width="60" height="60" viewBox="0 0 60 60" fill="none" xmlns="http://www.w3.org/2000/svg">
<rect width="60" height="60" rx="30" fill="#C95589" fill-opacity="0.05"/>
<g clip-path="url(#clip0_2005_333)">
<path d="M41 34C40.7348 34 40.4804 34.1054 40.2929 34.2929C40.1054 34.4804 40 34.7348 40 35V37C40 37.7956 39.6839 38.5587 39.1213 39.1213C38.5587 39.6839 37.7956 40 37 40H35C34.7348 40 34.4804 40.1054 34.2929 40.2929C34.1054 40.4804 34 40.7348 34 41C34 41.2652 34.1054 41.5196 34.2929 41.7071C34.4804 41.8946 34.7348 42 35 42H37C38.3256 41.9984 39.5964 41.4711 40.5338 40.5338C41.4711 39.5964 41.9984 38.3256 42 37V35C42 34.7348 41.8946 34.4804 41.7071 34.2929C41.5196 34.1054 41.2652 34 41 34Z" fill="#5B55C9"/>
<path d="M19 26C19.2652 26 19.5196 25.8946 19.7071 25.7071C19.8946 25.5196 20 25.2652 20 25V23C20 22.2044 20.3161 21.4413 20.8787 20.8787C21.4413 20.3161 22.2044 20 23 20H25C25.2652 20 25.5196 19.8946 25.7071 19.7071C25.8946 19.5196 26 19.2652 26 19C26 18.7348 25.8946 18.4804 25.7071 18.2929C25.5196 18.1054 25.2652 18 25 18H23C21.6744 18.0016 20.4036 18.5289 19.4662 19.4662C18.5289 20.4036 18.0016 21.6744 18 23V25C18 25.2652 18.1054 25.5196 18.2929 25.7071C18.4804 25.8946 18.7348 26 19 26Z" fill="#5B55C9"/>
<path d="M25 40H23C22.2044 40 21.4413 39.6839 20.8787 39.1213C20.3161 38.5587 20 37.7956 20 37V35C20 34.7348 19.8946 34.4804 19.7071 34.2929C19.5196 34.1054 19.2652 34 19 34C18.7348 34 18.4804 34.1054 18.2929 34.2929C18.1054 34.4804 18 34.7348 18 35V37C18.0016 38.3256 18.5289 39.5964 19.4662 40.5338C20.4036 41.4711 21.6744 41.9984 23 42H25C25.2652 42 25.5196 41.8946 25.7071 41.7071C25.8946 41.5196 26 41.2652 26 41C26 40.7348 25.8946 40.4804 25.7071 40.2929C25.5196 40.1054 25.2652 40 25 40Z" fill="#5B55C9"/>
<path d="M37 18H35C34.7348 18 34.4804 18.1054 34.2929 18.2929C34.1054 18.4804 34 18.7348 34 19C34 19.2652 34.1054 19.5196 34.2929 19.7071C34.4804 19.8946 34.7348 20 35 20H37C37.7956 20 38.5587 20.3161 39.1213 20.8787C39.6839 21.4413 40 22.2044 40 23V25C40 25.2652 40.1054 25.5196 40.2929 25.7071C40.4804 25.8946 40.7348 26 41 26C41.2652 26 41.5196 25.8946 41.7071 25.7071C41.8946 25.5196 42 25.2652 42 25V23C41.9984 21.6744 41.4711 20.4036 40.5338 19.4662C39.5964 18.5289 38.3256 18.0016 37 18Z" fill="#5B55C9"/>
<path d="M30 29C32.2091 29 34 27.2091 34 25C34 22.7909 32.2091 21 30 21C27.7909 21 26 22.7909 26 25C26 27.2091 27.7909 29 30 29Z" fill="#C95589"/>
<path d="M29 31C27.4092 31.0016 25.884 31.6342 24.7591 32.7591C23.6342 33.884 23.0016 35.4092 23 37C23 37.2652 23.1054 37.5196 23.2929 37.7071C23.4804 37.8946 23.7348 38 24 38H36C36.2652 38 36.5196 37.8946 36.7071 37.7071C36.8946 37.5196 37 37.2652 37 37C36.9984 35.4092 36.3658 33.884 35.2409 32.7591C34.116 31.6342 32.5908 31.0016 31 31H29Z" fill="#C95589"/>
</g>
<defs>
<clipPath id="clip0_2005_333">
<rect width="24" height="24" fill="white" transform="translate(18 18)"/>
</clipPath>
</defs>
</svg>
