<svg width="25" height="24" viewBox="0 0 25 24" fill="none" xmlns="http://www.w3.org/2000/svg">
<g clip-path="url(#clip0_119_5562)">
<path d="M12.556 11.211L20.595 17.929L14.901 22.2C13.479 23.267 11.523 23.267 10.101 22.2L3.968 17.6C3.449 17.211 2.817 17 2.168 17H1.501C0.948 17 0.5 16.552 0.5 16V4.937C0.5 4.429 0.879 4.006 1.384 3.949C2.741 3.798 3.963 3.253 5.213 2.525C7.011 1.6 9.37 1.93 10.829 3.297L11.446 3.89L7.439 7.801C6.366 8.873 6.195 10.568 7.041 11.739C7.561 12.462 8.502 12.998 9.485 12.998C10.278 12.998 11.039 12.686 11.589 12.135L12.556 11.21V11.211ZM20.454 2.525C18.764 1.68 16.656 1.9 15.146 3.073L8.843 9.225C8.472 9.597 8.388 10.192 8.662 10.572C8.842 10.822 9.103 10.972 9.401 10.997C9.696 11.022 9.982 10.915 10.189 10.707L13.807 7.278C14.756 6.377 16.131 7.815 15.19 8.723L14.009 9.82L22.602 17.001H23.499C24.051 17.001 24.499 16.553 24.499 16.001V4.903C24.499 4.413 24.141 4.008 23.658 3.921C21.964 3.615 20.453 2.526 20.453 2.526L20.454 2.525Z" fill="#C95589"/>
<path d="M12.556 11.211L20.595 17.929L14.901 22.2C13.479 23.267 11.523 23.267 10.101 22.2L3.968 17.6C3.449 17.211 2.817 17 2.168 17H1.501C0.948 17 0.5 16.552 0.5 16V4.937C0.5 4.429 0.879 4.006 1.384 3.949C2.741 3.798 3.963 3.253 5.213 2.525C7.011 1.6 9.37 1.93 10.829 3.297L11.446 3.89L7.439 7.801C6.366 8.873 6.195 10.568 7.041 11.739C7.561 12.462 8.502 12.998 9.485 12.998C10.278 12.998 11.039 12.686 11.589 12.135L12.556 11.21V11.211Z" fill="white"/>
</g>
<defs>
<clipPath id="clip0_119_5562">
<rect width="24" height="24" fill="white" transform="translate(0.5)"/>
</clipPath>
</defs>
</svg>
