<svg width="49" height="50" viewBox="0 0 49 50" fill="none" xmlns="http://www.w3.org/2000/svg">
<rect width="48.8" height="49.8" rx="24.4" fill="#C95589" fill-opacity="0.05"/>
<g clip-path="url(#clip0_2039_3534)">
<path d="M14.4004 29.4425C14.4004 32.2042 16.6387 34.4425 19.4004 34.4425C22.1621 34.4425 24.4004 32.2042 24.4004 29.4425C24.4004 26.6808 22.1621 24.4425 19.4004 24.4425C16.6387 24.4425 14.4004 26.6808 14.4004 29.4425ZM20.4354 26.9442L21.6854 28.1942C21.8254 28.3342 21.8996 28.5217 21.8996 28.7117C21.8996 28.8058 21.8821 28.9008 21.8437 28.9917C21.7304 29.265 21.4637 29.4425 21.1671 29.4425H20.2329V31.9425C20.2329 32.4025 19.8604 32.7758 19.3996 32.7758C18.9387 32.7758 18.5662 32.4025 18.5662 31.9425V29.4425H17.6321C17.3362 29.4425 17.0687 29.265 16.9554 28.9917C16.8404 28.7175 16.9037 28.4033 17.1137 28.1942L18.3637 26.9442C18.9346 26.3733 19.8646 26.3733 20.4354 26.9442ZM21.9004 17.7333C21.9004 15.8925 24.6987 14.4 28.1504 14.4C31.6021 14.4 34.4004 15.8925 34.4004 17.7333C34.4004 19.5742 31.6021 21.0667 28.1504 21.0667C24.6987 21.0667 21.9004 19.5742 21.9004 17.7333ZM28.1504 24.4C31.6021 24.4 34.4004 22.9075 34.4004 21.0667V19.4C34.4004 21.2408 31.6021 22.7333 28.1504 22.7333C24.6987 22.7333 21.9004 21.2408 21.9004 19.4V21.0667C21.9004 22.9075 24.6987 24.4 28.1504 24.4ZM28.1504 32.7758C27.1487 32.7758 26.2021 32.65 25.3629 32.4267C25.1146 32.9208 24.8079 33.3808 24.4496 33.7958C25.4854 34.2025 26.7654 34.4433 28.1504 34.4433C31.6021 34.4433 34.4004 32.9508 34.4004 31.11V29.4433C34.4004 31.2842 31.6021 32.7758 28.1504 32.7758ZM28.1504 26.1092C26.9404 26.1092 25.8112 25.9258 24.8546 25.6083C25.2629 26.1875 25.5804 26.8342 25.7879 27.5292C26.5171 27.6883 27.3146 27.7758 28.1504 27.7758C31.6021 27.7758 34.4004 26.2833 34.4004 24.4425V22.7758C34.4004 24.6167 31.6021 26.1092 28.1504 26.1092ZM28.1504 29.4425C27.4187 29.4425 26.7171 29.375 26.0646 29.2517C26.0662 29.315 26.0671 29.3783 26.0671 29.4425C26.0671 29.9392 26.0121 30.4225 25.9096 30.8883C26.6054 31.0308 27.3604 31.1092 28.1504 31.1092C31.6021 31.1092 34.4004 29.6167 34.4004 27.7758V26.1092C34.4004 27.95 31.6021 29.4425 28.1504 29.4425Z" fill="#5B55C9"/>
<path d="M21.9004 17.7333C21.9004 15.8925 24.6987 14.4 28.1504 14.4C31.6021 14.4 34.4004 15.8925 34.4004 17.7333C34.4004 19.5742 31.6021 21.0667 28.1504 21.0667C24.6987 21.0667 21.9004 19.5742 21.9004 17.7333ZM28.1504 24.4C31.6021 24.4 34.4004 22.9075 34.4004 21.0667V19.4C34.4004 21.2408 31.6021 22.7333 28.1504 22.7333C24.6987 22.7333 21.9004 21.2408 21.9004 19.4V21.0667C21.9004 22.9075 24.6987 24.4 28.1504 24.4ZM28.1504 32.7758C27.1487 32.7758 26.2021 32.65 25.3629 32.4267C25.1146 32.9208 24.8079 33.3808 24.4496 33.7958C25.4854 34.2025 26.7654 34.4433 28.1504 34.4433C31.6021 34.4433 34.4004 32.9508 34.4004 31.11V29.4433C34.4004 31.2842 31.6021 32.7758 28.1504 32.7758ZM28.1504 26.1092C26.9404 26.1092 25.8112 25.9258 24.8546 25.6083C25.2629 26.1875 25.5804 26.8342 25.7879 27.5292C26.5171 27.6883 27.3146 27.7758 28.1504 27.7758C31.6021 27.7758 34.4004 26.2833 34.4004 24.4425V22.7758C34.4004 24.6167 31.6021 26.1092 28.1504 26.1092ZM28.1504 29.4425C27.4187 29.4425 26.7171 29.375 26.0646 29.2517C26.0662 29.315 26.0671 29.3783 26.0671 29.4425C26.0671 29.9392 26.0121 30.4225 25.9096 30.8883C26.6054 31.0308 27.3604 31.1092 28.1504 31.1092C31.6021 31.1092 34.4004 29.6167 34.4004 27.7758V26.1092C34.4004 27.95 31.6021 29.4425 28.1504 29.4425Z" fill="#C95589"/>
</g>
<defs>
<clipPath id="clip0_2039_3534">
<rect width="20" height="21" fill="white" transform="translate(14.4004 14.4)"/>
</clipPath>
</defs>
</svg>
