<svg width="60" height="60" viewBox="0 0 60 60" fill="none" xmlns="http://www.w3.org/2000/svg">
<rect width="60" height="60" rx="30" fill="#C95589" fill-opacity="0.05"/>
<g clip-path="url(#clip0_2005_3912)">
<path d="M23.5 25C25.43 25 27 23.43 27 21.5C27 19.57 25.43 18 23.5 18C21.57 18 20 19.57 20 21.5C20 23.43 21.57 25 23.5 25ZM35.5 35C37.981 35 40 32.981 40 30.5C40 28.019 37.981 26 35.5 26C33.019 26 31 28.019 31 30.5C31 32.981 33.019 35 35.5 35ZM26.433 36.607C27.193 37.369 27.193 38.63 26.42 39.405L24.221 41.693C24.025 41.897 23.763 42 23.5 42C23.25 42 23.001 41.907 22.807 41.721C22.409 41.338 22.396 40.705 22.779 40.307L24.035 39H22C19.794 39 18 37.206 18 35V34C18 33.447 18.448 33 19 33C19.552 33 20 33.447 20 34V35C20 36.103 20.897 37 22 37H24.029L22.779 35.693C22.396 35.295 22.408 34.662 22.807 34.279C23.205 33.897 23.838 33.908 24.221 34.306L26.433 36.607ZM41.959 40.717C41.143 37.94 38.486 35.999 35.5 35.999C32.514 35.999 29.857 37.939 29.041 40.717C28.952 41.02 29.011 41.346 29.2 41.599C29.389 41.851 29.686 41.999 30.001 41.999H41.001C41.316 41.999 41.613 41.851 41.802 41.599C41.99 41.346 42.048 41.02 41.959 40.717ZM23.5 26C21.066 26 18.882 27.467 18.063 29.649C17.948 29.956 17.991 30.299 18.178 30.569C18.365 30.839 18.672 31 19 31H28C28.328 31 28.635 30.839 28.822 30.569C29.009 30.299 29.051 29.956 28.937 29.649C28.119 27.466 25.934 26 23.5 26Z" fill="#C95589"/>
<path d="M26.433 36.607C27.193 37.369 27.193 38.63 26.42 39.405L24.221 41.693C24.025 41.897 23.763 42 23.5 42C23.25 42 23.001 41.907 22.807 41.721C22.409 41.338 22.396 40.705 22.779 40.307L24.035 39H22C19.794 39 18 37.206 18 35V34C18 33.447 18.448 33 19 33C19.552 33 20 33.447 20 34V35C20 36.103 20.897 37 22 37H24.029L22.779 35.693C22.396 35.295 22.408 34.662 22.807 34.279C23.205 33.897 23.838 33.908 24.221 34.306L26.433 36.607Z" fill="#5B55C9"/>
</g>
<defs>
<clipPath id="clip0_2005_3912">
<rect width="24" height="24" fill="white" transform="translate(18 18)"/>
</clipPath>
</defs>
</svg>
