<svg width="49" height="49" viewBox="0 0 49 49" fill="none" xmlns="http://www.w3.org/2000/svg">
<rect width="48.8" height="48.8" rx="24.4" fill="#C95589" fill-opacity="0.05"/>
<g clip-path="url(#clip0_2039_3638)">
<path d="M17.7346 19.4675C17.7346 18.08 19.0537 16.5717 20.3512 15.9475C20.1987 15.795 20.0521 15.6283 19.9262 15.4492C19.6162 15.0092 19.9671 14.4 20.5054 14.4H22.4612C23.0304 14.4 23.3412 15.0467 23.0037 15.505C22.8871 15.6633 22.7554 15.8117 22.6187 15.9475C23.9162 16.5725 25.2337 18.08 25.2337 19.4667C25.2337 20.8083 24.2062 21.8992 22.9421 21.8992H20.0254C18.7612 21.8992 17.7337 20.8075 17.7337 19.4667L17.7346 19.4675ZM27.4904 17.9775L28.5679 16.9V19.4C28.5679 19.86 28.9404 20.2333 29.4012 20.2333C29.8621 20.2333 30.2346 19.86 30.2346 19.4V16.9L31.3121 17.9775C31.4746 18.14 31.6879 18.2217 31.9012 18.2217C32.1146 18.2217 32.3279 18.14 32.4904 17.9775C32.8162 17.6517 32.8162 17.125 32.4904 16.7992L30.5796 14.8883C30.2687 14.5767 29.8637 14.415 29.4546 14.4017C29.4371 14.4008 29.4196 14.4 29.4012 14.4C29.3829 14.4 29.3654 14.4 29.3479 14.4017C28.9387 14.415 28.5337 14.5767 28.2229 14.8883L26.3121 16.7992C25.9862 17.125 25.9862 17.6517 26.3121 17.9775C26.6379 18.3033 27.1646 18.3033 27.4904 17.9775ZM33.6912 21.6342C33.2621 21.2433 32.7029 21.0408 32.1262 21.0692C31.5454 21.0958 31.0104 21.3475 30.6312 21.765L27.6804 24.8792C27.7071 25.0542 27.7346 25.2292 27.7346 25.4108C27.7346 27.1467 26.4387 28.6408 24.7204 28.8858L21.1771 29.3825C20.7212 29.4475 20.2996 29.1308 20.2346 28.6758C20.1696 28.22 20.4862 27.7983 20.9412 27.7333L24.4096 27.2475C25.1896 27.1358 25.8662 26.5758 26.0262 25.8042C26.2729 24.6167 25.3679 23.5667 24.2229 23.5667H17.7337C15.8929 23.5667 14.4004 25.0592 14.4004 26.9V31.0667C14.4004 32.9075 15.8929 34.4 17.7337 34.4H21.2854C23.6229 34.4 25.8521 33.4183 27.4304 31.695L33.8487 24.6875C34.6387 23.8025 34.5671 22.4325 33.6912 21.6342Z" fill="#5B55C9"/>
<path d="M17.7346 19.4675C17.7346 18.08 19.0537 16.5717 20.3512 15.9475C20.1987 15.795 20.0521 15.6283 19.9262 15.4492C19.6162 15.0092 19.9671 14.4 20.5054 14.4H22.4612C23.0304 14.4 23.3412 15.0467 23.0037 15.505C22.8871 15.6633 22.7554 15.8117 22.6187 15.9475C23.9162 16.5725 25.2337 18.08 25.2337 19.4667C25.2337 20.8083 24.2062 21.8992 22.9421 21.8992H20.0254C18.7612 21.8992 17.7337 20.8075 17.7337 19.4667L17.7346 19.4675ZM33.6912 21.6342C33.2621 21.2433 32.7029 21.0408 32.1262 21.0692C31.5454 21.0958 31.0104 21.3475 30.6312 21.765L27.6804 24.8792C27.7071 25.0542 27.7346 25.2292 27.7346 25.4108C27.7346 27.1467 26.4387 28.6408 24.7204 28.8858L21.1771 29.3825C20.7212 29.4475 20.2996 29.1308 20.2346 28.6758C20.1696 28.22 20.4862 27.7983 20.9412 27.7333L24.4096 27.2475C25.1896 27.1358 25.8662 26.5758 26.0262 25.8042C26.2729 24.6167 25.3679 23.5667 24.2229 23.5667H17.7337C15.8929 23.5667 14.4004 25.0592 14.4004 26.9V31.0667C14.4004 32.9075 15.8929 34.4 17.7337 34.4H21.2854C23.6229 34.4 25.8521 33.4183 27.4304 31.695L33.8487 24.6875C34.6387 23.8025 34.5671 22.4325 33.6912 21.6342Z" fill="#C95589"/>
</g>
<defs>
<clipPath id="clip0_2039_3638">
<rect width="20" height="20" fill="white" transform="translate(14.4004 14.4)"/>
</clipPath>
</defs>
</svg>
