<svg width="40" height="40" viewBox="0 0 40 40" fill="none" xmlns="http://www.w3.org/2000/svg">
<path d="M32.0016 22.6657C33.4738 22.6657 34.6673 21.4722 34.6673 20C34.6673 18.5278 33.4738 17.3344 32.0016 17.3344C30.5294 17.3344 29.3359 18.5278 29.3359 20C29.3359 21.4722 30.5294 22.6657 32.0016 22.6657Z" fill="#293266"/>
<path d="M39.5112 18.28C38.4776 16.5966 36.1265 13.7723 32 13.7723C27.8735 13.7723 25.5224 16.5966 24.4888 18.28C23.8371 19.3341 23.8371 20.666 24.4888 21.7201C25.5224 23.4035 27.8735 26.2277 32 26.2277C36.1265 26.2277 38.4776 23.4035 39.5112 21.7201C40.1629 20.666 40.1629 19.3341 39.5112 18.28ZM32 23.9985C29.7917 23.9985 28.0015 22.2083 28.0015 20C28.0015 17.7917 29.7917 16.0015 32 16.0015C34.2083 16.0015 35.9985 17.7917 35.9985 20C35.9963 22.2074 34.2074 23.9963 32 23.9985Z" fill="#293266"/>
</svg>
