<svg width="64" height="64" viewBox="0 0 64 64" fill="none" xmlns="http://www.w3.org/2000/svg">
<g clip-path="url(#clip0_2001_1044)">
<path d="M33.0772 24.5772C32.9997 24.6545 32.9383 24.7465 32.8963 24.8476C32.8544 24.9488 32.8328 25.0572 32.8328 25.1667C32.8328 25.2762 32.8544 25.3847 32.8963 25.4858C32.9383 25.587 32.9997 25.6789 33.0772 25.7563L39.1551 31.8332L22.8338 31.8332C22.6128 31.8332 22.4008 31.921 22.2446 32.0772C22.0883 32.2335 22.0005 32.4455 22.0005 32.6665C22.0005 32.8875 22.0883 33.0994 22.2446 33.2557C22.4008 33.412 22.6128 33.4998 22.8338 33.4998L39.1551 33.4998L33.0772 39.5767C32.9208 39.733 32.833 39.9451 32.833 40.1662C32.833 40.3874 32.9208 40.5994 33.0772 40.7558C33.2336 40.9122 33.4456 41 33.6668 41C33.8879 41 34.1 40.9122 34.2563 40.7558L41.7561 33.256C41.8336 33.1786 41.895 33.0867 41.937 32.9856C41.9789 32.8844 42.0005 32.776 42.0005 32.6665C42.0005 32.557 41.9789 32.4485 41.937 32.3474C41.895 32.2462 41.8336 32.1543 41.7561 32.0769L34.2563 24.5772C34.1789 24.4997 34.087 24.4382 33.9859 24.3963C33.8847 24.3543 33.7763 24.3328 33.6668 24.3328C33.5573 24.3328 33.4488 24.3543 33.3477 24.3963C33.2465 24.4382 33.1546 24.4997 33.0772 24.5772Z" fill="#5B55C9"/>
</g>
<defs>
<clipPath id="clip0_2001_1044">
<rect width="19.2" height="19.2" fill="white" transform="matrix(4.37114e-08 -1 -1 -4.37114e-08 41.6001 41.6001)"/>
</clipPath>
</defs>
</svg>
