<svg width="12" height="12" viewBox="0 0 12 12" fill="none" xmlns="http://www.w3.org/2000/svg">
<g clip-path="url(#clip0_2015_3348)">
<path d="M5.35414 1.14597C5.40063 1.19241 5.43751 1.24755 5.46267 1.30825C5.48783 1.36895 5.50079 1.43402 5.50079 1.49972C5.50079 1.56543 5.48783 1.63049 5.46267 1.69119C5.43751 1.75189 5.40063 1.80704 5.35414 1.85347L1.70727 5.49972L11.5004 5.49972C11.633 5.49972 11.7602 5.5524 11.8539 5.64617C11.9477 5.73994 12.0004 5.86711 12.0004 5.99972C12.0004 6.13233 11.9477 6.25951 11.8539 6.35328C11.7602 6.44704 11.633 6.49972 11.5004 6.49972L1.70727 6.49972L5.35414 10.146C5.44796 10.2398 5.50067 10.367 5.50067 10.4997C5.50067 10.6324 5.44796 10.7597 5.35414 10.8535C5.26032 10.9473 5.13307 11 5.00039 11C4.86771 11 4.74046 10.9473 4.64664 10.8535L0.146643 6.35347C0.100155 6.30704 0.0632754 6.25189 0.0381133 6.19119C0.0129511 6.13049 -2.15697e-07 6.06543 -2.18569e-07 5.99972C-2.21441e-07 5.93401 0.0129511 5.86895 0.0381132 5.80825C0.0632754 5.74755 0.100155 5.69241 0.146643 5.64597L4.64664 1.14597C4.69308 1.09948 4.74822 1.0626 4.80892 1.03744C4.86962 1.01228 4.93468 0.999329 5.00039 0.999329C5.0661 0.999329 5.13116 1.01228 5.19186 1.03744C5.25256 1.0626 5.30771 1.09948 5.35414 1.14597Z" fill="#C95589"/>
</g>
<defs>
<clipPath id="clip0_2015_3348">
<rect width="12" height="12" fill="white" transform="translate(0 12) rotate(-90)"/>
</clipPath>
</defs>
</svg>
