<svg width="60" height="60" viewBox="0 0 60 60" fill="none" xmlns="http://www.w3.org/2000/svg">
<rect width="60" height="60" rx="30" fill="#C95589" fill-opacity="0.05"/>
<g clip-path="url(#clip0_2005_1686)">
<path d="M23.5 26H20.5C19.119 26 18 24.881 18 23.5V20.5C18 19.119 19.119 18 20.5 18H23.5C24.881 18 26 19.119 26 20.5V23.5C26 24.881 24.881 26 23.5 26ZM23.5 36H20.5C19.119 36 18 34.881 18 33.5V30.5C18 29.119 19.119 28 20.5 28H23.5C24.881 28 26 29.119 26 30.5V33.5C26 34.881 24.881 36 23.5 36ZM33.5 18H30.5C29.119 18 28 19.119 28 20.5V23.5C28 24.881 29.119 26 30.5 26H33.5C34.881 26 36 24.881 36 23.5V20.5C36 19.119 34.881 18 33.5 18ZM33 22.5C33 22.776 32.776 23 32.5 23H31.5C31.224 23 31 22.776 31 22.5V21.5C31 21.224 31.224 21 31.5 21H32.5C32.776 21 33 21.224 33 21.5V22.5ZM33 30.107C33 29.111 32.319 28.187 31.336 28.027C30.083 27.823 29 28.785 29 30V38.817C27.924 37.931 26.889 37.065 26.855 37.033C25.933 36.172 24.482 36.22 23.62 37.142C22.757 38.065 22.801 39.514 23.718 40.372L25.539 42H42.001V41.407C42.001 39.352 40.743 37.506 38.83 36.754L33.001 34.462V30.107H33Z" fill="#5B55C9"/>
<path d="M23.5 26H20.5C19.119 26 18 24.881 18 23.5V20.5C18 19.119 19.119 18 20.5 18H23.5C24.881 18 26 19.119 26 20.5V23.5C26 24.881 24.881 26 23.5 26ZM23.5 36H20.5C19.119 36 18 34.881 18 33.5V30.5C18 29.119 19.119 28 20.5 28H23.5C24.881 28 26 29.119 26 30.5V33.5C26 34.881 24.881 36 23.5 36ZM33.5 18H30.5C29.119 18 28 19.119 28 20.5V23.5C28 24.881 29.119 26 30.5 26H33.5C34.881 26 36 24.881 36 23.5V20.5C36 19.119 34.881 18 33.5 18ZM33 22.5C33 22.776 32.776 23 32.5 23H31.5C31.224 23 31 22.776 31 22.5V21.5C31 21.224 31.224 21 31.5 21H32.5C32.776 21 33 21.224 33 21.5V22.5Z" fill="#C95589"/>
</g>
<defs>
<clipPath id="clip0_2005_1686">
<rect width="24" height="24" fill="white" transform="translate(18 18)"/>
</clipPath>
</defs>
</svg>
