<svg width="49" height="49" viewBox="0 0 49 49" fill="none" xmlns="http://www.w3.org/2000/svg">
<rect width="48.8" height="48.799" rx="24.3995" fill="#C95589" fill-opacity="0.05"/>
<g clip-path="url(#clip0_145_10227)">
<path d="M18.9839 20.233C20.5922 20.233 21.9004 18.9248 21.9004 17.3165C21.9004 15.7083 20.5922 14.4 18.9839 14.4C17.3756 14.4 16.0674 15.7083 16.0674 17.3165C16.0674 18.9248 17.3756 20.233 18.9839 20.233ZM28.9834 28.566C31.0508 28.566 32.7332 26.8836 32.7332 24.8162C32.7332 22.7488 31.0508 21.0663 28.9834 21.0663C26.916 21.0663 25.2336 22.7488 25.2336 24.8162C25.2336 26.8836 26.916 28.566 28.9834 28.566ZM21.4279 29.9051C22.0612 30.5401 22.0613 31.5908 21.4171 32.2366L19.5847 34.1432C19.4214 34.3132 19.2031 34.399 18.9839 34.399C18.7756 34.399 18.5681 34.3215 18.4064 34.1666C18.0748 33.8474 18.0639 33.3199 18.3831 32.9883L19.4297 31.8992H17.734C15.8957 31.8992 14.4008 30.4042 14.4008 28.566V27.7327C14.4008 27.2719 14.7741 26.8994 15.2341 26.8994C15.6941 26.8994 16.0674 27.2719 16.0674 27.7327V28.566C16.0674 29.4851 16.8148 30.2326 17.734 30.2326H19.4247L18.3831 29.1435C18.0639 28.8118 18.0739 28.2843 18.4064 27.9652C18.7381 27.6469 19.2656 27.656 19.5847 27.9877L21.4279 29.9051ZM34.3657 33.3299C33.6857 31.0159 31.4716 29.3984 28.9834 29.3984C26.4952 29.3984 24.2811 31.015 23.6012 33.3299C23.527 33.5824 23.5762 33.8541 23.7337 34.0649C23.8912 34.2749 24.1387 34.3982 24.4011 34.3982H33.5674C33.8299 34.3982 34.0773 34.2749 34.2348 34.0649C34.3915 33.8541 34.4398 33.5824 34.3657 33.3299ZM18.9839 21.0663C16.9557 21.0663 15.1357 22.2888 14.4533 24.107C14.3574 24.3629 14.3933 24.6487 14.5491 24.8737C14.7049 25.0987 14.9608 25.2328 15.2341 25.2328H22.7337C23.007 25.2328 23.2629 25.0987 23.4187 24.8737C23.5745 24.6487 23.6095 24.3629 23.5145 24.107C22.8329 22.288 21.0121 21.0663 18.9839 21.0663Z" fill="#5B55C9"/>
<path d="M18.9839 20.233C20.5922 20.233 21.9004 18.9248 21.9004 17.3165C21.9004 15.7083 20.5922 14.4 18.9839 14.4C17.3756 14.4 16.0674 15.7083 16.0674 17.3165C16.0674 18.9248 17.3756 20.233 18.9839 20.233ZM28.9834 28.566C31.0508 28.566 32.7332 26.8836 32.7332 24.8162C32.7332 22.7488 31.0508 21.0663 28.9834 21.0663C26.916 21.0663 25.2336 22.7488 25.2336 24.8162C25.2336 26.8836 26.916 28.566 28.9834 28.566ZM34.3657 33.3299C33.6857 31.0159 31.4716 29.3984 28.9834 29.3984C26.4952 29.3984 24.2811 31.015 23.6012 33.3299C23.527 33.5824 23.5762 33.8541 23.7337 34.0649C23.8912 34.2749 24.1387 34.3982 24.4011 34.3982H33.5674C33.8299 34.3982 34.0773 34.2749 34.2348 34.0649C34.3915 33.8541 34.4398 33.5824 34.3657 33.3299ZM18.9839 21.0663C16.9557 21.0663 15.1357 22.2888 14.4533 24.107C14.3574 24.3629 14.3933 24.6487 14.5491 24.8737C14.7049 25.0987 14.9608 25.2328 15.2341 25.2328H22.7337C23.007 25.2328 23.2629 25.0987 23.4187 24.8737C23.5745 24.6487 23.6095 24.3629 23.5145 24.107C22.8329 22.288 21.0121 21.0663 18.9839 21.0663Z" fill="#C95589"/>
</g>
<defs>
<clipPath id="clip0_145_10227">
<rect width="20" height="19.9991" fill="white" transform="translate(14.4004 14.4)"/>
</clipPath>
</defs>
</svg>
