<svg width="40" height="40" viewBox="0 0 40 40" fill="none" xmlns="http://www.w3.org/2000/svg">
<rect width="40" height="40" rx="20" fill="#C95589" fill-opacity="0.05"/>
<g clip-path="url(#clip0_2005_1937)">
<path d="M20 12C15.5887 12 12 15.5887 12 20C12 24.4113 15.5887 28 20 28C24.4113 28 28 24.4113 28 20C28 15.5887 24.4113 12 20 12ZM22.356 21.0073L20.862 24.2447C20.7433 24.502 20.486 24.6667 20.2027 24.6667H20.0607C19.6593 24.6667 19.334 24.3413 19.334 23.94V22.3633C19.334 22.1307 19.2413 21.9073 19.0767 21.7427L18.2833 20.9493C18.102 20.768 18 20.522 18 20.266V19.624C18 19.438 17.926 19.2593 17.794 19.1273L17.5453 18.8787C17.4093 18.7427 17.2253 18.6667 17.0333 18.6667H15.734C15.478 18.6667 15.2333 18.562 15.0567 18.376L13.9513 17.214C15.0093 14.9273 17.3193 13.3333 20 13.3333C20.1373 13.3333 20.2713 13.346 20.406 13.354C20.0507 13.8927 19.7287 14.388 19.5333 14.6907C19.41 14.8807 19.4073 15.1227 19.524 15.3173L20.082 16.248C20.23 16.494 20.1907 16.8093 19.988 17.0127L19.986 17.0147C19.7953 17.2053 19.5047 17.2527 19.2633 17.132L18.6767 16.8387C18.472 16.736 18.2247 16.7767 18.0627 16.938L17.71 17.2907C17.502 17.4987 17.502 17.8353 17.71 18.0427L18.1047 18.4373C18.2513 18.584 18.4507 18.6667 18.658 18.6667H19.612C19.866 18.6667 20.1147 18.738 20.33 18.8727L22.038 19.94C22.3973 20.1647 22.534 20.622 22.356 21.0073ZM25.016 20.1733C24.7947 20.0633 24.6327 19.862 24.5727 19.622L24.1547 17.9507C24.0633 17.5853 24.2253 17.2033 24.5513 17.0153L25.6067 16.4067C26.2747 17.4447 26.6667 18.6767 26.6667 20C26.6667 20.3253 26.6353 20.642 26.59 20.9547L25.016 20.1733Z" fill="#C95589"/>
</g>
<defs>
<clipPath id="clip0_2005_1937">
<rect width="16" height="16" fill="white" transform="translate(12 12)"/>
</clipPath>
</defs>
</svg>
