<svg width="49" height="49" viewBox="0 0 49 49" fill="none" xmlns="http://www.w3.org/2000/svg">
<rect width="48.8" height="48.8" rx="24.4" fill="white" fill-opacity="0.05"/>
<g clip-path="url(#clip0_2039_3663)">
<path d="M34.3992 24.4C34.3992 23.045 33.8042 21.7666 32.7951 20.9633C32.9117 19.6116 32.4284 18.2874 31.4701 17.3283C30.5117 16.3708 29.1909 15.8858 27.9059 16.0324C26.2276 13.9024 22.6017 13.8624 20.9626 16.0033C18.2684 15.6833 15.6776 18.2199 16.0326 20.8933C13.9026 22.5716 13.8617 26.1975 16.0034 27.8375C15.8867 29.1891 16.3701 30.5133 17.3284 31.4725C18.2867 32.43 19.6092 32.915 20.8926 32.7683C22.5709 34.8983 26.1967 34.9383 27.8359 32.7975C29.1859 32.9133 30.5109 32.4316 31.4701 31.4725C32.4276 30.5141 32.9109 29.1891 32.7659 27.9083C33.8042 27.0349 34.3992 25.7566 34.3992 24.4016V24.4ZM21.0659 21.9C21.0709 20.8099 22.7276 20.8099 22.7326 21.9C22.7276 22.99 21.0709 22.99 21.0659 21.9ZM23.4259 27.3625C23.1692 27.7483 22.6484 27.8466 22.2701 27.5933C21.8867 27.3383 21.7834 26.8208 22.0392 26.4375L25.3726 21.4374C25.6276 21.0549 26.1442 20.95 26.5284 21.2066C26.9117 21.4616 27.0151 21.9791 26.7592 22.3625L23.4259 27.3625ZM26.8992 27.7333C25.8092 27.7283 25.8092 26.0716 26.8992 26.0666C27.9892 26.0716 27.9892 27.7283 26.8992 27.7333Z" fill="white"/>
</g>
<defs>
<clipPath id="clip0_2039_3663">
<rect width="20" height="20" fill="white" transform="translate(14.4004 14.4)"/>
</clipPath>
</defs>
</svg>
