<svg width="60" height="60" viewBox="0 0 60 60" fill="none" xmlns="http://www.w3.org/2000/svg">
<rect width="60" height="60" rx="30" fill="#C95589" fill-opacity="0.05"/>
<g clip-path="url(#clip0_2005_2563)">
<path d="M18 36C18 39.314 20.686 42 24 42C27.314 42 30 39.314 30 36C30 32.686 27.314 30 24 30C20.686 30 18 32.686 18 36ZM25.242 33.002L26.742 34.502C26.91 34.67 26.999 34.895 26.999 35.123C26.999 35.236 26.978 35.35 26.932 35.459C26.796 35.787 26.476 36 26.12 36H24.999V39C24.999 39.552 24.552 40 23.999 40C23.446 40 22.999 39.552 22.999 39V36H21.878C21.523 36 21.202 35.787 21.066 35.459C20.928 35.13 21.004 34.753 21.256 34.502L22.756 33.002C23.441 32.317 24.557 32.317 25.242 33.002ZM27 21.949C27 19.74 30.358 17.949 34.5 17.949C38.642 17.949 42 19.74 42 21.949C42 24.158 38.642 25.949 34.5 25.949C30.358 25.949 27 24.158 27 21.949ZM34.5 29.949C38.642 29.949 42 28.158 42 25.949V23.949C42 26.158 38.642 27.949 34.5 27.949C30.358 27.949 27 26.158 27 23.949V25.949C27 28.158 30.358 29.949 34.5 29.949ZM34.5 40C33.298 40 32.162 39.849 31.155 39.581C30.857 40.174 30.489 40.726 30.059 41.224C31.302 41.712 32.838 42.001 34.5 42.001C38.642 42.001 42 40.21 42 38.001V36.001C42 38.21 38.642 40 34.5 40ZM34.5 32C33.048 32 31.693 31.78 30.545 31.399C31.035 32.094 31.416 32.87 31.665 33.704C32.54 33.895 33.497 34 34.5 34C38.642 34 42 32.209 42 30V28C42 30.209 38.642 32 34.5 32ZM34.5 36C33.622 36 32.78 35.919 31.997 35.771C31.999 35.847 32 35.923 32 36C32 36.596 31.934 37.176 31.811 37.735C32.646 37.906 33.552 38 34.5 38C38.642 38 42 36.209 42 34V32C42 34.209 38.642 36 34.5 36Z" fill="#5B55C9"/>
<path d="M27 21.9492C27 19.7402 30.358 17.9492 34.5 17.9492C38.642 17.9492 42 19.7402 42 21.9492C42 24.1582 38.642 25.9492 34.5 25.9492C30.358 25.9492 27 24.1582 27 21.9492ZM34.5 29.9492C38.642 29.9492 42 28.1582 42 25.9492V23.9492C42 26.1582 38.642 27.9492 34.5 27.9492C30.358 27.9492 27 26.1582 27 23.9492V25.9492C27 28.1582 30.358 29.9492 34.5 29.9492ZM34.5 40.0002C33.298 40.0002 32.162 39.8492 31.155 39.5812C30.857 40.1742 30.489 40.7262 30.059 41.2242C31.302 41.7122 32.838 42.0012 34.5 42.0012C38.642 42.0012 42 40.2102 42 38.0012V36.0012C42 38.2102 38.642 40.0002 34.5 40.0002ZM34.5 32.0002C33.048 32.0002 31.693 31.7802 30.545 31.3992C31.035 32.0942 31.416 32.8702 31.665 33.7042C32.54 33.8952 33.497 34.0002 34.5 34.0002C38.642 34.0002 42 32.2092 42 30.0002V28.0002C42 30.2092 38.642 32.0002 34.5 32.0002ZM34.5 36.0002C33.622 36.0002 32.78 35.9192 31.997 35.7712C31.999 35.8472 32 35.9232 32 36.0002C32 36.5962 31.934 37.1762 31.811 37.7352C32.646 37.9062 33.552 38.0002 34.5 38.0002C38.642 38.0002 42 36.2092 42 34.0002V32.0002C42 34.2092 38.642 36.0002 34.5 36.0002Z" fill="#C95589"/>
</g>
<defs>
<clipPath id="clip0_2005_2563">
<rect width="24" height="24" fill="white" transform="translate(18 18)"/>
</clipPath>
</defs>
</svg>
