<svg width="60" height="60" viewBox="0 0 60 60" fill="none" xmlns="http://www.w3.org/2000/svg">
<rect width="60" height="60" rx="30" fill="#C95589" fill-opacity="0.05"/>
<g clip-path="url(#clip0_2005_1582)">
<path d="M27.5 20.5C27.5 19.119 28.619 18 30 18C31.381 18 32.5 19.119 32.5 20.5C32.5 21.881 31.381 23 30 23C28.619 23 27.5 21.881 27.5 20.5ZM28.329 28.274L29.193 29.069C29.649 29.489 30.351 29.489 30.807 29.069L31.641 28.302C32.31 27.703 33.124 27.315 33.979 27.132L33.991 27.112C33.578 25.33 31.948 24 30 24C28.052 24 26.423 25.33 26.009 27.111L26.021 27.13C26.852 27.303 27.652 27.669 28.329 28.274ZM30.11 32.809C31.316 33.943 32 35.525 32 37.18V41C32 41.552 31.552 42 31 42H23.521C23.017 42 22.531 41.81 22.161 41.467L20.369 39.692C18.853 38.19 18 36.144 18 34.009V23.462C18 21.996 19.261 20.825 20.758 20.975C22.059 21.105 23 22.297 23 23.605V29.449C22.849 29.626 22.707 29.812 22.583 30.017C21.677 31.52 21.839 33.482 22.961 34.865L24.749 37.169C25.088 37.605 25.716 37.684 26.152 37.346C26.588 37.007 26.667 36.379 26.329 35.943L24.541 33.639C23.946 32.905 23.808 31.859 24.296 31.05C25.048 29.804 26.701 29.618 27.708 30.552L30.11 32.81V32.809ZM42 23.462V34.01C42 36.145 41.146 38.192 39.629 39.695L37.839 41.467C37.469 41.81 36.984 42 36.479 42H33.815C33.927 41.686 33.999 41.352 33.999 41V37.888L37.037 34.864C38.159 33.481 38.322 31.519 37.415 30.016C37.292 29.812 37.149 29.625 36.998 29.448V23.604C36.998 22.296 37.939 21.105 39.24 20.974C40.736 20.824 41.998 21.995 41.998 23.461L42 23.462ZM35.458 33.638L33.763 35.32C33.401 33.816 32.62 32.425 31.48 31.352L31.46 31.333L32.292 30.551C33.299 29.617 34.952 29.803 35.704 31.049C36.192 31.859 36.053 32.904 35.458 33.638Z" fill="#5B55C9"/>
<path d="M30.11 32.809C31.316 33.943 32 35.525 32 37.18V41C32 41.552 31.552 42 31 42H23.521C23.017 42 22.531 41.81 22.161 41.467L20.369 39.692C18.853 38.19 18 36.144 18 34.009V23.462C18 21.996 19.261 20.825 20.758 20.975C22.059 21.105 23 22.297 23 23.605V29.449C22.849 29.626 22.707 29.812 22.583 30.017C21.677 31.52 21.839 33.482 22.961 34.865L24.749 37.169C25.088 37.605 25.716 37.684 26.152 37.346C26.588 37.007 26.667 36.379 26.329 35.943L24.541 33.639C23.946 32.905 23.808 31.859 24.296 31.05C25.048 29.804 26.701 29.618 27.708 30.552L30.11 32.81V32.809ZM42 23.462V34.01C42 36.145 41.146 38.192 39.629 39.695L37.839 41.467C37.469 41.81 36.984 42 36.479 42H33.815C33.927 41.686 33.999 41.352 33.999 41V37.888L37.037 34.864C38.159 33.481 38.322 31.519 37.415 30.016C37.292 29.812 37.149 29.625 36.998 29.448V23.604C36.998 22.296 37.939 21.105 39.24 20.974C40.736 20.824 41.998 21.995 41.998 23.461L42 23.462ZM35.458 33.638L33.763 35.32C33.401 33.816 32.62 32.425 31.48 31.352L31.46 31.333L32.292 30.551C33.299 29.617 34.952 29.803 35.704 31.049C36.192 31.859 36.053 32.904 35.458 33.638Z" fill="#C95589"/>
</g>
<defs>
<clipPath id="clip0_2005_1582">
<rect width="24" height="24" fill="white" transform="translate(18 18)"/>
</clipPath>
</defs>
</svg>
