<svg width="20" height="20" viewBox="0 0 20 20" fill="none" xmlns="http://www.w3.org/2000/svg">
<path d="M10.0013 17.5C6.78113 17.4963 4.17164 14.8868 4.16797 11.6667V4.16669C4.16797 4.00001 4.17879 3.83337 4.19297 3.67337C2.66297 4.33064 1.67047 5.83482 1.66797 7.50001V15.8333C1.6707 18.1334 3.53457 19.9973 5.83461 20H10.8346C12.4998 19.9975 14.004 19.005 14.6613 17.475C14.4946 17.4892 14.3346 17.5 14.168 17.5H10.0013Z" fill="#293266"/>
<path d="M17.6292 2.72668L15.7259 0.760859C15.5163 0.548633 15.2705 0.375625 15 0.25V3.33332H18.05C17.9407 3.11133 17.7988 2.90684 17.6292 2.72668Z" fill="#293266"/>
<path d="M14.168 3.33332C14.168 3.79355 14.5411 4.16664 15.0013 4.16664H18.3063C18.2449 3.62555 18.0075 3.11957 17.6305 2.72664L15.7271 0.760819C15.3108 0.338788 14.7584 0.0778113 14.168 0.0241394V3.33332Z" fill="#293266"/>
<path d="M12.5026 3.33332V0H10.0026C7.70258 0.00277344 5.83871 1.86664 5.83594 4.16668V11.6667C5.83871 13.9667 7.70258 15.8306 10.0026 15.8334H14.1693C16.4693 15.8306 18.3332 13.9667 18.336 11.6667V5.83332H15.0026C13.6219 5.83332 12.5026 4.71406 12.5026 3.33332Z" fill="#293266"/>
</svg>
