<svg width="60" height="60" viewBox="0 0 60 60" fill="none" xmlns="http://www.w3.org/2000/svg">
<rect width="60" height="60" rx="30" fill="#C95589" fill-opacity="0.05"/>
<g clip-path="url(#clip0_2003_2705)">
<path d="M24.365 21.773C23.339 20.747 21.66 20.747 20.634 21.773L18.685 23.722C18.246 24.161 18 24.756 18 25.376V36.999C18 39.76 20.239 41.999 23 41.999H27V25.377C27 24.756 26.753 24.161 26.314 23.722L24.365 21.773ZM23 37H22C21.448 37 21 36.552 21 36C21 35.448 21.448 35 22 35H23C23.552 35 24 35.448 24 36C24 36.552 23.552 37 23 37ZM23 33H22C21.448 33 21 32.552 21 32C21 31.448 21.448 31 22 31H23C23.552 31 24 31.448 24 32C24 32.552 23.552 33 23 33ZM23 29H22C21.448 29 21 28.552 21 28C21 27.448 21.448 27 22 27H23C23.552 27 24 27.448 24 28C24 28.552 23.552 29 23 29Z" fill="#5B55C9"/>
<path d="M37 18H34C31.239 18 29 20.239 29 23V42H37C39.761 42 42 39.761 42 37V23C42 20.239 39.761 18 37 18ZM34 37H33C32.448 37 32 36.552 32 36C32 35.448 32.448 35 33 35H34C34.552 35 35 35.448 35 36C35 36.552 34.552 37 34 37ZM34 33H33C32.448 33 32 32.552 32 32C32 31.448 32.448 31 33 31H34C34.552 31 35 31.448 35 32C35 32.552 34.552 33 34 33ZM34 29H33C32.448 29 32 28.552 32 28C32 27.448 32.448 27 33 27H34C34.552 27 35 27.448 35 28C35 28.552 34.552 29 34 29ZM34 25H33C32.448 25 32 24.552 32 24C32 23.448 32.448 23 33 23H34C34.552 23 35 23.448 35 24C35 24.552 34.552 25 34 25ZM38 37H37C36.448 37 36 36.552 36 36C36 35.448 36.448 35 37 35H38C38.552 35 39 35.448 39 36C39 36.552 38.552 37 38 37ZM38 33H37C36.448 33 36 32.552 36 32C36 31.448 36.448 31 37 31H38C38.552 31 39 31.448 39 32C39 32.552 38.552 33 38 33ZM38 29H37C36.448 29 36 28.552 36 28C36 27.448 36.448 27 37 27H38C38.552 27 39 27.448 39 28C39 28.552 38.552 29 38 29ZM38 25H37C36.448 25 36 24.552 36 24C36 23.448 36.448 23 37 23H38C38.552 23 39 23.448 39 24C39 24.552 38.552 25 38 25Z" fill="#C95589"/>
</g>
<defs>
<clipPath id="clip0_2003_2705">
<rect width="24" height="24" fill="white" transform="translate(18 18)"/>
</clipPath>
</defs>
</svg>
