<svg width="60" height="60" viewBox="0 0 60 60" fill="none" xmlns="http://www.w3.org/2000/svg">
<rect width="60" height="60" rx="30" fill="#C95589" fill-opacity="0.05"/>
<path d="M30.0001 30C26.6911 30 24.0001 27.309 24.0001 24C24.0001 20.691 26.6911 18 30.0001 18C33.3091 18 36.0001 20.691 36.0001 24C36.0001 27.309 33.3091 30 30.0001 30ZM30.0001 32C24.8971 32 20.6251 35.822 20.0641 40.89C20.0331 41.173 20.1241 41.455 20.3131 41.667C20.5031 41.879 20.7741 42 21.0581 42H23.9991C23.9991 38.691 26.6901 36 29.9991 36C33.3081 36 35.9991 38.691 35.9991 42H38.9401C39.2241 42 39.4951 41.879 39.6851 41.667C39.8741 41.455 39.9651 41.173 39.9341 40.89C39.3731 35.822 35.1011 32 29.9981 32H30.0001ZM30.0001 38C27.7941 38 26.0001 39.794 26.0001 42H34.0001C34.0001 39.794 32.2061 38 30.0001 38Z" fill="#5B55C9"/>
<path d="M30.0001 30C26.6911 30 24.0001 27.309 24.0001 24C24.0001 20.691 26.6911 18 30.0001 18C33.3091 18 36.0001 20.691 36.0001 24C36.0001 27.309 33.3091 30 30.0001 30ZM30.0001 32C24.8971 32 20.6251 35.822 20.0641 40.89C20.0331 41.173 20.1241 41.455 20.3131 41.667C20.5031 41.879 20.7741 42 21.0581 42H23.9991C23.9991 38.691 26.6901 36 29.9991 36C33.3081 36 35.9991 38.691 35.9991 42H38.9401C39.2241 42 39.4951 41.879 39.6851 41.667C39.8741 41.455 39.9651 41.173 39.9341 40.89C39.3731 35.822 35.1011 32 29.9981 32H30.0001Z" fill="#C95589"/>
</svg>
