<svg width="60" height="60" viewBox="0 0 60 60" fill="none" xmlns="http://www.w3.org/2000/svg">
<rect width="60" height="60" rx="30" fill="#C95589" fill-opacity="0.05"/>
<g clip-path="url(#clip0_2005_1136)">
<path d="M42 36.664V37C42 38.214 40.918 39.176 39.665 38.973C38.681 38.813 38 37.89 38 36.894V36.664L38.854 34.244L37 33.896V40.001H39C39.552 40.001 40 40.448 40 41.001C40 41.554 39.552 42.001 39 42.001H33C32.448 42.001 32 41.554 32 41.001C32 40.448 32.448 40.001 33 40.001H35V33.521L33.248 33.193L34.109 35.599V36.174H34.096C33.967 37.336 32.87 38.206 31.63 37.957C30.66 37.763 30 36.845 30 35.856V35.612L31.06 32.233C31.311 31.432 32.121 30.945 32.946 31.098L35 31.479V30.999C35 30.446 35.448 29.999 36 29.999C36.552 29.999 37 30.446 37 30.999V31.85L39.41 32.297C40.085 32.422 40.643 32.896 40.875 33.542L41.999 36.663L42 36.664ZM27 30C30.309 30 33 27.309 33 24C33 20.691 30.309 18 27 18C23.691 18 21 20.691 21 24C21 27.309 23.691 30 27 30ZM28 35.855V35.305L28.964 32.232C28.33 32.089 27.676 32 27 32C22.043 32 18.009 36.028 18 40.983C17.999 41.54 18.443 42 19 42H30.184C30.072 41.686 30 41.352 30 41C30 40.497 30.136 40.03 30.356 39.613C28.954 38.955 28 37.505 28 35.855Z" fill="#5B55C9"/>
<path d="M27 30C30.309 30 33 27.309 33 24C33 20.691 30.309 18 27 18C23.691 18 21 20.691 21 24C21 27.309 23.691 30 27 30ZM28 35.855V35.305L28.964 32.232C28.33 32.089 27.676 32 27 32C22.043 32 18.009 36.028 18 40.983C17.999 41.54 18.443 42 19 42H30.184C30.072 41.686 30 41.352 30 41C30 40.497 30.136 40.03 30.356 39.613C28.954 38.955 28 37.505 28 35.855Z" fill="#C95589"/>
</g>
<defs>
<clipPath id="clip0_2005_1136">
<rect width="24" height="24" fill="white" transform="translate(18 18)"/>
</clipPath>
</defs>
</svg>
