<svg width="20" height="20" viewBox="0 0 20 20" fill="none" xmlns="http://www.w3.org/2000/svg">
<g clip-path="url(#clip0_2015_2709)">
<g clip-path="url(#clip1_2015_2709)">
<path d="M0 10C0 4.47715 4.47715 0 10 0C15.5228 0 20 4.47715 20 10C20 15.5228 15.5228 20 10 20C4.47715 20 0 15.5228 0 10Z" fill="#345D9D"/>
<path fill-rule="evenodd" clip-rule="evenodd" d="M9.26823 13.9539L10.2398 10.6778L11.7537 10.2484L12.0699 9.16393L10.5787 9.61585L12.1603 4.23843V4.15257C12.158 4.08304 12.1281 4.01731 12.0771 3.96984C12.0263 3.92238 11.9587 3.89708 11.8891 3.89952H9.87832C9.72165 3.89468 9.5819 3.99719 9.5394 4.14805L7.6641 10.5196L6.17289 10.9714L5.83398 12.0108L7.32519 11.5589L5.99214 16.1004H13.9452C14.1024 16.1069 14.2431 16.0036 14.2841 15.8518L14.736 14.2928V14.2069C14.7336 14.1374 14.7037 14.0717 14.6529 14.0242C14.6021 13.9768 14.5344 13.9514 14.4649 13.9539H9.26823Z" fill="white"/>
</g>
</g>
<defs>
<clipPath id="clip0_2015_2709">
<rect width="20" height="20" fill="white"/>
</clipPath>
<clipPath id="clip1_2015_2709">
<rect width="20.8333" height="20" fill="white" transform="translate(-0.833984)"/>
</clipPath>
</defs>
</svg>
