<svg width="60" height="60" viewBox="0 0 60 60" fill="none" xmlns="http://www.w3.org/2000/svg">
<rect width="60" height="60" rx="30" fill="#C95589" fill-opacity="0.05"/>
<g clip-path="url(#clip0_2005_951)">
<path d="M34.0002 37.001C34.0002 38.655 32.6543 40.001 31.0002 40.001V41.001C31.0002 41.553 30.5532 42.001 30.0002 42.001C29.4473 42.001 29.0002 41.553 29.0002 41.001V40.001H28.7323C27.6652 40.001 26.6692 39.427 26.1342 38.502C25.8572 38.024 26.0212 37.413 26.4983 37.136C26.9773 36.858 27.5883 37.023 27.8643 37.501C28.0433 37.809 28.3752 38.001 28.7312 38.001H30.9992C31.5512 38.001 31.9992 37.553 31.9992 37.001C31.9992 36.623 31.7282 36.303 31.3552 36.241L28.3142 35.734C26.9722 35.511 25.9992 34.361 25.9992 33.001C25.9992 31.347 27.3452 30.001 28.9992 30.001V29.001C28.9992 28.449 29.4462 28.001 29.9992 28.001C30.5522 28.001 30.9992 28.449 30.9992 29.001V30.001H31.2673C32.3343 30.001 33.3302 30.575 33.8652 31.5C34.1423 31.978 33.9783 32.589 33.5013 32.866C33.0213 33.142 32.4102 32.978 32.1353 32.501C31.9563 32.193 31.6242 32.001 31.2682 32.001H29.0002C28.4482 32.001 28.0002 32.449 28.0002 33.001C28.0002 33.379 28.2712 33.699 28.6442 33.761L31.6853 34.268C33.0273 34.491 34.0002 35.641 34.0002 37.001ZM41.7073 28.88L39.4142 26.587C38.6353 25.807 37.3652 25.807 36.5863 26.587L34.2932 28.88C33.9022 29.271 33.9022 29.903 34.2932 30.294C34.6842 30.685 35.3162 30.685 35.7073 30.294L37.0002 29.001V41.001C37.0002 41.553 37.4473 42.001 38.0002 42.001C38.5532 42.001 39.0002 41.553 39.0002 41.001V29.001L40.2932 30.294C40.4882 30.489 40.7442 30.587 41.0002 30.587C41.2563 30.587 41.5123 30.489 41.7073 30.294C42.0983 29.903 42.0983 29.271 41.7073 28.88ZM27.7072 22.294L29.0002 21.001V25.001C29.0002 25.553 29.4473 26.001 30.0002 26.001C30.5532 26.001 31.0002 25.553 31.0002 25.001V21.001L32.2933 22.294C32.4882 22.489 32.7443 22.587 33.0002 22.587C33.2562 22.587 33.5122 22.489 33.7072 22.294C34.0982 21.903 34.0982 21.271 33.7072 20.88L31.4142 18.587C30.6352 17.807 29.3653 17.807 28.5863 18.587L26.2933 20.88C25.9023 21.271 25.9023 21.903 26.2933 22.294C26.6842 22.685 27.3162 22.685 27.7072 22.294ZM25.7072 25.88L23.4142 23.587C22.6353 22.807 21.3653 22.807 20.5863 23.587L18.2932 25.88C17.9022 26.271 17.9022 26.903 18.2932 27.294C18.6842 27.685 19.3162 27.685 19.7072 27.294L21.0003 26.001V41.001C21.0003 41.553 21.4472 42.001 22.0002 42.001C22.5532 42.001 23.0002 41.553 23.0002 41.001V26.001L24.2933 27.294C24.4883 27.489 24.7442 27.587 25.0002 27.587C25.2562 27.587 25.5122 27.489 25.7072 27.294C26.0982 26.903 26.0982 26.271 25.7072 25.88Z" fill="#C95589"/>
<path d="M34.0003 37.001C34.0003 38.655 32.6543 40.001 31.0003 40.001V41.001C31.0003 41.553 30.5533 42.001 30.0003 42.001C29.4473 42.001 29.0003 41.553 29.0003 41.001V40.001H28.7323C27.6653 40.001 26.6693 39.427 26.1343 38.502C25.8573 38.024 26.0213 37.413 26.4983 37.136C26.9773 36.858 27.5883 37.023 27.8643 37.501C28.0433 37.809 28.3753 38.001 28.7313 38.001H30.9993C31.5513 38.001 31.9993 37.553 31.9993 37.001C31.9993 36.623 31.7283 36.303 31.3553 36.241L28.3143 35.734C26.9723 35.511 25.9993 34.361 25.9993 33.001C25.9993 31.347 27.3453 30.001 28.9993 30.001V29.001C28.9993 28.449 29.4463 28.001 29.9993 28.001C30.5523 28.001 30.9993 28.449 30.9993 29.001V30.001H31.2673C32.3343 30.001 33.3303 30.575 33.8653 31.5C34.1423 31.978 33.9783 32.589 33.5013 32.866C33.0213 33.142 32.4103 32.978 32.1353 32.501C31.9563 32.193 31.6243 32.001 31.2683 32.001H29.0003C28.4483 32.001 28.0003 32.449 28.0003 33.001C28.0003 33.379 28.2713 33.699 28.6443 33.761L31.6853 34.268C33.0273 34.491 34.0003 35.641 34.0003 37.001Z" fill="#5B55C9"/>
</g>
<defs>
<clipPath id="clip0_2005_951">
<rect width="24" height="24" fill="white" transform="translate(18 18)"/>
</clipPath>
</defs>
</svg>
