<svg width="12" height="12" viewBox="0 0 12 12" fill="none" xmlns="http://www.w3.org/2000/svg">
<g clip-path="url(#clip0_2005_1192)">
<path d="M6.64586 1.14597C6.59937 1.19241 6.56249 1.24755 6.53733 1.30825C6.51217 1.36895 6.49921 1.43402 6.49921 1.49972C6.49921 1.56543 6.51217 1.63049 6.53733 1.69119C6.56249 1.75189 6.59937 1.80704 6.64586 1.85347L10.2927 5.49972L0.499609 5.49972C0.367001 5.49972 0.239824 5.5524 0.146055 5.64617C0.0522873 5.73994 -0.000390782 5.86711 -0.000390788 5.99972C-0.000390794 6.13233 0.0522873 6.25951 0.146055 6.35328C0.239824 6.44704 0.367001 6.49972 0.499609 6.49972L10.2927 6.49972L6.64586 10.146C6.55204 10.2398 6.49933 10.367 6.49933 10.4997C6.49933 10.6324 6.55204 10.7597 6.64586 10.8535C6.73968 10.9473 6.86693 11 6.99961 11C7.13229 11 7.25954 10.9473 7.35336 10.8535L11.8534 6.35347C11.8998 6.30704 11.9367 6.25189 11.9619 6.19119C11.987 6.13049 12 6.06543 12 5.99972C12 5.93401 11.987 5.86895 11.9619 5.80825C11.9367 5.74755 11.8998 5.69241 11.8534 5.64597L7.35336 1.14597C7.30692 1.09948 7.25178 1.0626 7.19108 1.03744C7.13038 1.01228 7.06532 0.999329 6.99961 0.999329C6.9339 0.999329 6.86884 1.01228 6.80814 1.03744C6.74744 1.0626 6.69229 1.09948 6.64586 1.14597Z" fill="white"/>
</g>
<defs>
<clipPath id="clip0_2005_1192">
<rect width="12" height="12" fill="white" transform="matrix(4.37114e-08 -1 -1 -4.37114e-08 12 12)"/>
</clipPath>
</defs>
</svg>
