<svg width="60" height="60" viewBox="0 0 60 60" fill="none" xmlns="http://www.w3.org/2000/svg">
<rect width="60" height="60" rx="30" fill="#C95589" fill-opacity="0.05"/>
<g clip-path="url(#clip0_2005_3058)">
<path d="M35 22.5C35 21.119 36.119 20 37.5 20C38.881 20 40 21.119 40 22.5C40 23.881 38.881 25 37.5 25C36.119 25 35 23.881 35 22.5ZM28 26C28 24.895 27.105 24 26 24C24.895 24 24 24.895 24 26C24 27.105 24.895 28 26 28C27.105 28 28 27.105 28 26ZM31.5 30C31.5 29.172 30.828 28.5 30 28.5C29.172 28.5 28.5 29.172 28.5 30C28.5 30.828 29.172 31.5 30 31.5C30.828 31.5 31.5 30.828 31.5 30ZM41.548 26.728C41.398 26.196 40.841 25.886 40.314 26.039C39.783 26.189 39.474 26.741 39.625 27.273C39.874 28.156 40.001 29.074 40.001 30.001C40.001 35.515 35.515 40.001 30.001 40.001C24.487 40.001 20 35.514 20 30C20 24.486 24.486 20 30 20C30.927 20 31.845 20.127 32.728 20.376C33.258 20.527 33.812 20.219 33.962 19.687C34.112 19.155 33.804 18.603 33.273 18.453C32.212 18.153 31.112 18.001 30.001 18.001C23.383 18 18 23.383 18 30C18 36.617 23.383 42 30 42C36.617 42 42 36.617 42 30C42 28.889 41.848 27.788 41.548 26.728ZM29 24C29 24.553 29.447 25 30 25C32.757 25 35 27.243 35 30C35 32.757 32.757 35 30 35C27.243 35 25 32.757 25 30C25 29.447 24.553 29 24 29C23.447 29 23 29.447 23 30C23 33.859 26.141 37 30 37C33.859 37 37 33.859 37 30C37 26.141 33.859 23 30 23C29.447 23 29 23.447 29 24Z" fill="#5B55C9"/>
<path d="M41.548 26.728C41.398 26.196 40.841 25.886 40.314 26.039C39.783 26.189 39.474 26.741 39.625 27.273C39.874 28.156 40.001 29.074 40.001 30.001C40.001 35.515 35.515 40.001 30.001 40.001C24.487 40.001 20 35.514 20 30C20 24.486 24.486 20 30 20C30.927 20 31.845 20.127 32.728 20.376C33.258 20.527 33.812 20.219 33.962 19.687C34.112 19.155 33.804 18.603 33.273 18.453C32.212 18.153 31.112 18.001 30.001 18.001C23.383 18 18 23.383 18 30C18 36.617 23.383 42 30 42C36.617 42 42 36.617 42 30C42 28.889 41.848 27.788 41.548 26.728ZM29 24C29 24.553 29.447 25 30 25C32.757 25 35 27.243 35 30C35 32.757 32.757 35 30 35C27.243 35 25 32.757 25 30C25 29.447 24.553 29 24 29C23.447 29 23 29.447 23 30C23 33.859 26.141 37 30 37C33.859 37 37 33.859 37 30C37 26.141 33.859 23 30 23C29.447 23 29 23.447 29 24Z" fill="#C95589"/>
</g>
<defs>
<clipPath id="clip0_2005_3058">
<rect width="24" height="24" fill="white" transform="translate(18 18)"/>
</clipPath>
</defs>
</svg>
