<svg width="60" height="60" viewBox="0 0 60 60" fill="none" xmlns="http://www.w3.org/2000/svg">
<rect width="60" height="60" rx="30" fill="#C95589" fill-opacity="0.05"/>
<g clip-path="url(#clip0_2005_1668)">
<path d="M36 30C32.686 30 30 32.686 30 36C30 39.314 32.686 42 36 42C39.314 42 42 39.314 42 36C42 32.686 39.314 30 36 30ZM39.683 35.712L36.98 38.326C36.528 38.772 35.928 38.997 35.327 38.997C34.726 38.997 34.124 38.772 33.664 38.323L32.31 36.991C31.915 36.604 31.91 35.971 32.296 35.577C32.682 35.182 33.315 35.176 33.71 35.563L35.064 36.894C35.208 37.036 35.444 37.033 35.586 36.892L38.299 34.268C38.696 33.887 39.33 33.898 39.713 34.297C40.095 34.695 40.082 35.328 39.684 35.711L39.683 35.712ZM28 36C27.448 36 27 35.553 27 35V33C27 32.447 27.448 32 28 32C28.355 32 28.652 32.196 28.83 32.474C30.136 29.828 32.855 28 36 28C36.352 28 36.696 28.031 37.037 28.075C36.516 27.361 35.819 26.783 35 26.424V25C35 21.14 31.86 18 28 18C24.14 18 21 21.14 21 25V26.424C19.237 27.198 18 28.955 18 31V37C18 39.757 20.243 42 23 42H30.726C29.059 40.533 28 38.39 28 36ZM23 25C23 22.243 25.243 20 28 20C30.757 20 33 22.243 33 25V26H23V25Z" fill="#5B55C9"/>
<path d="M28 36C27.448 36 27 35.553 27 35V33C27 32.447 27.448 32 28 32C28.355 32 28.652 32.196 28.83 32.474C30.136 29.828 32.855 28 36 28C36.352 28 36.696 28.031 37.037 28.075C36.516 27.361 35.819 26.783 35 26.424V25C35 21.14 31.86 18 28 18C24.14 18 21 21.14 21 25V26.424C19.237 27.198 18 28.955 18 31V37C18 39.757 20.243 42 23 42H30.726C29.059 40.533 28 38.39 28 36ZM23 25C23 22.243 25.243 20 28 20C30.757 20 33 22.243 33 25V26H23V25Z" fill="#C95589"/>
</g>
<defs>
<clipPath id="clip0_2005_1668">
<rect width="24" height="24" fill="white" transform="translate(18 18)"/>
</clipPath>
</defs>
</svg>
