<svg width="60" height="60" viewBox="0 0 60 60" fill="none" xmlns="http://www.w3.org/2000/svg">
<rect width="60" height="60" rx="30" fill="#C95589" fill-opacity="0.05"/>
<g clip-path="url(#clip0_2005_3603)">
<path d="M23.57 28.283L23.564 28.287C23.334 28.443 23.033 28.441 22.805 28.282L21.496 27.37L20.191 28.282C19.961 28.442 19.656 28.443 19.426 28.284C19.183 28.116 19.079 27.81 19.169 27.529L19.634 26.073L18.415 25.224C18.187 25.065 18.081 24.783 18.147 24.514L18.152 24.494C18.226 24.195 18.494 23.984 18.803 23.984H20.398L20.769 22.563C20.856 22.231 21.156 21.999 21.5 21.999C21.844 21.999 22.144 22.231 22.231 22.564L22.602 23.985H24.187C24.494 23.985 24.762 24.194 24.837 24.492L24.841 24.506C24.908 24.776 24.803 25.059 24.575 25.218L23.354 26.071L23.83 27.518C23.924 27.802 23.817 28.114 23.57 28.282V28.283ZM40.83 27.519L40.354 26.072L41.575 25.219C41.803 25.06 41.909 24.777 41.841 24.507L41.837 24.493C41.762 24.195 41.494 23.986 41.187 23.986H39.602L39.231 22.565C39.144 22.232 38.844 22 38.5 22C38.156 22 37.856 22.232 37.769 22.564L37.398 23.985H35.803C35.495 23.985 35.226 24.195 35.152 24.495L35.147 24.515C35.081 24.784 35.187 25.067 35.415 25.225L36.634 26.074L36.169 27.53C36.079 27.811 36.184 28.117 36.426 28.285C36.656 28.444 36.961 28.444 37.191 28.283L38.496 27.371L39.805 28.283C40.033 28.441 40.334 28.443 40.564 28.288L40.57 28.284C40.818 28.116 40.924 27.804 40.83 27.52V27.519ZM32.33 23.519L31.854 22.072L33.075 21.219C33.303 21.06 33.409 20.777 33.341 20.507L33.337 20.493C33.262 20.195 32.994 19.986 32.687 19.986H31.102L30.731 18.565C30.644 18.232 30.344 18 30 18C29.656 18 29.356 18.232 29.269 18.564L28.898 19.985H27.303C26.995 19.985 26.726 20.195 26.652 20.495L26.647 20.515C26.581 20.784 26.687 21.067 26.915 21.225L28.134 22.074L27.669 23.53C27.579 23.811 27.684 24.117 27.926 24.285C28.156 24.444 28.461 24.444 28.691 24.283L29.996 23.371L31.305 24.283C31.533 24.441 31.834 24.443 32.064 24.288L32.07 24.284C32.318 24.116 32.424 23.803 32.33 23.519ZM40.999 31C40.999 37.075 36.074 42 29.999 42C23.924 42 19 37.075 19 31C19 30.801 19.019 30.606 19.03 30.409C19.773 30.784 20.611 31 21.5 31C24.339 31 26.675 28.848 26.968 26.087C27.838 26.663 28.879 27 30 27C31.121 27 32.163 26.663 33.032 26.087C33.325 28.848 35.661 31 38.5 31C39.389 31 40.227 30.784 40.97 30.409C40.98 30.606 40.999 30.8 40.999 31ZM33.999 36C33.999 34.939 33.446 34.006 32.613 33.472C32.859 33.037 32.999 32.534 32.999 32C32.999 30.346 31.653 29 29.999 29H28.999C27.896 29 26.999 29.897 26.999 31V37C26.999 38.103 27.896 39 28.999 39H30.999C32.653 39 33.999 37.654 33.999 36ZM30.999 35H28.999V37H30.999C31.55 37 31.999 36.552 31.999 36C31.999 35.448 31.55 35 30.999 35ZM30.999 32C30.999 31.448 30.55 31 29.999 31H28.999V33H29.999C30.55 33 30.999 32.552 30.999 32Z" fill="#C95589"/>
<path d="M23.57 28.283L23.564 28.287C23.334 28.443 23.033 28.441 22.805 28.282L21.496 27.37L20.191 28.282C19.961 28.442 19.656 28.443 19.426 28.284C19.183 28.116 19.079 27.81 19.169 27.529L19.634 26.073L18.415 25.224C18.187 25.065 18.081 24.783 18.147 24.514L18.152 24.494C18.226 24.195 18.494 23.984 18.803 23.984H20.398L20.769 22.563C20.856 22.231 21.156 21.999 21.5 21.999C21.844 21.999 22.144 22.231 22.231 22.564L22.602 23.985H24.187C24.494 23.985 24.762 24.194 24.837 24.492L24.841 24.506C24.908 24.776 24.803 25.059 24.575 25.218L23.354 26.071L23.83 27.518C23.924 27.802 23.817 28.114 23.57 28.282V28.283ZM40.83 27.519L40.354 26.072L41.575 25.219C41.803 25.06 41.909 24.777 41.841 24.507L41.837 24.493C41.762 24.195 41.494 23.986 41.187 23.986H39.602L39.231 22.565C39.144 22.232 38.844 22 38.5 22C38.156 22 37.856 22.232 37.769 22.564L37.398 23.985H35.803C35.495 23.985 35.226 24.195 35.152 24.495L35.147 24.515C35.081 24.784 35.187 25.067 35.415 25.225L36.634 26.074L36.169 27.53C36.079 27.811 36.184 28.117 36.426 28.285C36.656 28.444 36.961 28.444 37.191 28.283L38.496 27.371L39.805 28.283C40.033 28.441 40.334 28.443 40.564 28.288L40.57 28.284C40.818 28.116 40.924 27.804 40.83 27.52V27.519ZM32.33 23.519L31.854 22.072L33.075 21.219C33.303 21.06 33.409 20.777 33.341 20.507L33.337 20.493C33.262 20.195 32.994 19.986 32.687 19.986H31.102L30.731 18.565C30.644 18.232 30.344 18 30 18C29.656 18 29.356 18.232 29.269 18.564L28.898 19.985H27.303C26.995 19.985 26.726 20.195 26.652 20.495L26.647 20.515C26.581 20.784 26.687 21.067 26.915 21.225L28.134 22.074L27.669 23.53C27.579 23.811 27.684 24.117 27.926 24.285C28.156 24.444 28.461 24.444 28.691 24.283L29.996 23.371L31.305 24.283C31.533 24.441 31.834 24.443 32.064 24.288L32.07 24.284C32.318 24.116 32.424 23.803 32.33 23.519Z" fill="#5B55C9"/>
</g>
<defs>
<clipPath id="clip0_2005_3603">
<rect width="24" height="24" fill="white" transform="translate(18 18)"/>
</clipPath>
</defs>
</svg>
