<svg width="40" height="40" viewBox="0 0 40 40" fill="none" xmlns="http://www.w3.org/2000/svg">
<g clip-path="url(#clip0_2030_5228)">
<path d="M39.5112 18.2718C38.9096 17.2866 38.1507 16.4066 37.2647 15.6667L39.1307 13.8008C39.3864 13.536 39.379 13.1142 39.1143 12.8585C38.856 12.609 38.4466 12.609 38.1883 12.8585L36.1591 14.8904C34.9012 14.1432 33.463 13.7538 32 13.7641C27.8742 13.7641 25.523 16.5884 24.4888 18.2718C23.8371 19.3259 23.8371 20.6578 24.4888 21.7119C25.0904 22.697 25.8493 23.577 26.7353 24.3169L24.8693 26.1829C24.6046 26.4385 24.5972 26.8605 24.8529 27.1252C25.1086 27.3899 25.5305 27.3973 25.7952 27.1416C25.8008 27.1362 25.8063 27.1307 25.8116 27.1252L27.8455 25.0913C29.1019 25.8383 30.5383 26.2284 32 26.2195C36.1258 26.2195 38.4769 23.3952 39.5112 21.7118C40.1629 20.6578 40.1629 19.3259 39.5112 18.2718ZM28.0015 19.9918C27.9977 17.7872 29.7818 15.9969 31.9865 15.9931C32.8206 15.9917 33.6343 16.2516 34.3132 16.7364L33.3455 17.704C32.9393 17.459 32.4744 17.3285 32 17.3262C30.5278 17.3262 29.3343 18.5196 29.3343 19.9918C29.3367 20.4662 29.4672 20.9311 29.7122 21.3373L28.7446 22.305C28.2614 21.6304 28.0015 20.8215 28.0015 19.9918ZM32 23.9903C31.1703 23.9903 30.3614 23.7305 29.6869 23.2473L30.6545 22.2796C31.0607 22.5246 31.5257 22.6552 32 22.6575C33.4722 22.6575 34.6657 21.464 34.6657 19.9918C34.6634 19.5175 34.5328 19.0525 34.2878 18.6463L35.2555 17.6787C36.5366 19.4728 36.1208 21.9659 34.3267 23.2471C33.6478 23.7318 32.8342 23.9918 32 23.9903Z" fill="#5B55C9"/>
</g>
<defs>
<clipPath id="clip0_2030_5228">
<rect width="16" height="16" fill="white" transform="translate(24 12)"/>
</clipPath>
</defs>
</svg>
