<svg width="40" height="40" viewBox="0 0 40 40" fill="none" xmlns="http://www.w3.org/2000/svg">
<rect width="40" height="40" rx="20" fill="#C95589" fill-opacity="0.05"/>
<g clip-path="url(#clip0_2005_35)">
<path d="M28 19.9999C28 18.9159 27.524 17.8933 26.7167 17.2506C26.81 16.1693 26.4233 15.1099 25.6567 14.3426C24.89 13.5766 23.8333 13.1886 22.8053 13.3059C21.4627 11.6019 18.562 11.5699 17.2506 13.2826C15.0953 13.0266 13.0227 15.0559 13.3066 17.1946C11.6026 18.5373 11.57 21.4379 13.2833 22.7499C13.19 23.8313 13.5766 24.8906 14.3433 25.6579C15.11 26.4239 16.168 26.8119 17.1946 26.6946C18.5373 28.3986 21.438 28.4306 22.7493 26.7179C23.8293 26.8106 24.8893 26.4253 25.6567 25.6579C26.4227 24.8913 26.8093 23.8313 26.6933 22.8066C27.524 22.1079 28 21.0853 28 20.0013V19.9999ZM17.3333 17.9999C17.3373 17.1279 18.6627 17.1279 18.6667 17.9999C18.6627 18.8719 17.3373 18.8719 17.3333 17.9999ZM19.2213 22.3699C19.016 22.6786 18.5993 22.7573 18.2966 22.5546C17.99 22.3506 17.9073 21.9366 18.112 21.6299L20.7787 17.6299C20.9827 17.3239 21.396 17.2399 21.7033 17.4453C22.01 17.6493 22.0927 18.0633 21.888 18.3699L19.2213 22.3699ZM22 22.6666C21.128 22.6626 21.128 21.3373 22 21.3333C22.872 21.3373 22.872 22.6626 22 22.6666Z" fill="#C95589"/>
</g>
<defs>
<clipPath id="clip0_2005_35">
<rect width="16" height="16" fill="white" transform="translate(12 12)"/>
</clipPath>
</defs>
</svg>
