<svg width="14" height="14" viewBox="0 0 14 14" fill="none" xmlns="http://www.w3.org/2000/svg">
<g clip-path="url(#clip0_115_1074)">
<path d="M7 0C3.14008 0 0 3.14008 0 7C0 10.8599 3.14008 14 7 14C10.8599 14 14 10.8599 14 7C14 3.14008 10.8599 0 7 0ZM9.33333 7.58333H7C6.678 7.58333 6.41667 7.32258 6.41667 7V3.5C6.41667 3.17742 6.678 2.91667 7 2.91667C7.322 2.91667 7.58333 3.17742 7.58333 3.5V6.41667H9.33333C9.65592 6.41667 9.91667 6.67742 9.91667 7C9.91667 7.32258 9.65592 7.58333 9.33333 7.58333Z" fill="#293266"/>
</g>
<defs>
<clipPath id="clip0_115_1074">
<rect width="14" height="14" fill="white"/>
</clipPath>
</defs>
</svg>
