<svg width="218" height="40" viewBox="0 0 218 40" fill="none" xmlns="http://www.w3.org/2000/svg">
<g clip-path="url(#clip0_73_3163)">
<path d="M39.93 25.3087C36.4565 31.7269 26.0724 37.3851 16.7348 37.9451C12.1277 38.2214 8.63969 37.2178 6.69949 35.3378L6.85209 35.4832L6.89569 35.5232C7.25903 35.8542 7.58603 36.1342 7.69503 36.2251C7.99296 36.4723 8.42169 36.8032 8.70146 37.0105C9.22829 37.3742 9.49353 37.5632 9.98039 37.8723C10.2057 38.0105 10.4818 38.1705 10.6489 38.2687L11.1067 38.5196C12.9234 39.4905 15.4667 39.9742 18.595 39.7778C26.9699 39.2723 36.2785 34.2032 39.3922 28.4469C39.6569 27.9602 39.8794 27.4517 40.0571 26.9269C40.3269 26.1086 40.5453 25.2742 40.7111 24.4287C40.8746 23.588 40.985 22.7378 41.0418 21.8832C41.0418 21.8505 41.0418 21.8178 41.0418 21.7851C41.0418 21.7523 41.0418 21.6614 41.0418 21.5996C40.9558 22.9041 40.5757 24.1723 39.93 25.3087Z" fill="url(#paint0_radial_73_3163)"/>
<path d="M40.3485 15.1374C40.1462 14.4105 39.9036 13.6955 39.6218 12.9956C39.4838 12.6538 39.3312 12.2938 39.1604 11.9302C39.1241 11.8502 39.0441 11.6793 38.9315 11.4538L38.8407 11.272L38.8152 11.2247C38.8152 11.2065 38.7934 11.1883 38.7898 11.1738C38.7498 11.0938 38.699 11.0029 38.6808 10.9629C39.6909 12.8611 39.6037 15.272 38.1503 17.952C34.4371 24.7956 23.3663 30.8283 13.4073 31.4247C6.61664 31.832 2.09677 29.6065 1.08307 25.9702C1.08307 26.0138 1.1085 26.0538 1.1194 26.0974C1.16664 26.2611 1.27564 26.6465 1.4355 27.1083C1.66077 27.7665 1.87514 28.2938 2.01684 28.6174C2.19124 29.0247 2.40197 29.4902 2.7435 30.1483C4.31674 33.0938 8.55684 34.8174 14.61 34.4574C24.5653 33.8574 35.6397 27.8247 39.3384 20.9811C40.5229 18.8174 40.8136 16.8247 40.3485 15.1374Z" fill="url(#paint1_radial_73_3163)"/>
<path d="M34.6761 5.70986C34.0415 5.1107 33.3678 4.55433 32.6596 4.0444C32.1691 3.68077 31.7077 3.39349 31.5696 3.31713C31.1046 3.01168 30.6904 2.78259 30.5196 2.69531C33.4263 4.34986 34.3237 7.33168 32.4017 10.8844C29.2988 16.6517 19.9829 21.7389 11.5718 22.2408C4.02533 22.6917 -0.19297 19.2735 1.2967 14.4044C1.04368 15.2048 0.838639 16.0196 0.682663 16.8444C0.653596 17.008 0.562763 17.5062 0.486463 18.1353C0.41743 18.7062 0.391996 19.1062 0.37383 19.4299C0.12313 23.9062 4.66116 26.848 12.124 26.4008C21.4653 25.8408 31.8494 20.1826 35.3192 13.7644C37.0959 10.4808 36.7181 7.63713 34.6761 5.70986Z" fill="url(#paint2_radial_73_3163)"/>
<path d="M19.4532 0.210062C15.1514 0.477492 11.0451 2.10329 7.72478 4.8537C7.52131 5.02097 5.59928 6.84643 4.89078 8.12643C2.71078 12.1555 5.70101 15.1373 11.5616 14.7846C17.4221 14.4319 23.944 10.9082 26.124 6.86824C28.304 2.82824 25.3174 -0.142665 19.4532 0.210062Z" fill="url(#paint3_radial_73_3163)"/>
<path d="M19.4532 0.210062C15.1514 0.477492 11.0451 2.10329 7.72478 4.8537C7.52131 5.02097 5.59928 6.84643 4.89078 8.12643C2.71078 12.1555 5.70101 15.1373 11.5616 14.7846C17.4221 14.4319 23.944 10.9082 26.124 6.86824C28.304 2.82824 25.3174 -0.142665 19.4532 0.210062Z" fill="url(#paint4_radial_73_3163)"/>
<path d="M76.0781 9.92383L72.0124 24.7129L67.7251 9.92383H63.5249L59.2231 24.7275L55.1755 9.92383H50.8882L57.163 30.7093H61.3159L65.5741 16.0693L69.8033 30.7093H73.9853L80.2601 9.92383H76.0781Z" fill="#5B55C9"/>
<path d="M90.891 16.4178C89.2898 15.5042 87.4349 15.137 85.6067 15.3719C83.7785 15.6067 82.0764 16.4308 80.7576 17.7196C80.0279 18.4393 79.4486 19.2972 79.0536 20.2433C78.6514 21.1907 78.4462 22.2102 78.4505 23.2396C78.439 24.6305 78.803 25.9987 79.5041 27.1996C80.2045 28.3977 81.2068 29.3907 82.4108 30.0796C83.5592 30.7033 84.8309 31.0658 86.1353 31.1412C87.4397 31.2166 88.7447 31.0032 89.9572 30.516C90.9267 30.1111 91.8079 29.5206 92.5514 28.7778C93.2778 28.0561 93.8555 27.1987 94.2518 26.2542C94.7139 25.1361 94.9132 23.9268 94.8344 22.7195C94.7557 21.5121 94.401 20.339 93.7977 19.2905C93.096 18.0954 92.0939 17.105 90.891 16.4178ZM90.2806 25.556C89.9379 26.1927 89.4212 26.7186 88.7909 27.0724C88.1308 27.4232 87.3947 27.6067 86.6473 27.6067C85.8998 27.6067 85.1637 27.4232 84.5036 27.0724C83.8745 26.7204 83.3579 26.1972 83.0139 25.5633C82.6369 24.8483 82.4516 24.0477 82.4762 23.2396C82.4548 22.4338 82.6412 21.636 83.0176 20.9233C83.359 20.2909 83.8732 19.7688 84.5 19.4178C85.1641 19.0714 85.902 18.8905 86.6509 18.8905C87.3998 18.8905 88.1377 19.0714 88.8018 19.4178C89.4286 19.7688 89.9428 20.2909 90.2842 20.9233C90.6618 21.6357 90.8495 22.4335 90.8292 23.2396C90.8487 24.0462 90.6597 24.8441 90.2806 25.556Z" fill="#5B55C9"/>
<path d="M104.887 15.3264C104.024 15.319 103.17 15.5041 102.387 15.8682C101.582 16.2659 100.918 16.9003 100.483 17.6864V15.7882H96.4176V30.6973H100.483V22.8537C100.455 22.3767 100.529 21.8992 100.702 21.4537C100.874 21.0081 101.14 20.605 101.483 20.2718C102.179 19.6471 103.091 19.3173 104.026 19.3518C104.369 19.3524 104.712 19.3816 105.05 19.4391C105.384 19.4972 105.712 19.5824 106.031 19.6937L106.533 15.5046C106.286 15.4573 106.031 15.4137 105.763 15.3773C105.472 15.3425 105.18 15.3255 104.887 15.3264Z" fill="#5B55C9"/>
<path d="M111.666 9.32812H107.601V30.7099H111.666V9.32812Z" fill="#5B55C9"/>
<path d="M125.582 17.2045C125.122 16.7608 124.603 16.3838 124.038 16.0845C123.016 15.5782 121.886 15.3286 120.746 15.3572C119.707 15.3405 118.676 15.5437 117.72 15.9536C116.821 16.3473 116.011 16.9202 115.34 17.6372C114.66 18.3648 114.13 19.22 113.781 20.1536C113.41 21.1401 113.224 22.1867 113.233 23.2409C113.202 24.6711 113.533 26.0858 114.196 27.3536C114.807 28.5092 115.723 29.4751 116.844 30.1463C118.006 30.8301 119.334 31.1799 120.681 31.1572C121.99 31.2027 123.286 30.887 124.427 30.2445C125.066 29.864 125.631 29.3713 126.095 28.7899V30.7172H129.655V9.32812H125.582V17.2045ZM125.056 25.5681C124.712 26.202 124.195 26.7253 123.566 27.0772C122.906 27.4281 122.17 27.6115 121.422 27.6115C120.675 27.6115 119.939 27.4281 119.279 27.0772C118.649 26.7244 118.132 26.2014 117.785 25.5681C117.409 24.8526 117.223 24.0526 117.244 23.2445C117.224 22.4388 117.41 21.6414 117.785 20.9281C118.129 20.2963 118.644 19.7745 119.271 19.4227C119.935 19.0763 120.673 18.8954 121.422 18.8954C122.171 18.8954 122.909 19.0763 123.573 19.4227C124.2 19.7736 124.714 20.2957 125.056 20.9281C125.43 21.6414 125.617 22.4388 125.597 23.2445C125.617 24.0514 125.431 24.8501 125.056 25.5645V25.5681Z" fill="#5B55C9"/>
<path d="M147.659 18.8322L145.624 18.2213C144.878 18.0206 144.149 17.7603 143.444 17.4432C143.012 17.2614 142.629 16.9812 142.325 16.625C142.097 16.3187 141.98 15.9446 141.991 15.5632C141.982 15.0597 142.154 14.5697 142.474 14.1813C142.821 13.7712 143.275 13.4653 143.785 13.2977C144.416 13.0834 145.078 12.98 145.744 12.9922C146.413 12.9926 147.08 13.072 147.731 13.2286C148.361 13.3795 148.971 13.604 149.548 13.8977C150.079 14.1625 150.568 14.503 151.001 14.9086L153.036 11.8941C152.134 11.0957 151.074 10.4961 149.926 10.1341C148.593 9.69353 147.198 9.47486 145.795 9.48679C144.746 9.47777 143.703 9.63361 142.703 9.94861C141.811 10.2288 140.979 10.67 140.247 11.2504C139.573 11.7898 139.024 12.4683 138.637 13.2395C138.249 14.0313 138.054 14.9034 138.067 15.785C138.035 17.1166 138.528 18.4072 139.44 19.3777C140.351 20.3474 141.832 21.1292 143.883 21.7232L145.842 22.2868C147.235 22.6722 148.189 23.0832 148.705 23.5195C148.948 23.7129 149.143 23.9592 149.277 24.2396C149.41 24.52 149.478 24.8271 149.475 25.1377C149.486 25.5215 149.39 25.9007 149.197 26.2328C149.005 26.5649 148.724 26.8367 148.385 27.0177C147.488 27.4773 146.485 27.6906 145.479 27.6359C144.729 27.6334 143.982 27.5468 143.251 27.3777C142.517 27.2137 141.803 26.9698 141.122 26.6504C140.499 26.3593 139.926 25.9701 139.425 25.4977L137.449 28.5995C138.511 29.4752 139.741 30.1226 141.064 30.5013C142.489 30.937 143.971 31.1577 145.46 31.1559C146.929 31.1942 148.389 30.9152 149.74 30.3377C150.856 29.8583 151.812 29.0698 152.494 28.065C153.146 27.065 153.482 25.8915 153.457 24.6977C153.484 24.0357 153.376 23.3752 153.138 22.7567C152.901 22.1382 152.54 21.5749 152.077 21.1013C151.159 20.1825 149.686 19.4262 147.659 18.8322Z" fill="#5B55C9"/>
<path d="M176.943 16.1678C176.118 15.6187 174.995 15.3423 173.582 15.3423C172.533 15.3422 171.496 15.5576 170.534 15.975C169.513 16.4254 168.652 17.1731 168.063 18.1205C167.749 17.2866 167.166 16.5814 166.406 16.1169C165.524 15.58 164.506 15.3109 163.474 15.3423C162.889 15.3427 162.307 15.431 161.748 15.6041C161.173 15.7772 160.629 16.0424 160.139 16.3896C159.621 16.7552 159.173 17.2109 158.816 17.735V15.7896H154.747V30.6987H158.813V22.1132C158.803 21.562 158.948 21.0192 159.23 20.5459C159.507 20.0875 159.901 19.711 160.371 19.455C160.877 19.1834 161.443 19.0457 162.017 19.055C162.421 19.0294 162.825 19.0927 163.202 19.2403C163.579 19.388 163.918 19.6164 164.197 19.9096C164.722 20.5373 164.993 21.3391 164.957 22.1569V30.7096H169.022V22.1132C169.013 21.5626 169.157 21.0201 169.436 20.5459C169.713 20.0875 170.107 19.711 170.577 19.455C171.084 19.1839 171.652 19.0462 172.227 19.055C172.634 19.0267 173.043 19.0886 173.423 19.2363C173.804 19.384 174.147 19.6139 174.429 19.9096C174.95 20.5389 175.217 21.3405 175.177 22.1569V30.7096H179.243V20.9859C179.246 20.0588 179.064 19.1404 178.709 18.2841C178.348 17.4159 177.732 16.6779 176.943 16.1678Z" fill="#5B55C9"/>
<path d="M193.381 17.7204C192.941 17.1407 192.398 16.6475 191.778 16.2658C190.679 15.6208 189.419 15.3017 188.145 15.3458C187.12 15.3355 186.103 15.5321 185.155 15.924C184.258 16.2976 183.45 16.855 182.782 17.5604C182.101 18.2818 181.571 19.1325 181.223 20.0622C180.843 21.0793 180.655 22.1581 180.668 23.244C180.647 24.6763 180.991 26.0903 181.667 27.3531C182.282 28.5083 183.2 29.4739 184.323 30.1458C185.489 30.831 186.822 31.1808 188.174 31.1567C189.448 31.2008 190.708 30.8818 191.807 30.2367C192.427 29.855 192.97 29.3619 193.41 28.7822V30.7131H196.927V15.804H193.366L193.381 17.7204ZM192.363 25.564C192.027 26.1916 191.524 26.7139 190.91 27.0731C190.265 27.4238 189.543 27.6076 188.81 27.6076C188.076 27.6076 187.354 27.4238 186.71 27.0731C186.095 26.7139 185.592 26.1916 185.256 25.564C184.88 24.8485 184.694 24.0485 184.715 23.2404C184.695 22.4347 184.882 21.6373 185.256 20.924C185.592 20.2967 186.095 19.7754 186.71 19.4185C187.356 19.0725 188.077 18.8915 188.81 18.8915C189.543 18.8915 190.264 19.0725 190.91 19.4185C191.525 19.7754 192.028 20.2967 192.363 20.924C192.74 21.6367 192.926 22.4345 192.905 23.2404C192.928 24.0487 192.742 24.8494 192.363 25.564Z" fill="#5B55C9"/>
<path d="M217.03 27.0867C216.768 27.2289 216.488 27.3365 216.198 27.4067C215.887 27.4796 215.569 27.5162 215.25 27.5158C214.974 27.5303 214.698 27.4885 214.438 27.3929C214.179 27.2972 213.942 27.1497 213.742 26.9594C213.378 26.5958 213.186 25.9448 213.186 25.0212V19.0685H216.997V15.7958H213.186V11.4648H209.12V15.7885C205.698 15.1048 203.394 16.3848 202.624 17.6867V15.7885H198.558V30.6976H202.624V22.8539C202.597 22.3772 202.673 21.9003 202.845 21.4551C203.017 21.0099 203.282 20.6066 203.623 20.2721C204.909 19.0685 207.162 18.7958 209.12 19.5048V25.7958C209.12 27.597 209.573 28.94 210.479 29.8248C211.385 30.7097 212.619 31.1533 214.181 31.1558C214.819 31.1581 215.455 31.075 216.071 30.9085C216.613 30.7664 217.138 30.5652 217.637 30.3085L217.03 27.0867Z" fill="#5B55C9"/>
</g>
<defs>
<radialGradient id="paint0_radial_73_3163" cx="0" cy="0" r="1" gradientUnits="userSpaceOnUse" gradientTransform="translate(14.9326 6.37779) scale(27.8095 27.8327)">
<stop stop-color="#9DCFF4"/>
<stop offset="0.11" stop-color="#8FB6E9"/>
<stop offset="0.3" stop-color="#788DD7"/>
<stop offset="0.49" stop-color="#666DC9"/>
<stop offset="0.67" stop-color="#5956BF"/>
<stop offset="0.85" stop-color="#5249B9"/>
<stop offset="1" stop-color="#4F44B7"/>
</radialGradient>
<radialGradient id="paint1_radial_73_3163" cx="0" cy="0" r="1" gradientUnits="userSpaceOnUse" gradientTransform="translate(17.0181 14.6142) scale(30.4178 27.5884)">
<stop stop-color="#9DCFF4"/>
<stop offset="0.11" stop-color="#8FB6E9"/>
<stop offset="0.3" stop-color="#788DD7"/>
<stop offset="0.49" stop-color="#666DC9"/>
<stop offset="0.67" stop-color="#5956BF"/>
<stop offset="0.85" stop-color="#5249B9"/>
<stop offset="1" stop-color="#4F44B7"/>
</radialGradient>
<radialGradient id="paint2_radial_73_3163" cx="0" cy="0" r="1" gradientUnits="userSpaceOnUse" gradientTransform="translate(14.9326 6.37895) scale(27.8095 27.8327)">
<stop stop-color="#9DCFF4"/>
<stop offset="0.11" stop-color="#8FB6E9"/>
<stop offset="0.3" stop-color="#788DD7"/>
<stop offset="0.49" stop-color="#666DC9"/>
<stop offset="0.67" stop-color="#5956BF"/>
<stop offset="0.85" stop-color="#5249B9"/>
<stop offset="1" stop-color="#4F44B7"/>
</radialGradient>
<radialGradient id="paint3_radial_73_3163" cx="0" cy="0" r="1" gradientUnits="userSpaceOnUse" gradientTransform="translate(14.9333 6.37733) scale(27.8095 27.8327)">
<stop stop-color="#9DCFF4"/>
<stop offset="0.11" stop-color="#8FB6E9"/>
<stop offset="0.3" stop-color="#788DD7"/>
<stop offset="0.49" stop-color="#666DC9"/>
<stop offset="0.67" stop-color="#5956BF"/>
<stop offset="0.85" stop-color="#5249B9"/>
<stop offset="1" stop-color="#4F44B7"/>
</radialGradient>
<radialGradient id="paint4_radial_73_3163" cx="0" cy="0" r="1" gradientUnits="userSpaceOnUse" gradientTransform="translate(13.3247 2.45094) scale(17.4595 17.1463)">
<stop stop-color="#9DCFF4"/>
<stop offset="0.11" stop-color="#8FB6E9"/>
<stop offset="0.3" stop-color="#788DD7"/>
<stop offset="0.49" stop-color="#666DC9"/>
<stop offset="0.67" stop-color="#5956BF"/>
<stop offset="0.85" stop-color="#5249B9"/>
<stop offset="1" stop-color="#4F44B7"/>
</radialGradient>
<clipPath id="clip0_73_3163">
<rect width="218" height="40" fill="white"/>
</clipPath>
</defs>
</svg>
