<svg width="73" height="20" viewBox="0 0 73 20" fill="none" xmlns="http://www.w3.org/2000/svg">
<g opacity="0.32">
<path d="M31.9463 7.35486V11.852C31.9463 12.0781 31.8723 12.275 31.7243 12.4446C31.5764 12.6122 31.3291 12.698 30.9825 12.698C30.525 12.698 30.1901 12.5362 29.9798 12.2145L27.9219 9.11316C27.8674 9.02739 27.8187 8.98451 27.7778 8.98451C27.7175 8.98451 27.6883 9.03519 27.6883 9.1346V12.6356H26.5415V8.1229C26.5415 7.84609 26.633 7.63947 26.816 7.50106C26.999 7.36266 27.2385 7.29443 27.5364 7.29443C27.9823 7.29443 28.3074 7.44453 28.5079 7.74668L30.5795 10.8793C30.5854 10.8851 30.5931 10.8988 30.6068 10.9202C30.6185 10.9436 30.6282 10.9572 30.636 10.965C30.6438 10.9728 30.6554 10.9806 30.6691 10.9923C30.6847 11.0021 30.6983 11.0079 30.7139 11.0079C30.7684 11.0079 30.7976 10.965 30.7976 10.8793V7.35486H31.9463Z" fill="white"/>
<path d="M37.1984 7.35547V8.38277H34.4843C34.3539 8.38277 34.2624 8.41006 34.2098 8.46269C34.1572 8.51532 34.1319 8.60694 34.1319 8.73755V9.4705H37.1322V10.451H34.1319V11.258C34.1319 11.3886 34.1592 11.4803 34.2098 11.5329C34.2624 11.5855 34.3539 11.6128 34.4843 11.6128H37.2276V12.6401H33.5732C33.0397 12.6401 32.7749 12.3711 32.7749 11.8331V8.17224C32.7749 7.62838 33.0416 7.35742 33.5732 7.35742H37.1984V7.35547Z" fill="white"/>
<path d="M39.2419 7.4075C39.5787 7.33147 40.0187 7.29443 40.56 7.29443C41.1032 7.29443 41.5432 7.33147 41.8781 7.4075C42.2149 7.48352 42.4992 7.62192 42.7328 7.8227C42.9664 8.02348 43.13 8.29834 43.2234 8.64532C43.3169 8.9923 43.3636 9.4426 43.3636 9.99621C43.3636 10.5498 43.3169 11.0001 43.2234 11.3471C43.13 11.6941 42.9664 11.9689 42.7328 12.1736C42.4992 12.3783 42.213 12.5167 41.8781 12.5888C41.5413 12.6609 41.1012 12.698 40.56 12.698C40.0168 12.698 39.5787 12.6609 39.2419 12.5888C38.9051 12.5167 38.6208 12.3783 38.3872 12.1736C38.1535 11.9689 37.99 11.6941 37.8965 11.3471C37.8031 11.0001 37.7563 10.5498 37.7563 9.99621C37.7563 9.4426 37.8031 8.9923 37.8965 8.64532C37.988 8.29834 38.1535 8.02348 38.3872 7.8227C38.6208 7.62192 38.9051 7.48352 39.2419 7.4075ZM39.4424 8.70185C39.2438 8.93577 39.1445 9.36658 39.1445 9.99621C39.1445 10.6258 39.2438 11.0566 39.4424 11.2906C39.641 11.5245 40.0129 11.6414 40.5619 11.6414C41.109 11.6414 41.4828 11.5245 41.6814 11.2906C41.88 11.0566 41.9793 10.6258 41.9793 9.99621C41.9793 9.36658 41.88 8.93577 41.6814 8.70185C41.4828 8.46793 41.109 8.35097 40.5619 8.35097C40.0129 8.35097 39.641 8.46793 39.4424 8.70185Z" fill="white"/>
<path d="M48.5865 9.42873L45.6348 9.53223L45.669 10.5122L48.6208 10.4087L48.5865 9.42873Z" fill="white"/>
<path d="M52.1144 8.21513H50.9385V7.35547H52.1144V8.21513ZM50.9385 8.63813H52.1144V12.6382H50.9385V8.63813Z" fill="white"/>
<path d="M52.7471 12.6377V9.39209C52.7471 8.88916 52.9982 8.6377 53.5005 8.6377H55.1282C55.6208 8.6377 56.0043 8.75465 56.2808 8.98857C56.5573 9.22249 56.6955 9.58507 56.6955 10.0782V12.6358H55.5195V10.3804C55.5195 10.0744 55.4553 9.85018 55.3268 9.71177C55.1983 9.57337 54.9861 9.50515 54.6901 9.50515H54.1859C54.0905 9.50515 54.0223 9.52464 53.9814 9.56557C53.9406 9.60651 53.9211 9.67279 53.9211 9.76831V12.6358H52.7471V12.6377Z" fill="white"/>
<path d="M58.1597 8.6377L59.178 11.279C59.2189 11.3746 59.2539 11.4233 59.2831 11.4233C59.3084 11.4233 59.3415 11.3765 59.3805 11.279L60.3987 8.6377H61.6195L60.0152 12.3278C59.949 12.4779 59.8575 12.5753 59.7368 12.6182C59.6161 12.6611 59.4661 12.6826 59.2851 12.6826C59.1702 12.6826 59.0748 12.6767 58.9989 12.667C58.9229 12.6572 58.8412 12.6241 58.7497 12.5695C58.6601 12.5149 58.5919 12.433 58.5472 12.3278L56.9409 8.6377H58.1597Z" fill="white"/>
<path d="M65.6819 12.6376H63.2696C62.6524 12.6376 62.2435 12.4934 62.0449 12.2068C61.8464 11.9203 61.7471 11.392 61.7471 10.622C61.7471 10.1893 61.7763 9.84425 61.8366 9.58889C61.897 9.33157 62.0099 9.12689 62.1754 8.97484C62.3409 8.82084 62.5473 8.71948 62.7906 8.6688C63.034 8.61812 63.365 8.59277 63.7816 8.59277C64.1438 8.59277 64.4378 8.61227 64.6636 8.64931C64.8895 8.68634 65.0978 8.76236 65.2847 8.87153C65.4736 8.98264 65.6098 9.14639 65.6916 9.36276C65.7734 9.57914 65.8162 9.85789 65.8162 10.201C65.8162 10.7546 65.6079 11.0314 65.1893 11.0314H62.9386C62.9386 11.2926 62.9951 11.4856 63.108 11.6084C63.2209 11.7312 63.4312 11.7936 63.7369 11.7936H65.6819V12.6376ZM62.9386 10.2146H64.4008C64.5468 10.2146 64.6208 10.1347 64.6208 9.9729C64.6208 9.78771 64.5371 9.65126 64.3677 9.56549C64.2002 9.47972 64.0036 9.43683 63.7836 9.43683C63.4915 9.43683 63.2774 9.49531 63.143 9.61033C63.0068 9.72729 62.9386 9.92807 62.9386 10.2146Z" fill="white"/>
<path d="M66.2381 12.6377V11.7703H68.4538C68.6349 11.7703 68.7244 11.6903 68.7244 11.5286C68.7244 11.4779 68.7088 11.433 68.6796 11.3921C68.6485 11.3512 68.6037 11.318 68.5433 11.2907C68.483 11.2634 68.4265 11.2401 68.374 11.2225C68.3214 11.205 68.2571 11.1874 68.1812 11.1699C68.1053 11.1523 68.0527 11.1387 68.0235 11.1289L67.2097 10.8794C66.8339 10.7644 66.5691 10.6202 66.4192 10.4486C66.2693 10.2771 66.1934 10.0295 66.1934 9.70203C66.1934 9.33555 66.2829 9.06654 66.4601 8.895C66.6392 8.72346 66.9157 8.6377 67.2934 8.6377H69.7797V9.50515H67.64C67.4297 9.50515 67.3245 9.57337 67.3245 9.70788C67.3245 9.80339 67.3654 9.87552 67.4492 9.92231C67.5329 9.96909 67.6536 10.0198 67.8152 10.0705L68.7497 10.357C68.9503 10.4174 69.1119 10.474 69.2326 10.5266C69.3533 10.5792 69.474 10.6514 69.5947 10.7449C69.7154 10.8385 69.8011 10.9554 69.8556 11.0958C69.9082 11.2362 69.9354 11.4057 69.9354 11.6007C69.9354 11.9477 69.8537 12.2069 69.6901 12.3785C69.5266 12.55 69.2696 12.6358 68.9172 12.6358H66.2381V12.6377Z" fill="white"/>
<path d="M72.9997 12.6372H72.1781C71.189 12.6372 70.6926 12.1947 70.6926 11.3097V9.50656H70.1357V8.6391H70.6926V7.35645H71.8685V8.6391H72.9997V9.50656H71.8685V10.8789C71.8685 11.1869 71.9425 11.4111 72.0866 11.5553C72.2326 11.6996 72.4643 11.7697 72.7797 11.7697H72.9978V12.6372H72.9997Z" fill="white"/>
<path d="M5.65594 10.6293V13.7307L0 10.179V7.07764L5.65594 10.6293Z" fill="white"/>
<path d="M22.1017 3.55169V6.65307L16.4458 3.10334V0L22.1017 3.55169Z" fill="white"/>
<path d="M8.50781 10.6293V13.7307L14.1638 10.179V7.07764L8.50781 10.6293Z" fill="white"/>
<path d="M8.50781 3.55169V6.65307L14.1638 3.10334V0L8.50781 3.55169Z" fill="white"/>
<path d="M8.50781 16.8964V19.9997L14.1638 16.4481V13.3467L8.50781 16.8964Z" fill="white"/>
<path d="M16.4458 10.2245V13.3259L22.1017 9.77619V6.6748L16.4458 10.2245Z" fill="white"/>
</g>
</svg>
