<svg width="54" height="30" viewBox="0 0 54 30" fill="none" xmlns="http://www.w3.org/2000/svg">
    <g clip-path="url(#clip0_6_92016)">
        <path d="M0.658203 0H60.6582V30H0.658203V0Z" fill="#1EB53A"/>
        <path d="M0.658203 0H60.6582V15H0.658203V0Z" fill="#0099B5"/>
        <path d="M0.658203 9.6001H60.6582V20.4001H0.658203V9.6001Z" fill="#CE1126"/>
        <path d="M0.658203 10.1997H60.6582V19.7997H0.658203V10.1997Z" fill="white"/>
        <path d="M9.05801 8.39971C11.0462 8.39971 12.658 6.78793 12.658 4.79971C12.658 2.81148 11.0462 1.19971 9.05801 1.19971C7.06978 1.19971 5.45801 2.81148 5.45801 4.79971C5.45801 6.78793 7.06978 8.39971 9.05801 8.39971Z"
              fill="white"/>
        <path d="M10.2582 8.39971C12.2464 8.39971 13.8582 6.78793 13.8582 4.79971C13.8582 2.81148 12.2464 1.19971 10.2582 1.19971C8.26998 1.19971 6.6582 2.81148 6.6582 4.79971C6.6582 6.78793 8.26998 8.39971 10.2582 8.39971Z"
              fill="#0099B5"/>
        <path d="M16.9781 6.96118L16.7559 7.64451L17.0975 7.7584" fill="white"/>
        <path d="M16.9778 6.96118L17.2001 7.64451L16.8584 7.7584" fill="white"/>
        <path d="M17.6613 7.45825H16.9419V7.81936" fill="white"/>
        <path d="M17.6607 7.45825L17.0773 7.88325L16.8662 7.58881" fill="white"/>
        <path d="M16.2944 7.45825L16.8778 7.88325L17.0889 7.58881" fill="white"/>
        <path d="M16.2944 7.45825H17.0139V7.81936" fill="white"/>
        <path d="M17.4052 8.26122L17.183 7.57788L16.8413 7.69177" fill="white"/>
        <path d="M17.4051 8.26119L16.8218 7.83619L17.0329 7.54175" fill="white"/>
        <path d="M16.5522 8.26119L17.1356 7.83619L16.9245 7.54175" fill="white"/>
        <path d="M16.5522 8.26122L16.7745 7.57788L17.1161 7.69177" fill="white"/>
        <path d="M16.9781 4.08057L16.7559 4.7639L17.0975 4.87779" fill="white"/>
        <path d="M16.9778 4.08057L17.2001 4.7639L16.8584 4.87779" fill="white"/>
        <path d="M17.6613 4.57788H16.9419V4.93899" fill="white"/>
        <path d="M17.6607 4.57788L17.0773 5.00288L16.8662 4.70844" fill="white"/>
        <path d="M16.2944 4.57788L16.8778 5.00288L17.0889 4.70844" fill="white"/>
        <path d="M16.2944 4.57788H17.0139V4.93899" fill="white"/>
        <path d="M17.4052 5.38304L17.183 4.69971L16.8413 4.8136" fill="white"/>
        <path d="M17.4051 5.38326L16.8218 4.95826L17.0329 4.66382" fill="white"/>
        <path d="M16.5522 5.38326L17.1356 4.95826L16.9245 4.66382" fill="white"/>
        <path d="M16.9781 1.19971L16.7559 1.88304L17.0975 1.99693" fill="white"/>
        <path d="M16.9778 1.19971L17.2001 1.88304L16.8584 1.99693" fill="white"/>
        <path d="M17.6613 1.69751H16.9419V2.05862" fill="white"/>
        <path d="M17.6607 1.69751L17.0773 2.12251L16.8662 1.82807" fill="white"/>
        <path d="M16.2944 1.69751L16.8778 2.12251L17.0889 1.82807" fill="white"/>
        <path d="M16.2944 1.69751H17.0139V2.05862" fill="white"/>
        <path d="M17.4052 2.50267L17.183 1.81934L16.8413 1.93322" fill="white"/>
        <path d="M17.4051 2.50289L16.8218 2.07789L17.0329 1.78345" fill="white"/>
        <path d="M16.5522 2.50289L17.1356 2.07789L16.9245 1.78345" fill="white"/>
        <path d="M19.858 6.96118L19.6357 7.64451L19.9774 7.7584" fill="white"/>
        <path d="M19.8577 6.96118L20.0799 7.64451L19.7383 7.7584" fill="white"/>
        <path d="M20.5412 7.45825H19.8218V7.81936" fill="white"/>
        <path d="M20.541 7.45825L19.9577 7.88325L19.7466 7.58881" fill="white"/>
        <path d="M19.1743 7.45825L19.7577 7.88325L19.9688 7.58881" fill="white"/>
        <path d="M19.1743 7.45825H19.8938V7.81936" fill="white"/>
        <path d="M20.2831 8.26122L20.0609 7.57788L19.7192 7.69177" fill="white"/>
        <path d="M20.2835 8.26119L19.7002 7.83619L19.9113 7.54175" fill="white"/>
        <path d="M19.4326 8.26119L20.016 7.83619L19.8048 7.54175" fill="white"/>
        <path d="M19.858 4.08057L19.6357 4.7639L19.9774 4.87779" fill="white"/>
        <path d="M19.8577 4.08057L20.0799 4.7639L19.7383 4.87779" fill="white"/>
        <path d="M20.5412 4.57788H19.8218V4.93899" fill="white"/>
        <path d="M19.1743 4.57788L19.7577 5.00288L19.9688 4.70844" fill="white"/>
        <path d="M19.1743 4.57788H19.8938V4.93899" fill="white"/>
        <path d="M20.2831 5.38304L20.0609 4.69971L19.7192 4.8136" fill="white"/>
        <path d="M19.4326 5.38326L20.016 4.95826L19.8048 4.66382" fill="white"/>
        <path d="M19.858 1.19971L19.6357 1.88304L19.9774 1.99693" fill="white"/>
        <path d="M19.8577 1.19971L20.0799 1.88304L19.7383 1.99693" fill="white"/>
        <path d="M20.5412 1.69751H19.8218V2.05862" fill="white"/>
        <path d="M19.1743 1.69751L19.7577 2.12251L19.9688 1.82807" fill="white"/>
        <path d="M19.1743 1.69751H19.8938V2.05862" fill="white"/>
        <path d="M20.2831 2.50267L20.0609 1.81934L19.7192 1.93322" fill="white"/>
        <path d="M19.4326 2.50289L20.016 2.07789L19.8048 1.78345" fill="white"/>
        <path d="M22.7393 6.96118L22.5171 7.64451L22.8588 7.7584" fill="white"/>
        <path d="M22.7391 6.96118L22.9613 7.64451L22.6196 7.7584" fill="white"/>
        <path d="M23.4226 7.45825H22.7031V7.81936" fill="white"/>
        <path d="M23.4224 7.45825L22.839 7.88325L22.6279 7.58881" fill="white"/>
        <path d="M22.0557 7.45825L22.639 7.88325L22.8501 7.58881" fill="white"/>
        <path d="M22.0557 7.45825H22.7751V7.81936" fill="white"/>
        <path d="M23.164 8.26122L22.9418 7.57788L22.6001 7.69177" fill="white"/>
        <path d="M23.1644 8.26119L22.5811 7.83619L22.7922 7.54175" fill="white"/>
        <path d="M22.3105 8.26119L22.8939 7.83619L22.6828 7.54175" fill="white"/>
        <path d="M22.7393 4.08057L22.5171 4.7639L22.8588 4.87779" fill="white"/>
        <path d="M22.7391 4.08057L22.9613 4.7639L22.6196 4.87779" fill="white"/>
        <path d="M23.4226 4.57788H22.7031V4.93899" fill="white"/>
        <path d="M22.0557 4.57788L22.639 5.00288L22.8501 4.70844" fill="white"/>
        <path d="M22.0557 4.57788H22.7751V4.93899" fill="white"/>
        <path d="M23.164 5.38304L22.9418 4.69971L22.6001 4.8136" fill="white"/>
        <path d="M22.3105 5.38326L22.8939 4.95826L22.6828 4.66382" fill="white"/>
        <path d="M22.7393 1.19971L22.5171 1.88304L22.8588 1.99693" fill="white"/>
        <path d="M22.7391 1.19971L22.9613 1.88304L22.6196 1.99693" fill="white"/>
        <path d="M23.4226 1.69751H22.7031V2.05862" fill="white"/>
        <path d="M22.0557 1.69751L22.639 2.12251L22.8501 1.82807" fill="white"/>
        <path d="M22.0557 1.69751H22.7751V2.05862" fill="white"/>
        <path d="M23.164 2.50267L22.9418 1.81934L22.6001 1.93322" fill="white"/>
        <path d="M22.3105 2.50289L22.8939 2.07789L22.6828 1.78345" fill="white"/>
        <path d="M11.2188 6.96118L10.9966 7.64451L11.3382 7.7584" fill="white"/>
        <path d="M11.2195 6.96118L11.4418 7.64451L11.1001 7.7584" fill="white"/>
        <path d="M11.9035 7.45825H11.1841V7.81936" fill="white"/>
        <path d="M11.9028 7.45825L11.3195 7.88325L11.1084 7.58881" fill="white"/>
        <path d="M10.5332 7.45825L11.1165 7.88325L11.3276 7.58881" fill="white"/>
        <path d="M10.5332 7.45825H11.2526V7.81936" fill="white"/>
        <path d="M11.6449 8.26122L11.4227 7.57788L11.0811 7.69177" fill="white"/>
        <path d="M11.6439 8.26119L11.0605 7.83619L11.2717 7.54175" fill="white"/>
        <path d="M10.791 8.26119L11.3744 7.83619L11.1632 7.54175" fill="white"/>
        <path d="M10.791 8.26122L11.0132 7.57788L11.3549 7.69177" fill="white"/>
        <path d="M14.0967 6.96118L13.8745 7.64451L14.2162 7.7584" fill="white"/>
        <path d="M14.097 6.96118L14.3192 7.64451L13.9775 7.7584" fill="white"/>
        <path d="M14.7829 7.45825H14.0635V7.81936" fill="white"/>
        <path d="M14.7827 7.45825L14.1994 7.88325L13.9883 7.58881" fill="white"/>
        <path d="M13.4136 7.45825L13.9969 7.88325L14.208 7.58881" fill="white"/>
        <path d="M13.4136 7.45825H14.133V7.81936" fill="white"/>
        <path d="M14.5253 8.26122L14.3031 7.57788L13.9614 7.69177" fill="white"/>
        <path d="M14.5252 8.26119L13.9419 7.83619L14.153 7.54175" fill="white"/>
        <path d="M13.6729 8.26119L14.2562 7.83619L14.0451 7.54175" fill="white"/>
        <path d="M13.6729 8.26122L13.8951 7.57788L14.2367 7.69177" fill="white"/>
        <path d="M14.0967 4.08057L13.8745 4.7639L14.2162 4.87779" fill="white"/>
        <path d="M14.097 4.08057L14.3192 4.7639L13.9775 4.87779" fill="white"/>
        <path d="M14.7829 4.57788H14.0635V4.93899" fill="white"/>
        <path d="M14.7827 4.57788L14.1994 5.00288L13.9883 4.70844" fill="white"/>
        <path d="M13.4136 4.57788L13.9969 5.00288L14.208 4.70844" fill="white"/>
        <path d="M13.4136 4.57788H14.133V4.93899" fill="white"/>
        <path d="M14.5253 5.38304L14.3031 4.69971L13.9614 4.8136" fill="white"/>
        <path d="M14.5252 5.38326L13.9419 4.95826L14.153 4.66382" fill="white"/>
        <path d="M13.6729 5.38326L14.2562 4.95826L14.0451 4.66382" fill="white"/>
        <path d="M13.6729 5.38304L13.8951 4.69971L14.2367 4.8136" fill="white"/>
    </g>
    <defs>
        <clipPath id="clip0_6_92016">
            <rect width="53.3333" height="30" fill="white" transform="translate(0.658203)"/>
        </clipPath>
    </defs>
</svg>
