<svg width="54" height="30" viewBox="0 0 54 30" fill="none" xmlns="http://www.w3.org/2000/svg">
    <g clip-path="url(#clip0_6_92143)">
        <path d="M56.9985 0H-3.00146V30H56.9985V0Z" fill="#3F9C35"/>
        <path d="M56.9985 0H-3.00146V20H56.9985V0Z" fill="#ED2939"/>
        <path d="M56.9985 0H-3.00146V10H56.9985V0Z" fill="#00B9E4"/>
        <path d="M25.9985 19.5C28.4838 19.5 30.4985 17.4853 30.4985 15C30.4985 12.5147 28.4838 10.5 25.9985 10.5C23.5133 10.5 21.4985 12.5147 21.4985 15C21.4985 17.4853 23.5133 19.5 25.9985 19.5Z"
              fill="white"/>
        <path d="M26.9985 18.75C29.0696 18.75 30.7485 17.0711 30.7485 15C30.7485 12.9289 29.0696 11.25 26.9985 11.25C24.9275 11.25 23.2485 12.9289 23.2485 15C23.2485 17.0711 24.9275 18.75 26.9985 18.75Z"
              fill="#ED2939"/>
        <path d="M30.9985 12.5L31.4763 13.8444L32.7652 13.2306L32.1513 14.5194L33.4985 15L32.1541 15.4778L32.768 16.7667L31.4791 16.1528L30.9985 17.5L30.5208 16.1556L29.2319 16.7694L29.8458 15.4806L28.4985 15L29.843 14.5222L29.2291 13.2333L30.518 13.8472L30.9985 12.5Z"
              fill="white"/>
    </g>
    <defs>
        <clipPath id="clip0_6_92143">
            <rect width="53.3333" height="30" fill="white" transform="translate(0.332031)"/>
        </clipPath>
    </defs>
</svg>
