<svg width="55" height="30" viewBox="0 0 55 30" fill="none" xmlns="http://www.w3.org/2000/svg">
    <g clip-path="url(#clip0_6_91648)">
        <path d="M54.3265 -0.305664H0.993164V30.0916H54.3265V-0.305664Z" fill="#00843D"/>
        <path d="M23.4379 3.36646C24.7713 3.93868 25.7018 5.26368 25.7018 6.80257C25.7018 8.86646 24.0296 10.5442 21.9602 10.5442C21.0324 10.5442 20.1907 10.2081 19.5352 9.65257C19.9407 9.82757 20.3824 9.92757 20.8463 9.95257C22.9102 10.0415 24.6546 8.44423 24.7435 6.38034C24.8046 5.18034 24.2824 4.09146 23.4379 3.36646Z"
              fill="white"/>
        <path d="M19.8708 6.1165L20.2958 4.81372L19.1875 5.61928H20.5597L19.4514 4.81372L19.8708 6.1165Z" fill="white"/>
        <path d="M19.8708 4.19169L20.2958 2.88892L19.1875 3.69447H20.5597L19.4486 2.88892L19.8708 4.19169Z"
              fill="white"/>
        <path d="M21.7742 5.18046L22.1992 3.87769L21.0908 4.68324H22.4658L21.3575 3.87769L21.7742 5.18046Z"
              fill="white"/>
        <path d="M17.9713 7.05278L18.3963 5.75L17.2852 6.55556H18.6574L17.549 5.75L17.9713 7.05278Z" fill="white"/>
        <path d="M19.8708 8.03886L20.2958 6.73608L19.1875 7.54164H20.5597L19.4514 6.73608L19.8708 8.03886Z"
              fill="white"/>
        <path d="M14.582 0.0361328H6.46533V30.0945H14.582V0.0361328Z" fill="#D22630"/>
        <path d="M6.46533 -1.94971V-1.65526L6.92089 -1.23026L6.76533 -1.08582L7.09033 -0.785818L6.94589 -0.655263V-0.846929H6.66533V-0.621929L7.29589 -0.0302625H7.61533L7.65144 -0.235818H7.46533L7.66533 -0.421929L8.16533 0.0280708L7.66533 0.483626L7.46533 0.305849H7.65144L7.61533 0.0947375H7.29589L6.67089 0.686404V0.911404H6.95144V0.722515L7.09589 0.853071L6.77089 1.15307L6.92644 1.29752L6.47089 1.72252V2.01696L7.24311 1.29474L7.08755 1.15029L7.41255 0.850293L7.132 0.59196L7.31811 0.422515L7.67089 0.750293L8.44867 0.0336263L7.66811 -0.68304L7.31255 -0.352485L7.12644 -0.521929L7.407 -0.78304L7.082 -1.08304L7.23755 -1.22748L6.46533 -1.94971ZM6.46533 -0.521929V0.586404L6.64589 0.400293V0.189182H6.83755L6.99311 0.0336263L6.83755 -0.121929H6.64589V-0.338596L6.46533 -0.521929ZM7.782 -0.124707L7.757 0.0252931L7.782 0.180849L7.94867 0.0252931L7.782 -0.124707Z"
              fill="#383739"/>
        <path d="M6.46533 -1.91943V-1.68332L6.95144 -1.22777L6.79589 -1.08332L7.12089 -0.783323L6.92644 -0.597211V-0.816656H6.69033V-0.622212L7.307 -0.0472114H7.59311L7.62366 -0.213878H7.41811L7.67366 -0.455545L8.19866 0.0305662L7.66811 0.516677L7.41811 0.280566H7.62922L7.59866 0.113899H7.31255L6.69589 0.6889V0.883344H6.932V0.6639L7.12644 0.850011L6.80144 1.15001L6.957 1.29446L6.47089 1.75001V1.98057L7.21255 1.29446L7.057 1.15001L7.382 0.855566L7.10144 0.594455L7.31811 0.394455L7.67366 0.725011L8.41533 0.0333439L7.66811 -0.652767L7.31255 -0.322212L7.09589 -0.522211L7.37644 -0.783323L7.05144 -1.08332L7.207 -1.22777L6.46533 -1.91943ZM6.46533 -0.4861V0.561122L6.62644 0.400011V0.1639H6.832L6.96255 0.0333439L6.832 -0.0972115H6.62644V-0.327767C6.62367 -0.330545 6.46533 -0.4861 6.46533 -0.4861ZM7.79589 -0.0861003L7.77644 0.0250107L7.79589 0.136122L7.90978 0.0250107L7.79589 -0.0861003Z"
              fill="#FFC72C"/>
        <path d="M6.46533 3.52222V3.81666L6.92089 4.24166L6.76533 4.38611L7.09033 4.68611L6.94589 4.81666V4.625H6.66533V4.85L7.29589 5.44166H7.61533L7.65144 5.23611H7.46533L7.66533 5.05L8.16533 5.50555L7.66533 5.96111L7.46533 5.775H7.65144L7.61533 5.56389H7.29589L6.66533 6.15555V6.38055H6.94589V6.18889L7.09033 6.31944L6.76533 6.61944L6.92089 6.76389L6.46533 7.19722V7.49167L7.23755 6.76944L7.082 6.625L7.407 6.325L7.12644 6.06389L7.31255 5.89444L7.66811 6.225L8.44867 5.50833L7.66811 4.78611L7.31255 5.11666L7.12644 4.94722L7.407 4.68611L7.082 4.38888L7.23755 4.24444L6.46533 3.52222ZM6.46533 4.95V6.05555L6.64589 5.86944V5.65277H6.83755L6.99311 5.49722L6.83755 5.34166H6.64589V5.125L6.46533 4.95ZM7.782 5.34444L7.757 5.49444L7.782 5.65L7.94867 5.49444L7.782 5.34444Z"
              fill="#383739"/>
        <path d="M6.46533 3.55249V3.7886L6.95144 4.24416L6.79589 4.3886L7.12089 4.6886L6.92644 4.87471V4.65527H6.69033V4.84971L7.307 5.42471H7.59311L7.62367 5.25805H7.41811L7.67367 5.01638L8.20422 5.50249L7.67367 5.9886L7.41811 5.75249H7.62922L7.59867 5.58582H7.31255L6.69589 6.16638V6.36082H6.932V6.14138L7.12644 6.32749L6.80144 6.62749L6.957 6.77193L6.47089 7.22749V7.4636L7.21255 6.77749L7.057 6.63305L7.382 6.33305L7.10144 6.07193L7.31811 5.87193L7.67367 6.20249L8.42089 5.51638L7.66811 4.81916L7.31255 5.14971L7.09589 4.94971L7.37644 4.6886L7.05144 4.3886L7.207 4.24416L6.46533 3.55249ZM6.46533 4.98305V6.03027L6.62644 5.86916V5.6386H6.832L6.96255 5.50805L6.832 5.37749H6.62644V5.14138L6.46533 4.98305ZM7.79589 5.38582L7.77644 5.49693L7.79589 5.60805L7.90978 5.49693L7.79589 5.38582Z"
              fill="#FFC72C"/>
        <path d="M6.46533 9.17212V9.46656L6.92089 9.89156L6.76533 10.036L7.09033 10.336L6.94589 10.4666V10.2749H6.66533V10.4999L7.29589 11.0916H7.61533L7.65144 10.886H7.46533L7.66533 10.6999L8.16533 11.1555L7.66533 11.611L7.46533 11.4249H7.65144L7.61533 11.2138H7.29589L6.67089 11.7999V12.0249H6.95144V11.8332L7.09589 11.9638L6.77089 12.2721L6.92644 12.4166L6.47089 12.8416V13.1388L7.24311 12.4166L7.08755 12.2721L7.41256 11.9721L7.132 11.711L7.31811 11.5416L7.67367 11.8721L8.45422 11.1555L7.66811 10.4388L7.31255 10.7693L7.12644 10.5999L7.407 10.3388L7.082 10.0388L7.23755 9.89434L6.46533 9.17212ZM6.46533 10.5999V11.7082L6.64589 11.5221V11.3055H6.83755L6.99311 11.1499L6.83755 10.9943H6.64589V10.7777L6.46533 10.5999ZM7.782 10.9943L7.757 11.1443L7.782 11.2999L7.94867 11.1443L7.782 10.9943Z"
              fill="#383739"/>
        <path d="M6.46533 9.20288V9.43899L6.95144 9.89455L6.79589 10.039L7.12089 10.339L6.92644 10.5251V10.3057H6.69033V10.5001L7.307 11.0751H7.59311L7.62367 10.9084H7.41811L7.67367 10.6668L8.20422 11.1529L7.67367 11.639L7.41811 11.4029H7.62922L7.59867 11.2362H7.31255L6.69589 11.8112V12.0057H6.932V11.7862L7.12644 11.9723L6.80144 12.2779L6.957 12.4223L6.47089 12.8779V13.114L7.21255 12.4279L7.057 12.2834L7.382 11.9834L7.10144 11.7223L7.31811 11.5223L7.67367 11.8529L8.42089 11.1668L7.66811 10.4695L7.31255 10.8001L7.09589 10.6001L7.37644 10.339L7.05144 10.039L7.207 9.89455L6.46533 9.20288ZM6.46533 10.6362V11.6834L6.62644 11.5223V11.2918H6.832L6.96255 11.1612L6.832 11.0307H6.62644V10.8001C6.62367 10.7918 6.46533 10.6362 6.46533 10.6362ZM7.79589 11.0362L7.77644 11.1473L7.79589 11.2584L7.90978 11.1473L7.79589 11.0362Z"
              fill="#FFC72C"/>
        <path d="M6.46533 14.8225V15.117L6.92089 15.542L6.76533 15.6864L7.09033 15.9864L6.94589 16.117V15.9253H6.66533V16.1503L7.29589 16.742H7.61533L7.65144 16.5364H7.46533L7.66533 16.3503L8.16533 16.8058L7.66533 17.2614L7.46533 17.0836H7.65144L7.61533 16.867H7.29589L6.66533 17.4586V17.6836H6.94589V17.492L7.09033 17.6225L6.76533 17.9225L6.92089 18.067L6.46533 18.4947V18.7892L7.23755 18.067L7.082 17.9225L7.407 17.6225L7.12644 17.3614L7.31255 17.192L7.66811 17.5225L8.44867 16.8058L7.66811 16.0892L7.31255 16.4197L7.12644 16.2503L7.407 15.9892L7.082 15.6892L7.23755 15.5447L6.46533 14.8225ZM6.46533 16.2503V17.3586L6.64589 17.1725V16.9558H6.83755L6.99311 16.8003L6.83755 16.6447H6.64589V16.4281L6.46533 16.2503ZM7.782 16.6475L7.757 16.7975L7.782 16.9531L7.94867 16.7975L7.782 16.6475Z"
              fill="#383739"/>
        <path d="M6.46533 14.8528V15.0889L6.95144 15.5444L6.79589 15.6889L7.12089 15.9889L6.92644 16.175V15.9556H6.69033V16.15L7.307 16.725H7.59311L7.62367 16.5583H7.41811L7.67367 16.3167L8.20422 16.8028L7.67367 17.2889L7.41811 17.0528H7.62922L7.59867 16.8861H7.31255L6.69589 17.4611V17.6556H6.932V17.4361L7.12644 17.6222L6.80144 17.9222L6.957 18.0667L6.47089 18.5222V18.7583L7.21255 18.0722L7.057 17.9278L7.382 17.6278L7.10144 17.3667L7.31811 17.1667L7.67367 17.4972L8.42089 16.8111L7.66811 16.1139L7.31255 16.4444L7.09589 16.2444L7.37644 15.9833L7.05144 15.6833L7.207 15.5389L6.46533 14.8528ZM6.46533 16.2861V17.3333L6.62644 17.1722V16.9417H6.832L6.96255 16.8111L6.832 16.6806H6.62644V16.45C6.62367 16.4417 6.46533 16.2861 6.46533 16.2861ZM7.79589 16.6861L7.77644 16.7972L7.79589 16.9083L7.90978 16.7972L7.79589 16.6861Z"
              fill="#FFC72C"/>
        <path d="M6.46533 20.4751V20.7695L6.92089 21.1945L6.76533 21.339L7.09033 21.639L6.94589 21.7695V21.5779H6.66533V21.8029L7.29589 22.3945H7.61533L7.65144 22.189H7.46533L7.66533 22.0029L8.16533 22.4584L7.66533 22.914L7.46533 22.7279H7.65144L7.61533 22.5168H7.29589L6.66533 23.1084V23.3334H6.94589V23.1418L7.09033 23.2723L6.76533 23.5723L6.92089 23.7168L6.46533 24.1501V24.4445L7.23755 23.7223L7.082 23.5779L7.407 23.2779L7.12644 23.0168L7.31255 22.8473L7.66811 23.1779L8.44867 22.4612L7.66811 21.739L7.31255 22.0695L7.12644 21.9001L7.407 21.639L7.082 21.339L7.23755 21.1945L6.46533 20.4751ZM6.46533 21.9029V23.0112L6.64589 22.8251V22.6084H6.83755L6.99311 22.4529L6.83755 22.2973H6.64589V22.0807L6.46533 21.9029ZM7.782 22.2973L7.757 22.4473L7.782 22.6029L7.94867 22.4473L7.782 22.2973Z"
              fill="#383739"/>
        <path d="M6.46533 20.5027V20.7388L6.95144 21.1944L6.79589 21.3388L7.12089 21.6388L6.92644 21.8249V21.6055H6.69033V21.7999L7.307 22.3749H7.59311L7.62367 22.2082H7.41811L7.67367 21.9666L8.20422 22.4527L7.67089 22.9444L7.41533 22.7082H7.62644L7.59589 22.5416H7.30978L6.69311 23.1166V23.311H6.92922V23.0916L7.12367 23.2777L6.79867 23.5777L6.95422 23.7221L6.46811 24.1777V24.4138L7.20978 23.7277L7.05422 23.5832L7.37922 23.2832L7.09867 23.0221L7.31533 22.8221L7.67089 23.1527L8.41811 22.4666L7.66533 21.7694L7.30978 22.0999L7.09311 21.8999L7.37367 21.6388L7.04867 21.3388L7.20422 21.1944L6.46533 20.5027ZM6.46533 21.936V22.9777L6.62644 22.8166V22.586H6.832L6.96255 22.4555L6.832 22.3249H6.62644V22.0944C6.62367 22.0916 6.46533 21.936 6.46533 21.936ZM7.79589 22.336L7.77644 22.4471L7.79589 22.5582L7.90978 22.4471L7.79589 22.336Z"
              fill="#FFC72C"/>
        <path d="M14.579 -1.94971V-1.65526L14.1235 -1.23026L14.279 -1.08582L13.954 -0.785818L14.0985 -0.655263V-0.846929H14.379V-0.621929L13.7429 -0.024707H13.4263L13.3901 -0.230263H13.5763L13.3763 -0.416374L12.8763 0.0336263L13.3763 0.489182L13.5763 0.303071H13.3901L13.4263 0.0919597H13.7457L14.3707 0.683626V0.908626H14.0902V0.722515L13.9457 0.853071L14.2707 1.15307L14.1152 1.29752L14.5735 1.72252V2.01696L13.8013 1.29474L13.9568 1.15029L13.6318 0.853071L13.9124 0.59196L13.7263 0.422515L13.3735 0.750293L12.5957 0.0336263L13.3763 -0.68304L13.7318 -0.352485L13.9179 -0.521929L13.6374 -0.78304L13.9624 -1.08304L13.8068 -1.22748L14.579 -1.94971ZM14.579 -0.521929V0.586404L14.3985 0.400293V0.189182H14.2068L14.0513 0.0336263L14.2068 -0.121929H14.3985V-0.338596L14.579 -0.521929ZM13.2624 -0.124707L13.2874 0.0252931L13.2624 0.180849L13.0957 0.0252931L13.2624 -0.124707Z"
              fill="#383739"/>
        <path d="M14.58 -1.91943V-1.68332L14.0939 -1.22777L14.2495 -1.08332L13.9245 -0.783323L14.1189 -0.597211V-0.816656H14.355V-0.622211L13.7328 -0.0444336H13.4467L13.4161 -0.2111H13.6273L13.3773 -0.452767L12.8467 0.036122L13.3773 0.522233L13.6273 0.286122H13.4161L13.4467 0.119455H13.7328L14.3495 0.694455V0.8889H14.1134V0.669455L13.9189 0.855566L14.2439 1.15834L14.0884 1.30279L14.5745 1.75834V1.9889L13.8328 1.30279L13.9884 1.15834L13.6634 0.858344L13.9439 0.597233L13.7273 0.397233L13.3717 0.727789L12.6328 0.036122L13.38 -0.649989L13.7356 -0.319434L13.9523 -0.519434L13.6717 -0.780545L13.9939 -1.08332L13.8384 -1.22777L14.58 -1.91943ZM14.58 -0.4861V0.561122L14.4189 0.400011V0.1639H14.2161L14.0856 0.033344L14.2161 -0.0972114H14.4217V-0.327767C14.4217 -0.330545 14.58 -0.4861 14.58 -0.4861ZM13.2495 -0.0861002L13.2689 0.0250108L13.2495 0.136122L13.1356 0.0250108L13.2495 -0.0861002Z"
              fill="#FFC72C"/>
        <path d="M14.5784 3.52222V3.81666L14.1228 4.24166L14.2784 4.3861L13.9534 4.6861L14.0978 4.81666V4.62499H14.3784V4.84999L13.7423 5.44444H13.4256L13.3895 5.23888H13.5756L13.3756 5.05277L12.8756 5.50833L13.3756 5.96388L13.5756 5.77777H13.3895L13.4256 5.56666H13.7451L14.3756 6.15833V6.38333H14.0951V6.19166L13.9506 6.32221L14.2756 6.62221L14.1201 6.76666L14.5756 7.19166V7.4861L13.8034 6.76388L13.959 6.61944L13.634 6.31944L13.9145 6.05833L13.7284 5.88888L13.3728 6.21944L12.5923 5.50277L13.3728 4.78055L13.7284 5.1111L13.9145 4.94166L13.634 4.68055L13.959 4.38055L13.8034 4.23611L14.5784 3.52222ZM14.5784 4.94999V6.05555L14.3978 5.86944V5.65277H14.2062L14.0506 5.49722L14.2062 5.34166H14.3978V5.12499L14.5784 4.94999ZM13.2617 5.34444L13.2867 5.49444L13.2617 5.64999L13.0951 5.49444L13.2617 5.34444Z"
              fill="#383739"/>
        <path d="M14.58 3.55249V3.7886L14.0939 4.24416L14.2495 4.3886L13.9245 4.6886L14.1189 4.87471V4.65527H14.355V4.84971L13.7384 5.42471H13.4523L13.4217 5.25805H13.6328L13.3773 5.01638L12.8467 5.50249L13.3773 5.9886L13.6328 5.75249H13.4217L13.4523 5.58582H13.7384L14.355 6.16638V6.36082H14.1189V6.14138L13.9245 6.32749L14.2495 6.62749L14.0939 6.77193L14.58 7.22749V7.4636L13.8384 6.77749L13.9939 6.63305L13.6689 6.33305L13.9495 6.07193L13.7328 5.87193L13.3773 6.20249L12.6328 5.51638L13.38 4.81916L13.7356 5.14971L13.9523 4.94971L13.6717 4.6886L13.9939 4.3886L13.8384 4.24416L14.58 3.55249ZM14.58 4.98305V6.03027L14.4189 5.86916V5.6386H14.2161L14.0856 5.50805L14.2161 5.37749H14.4217V5.14138L14.58 4.98305ZM13.2495 5.38582L13.2689 5.49693L13.2495 5.60805L13.1356 5.49693L13.2495 5.38582Z"
              fill="#FFC72C"/>
        <path d="M14.579 9.17212V9.46656L14.1235 9.89156L14.279 10.036L13.954 10.336L14.0985 10.4666V10.2749H14.379V10.4999L13.7485 11.0916H13.429L13.3929 10.886H13.579L13.379 10.6999L12.879 11.1555L13.379 11.611L13.579 11.4249H13.3929L13.429 11.2138H13.7485L14.379 11.8055V12.0305H14.0985V11.8388L13.954 11.9693L14.279 12.2693L14.1235 12.4138L14.579 12.8388V13.1332L13.8068 12.411L13.9624 12.2666L13.6374 11.9666L13.9179 11.7055L13.7318 11.536L13.3763 11.8666L12.5957 11.1443L13.3763 10.4277L13.7318 10.7582L13.9179 10.5888L13.6374 10.3277L13.9624 10.0277L13.8068 9.88323L14.579 9.17212ZM14.579 10.5999V11.7082L14.3985 11.5221V11.3055H14.2068L14.0513 11.1499L14.2068 10.9943H14.3985V10.7777L14.579 10.5999ZM13.2624 10.9943L13.2874 11.1443L13.2624 11.2999L13.0957 11.1443L13.2624 10.9943Z"
              fill="#383739"/>
        <path d="M14.58 9.20288V9.43899L14.0939 9.89455L14.2495 10.039L13.9245 10.339L14.1189 10.5251V10.3057H14.355V10.5001L13.7384 11.0751H13.4523L13.4217 10.9084H13.6328L13.3773 10.6668L12.8467 11.1529L13.3773 11.639L13.6328 11.4029H13.4217L13.4523 11.2362H13.7384L14.355 11.8112V12.0057H14.1189V11.7862L13.9245 11.9723L14.2495 12.2723L14.0939 12.4168L14.58 12.8723V13.1084L13.8384 12.4223L13.9939 12.2779L13.6689 11.9779L13.9495 11.7168L13.7328 11.5168L13.3773 11.8473L12.6328 11.1557L13.38 10.4695L13.7356 10.8001L13.9523 10.6001L13.6717 10.339L13.9967 10.039L13.8411 9.89455L14.58 9.20288ZM14.58 10.6362V11.6834L14.4189 11.5223V11.2918H14.2161L14.0856 11.1612L14.2161 11.0307H14.4217V10.8001C14.4217 10.7918 14.58 10.6362 14.58 10.6362ZM13.2495 11.0362L13.2689 11.1473L13.2495 11.2584L13.1356 11.1473L13.2495 11.0362Z"
              fill="#FFC72C"/>
        <path d="M14.579 14.8225V15.117L14.1235 15.542L14.279 15.6864L13.954 15.9864L14.0985 16.117V15.9253H14.379V16.1503L13.7485 16.742H13.429L13.3929 16.5364H13.579L13.379 16.3503L12.879 16.8058L13.379 17.2614L13.579 17.0753H13.3929L13.429 16.8642H13.7485L14.379 17.4558V17.6808H14.0985V17.4892L13.954 17.6197L14.279 17.9197L14.1235 18.0642L14.579 18.4892V18.7836L13.8068 18.0614L13.9624 17.917L13.6374 17.617L13.9179 17.3558L13.7318 17.1864L13.3763 17.5281L12.5957 16.8114L13.3763 16.0947L13.7318 16.4253L13.9179 16.2558L13.6374 15.9947L13.9624 15.6947L13.8068 15.5503L14.579 14.8225ZM14.579 16.2503V17.3586L14.3985 17.1725V16.9558H14.2068L14.0513 16.8003L14.2068 16.6447H14.3985V16.4281L14.579 16.2503ZM13.2624 16.6475L13.2874 16.7975L13.2624 16.9531L13.0957 16.7975L13.2624 16.6475Z"
              fill="#383739"/>
        <path d="M14.58 14.8528V15.0889L14.0939 15.5444L14.2495 15.6889L13.9245 15.9889L14.1189 16.175V15.9556H14.355V16.15L13.7384 16.725H13.4523L13.4217 16.5583H13.6328L13.3773 16.3167L12.8467 16.8056L13.3773 17.2917L13.6328 17.0556H13.4217L13.4523 16.8889H13.7384L14.355 17.4639V17.6583H14.1189V17.4389L13.9245 17.625L14.2495 17.925L14.0939 18.0694L14.58 18.525V18.7611L13.8384 18.075L13.9939 17.9306L13.6689 17.6306L13.9495 17.3694L13.7328 17.1694L13.3773 17.5L12.6328 16.8167L13.38 16.1306L13.7356 16.4611L13.9523 16.2611L13.6717 16L13.9967 15.7L13.8411 15.5556L14.58 14.8528ZM14.58 16.2861V17.3333L14.4189 17.1722V16.9417H14.2161L14.0856 16.8111L14.2161 16.6806H14.4217V16.45C14.4217 16.4417 14.58 16.2861 14.58 16.2861ZM13.2495 16.6861L13.2689 16.7972L13.2495 16.9083L13.1356 16.7972L13.2495 16.6861Z"
              fill="#FFC72C"/>
        <path d="M14.579 20.4751V20.7695L14.1235 21.1945L14.279 21.339L13.954 21.639L14.0985 21.7695V21.5779H14.379V21.8029L13.7485 22.3945H13.429L13.3929 22.189H13.579L13.379 22.0029L12.879 22.4584L13.379 22.914L13.579 22.7279H13.3929L13.429 22.5168H13.7485L14.379 23.1084V23.3334H14.0985V23.1418L13.954 23.2723L14.279 23.5723L14.1235 23.7168L14.579 24.1418V24.4362L13.8068 23.714L13.9624 23.5695L13.6374 23.2779L13.9179 23.0168L13.7318 22.8473L13.3763 23.1779L12.5957 22.4612L13.3763 21.7445L13.7318 22.0751L13.9179 21.9057L13.6374 21.6445L13.9624 21.3445L13.8068 21.2001L14.579 20.4751ZM14.579 21.9029V23.0112L14.3985 22.8251V22.6084H14.2068L14.0513 22.4529L14.2068 22.2973H14.3985V22.0807L14.579 21.9029ZM13.2624 22.2973L13.2874 22.4473L13.2624 22.6029L13.0957 22.4473L13.2624 22.2973Z"
              fill="#383739"/>
        <path d="M14.5786 20.5027V20.7388L14.0925 21.1944L14.248 21.3388L13.923 21.6388L14.1175 21.8249V21.6055H14.3536V21.7999L13.7314 22.3749H13.4453L13.4147 22.2082H13.6258L13.3703 21.9666L12.8397 22.4527L13.3703 22.9388L13.6258 22.7027H13.4147L13.4453 22.536H13.7314L14.348 23.111V23.3055H14.1119V23.086L13.9175 23.2721L14.2425 23.5721L14.0869 23.7166L14.573 24.1721V24.4082L13.8314 23.7221L13.9869 23.5777L13.6619 23.2777L13.9425 23.0166L13.7258 22.8166L13.3703 23.1471L12.623 22.461L13.3703 21.7749L13.7258 22.1055L13.9425 21.9055L13.6619 21.6444L13.9869 21.3444L13.8314 21.1999L14.5786 20.5027ZM14.5786 21.936V22.9777L14.4175 22.8166V22.586H14.2147L14.0842 22.4555L14.2147 22.3249H14.4203V22.0944C14.4203 22.0916 14.5786 21.936 14.5786 21.936ZM13.248 22.336L13.2675 22.4471L13.248 22.5582L13.1342 22.4471L13.248 22.336Z"
              fill="#FFC72C"/>
        <path d="M7.1205 26.6249C7.15939 26.7944 7.2955 26.9249 7.33161 27.0999C7.3955 26.9138 7.45661 26.7583 7.41216 26.5583C7.38161 26.4138 7.25661 26.3138 7.2455 26.1638C7.10939 26.286 7.08161 26.4555 7.1205 26.6249ZM7.08994 27.3416C7.20105 27.4972 7.35939 27.611 7.53161 27.6916C7.4955 27.5555 7.56216 27.4555 7.63161 27.3472C7.71772 27.2166 7.75661 27.0916 7.68716 26.9416C7.65661 27.0166 7.61216 27.0805 7.56216 27.1472C7.48716 27.2527 7.43716 27.3416 7.42605 27.4722C7.33994 27.4083 7.30105 27.311 7.25661 27.2166C7.18716 27.0805 7.0705 26.9722 6.93994 26.8972C6.9705 27.0555 6.9955 27.2166 7.08994 27.3416ZM7.71772 27.8027C7.69272 27.8888 7.67327 27.9722 7.67883 28.0638C7.60383 27.9833 7.50939 27.9249 7.41772 27.8583C7.29827 27.7638 7.15661 27.6916 7.06216 27.5666C7.07605 27.7472 7.15105 27.8972 7.30383 28.0083C7.45939 28.1222 7.64827 28.1888 7.80105 28.3083C7.77605 28.1416 7.83994 28.0138 7.88994 27.8583C7.93439 27.7138 7.88994 27.5666 7.7955 27.4583C7.79272 27.5833 7.75105 27.686 7.71772 27.8027ZM8.06772 28.3583C8.09827 28.4833 8.18716 28.5833 8.25383 28.6999C8.08716 28.6499 7.94272 28.561 7.79272 28.4749C7.61216 28.3805 7.42327 28.3138 7.26216 28.1888C7.34272 28.4833 7.54272 28.661 7.83439 28.7444C8.03439 28.8055 8.20105 28.7749 8.43994 28.8694C8.40939 28.7027 8.36494 28.5277 8.28439 28.3833C8.22327 28.2777 8.15939 28.1722 8.11772 28.0527C8.06772 28.1527 8.04272 28.2472 8.06772 28.3583ZM8.67883 28.8138C8.73439 28.9083 8.80938 28.9944 8.90383 29.0583C8.66772 29.0722 8.47883 28.9222 8.25383 28.9194C8.11494 28.9138 7.97883 28.9583 7.83439 28.9444C8.00383 29.0583 8.18438 29.161 8.38994 29.1888C8.65938 29.2249 8.91216 29.1527 9.20661 29.1833C9.06772 29.0833 8.9955 28.9527 8.91216 28.8138C8.79827 28.6388 8.69272 28.5138 8.4705 28.4833C8.55939 28.5749 8.60939 28.6999 8.67883 28.8138ZM9.50938 29.1999C9.09272 29.2694 8.69827 29.361 8.27605 29.3666C8.74827 29.5333 9.19272 29.561 9.66494 29.3916C9.9205 29.3027 10.1122 29.2527 10.3011 29.2666C10.5816 29.286 10.9233 29.3972 11.2983 29.7916L11.4427 29.6721C10.9066 29.1944 10.2011 29.086 9.50938 29.1999Z"
              fill="#FFC72C"/>
        <path d="M7.48203 3.55546L6.83203 3.15546V2.1999L7.48203 1.7999V1.2999L8.0987 0.930458H8.59037L9.52092 0.399902H11.5237L12.4543 0.924902H12.9459L13.5626 1.29435V1.7999L14.2154 2.20268V3.15824L13.5654 3.55824V4.06379L12.9487 4.43324H12.457L11.5265 4.95546H9.52092L8.59037 4.43046H8.0987L7.48203 4.06101V3.55546Z"
              fill="#383739"/>
        <path d="M9.52672 0.419434L8.59616 0.944434H8.11005L7.51005 1.30554V1.8111L6.85449 2.20832V3.13888L7.50449 3.53332V4.04443L8.10171 4.40554H8.59338L9.52394 4.93054H11.5184L12.4489 4.40554H12.9406L13.5406 4.04443V3.54443L14.1906 3.14999V2.21388L13.5406 1.81943V1.30832L12.9406 0.947211H12.4489L11.5184 0.422211H9.52672V0.419434ZM9.57949 0.616656H11.4684L12.3989 1.14166H12.885L13.3406 1.41666V1.92221L13.9934 2.31943V3.04166L13.3434 3.4361V3.94166L12.8878 4.21666H12.4017L11.4656 4.74443H9.57671L8.64616 4.21943H8.16005L7.70449 3.94443V3.44443L7.05449 3.04999V2.31943L7.70449 1.92499V1.41388L8.16005 1.13888H8.64616L9.57949 0.616656Z"
              fill="#00843D"/>
        <path d="M10.5123 2.68876V0.635986H9.5845L8.65395 1.16099H8.16784L7.72617 1.42765V1.93321L7.07617 2.33321V2.66932H10.5373V4.7221H11.4651L12.3956 4.1971H12.8817L13.3234 3.93043V3.42488L13.9734 3.02488V2.68876H10.5123Z"
              fill="#FFC72C"/>
        <path d="M7.07129 2.68876V3.02488L7.72129 3.42488V3.93043L8.16296 4.1971H8.64907L9.57962 4.7221H10.5074V2.66932H13.9685V2.33321L13.3185 1.93321V1.42765L12.8768 1.16099H12.3907L11.4602 0.635986H10.5324V2.68876H7.07129Z"
              fill="white"/>
        <path d="M8.48776 1.35288L8.32665 1.20288L8.16554 1.30288L8.32665 1.45288L8.12109 1.57788H8.57109L8.95998 1.94455L9.08498 1.81399L8.70998 1.45844V1.21677L8.48776 1.35288Z"
              fill="#383739"/>
        <path d="M9.2485 1.28599L9.08739 1.13599L8.92628 1.23599L9.08739 1.38599L8.88184 1.51099H9.33184L9.71795 1.87765L9.84295 1.7471L9.46795 1.39154V1.14988L9.2485 1.28599Z"
              fill="#383739"/>
        <path d="M8.43209 1.77769L8.27098 1.62769L8.10987 1.72769L8.27098 1.87769L8.06543 2.00269H8.51543L8.90154 2.36935L9.02654 2.2388L8.65154 1.88324V1.64157L8.43209 1.77769Z"
              fill="#383739"/>
        <path d="M10.521 0.616455H10.1155L9.90435 0.822011H9.48768L9.18213 0.983122L9.25157 1.15812L9.52102 1.01368H9.64046L10.0571 1.49423L10.5127 1.21923L10.521 0.616455Z"
              fill="#383739"/>
        <path d="M8.3291 1.22778L8.47355 1.36389L8.3541 1.43889L8.20966 1.30278L8.3291 1.22778ZM8.68744 1.25278V1.46389L9.0541 1.80834L8.95966 1.90834L8.58466 1.55278H8.2041L8.68744 1.25278Z"
              fill="#D22630"/>
        <path d="M9.08511 1.16113L9.22956 1.29724L9.11011 1.37224L8.96567 1.23613L9.08511 1.16113ZM9.44622 1.18613V1.39724L9.81289 1.74169L9.71845 1.84169L9.34345 1.48613H8.96289L9.44622 1.18613Z"
              fill="#D22630"/>
        <path d="M8.27408 1.65845L8.41852 1.79456L8.29908 1.86956L8.15463 1.73345L8.27408 1.65845ZM8.63519 1.68345V1.89456L9.00186 2.239L8.90741 2.339L8.53241 1.98345H8.15186L8.63519 1.68345Z"
              fill="#D22630"/>
        <path d="M10.5126 0.635986H10.1264L9.91533 0.841542H9.49867L9.21533 0.985986L9.27089 1.1221L9.52644 0.985986H9.66255L10.0737 1.46099L10.5153 1.19154L10.5126 0.635986Z"
              fill="#D22630"/>
        <path d="M8.48776 4.00841L8.32665 4.15841L8.16554 4.05841L8.32665 3.90841L8.12109 3.78341H8.57109L8.9572 3.41675L9.0822 3.5473L8.7072 3.90286V4.14453L8.48776 4.00841Z"
              fill="#383739"/>
        <path d="M9.2485 4.07775L9.08739 4.22775L8.92628 4.12775L9.08739 3.97775L8.88184 3.85275H9.33184L9.71795 3.48608L9.84295 3.61664L9.47072 3.97219V4.21386L9.2485 4.07775Z"
              fill="#383739"/>
        <path d="M8.43209 3.58068L8.27098 3.73068L8.10987 3.63068L8.27098 3.48068L8.06543 3.35568H8.51543L8.90154 2.98901L9.02654 3.11957L8.65154 3.47513V3.71679L8.43209 3.58068Z"
              fill="#383739"/>
        <path d="M10.521 4.74423H10.1155L9.90435 4.53868H9.48768L9.18213 4.37757L9.25157 4.20257L9.52102 4.34701H9.64046L10.0571 3.86646L10.5127 4.14146L10.521 4.74423Z"
              fill="#383739"/>
        <path d="M8.3291 4.13344L8.47355 3.99732L8.3541 3.92232L8.20966 4.05844L8.3291 4.13344ZM8.68744 4.10844V3.89733L9.0541 3.55288L8.95966 3.45288L8.58466 3.80844H8.2041L8.68744 4.10844Z"
              fill="#D22630"/>
        <path d="M9.08511 4.1974L9.22956 4.06129L9.11011 3.98629L8.96567 4.1224L9.08511 4.1974ZM9.44622 4.1724V3.96129L9.81289 3.61685L9.71845 3.51685L9.34345 3.8724H8.96289L9.44622 4.1724Z"
              fill="#D22630"/>
        <path d="M8.27408 3.70277L8.41852 3.56666L8.29908 3.49166L8.15463 3.62777L8.27408 3.70277ZM8.63519 3.67777V3.46666L9.00186 3.12222L8.90741 3.02222L8.53241 3.37777H8.15186L8.63519 3.67777Z"
              fill="#D22630"/>
        <path d="M10.5129 4.7249H10.1268L9.91567 4.51935H9.499L9.21289 4.3749L9.26845 4.23879L9.524 4.3749H9.66011L10.0712 3.8999L10.5129 4.16935V4.7249Z"
              fill="#D22630"/>
        <path d="M8.22354 2.02501L8.02909 1.95557L8.02354 1.96112L7.77354 2.13612V2.18057L7.37354 2.68612L7.77354 3.19168V3.23612L8.02909 3.41112L8.22354 3.34168L8.10409 3.26112V3.11112L8.14854 3.05556H8.35965V2.30834H8.14854L8.10409 2.25279V2.10279L8.22354 2.02501Z"
              fill="#383739"/>
        <path d="M7.79288 2.13908L8.02899 1.97241L8.17344 2.02797L8.08455 2.08908V2.25852L8.14566 2.32797H8.34566V3.03352H8.14566L8.08455 3.10297V3.27241L8.17344 3.33352L8.02899 3.38908L7.79288 3.22241V3.17797L7.39844 2.68075L7.79288 2.18352V2.13908Z"
              fill="#D22630"/>
        <path d="M12.5518 1.35288L12.7129 1.20288L12.874 1.30288L12.7129 1.45288L12.9185 1.57788H12.4657L12.0796 1.94455L11.9546 1.81399L12.3296 1.45844V1.21677L12.5518 1.35288Z"
              fill="#383739"/>
        <path d="M11.7956 1.28599L11.9567 1.13599L12.1178 1.23599L11.9567 1.38599L12.1623 1.51099H11.7123L11.3262 1.87765L11.2012 1.7471L11.5762 1.39154V1.14988L11.7956 1.28599Z"
              fill="#383739"/>
        <path d="M12.6135 1.77769L12.7746 1.62769L12.9357 1.72769L12.7746 1.87769L12.9802 2.00269H12.5302L12.144 2.36935L12.019 2.2388L12.394 1.88324V1.64157L12.6135 1.77769Z"
              fill="#383739"/>
        <path d="M10.5205 0.616455H10.9261L11.1372 0.822011H11.5538L11.8594 0.983122L11.79 1.15812L11.5205 1.01368H11.4011L10.9844 1.49423L10.5288 1.21923L10.5205 0.616455Z"
              fill="#383739"/>
        <path d="M12.7152 1.22778L12.5708 1.36389L12.6902 1.43889L12.8347 1.30278L12.7152 1.22778ZM12.3569 1.25278V1.46389L11.9902 1.80834L12.0847 1.90834L12.4597 1.55278H12.8402L12.3569 1.25278Z"
              fill="#D22630"/>
        <path d="M11.9597 1.16113L11.8153 1.29724L11.9347 1.37224L12.0792 1.23613L11.9597 1.16113ZM11.5986 1.18613V1.39724L11.2319 1.74169L11.3264 1.84169L11.7014 1.48613H12.0819L11.5986 1.18613Z"
              fill="#D22630"/>
        <path d="M12.7712 1.65845L12.6268 1.79456L12.7462 1.86956L12.8907 1.73345L12.7712 1.65845ZM12.4101 1.68345V1.89456L12.0435 2.239L12.1379 2.339L12.5129 1.98345H12.8935L12.4101 1.68345Z"
              fill="#D22630"/>
        <path d="M10.5317 0.635986H10.9178L11.129 0.841542H11.5456L11.8317 0.985986L11.7762 1.1221L11.5206 0.985986H11.3845L10.9734 1.46099L10.5317 1.19154V0.635986Z"
              fill="#D22630"/>
        <path d="M12.5518 4.00841L12.7129 4.15841L12.874 4.05841L12.7129 3.90841L12.9185 3.78341H12.4657L12.0796 3.41675L11.9546 3.5473L12.3296 3.90286V4.14453L12.5518 4.00841Z"
              fill="#383739"/>
        <path d="M11.7956 4.07775L11.9567 4.22775L12.1178 4.12775L11.9567 3.97775L12.1623 3.85275H11.7123L11.3262 3.48608L11.2012 3.61664L11.5762 3.97219V4.21386L11.7956 4.07775Z"
              fill="#383739"/>
        <path d="M12.6135 3.58068L12.7746 3.73068L12.9357 3.63068L12.7746 3.48068L12.9802 3.35568H12.5302L12.144 2.98901L12.019 3.11957L12.394 3.47513V3.71679L12.6135 3.58068Z"
              fill="#383739"/>
        <path d="M10.5205 4.74423H10.9261L11.1372 4.53868H11.5538L11.8594 4.37757L11.79 4.20257L11.5205 4.34701H11.4011L10.9844 3.86646L10.5288 4.14146L10.5205 4.74423Z"
              fill="#383739"/>
        <path d="M12.7152 4.13344L12.5708 3.99732L12.6902 3.92232L12.8347 4.05844L12.7152 4.13344ZM12.3569 4.10844V3.89733L11.9902 3.55288L12.0847 3.45288L12.4597 3.80844H12.8402L12.3569 4.10844Z"
              fill="#D22630"/>
        <path d="M11.9597 4.1974L11.8153 4.06129L11.9347 3.98629L12.0792 4.1224L11.9597 4.1974ZM11.5986 4.1724V3.96129L11.2319 3.61685L11.3264 3.51685L11.7014 3.8724H12.0819L11.5986 4.1724Z"
              fill="#D22630"/>
        <path d="M12.7712 3.70277L12.6268 3.56666L12.7462 3.49166L12.8907 3.62777L12.7712 3.70277ZM12.4101 3.67777V3.46666L12.0435 3.12222L12.1379 3.02222L12.5129 3.37777H12.8935L12.4101 3.67777Z"
              fill="#D22630"/>
        <path d="M10.5317 4.7249H10.9178L11.129 4.51935H11.5456L11.8317 4.3749L11.7762 4.23879L11.5206 4.3749H11.3845L10.9734 3.8999L10.5317 4.16935V4.7249Z"
              fill="#D22630"/>
        <path d="M12.8208 2.02501L13.0153 1.95557L13.0208 1.96112L13.2708 2.13612V2.18057L13.6708 2.68612L13.2708 3.19168V3.23612L13.0153 3.41112L12.8208 3.34168L12.9403 3.26112V3.11112L12.8958 3.05556H12.6875V2.30834H12.8986L12.9431 2.25279V2.10279L12.8208 2.02501Z"
              fill="#383739"/>
        <path d="M13.2481 2.13908L13.012 1.97241L12.8675 2.02797L12.9564 2.08908V2.25852L12.8953 2.32797H12.6953V3.03352H12.8953L12.9564 3.10297V3.27241L12.8675 3.33352L13.012 3.38908L13.2481 3.22241V3.17797L13.6425 2.68075L13.2481 2.18352V2.13908Z"
              fill="#D22630"/>
        <path d="M7.87652 3.10553L7.76541 3.01108V2.96664L7.5293 2.68053L7.76541 2.39442V2.34997L7.87652 2.25553L8.07096 2.41664H7.95707L8.12374 2.58608H8.5043L8.8043 2.34997V1.73331H9.55707L10.4293 1.19719V1.05831L10.2932 0.969417H10.2543L10.1098 1.06386L10.0904 1.13331L9.97652 0.977751L10.196 0.79164H10.2321L10.4821 0.611084H10.5765L10.8265 0.79164H10.8626L11.0821 0.977751L10.9682 1.13331L10.9487 1.06386L10.8043 0.969417H10.7654L10.6293 1.05831V1.19719L11.4932 1.73331H12.246V2.34997L12.546 2.58608H12.9265L13.0932 2.41664H12.9793L13.1737 2.25553L13.2848 2.34997V2.39442L13.521 2.68053L13.2848 2.96664V3.01108L13.1737 3.10553L12.9793 2.94442H13.0932L12.9265 2.77497H12.546L12.246 3.01108V3.62775H11.4932L10.621 4.16386V4.30275L10.7571 4.39164H10.796L10.9404 4.29719L10.9598 4.22775L11.0737 4.38331L10.8543 4.56942H10.8182L10.5682 4.74997H10.4737L10.2237 4.56942H10.1876L9.96818 4.38331L10.0821 4.22775L10.1015 4.29719L10.246 4.39164H10.2848L10.421 4.30275V4.16386L9.54874 3.62775H8.79596V3.01108L8.49596 2.77497H8.11541L7.94874 2.94442H8.06263L7.87652 3.10553Z"
              fill="#383739"/>
        <path d="M10.5318 4.40851L10.6262 4.48351L10.5318 4.55851V4.40851ZM10.2318 4.54462L10.4818 4.72518H10.5123V4.58629L10.3818 4.48629L10.5123 4.38629V4.11962L9.58176 3.54462H8.89565V2.9724L8.53732 2.69462H8.0012L7.86509 2.84462L7.72898 2.69462H7.56787L7.78732 2.96129V3.00573L7.87343 3.08073L8.01232 2.96962H7.93732V2.93907L8.11787 2.75296H8.51787L8.83454 2.9974V3.60296H9.57065L10.4568 4.14462V4.31129L10.3068 4.41129H10.2512L10.0957 4.30573L10.0845 4.26684L10.0095 4.3724L10.2095 4.53907H10.229V4.54462H10.2318ZM7.86787 2.55018L7.97343 2.66962H7.76232L7.86787 2.55018ZM10.5123 0.805735L10.4179 0.880735L10.5123 0.955735V0.805735ZM13.0707 2.68907L13.1762 2.80851L13.2818 2.68907H13.0707ZM10.8123 0.822401L10.5623 0.641846H10.5318V0.780735L10.6623 0.880735L10.5318 0.980734V1.2474L11.4651 1.81962H12.1512V2.38907L12.5068 2.66407H13.0429L13.179 2.51407L13.3151 2.66407H13.4762L13.2568 2.3974V2.35296L13.1707 2.27796L13.0318 2.38907H13.1123V2.41407L12.9318 2.60018H12.5318L12.2151 2.35573V1.75296H11.479L10.5929 1.21129V1.04462L10.7429 0.944623H10.7984L10.954 1.05018L10.9651 1.08907L11.0401 0.983512L10.8401 0.816846H10.8123V0.822401Z"
              fill="#FFC72C"/>
        <path d="M10.513 4.55296L10.4185 4.47796L10.513 4.40296V4.55296ZM7.97407 2.68907L7.86851 2.80851L7.76296 2.68907H7.97407ZM10.813 4.54462L10.563 4.72518H10.5324V4.68907V4.58351L10.663 4.48351L10.5324 4.38351V4.11684L11.463 3.54185H12.1491V2.96962L12.5046 2.69462H13.0407L13.1768 2.84462L13.313 2.69462H13.4741L13.2546 2.96129V3.00573L13.1685 3.08073L13.0296 2.96962H13.1102V2.93907L12.9296 2.75296H12.5296L12.213 2.9974V3.60296H11.4768L10.5907 4.14462V4.31129L10.7407 4.41129H10.7963L10.9518 4.30573L10.963 4.26684L11.038 4.3724L10.838 4.53907H10.8185V4.54462H10.813ZM13.1768 2.55018L13.0713 2.66962H13.2824L13.1768 2.55018ZM10.2324 0.822401L10.4824 0.641846H10.513V0.780735L10.3824 0.880735L10.513 0.980734V1.2474L9.5824 1.81962H8.89629V2.38907L8.54073 2.66407H8.00462L7.86851 2.51407L7.7324 2.66407H7.57129L7.79073 2.3974V2.35296L7.87684 2.27796L8.01573 2.38907H7.93796V2.41407L8.11851 2.60018H8.51851L8.83518 2.35573V1.75296H9.57129L10.4574 1.21129V1.04462L10.3074 0.944623H10.2518L10.0963 1.05018L10.0852 1.08907L10.0102 0.983512L10.2102 0.816846C10.2018 0.822401 10.2324 0.822401 10.2324 0.822401ZM10.5324 0.952957L10.6268 0.877957L10.5324 0.802957V0.952957Z"
              fill="white"/>
        <path d="M10.513 2.68888V1.27222L9.58518 1.83888H8.91296V2.39999L8.57129 2.66666H10.5352V4.08333L11.463 3.51666H12.1352V2.96111L12.4768 2.69444L10.513 2.68888Z"
              fill="#00843D"/>
        <path d="M8.57324 2.68888L8.91491 2.95555V3.51666H9.58713L10.5149 4.08333V2.66944H12.4788L12.1371 2.40277V1.83888H11.4649L10.5371 1.27222V2.68888H8.57324Z"
              fill="#D22630"/>
        <path d="M9.52682 1.99424L9.36571 1.84424L9.2046 1.94424L9.36571 2.09424L9.16016 2.21924H9.61016L9.99627 2.5859L10.1213 2.45535L9.74627 2.09979V1.85813L9.52682 1.99424Z"
              fill="#383739"/>
        <path d="M11.5183 3.37243L11.6794 3.52243L11.8405 3.42243L11.6794 3.27243L11.8849 3.14743H11.4349L11.0488 2.78076L10.9238 2.91132L11.2988 3.26687V3.50854L11.5183 3.37243Z"
              fill="#383739"/>
        <path d="M9.52682 3.37243L9.36571 3.52243L9.2046 3.42243L9.36571 3.27243L9.16016 3.14743H9.61016L9.99627 2.78076L10.1213 2.91132L9.74627 3.26687V3.50854L9.52682 3.37243Z"
              fill="#383739"/>
        <path d="M11.5183 1.99424L11.6794 1.84424L11.8405 1.94424L11.6794 2.09424L11.8849 2.21924H11.4349L11.0488 2.5859L10.9238 2.45535L11.2988 2.09979V1.85813L11.5183 1.99424Z"
              fill="#383739"/>
        <path d="M11.6791 3.49185L11.5347 3.35574L11.6541 3.28074L11.7986 3.41685L11.6791 3.49185ZM11.318 3.46685V3.25574L10.9513 2.9113L11.0458 2.8113L11.4208 3.16685H11.8013L11.318 3.46685ZM9.36523 1.86963L9.50968 2.00574L9.39023 2.08074L9.24579 1.94463L9.36523 1.86963ZM9.72635 1.89463V2.10574L10.093 2.45018L9.99857 2.55018L9.62079 2.19463H9.24023L9.72635 1.89463Z"
              fill="#D22630"/>
        <path d="M11.6791 1.86963L11.5347 2.00574L11.6541 2.08074L11.7986 1.94463L11.6791 1.86963ZM11.318 1.89463V2.10574L10.9513 2.45018L11.0458 2.55018L11.4236 2.19463H11.8041L11.318 1.89463ZM9.36523 3.49185L9.50968 3.35574L9.39023 3.28074L9.24579 3.41685L9.36523 3.49185ZM9.72635 3.46685V3.25574L10.093 2.9113L9.99857 2.8113L9.62079 3.16685H9.24023L9.72635 3.46685Z"
              fill="#00843D"/>
        <path d="M11.5179 2.68064L10.5207 3.34175L9.52344 2.68064L10.5207 2.01953L11.5179 2.68064Z" fill="#383739"/>
        <path d="M10.5131 2.05029L9.58252 2.67251H11.4603L10.5297 2.05029V3.3114L11.4659 2.68918H9.58807L10.5186 3.3114V2.05029H10.5131Z"
              fill="white"/>
        <path d="M10.7879 2.91101V3.09157H10.2574V2.91101H9.91016V2.45546H10.2546V2.2749H10.7852V2.45546H11.1324V2.91101H10.7879Z"
              fill="#383739"/>
        <path d="M10.2766 2.28882V2.46937H9.93213V2.66382H10.5071V2.28882H10.2766ZM10.5321 2.66937H11.1071V2.47493H10.7627V2.28882H10.5266L10.5321 2.66937ZM9.93213 2.68882V2.88326H10.2766V3.06382H10.5127V2.68882H9.93213ZM10.5321 3.06937H10.7682V2.88882H11.1127V2.68882H10.5377V3.06937H10.5321Z"
              fill="#D22630"/>
        <path d="M12.2212 10.2334V9.94447H13.0212V9.65281H13.824V7.01392H13.0212V6.72225H12.2184V6.43058H11.4157V6.13892H9.62123V6.43058H8.81845V6.72225H8.01567V7.01392H7.21289V9.65281H8.01567V9.94447H8.81845V10.2361H9.62123V10.5278H11.4157V10.2361H12.2212V10.2334Z"
              fill="#383739"/>
        <path d="M9.65165 6.15537V6.44703H8.84887V6.7387H8.04887V7.02759H7.24609V9.62759H8.04887V9.91925H8.85165V10.2109H9.65443V10.4998H11.4016V10.2081H12.2044V9.91648H13.0072V9.62481H13.81V7.02759H13.0072V6.73592H12.2044V6.44425H11.4016V6.15259H9.65165V6.15537ZM9.85998 6.36648H11.1822V6.65814H11.985V6.94981H12.7878V7.24148H13.5905V9.41648H12.7878V9.70814H11.985V9.99981H11.1822V10.2915H9.85998V9.99981H9.0572V9.70814H8.25443V9.41648H7.45165V7.24148H8.25443V6.94981H9.0572V6.65814H9.85998V6.36648Z"
              fill="#FFC72C"/>
        <path d="M9.07919 9.97796V9.68629H8.27641V9.39462H7.47363V7.26685H8.27641V6.97518H9.07919V6.68351H9.88196V6.39185H11.1653V6.68351H11.9653V6.97518H12.7681V7.26685H13.5709V9.39462H12.7681V9.68629H11.9653V9.97796H11.1625V10.2696H9.88196V9.97796H9.07919Z"
              fill="#D22630"/>
        <path d="M9.26548 6.89722L9.05993 6.74166V7.04166L8.85993 7.16666V6.975L8.66826 7.14444L8.47659 6.975V7.16666L8.25715 7.02777V7.30833L8.07659 7.43888V7.26944L7.86548 7.42499L7.65437 7.26944V7.43888L7.45437 7.29444V8.14166H7.21826V8.52777H7.45437V9.375L7.65437 9.23055V9.4L7.86548 9.24444L8.07659 9.4V9.23055L8.25715 9.36111V9.63889L8.47659 9.5V9.69166L8.66826 9.52222L8.85993 9.69166V9.5L9.05993 9.625V9.925L9.26548 9.76944V9.98055L9.47104 9.8L9.6766 9.98055V9.76944L9.86271 9.90833V10.2278L10.1433 9.97222V10.2667L10.5294 10.0222L10.9155 10.2667V9.97222L11.196 10.2278V9.90277L11.3822 9.76389V9.975L11.5877 9.79444L11.7933 9.975V9.76389L11.9988 9.91944V9.61944L12.1988 9.49444V9.68611L12.3905 9.51666L12.5822 9.68611V9.49444L12.8016 9.63333V9.35277L12.9822 9.22222V9.39166L13.1933 9.23611L13.4044 9.39166V9.22222L13.6044 9.36666V8.51944H13.8405V8.13333H13.6044V7.28611L13.4044 7.43055V7.26111L13.1933 7.41666L12.9822 7.26111V7.43055L12.8016 7.29999V7.01944L12.5822 7.15833V6.97222L12.3905 7.14166L12.1988 6.97222V7.16388L11.9988 7.03888V6.73888L11.7933 6.89444V6.68333L11.5877 6.86388L11.3822 6.68333V6.89444L11.196 6.75555V6.43611L10.9155 6.69166V6.39722L10.5294 6.64166L10.1433 6.39722V6.69166L9.86271 6.43611V6.75555L9.6766 6.89444V6.68333L9.47104 6.86388L9.26548 6.68333V6.89722Z"
              fill="#383739"/>
        <path d="M7.67635 7.47749V7.30805L7.86801 7.44416L7.87357 7.4386L8.05968 7.30249V7.47193L8.25968 7.32749V9.32193L8.05968 9.17749V9.34693L7.86801 9.21082L7.67635 9.34693V9.17749L7.47635 9.32193V8.49971H7.24023V8.15805H7.47635V7.33305L7.67635 7.47749Z"
              fill="#00843D"/>
        <path d="M9.29003 6.73901L9.47058 6.90012L9.65114 6.73901V6.94457L9.8567 6.78901V9.88068L9.65114 9.72513V9.93068L9.47058 9.76957L9.29003 9.93068V9.72235L9.08447 9.8779V6.78901L9.29003 6.94457V6.73901Z"
              fill="#00843D"/>
        <path d="M11.7542 6.73901L11.5736 6.90012L11.3931 6.73901V6.94457L11.1875 6.78901V9.88068L11.3931 9.72513V9.93068L11.5736 9.76957L11.7542 9.93068V9.72235L11.9597 9.8779V6.78901L11.7542 6.94457V6.73901Z"
              fill="#00843D"/>
        <path d="M13.3685 7.47749V7.30805L13.1768 7.44416L13.1713 7.4386L12.9852 7.30249V7.47193L12.7852 7.32749V9.32193L12.9852 9.17749V9.34693L13.1768 9.21082L13.3685 9.34693V9.17749L13.5685 9.32193V8.49971H13.8046V8.15805H13.5685V7.33305L13.3685 7.47749Z"
              fill="#00843D"/>
        <path d="M8.49874 7.02759L8.66819 7.17759L8.83763 7.02759V7.20814L9.05708 7.06925V9.59425L8.83763 9.45537V9.63592L8.66819 9.48592L8.49874 9.63592V9.45537L8.2793 9.59425V7.06925L8.49874 7.20814V7.02759Z"
              fill="#FFC72C"/>
        <path d="M10.157 6.73891L9.87646 6.48335V10.175L10.157 9.91946V10.225L10.5181 9.9889L10.8792 10.225V9.91946L11.1598 10.175V6.48335L10.8792 6.73891V6.43335L10.5181 6.66946L10.157 6.43335V6.73891Z"
              fill="#FFC72C"/>
        <path d="M12.5466 7.02759L12.3772 7.17759L12.2077 7.02759V7.20814L11.9883 7.06925V9.59425L12.2077 9.45537V9.63592L12.3772 9.48592L12.5466 9.63592V9.45537L12.7661 9.59425V7.06925L12.5466 7.20814V7.02759Z"
              fill="#FFC72C"/>
        <path d="M7.78173 7.96925C7.80673 7.99425 7.83728 8.00537 7.86784 8.00537C7.90395 8.00537 7.92895 7.99425 7.95395 7.96925C8.02895 7.89425 8.0345 7.75259 8.0345 7.65259C8.0345 7.65259 7.94562 7.74703 7.92895 7.7637C7.91784 7.74425 7.86784 7.65814 7.86784 7.65814C7.86784 7.65814 7.81784 7.74425 7.80673 7.7637C7.79284 7.74981 7.70117 7.65259 7.70117 7.65259C7.70117 7.75537 7.70673 7.8887 7.78173 7.96925Z"
              fill="#383739"/>
        <path d="M8.61849 7.75554L8.5546 7.69166V7.56666L8.41016 7.70277L8.67682 7.96943L8.94349 7.70277L8.79905 7.56666V7.69166L8.73516 7.75554V7.52777L8.84905 7.43332L8.68238 7.29443L8.51571 7.43332L8.6296 7.52777L8.61849 7.75554Z"
              fill="#383739"/>
        <path d="M9.42122 7.50008L9.35734 7.43619V7.31119L9.21289 7.4473L9.47956 7.71397L9.74623 7.4473L9.60178 7.31119V7.43619L9.52122 7.50008V7.27508L9.63511 7.18064L9.46845 7.04175L9.30178 7.18064L9.41567 7.27508V7.50008H9.42122Z"
              fill="#383739"/>
        <path d="M7.86805 7.69971C7.88194 7.72471 7.9236 7.79415 7.9236 7.79415C7.9236 7.79415 7.98471 7.73026 8.00972 7.70526C8.00416 7.81637 7.97916 7.90526 7.94027 7.94971C7.92083 7.96915 7.89582 7.98026 7.87082 7.98026C7.84582 7.98026 7.82082 7.96915 7.80138 7.94971C7.75693 7.90526 7.73193 7.81915 7.73193 7.70526C7.75693 7.73026 7.81805 7.79415 7.81805 7.79415C7.83193 7.7636 7.84582 7.73304 7.86805 7.69971Z"
              fill="white"/>
        <path d="M9.50134 7.26372V7.54983L9.6069 7.44427V7.35816L9.70134 7.44705L9.47079 7.67761L9.24023 7.44705L9.33468 7.35816V7.44427L9.44023 7.54983V7.26372L9.34023 7.17761L9.47079 7.06372L9.60134 7.17761L9.50134 7.26372Z"
              fill="white"/>
        <path d="M8.6991 7.51934V7.80545L8.80466 7.69989V7.61378L8.8991 7.70267L8.66854 7.93322L8.43799 7.70267L8.53243 7.61378V7.69989L8.63799 7.80545V7.51934L8.53799 7.43322L8.66854 7.31934L8.7991 7.43322L8.6991 7.51934Z"
              fill="#D22630"/>
        <path d="M13.2621 7.96925C13.2371 7.99425 13.2065 8.00537 13.1759 8.00537C13.1398 8.00537 13.1148 7.99425 13.0898 7.96925C13.0148 7.89425 13.0093 7.75259 13.0093 7.65259C13.0093 7.65259 13.0982 7.74703 13.1148 7.7637C13.1259 7.74425 13.1759 7.65814 13.1759 7.65814C13.1759 7.65814 13.2259 7.74425 13.2371 7.7637C13.2509 7.74981 13.3426 7.65259 13.3426 7.65259C13.3426 7.75537 13.3371 7.8887 13.2621 7.96925Z"
              fill="#383739"/>
        <path d="M12.4271 7.75554L12.4909 7.69166V7.56666L12.6354 7.70277L12.3687 7.96943L12.1021 7.70277L12.2465 7.56666V7.69166L12.3104 7.75554V7.52777L12.1965 7.43332L12.3632 7.29443L12.5298 7.43332L12.4159 7.52777L12.4271 7.75554Z"
              fill="#383739"/>
        <path d="M11.6238 7.50008L11.6877 7.43619V7.31119L11.8322 7.4473L11.5655 7.71397L11.2988 7.4473L11.4433 7.31119V7.43619L11.5072 7.50008V7.27508L11.3933 7.18064L11.5599 7.04175L11.7266 7.18064L11.6127 7.27508V7.50008H11.6238Z"
              fill="#383739"/>
        <path d="M13.1768 7.69971C13.1629 7.72471 13.1213 7.79415 13.1213 7.79415C13.1213 7.79415 13.0602 7.73026 13.0352 7.70526C13.0407 7.81637 13.0657 7.90526 13.1046 7.94971C13.124 7.96915 13.149 7.98026 13.174 7.98026C13.199 7.98026 13.224 7.96915 13.2435 7.94971C13.2879 7.90526 13.3129 7.81915 13.3129 7.70526C13.2879 7.73026 13.2268 7.79415 13.2268 7.79415C13.2129 7.7636 13.199 7.73304 13.1768 7.69971Z"
              fill="white"/>
        <path d="M11.5423 7.26372V7.54983L11.4367 7.44427V7.35816L11.3423 7.44705L11.5728 7.67761L11.8034 7.44705L11.709 7.35816V7.44427L11.6034 7.54983V7.26372L11.7034 7.17761L11.5728 7.06372L11.4423 7.17761L11.5423 7.26372Z"
              fill="white"/>
        <path d="M12.3455 7.51934V7.80545L12.24 7.69989V7.61378L12.1455 7.70267L12.3761 7.93322L12.6066 7.70267L12.5122 7.61378V7.69989L12.4066 7.80545V7.51934L12.5066 7.43322L12.3761 7.31934L12.2455 7.43322L12.3455 7.51934Z"
              fill="#D22630"/>
        <path d="M10.8373 7.59434L10.7512 7.4749L10.9706 7.26934L10.7651 7.0999V7.21934L10.6789 7.29434V7.07768L10.8734 6.93323L10.5234 6.67212L10.1734 6.93323L10.3678 7.07768V7.29434L10.2817 7.21934V7.0999L10.0762 7.26934L10.2956 7.4749L10.2095 7.59434H10.8373Z"
              fill="#383739"/>
        <path d="M10.2515 7.57507L10.3265 7.47507L10.1099 7.27507L10.2599 7.15007V7.23618L10.3904 7.34729V7.07229L10.2099 6.94174L10.5265 6.71118L10.8432 6.94174L10.6626 7.07229V7.34729L10.7932 7.23618V7.15007L10.9432 7.27507L10.7265 7.47507L10.8015 7.57507H10.2515Z"
              fill="#D22630"/>
        <path d="M10.3633 6.93878L10.5244 7.05822L10.6855 6.93878L10.5244 6.81934L10.5188 6.82489L10.3633 6.93878Z"
              fill="#383739"/>
        <path d="M10.5205 6.84155C10.5316 6.85266 10.6261 6.92211 10.6455 6.93044C10.6261 6.94433 10.5316 7.01655 10.5205 7.01933C10.5094 7.00822 10.415 6.93878 10.3955 6.93044C10.4177 6.92211 10.5122 6.85266 10.5205 6.84155Z"
              fill="#00843D"/>
        <path d="M7.78173 8.69724C7.80673 8.67224 7.83728 8.66113 7.86784 8.66113C7.90395 8.66113 7.92895 8.67224 7.95395 8.69724C8.02895 8.77224 8.0345 8.91391 8.0345 9.01391C8.0345 9.01391 7.94562 8.91947 7.92895 8.9028C7.91784 8.92224 7.86784 9.00835 7.86784 9.00835C7.86784 9.00835 7.81784 8.92224 7.80673 8.9028C7.79284 8.91669 7.70117 9.01391 7.70117 9.01391C7.70117 8.90558 7.70673 8.77224 7.78173 8.69724Z"
              fill="#383739"/>
        <path d="M8.61849 8.90554L8.5546 8.96943V9.09443L8.41016 8.95832L8.67682 8.69165L8.94349 8.95832L8.79905 9.09443V8.97221L8.73516 8.90832V9.13332L8.84905 9.22776L8.68238 9.36665L8.51571 9.22776L8.6296 9.13332L8.61849 8.90554Z"
              fill="#383739"/>
        <path d="M9.42122 9.1614L9.35734 9.22529V9.35029L9.21289 9.21418L9.47956 8.94751L9.74623 9.21418L9.60178 9.35029V9.22529L9.53789 9.1614V9.3864L9.65178 9.48085L9.48511 9.61974L9.31845 9.48085L9.43234 9.3864V9.1614H9.42122Z"
              fill="#383739"/>
        <path d="M7.86805 8.96122C7.88194 8.93622 7.9236 8.86677 7.9236 8.86677C7.9236 8.86677 7.98471 8.93066 8.00972 8.95566C8.00416 8.84455 7.97916 8.75566 7.94027 8.71122C7.92083 8.69178 7.89582 8.68066 7.87082 8.68066C7.84582 8.68066 7.82082 8.69178 7.80138 8.71122C7.75693 8.75566 7.73193 8.84177 7.73193 8.95566C7.75693 8.93066 7.81805 8.86677 7.81805 8.86677C7.83193 8.89733 7.84582 8.92789 7.86805 8.96122Z"
              fill="white"/>
        <path d="M9.50134 9.39704V9.11093L9.6069 9.21649V9.3026L9.70134 9.21371L9.47079 8.98315L9.24023 9.21371L9.33468 9.3026V9.21649L9.44023 9.11093V9.39704L9.34023 9.48315L9.47079 9.59704L9.60134 9.48315L9.50134 9.39704Z"
              fill="white"/>
        <path d="M8.6991 9.14167V8.85556L8.80466 8.96112V9.04723L8.8991 8.95834L8.66854 8.72778L8.43799 8.95834L8.53243 9.04723V8.96112L8.63799 8.85556V9.14167L8.53799 9.22778L8.66854 9.34167L8.7991 9.22778L8.6991 9.14167Z"
              fill="#D22630"/>
        <path d="M13.2621 8.69724C13.2371 8.67224 13.2065 8.66113 13.1759 8.66113C13.1398 8.66113 13.1148 8.67224 13.0898 8.69724C13.0148 8.77224 13.0093 8.91391 13.0093 9.01391C13.0093 9.01391 13.0982 8.91947 13.1148 8.9028C13.1259 8.92224 13.1759 9.00835 13.1759 9.00835C13.1759 9.00835 13.2259 8.92224 13.2371 8.9028C13.2509 8.91669 13.3426 9.01391 13.3426 9.01391C13.3426 8.90558 13.3371 8.77224 13.2621 8.69724Z"
              fill="#383739"/>
        <path d="M12.4264 8.90584L12.4903 8.96973V9.09473L12.6347 8.95862L12.3736 8.69751L12.1069 8.96417L12.2514 9.10028V8.97528L12.3153 8.9114V9.13639L12.2014 9.23084L12.368 9.36972L12.5347 9.23084L12.4208 9.13639L12.4264 8.90584Z"
              fill="#383739"/>
        <path d="M11.6236 9.1614L11.6875 9.22529V9.35029L11.832 9.21418L11.5709 8.94751L11.3042 9.21418L11.4486 9.35029V9.22529L11.5125 9.1614V9.3864L11.3986 9.48085L11.5653 9.61974L11.732 9.48085L11.6181 9.3864V9.1614H11.6236Z"
              fill="#383739"/>
        <path d="M13.1768 8.96122C13.1629 8.93622 13.1213 8.86677 13.1213 8.86677C13.1213 8.86677 13.0602 8.93066 13.0352 8.95566C13.0407 8.84455 13.0657 8.75566 13.1046 8.71122C13.124 8.69178 13.149 8.68066 13.174 8.68066C13.199 8.68066 13.224 8.69178 13.2435 8.71122C13.2879 8.75566 13.3129 8.84177 13.3129 8.95566C13.2879 8.93066 13.2268 8.86677 13.2268 8.86677C13.2129 8.89733 13.199 8.92789 13.1768 8.96122Z"
              fill="white"/>
        <path d="M11.5423 9.39704V9.11093L11.4367 9.21649V9.3026L11.3423 9.21371L11.5728 8.98315L11.8034 9.21371L11.709 9.3026V9.21649L11.6034 9.11093V9.39704L11.7034 9.48315L11.5728 9.59704L11.4423 9.48315L11.5423 9.39704Z"
              fill="white"/>
        <path d="M12.3455 9.14167V8.85556L12.24 8.96112V9.04723L12.1455 8.95834L12.3761 8.72778L12.6066 8.95834L12.5122 9.04723V8.96112L12.4066 8.85556V9.14167L12.5066 9.22778L12.3761 9.34167L12.2455 9.22778L12.3455 9.14167Z"
              fill="#D22630"/>
        <path d="M10.8373 9.06665L10.7512 9.1861L10.9706 9.39165L10.7651 9.5611V9.44165L10.6789 9.36665V9.58332L10.8734 9.72776L10.5234 9.98887L10.1734 9.72776L10.3678 9.58332V9.36665L10.2817 9.44165V9.5611L10.0762 9.39165L10.2956 9.1861L10.2095 9.06665H10.8373Z"
              fill="#383739"/>
        <path d="M10.2515 9.08618L10.3265 9.18618L10.1099 9.38618L10.2599 9.51118V9.42507L10.3904 9.31396V9.58896L10.2099 9.71951L10.5265 9.95007L10.8432 9.71951L10.6626 9.58896V9.31396L10.7932 9.42507V9.51118L10.9432 9.38618L10.7265 9.18618L10.8015 9.08618H10.2515Z"
              fill="#D22630"/>
        <path d="M10.3633 9.72223L10.5244 9.60278L10.6855 9.72223L10.5244 9.84167L10.5188 9.83612L10.3633 9.72223Z"
              fill="#383739"/>
        <path d="M10.5205 9.81962C10.5316 9.8085 10.6261 9.73906 10.6455 9.73073C10.6261 9.71684 10.5316 9.64462 10.5205 9.64185C10.5094 9.65296 10.415 9.7224 10.3955 9.73073C10.4177 9.73906 10.5122 9.8085 10.5205 9.81962Z"
              fill="#00843D"/>
        <path d="M13.374 8.20526H13.0212V8.06637H11.9435L11.1907 7.57471H11.1879H9.84901L9.09623 8.06637H8.01846V8.20526H7.66846V8.44971H8.01846V8.58859H9.09623L9.84901 9.08026H11.1907L11.9435 8.58859H13.0212V8.44971H13.3712V8.20526H13.374Z"
              fill="#383739"/>
        <path d="M9.85676 7.60019L9.10398 8.08908H8.04287V8.22797H7.69287V8.43352H8.04287V8.57241H9.10398L9.85676 9.06964H11.1845L11.9318 8.57241H12.9929V8.43352H13.3429V8.22797H12.9929V8.08908H11.9318L11.1845 7.59741H9.85676V7.60019ZM9.87621 7.66963H11.1679L11.854 8.11963V8.18908H12.6207V8.47519H11.854V8.54464L11.1679 8.99464H9.87621L9.19009 8.54464V8.47519H8.41787V8.18908H9.19009V8.11963L9.87621 7.66963Z"
              fill="#D22630"/>
        <path d="M11.1623 7.6889L11.8345 8.13057V8.21112H12.6012V8.45557H11.8345V8.53612L11.1623 8.97779H9.88176L9.20954 8.53612V8.45001H8.44287V8.20557H9.20954V8.12501L9.88176 7.68335H11.1651V7.6889H11.1623Z"
              fill="#D22630"/>
        <path d="M9.55161 8.58061L9.84327 8.79728L10.0349 8.65284L9.92383 8.56673L9.84327 8.62784L9.77383 8.57784L10.8655 7.75562H10.6461L9.55161 8.58061ZM10.1822 8.90284H10.4016L11.4933 8.08061L11.2016 7.86395L11.0099 8.00839L11.1211 8.0945L11.2016 8.03339L11.2711 8.08339L10.1822 8.90284ZM10.6433 8.90284H10.8627L9.77105 8.08061L9.84049 8.03062L9.92105 8.09173L10.0322 8.00562L9.84049 7.86117L9.54883 8.07784L10.6433 8.90284ZM11.2738 8.58061L11.2044 8.63061L11.1238 8.5695L11.0127 8.65561L11.2044 8.80006L11.4961 8.58339L10.4044 7.76117H10.1849L11.2738 8.58061Z"
              fill="#383739"/>
        <path d="M9.32959 8.33026L9.52403 8.46082L9.71848 8.33026L9.52403 8.19971L9.32959 8.33026Z" fill="#383739"/>
        <path d="M10.3262 8.33026L10.5206 8.46082L10.7151 8.33026L10.5206 8.19971L10.3262 8.33026Z" fill="#383739"/>
        <path d="M11.7151 8.33026L11.5206 8.46082L11.3262 8.33026L11.5206 8.19971L11.7151 8.33026Z" fill="#383739"/>
        <path d="M11.4601 8.58076L11.2046 8.77243L11.049 8.65854L11.124 8.60299L11.2046 8.6641L11.3101 8.58354L10.249 7.78632H10.399L11.4601 8.58076ZM10.799 8.88076H10.649L9.58789 8.08354L9.84345 7.89187L9.999 8.00576L9.924 8.06132L9.84345 8.00021L9.73789 8.08076L10.799 8.88076ZM10.3962 8.88076H10.2462L11.3073 8.08354L11.2018 8.00298L11.1212 8.06409L11.0462 8.00854L11.2018 7.89465L11.4573 8.08632L10.3962 8.88076ZM10.649 7.78076H10.799L9.73789 8.57798L9.84345 8.65854L9.924 8.59743L9.999 8.65299L9.84345 8.76687L9.58789 8.57521L10.649 7.78076Z"
              fill="#FFC72C"/>
        <path d="M9.52665 8.2251L9.6822 8.33065L9.52665 8.43621L9.37109 8.33065L9.52665 8.2251Z" fill="#00843D"/>
        <path d="M10.5208 8.2251L10.6763 8.33065L10.5208 8.43621L10.3652 8.33065L10.5208 8.2251Z" fill="#00843D"/>
        <path d="M11.5188 8.2251L11.3633 8.33065L11.5188 8.43621L11.6744 8.33065L11.5188 8.2251Z" fill="#00843D"/>
        <path d="M7.09063 13.7721L7.01562 13.8832L7.15174 13.9888L7.01562 14.0944L7.09063 14.2055L7.25174 14.2249L7.40729 14.1055L7.79341 14.3499V14.1444L7.55174 13.9888L7.79341 13.8332V13.6277L7.40729 13.8721L7.25174 13.7527L7.09063 13.7721Z"
              fill="#383739"/>
        <path d="M7.09063 13.0639L7.01562 13.175L7.15174 13.2805L7.01562 13.3861L7.09063 13.4972L7.25174 13.5167L7.40729 13.3972L7.79341 13.6417V13.4361L7.55174 13.2805L7.79341 13.125V12.9194L7.40729 13.1639L7.25174 13.0444L7.09063 13.0639Z"
              fill="#383739"/>
        <path d="M7.09063 14.8971L7.01562 14.786L7.15174 14.6804L7.01562 14.5749L7.09063 14.4638L7.25174 14.4443L7.40729 14.5638L7.79341 14.3193V14.5249L7.55174 14.6804L7.79341 14.836V15.0416L7.40729 14.7971L7.25174 14.9166L7.09063 14.8971Z"
              fill="#383739"/>
        <path d="M13.9542 13.7721L14.0292 13.8832L13.8931 13.9888L14.0292 14.0944L13.9542 14.2055L13.7931 14.2249L13.6376 14.1055L13.2515 14.3499V14.1444L13.4931 13.9888L13.2515 13.8332V13.6277L13.6376 13.8721L13.7931 13.7527L13.9542 13.7721Z"
              fill="#383739"/>
        <path d="M13.9542 13.0639L14.0292 13.175L13.8931 13.2805L14.0292 13.3861L13.9542 13.4972L13.7931 13.5167L13.6376 13.3972L13.2515 13.6417V13.4361L13.4931 13.2805L13.2515 13.125V12.9194L13.6376 13.1639L13.7931 13.0444L13.9542 13.0639Z"
              fill="#383739"/>
        <path d="M13.9542 14.8971L14.0292 14.786L13.8931 14.6804L14.0292 14.5749L13.9542 14.4638L13.7931 14.4443L13.6376 14.5638L13.2515 14.3193V14.5249L13.4931 14.6804L13.2515 14.836V15.0416L13.6376 14.7971L13.7931 14.9166L13.9542 14.8971Z"
              fill="#383739"/>
        <path d="M12.4102 11.8416V12.1388H12.6268V12.2693H12.8379V12.0332H12.6518V11.8471H12.4102V11.8416Z"
              fill="#383739"/>
        <path d="M13.0435 12.3084V12.6029H13.2601V12.7334H13.4712V12.4973H13.2796V12.3057H13.0435V12.3084Z"
              fill="#383739"/>
        <path d="M8.63481 11.8416V12.1388H8.41814V12.2693H8.20703V12.0332H8.39314V11.8471H8.63481V11.8416Z"
              fill="#383739"/>
        <path d="M12.4102 16.1193V15.8249H12.6268V15.6943H12.8379V15.9304H12.6518V16.1165H12.4102V16.1193Z"
              fill="#383739"/>
        <path d="M8.63481 16.1193V15.8249H8.41814V15.6943H8.20703V15.9304H8.39314V16.1165H8.63481V16.1193Z"
              fill="#383739"/>
        <path d="M13.0435 15.6554V15.3637H13.2601V15.2332H13.4712V15.4693H13.2796V15.6554H13.0435Z" fill="#383739"/>
        <path d="M8.00118 12.3084V12.6029H7.78451V12.7334H7.57617V12.4973H7.76228V12.3057H8.00118V12.3084Z"
              fill="#383739"/>
        <path d="M8.00118 15.6554V15.3637H7.78451V15.2332H7.57617V15.4693H7.76228V15.6554H8.00118Z" fill="#383739"/>
        <path d="M11.3123 11.8364C11.2984 11.8225 11.1456 11.6753 11.1456 11.6753L10.9845 11.8253C10.9845 11.8253 11.1095 11.9447 11.1234 11.9614L10.9429 12.1364H11.2095L11.304 12.042L11.3984 12.1364H11.6651L11.4845 11.9614C11.4984 11.9475 11.6234 11.8253 11.6234 11.8253L11.4623 11.6753C11.4179 11.7336 11.3623 11.7836 11.3123 11.8364Z"
              fill="#383739"/>
        <path d="M10.5213 11.8364C10.5074 11.8225 10.3546 11.6753 10.3546 11.6753L10.1935 11.8253C10.1935 11.8253 10.3185 11.9447 10.3324 11.9614L10.1519 12.1364H10.4185L10.513 12.042L10.6074 12.1364H10.8741L10.6935 11.9614C10.7074 11.9475 10.8324 11.8253 10.8324 11.8253L10.6713 11.6753C10.6324 11.7336 10.5769 11.7836 10.5213 11.8364Z"
              fill="#383739"/>
        <path d="M9.73202 11.8364C9.74591 11.8225 9.89869 11.6753 9.89869 11.6753L10.0598 11.8253C10.0598 11.8253 9.9348 11.9447 9.92091 11.9614L10.1015 12.1364H9.8348L9.74035 12.042L9.64591 12.1364H9.37646L9.55702 11.9614C9.54313 11.9475 9.41813 11.8253 9.41813 11.8253L9.57924 11.6753C9.62647 11.7336 9.68202 11.7836 9.73202 11.8364Z"
              fill="#383739"/>
        <path d="M11.3123 16.1247C11.2984 16.1386 11.1456 16.2858 11.1456 16.2858L10.9845 16.1358C10.9845 16.1358 11.1095 16.0164 11.1234 15.9997L10.9429 15.8247H11.2095L11.304 15.9192L11.3984 15.8247H11.6651L11.4845 15.9997C11.4984 16.0136 11.6234 16.1358 11.6234 16.1358L11.4623 16.2858C11.4179 16.2303 11.3623 16.1803 11.3123 16.1247Z"
              fill="#383739"/>
        <path d="M10.5213 16.1247C10.5074 16.1386 10.3546 16.2858 10.3546 16.2858L10.1935 16.1358C10.1935 16.1358 10.3185 16.0164 10.3324 15.9997L10.1519 15.8247H10.4185L10.513 15.9192L10.6074 15.8247H10.8741L10.6935 15.9997C10.7074 16.0136 10.8324 16.1358 10.8324 16.1358L10.6713 16.2858C10.6324 16.2303 10.5769 16.1803 10.5213 16.1247Z"
              fill="#383739"/>
        <path d="M9.73202 16.1247C9.74591 16.1386 9.89869 16.2858 9.89869 16.2858L10.0598 16.1358C10.0598 16.1358 9.9348 16.0164 9.92091 15.9997L10.1015 15.8247H9.8348L9.74035 15.9192L9.64591 15.8247H9.37646L9.55702 15.9997C9.54313 16.0136 9.41813 16.1358 9.41813 16.1358L9.57924 16.2858C9.62647 16.2303 9.68202 16.1803 9.73202 16.1247Z"
              fill="#383739"/>
        <path d="M7.76781 14.1472V14.2972L7.40115 14.0666L7.24004 14.1916L7.10115 14.1777L7.04004 14.0916L7.18448 13.9805L7.04004 13.8694L7.10115 13.7833L7.24004 13.7694L7.40115 13.8944L7.76781 13.6638V13.8138L7.5067 13.9805L7.76781 14.1472Z"
              fill="#00843D"/>
        <path d="M7.76781 13.4416V13.5916L7.40115 13.361L7.24004 13.486L7.10115 13.4721L7.04004 13.386L7.18448 13.2749L7.04004 13.1638L7.10115 13.0777L7.24004 13.0638L7.40115 13.1888L7.76781 12.9583V13.1083L7.5067 13.2749L7.76781 13.4416Z"
              fill="#00843D"/>
        <path d="M7.76781 14.5223V14.3723L7.40115 14.6029L7.24004 14.4779L7.10115 14.4918L7.04004 14.5779L7.18448 14.689L7.04004 14.8001L7.10115 14.8862L7.24004 14.9001L7.40115 14.7751L7.76781 15.0056V14.8556L7.5067 14.689L7.76781 14.5223Z"
              fill="#00843D"/>
        <path d="M13.2769 14.1472V14.2972L13.6435 14.0666L13.8046 14.1916L13.9435 14.1777L14.0046 14.0916L13.8602 13.9805L14.0046 13.8694L13.9435 13.7833L13.8046 13.7694L13.6435 13.8944L13.2769 13.6638V13.8138L13.538 13.9805L13.2769 14.1472Z"
              fill="#00843D"/>
        <path d="M13.2769 13.4416V13.5916L13.6435 13.361L13.8046 13.486L13.9435 13.4721L14.0046 13.386L13.8602 13.2749L14.0046 13.1638L13.9435 13.0777L13.8046 13.0638L13.6435 13.1888L13.2769 12.9583V13.1083L13.538 13.2749L13.2769 13.4416Z"
              fill="#00843D"/>
        <path d="M13.2769 14.5223V14.3723L13.6435 14.6029L13.8046 14.4779L13.9435 14.4918L14.0046 14.5779L13.8602 14.689L14.0046 14.8001L13.9435 14.8862L13.8046 14.9001L13.6435 14.7751L13.2769 15.0056V14.8556L13.538 14.689L13.2769 14.5223Z"
              fill="#00843D"/>
        <path d="M12.6264 11.8665V12.0526H12.8125V12.247H12.6459V12.1165H12.4292V11.8665H12.6264Z" fill="#00843D"/>
        <path d="M13.2573 12.3279V12.514H13.4434V12.7084H13.2767V12.5779H13.0601V12.3279H13.2573Z" fill="#00843D"/>
        <path d="M8.41804 11.8665V12.0526H8.23193V12.247H8.3986V12.1165H8.61527V11.8665H8.41804Z" fill="#00843D"/>
        <path d="M12.6264 16.0998V15.9137H12.8125V15.7192H12.6459V15.8498H12.4292V16.0998H12.6264Z" fill="#00843D"/>
        <path d="M8.41804 16.0998V15.9137H8.23193V15.7192H8.3986V15.8498H8.61527V16.0998H8.41804Z" fill="#00843D"/>
        <path d="M13.2573 15.6333V15.4471H13.4434V15.2527H13.2767V15.3832H13.0601V15.6333H13.2573Z" fill="#00843D"/>
        <path d="M7.78768 12.3279V12.514H7.60156V12.7084H7.76823V12.5779H7.9849V12.3279H7.78768Z" fill="#00843D"/>
        <path d="M7.78768 15.6333V15.4471H7.60156V15.2527H7.76823V15.3832H7.9849V15.6333H7.78768Z" fill="#00843D"/>
        <path d="M11.1483 11.7083C11.1622 11.7221 11.315 11.8694 11.315 11.8694C11.315 11.8694 11.465 11.7249 11.4817 11.7083C11.4955 11.7194 11.5955 11.8138 11.6122 11.8277C11.5983 11.8416 11.4733 11.9638 11.4733 11.9638L11.6344 12.1194H11.4289L11.3233 12.0194L11.2178 12.1194H11.0122L11.1733 11.9638C11.1733 11.9638 11.0483 11.8444 11.0344 11.8277C11.0317 11.811 11.1317 11.7221 11.1483 11.7083Z"
              fill="#00843D"/>
        <path d="M10.3575 11.7083C10.3714 11.7221 10.5242 11.8694 10.5242 11.8694C10.5242 11.8694 10.6742 11.7249 10.6908 11.7083C10.7047 11.7194 10.8047 11.8138 10.8214 11.8277C10.8075 11.8416 10.6825 11.9638 10.6825 11.9638L10.8436 12.1194H10.6325L10.5269 12.0194L10.4214 12.1194H10.2158L10.3769 11.9638C10.3769 11.9638 10.2519 11.8444 10.238 11.8277C10.2464 11.811 10.3464 11.7221 10.3575 11.7083Z"
              fill="#00843D"/>
        <path d="M9.89627 11.7083C9.88238 11.7221 9.7296 11.8694 9.7296 11.8694C9.7296 11.8694 9.5796 11.7249 9.56293 11.7083C9.54904 11.7194 9.44904 11.8138 9.43238 11.8277C9.44627 11.8416 9.57127 11.9638 9.57127 11.9638L9.41016 12.1194H9.61571L9.72127 12.0194L9.82682 12.1194H10.0324L9.87127 11.9638C9.87127 11.9638 9.99627 11.8444 10.0102 11.8277C10.0129 11.811 9.91016 11.7221 9.89627 11.7083Z"
              fill="#00843D"/>
        <path d="M11.1483 16.2553C11.1622 16.2415 11.315 16.0942 11.315 16.0942C11.315 16.0942 11.465 16.2387 11.4817 16.2553C11.4955 16.2442 11.5955 16.1498 11.6122 16.1359C11.5983 16.122 11.4733 15.9998 11.4733 15.9998L11.6344 15.8442H11.4289L11.3233 15.9442L11.2178 15.8442H11.0122L11.1733 15.9998C11.1733 15.9998 11.0483 16.1192 11.0344 16.1359C11.0317 16.1498 11.1317 16.2442 11.1483 16.2553Z"
              fill="#00843D"/>
        <path d="M10.3575 16.2553C10.3714 16.2415 10.5242 16.0942 10.5242 16.0942C10.5242 16.0942 10.6742 16.2387 10.6908 16.2553C10.7047 16.2442 10.8047 16.1498 10.8214 16.1359C10.8075 16.122 10.6825 15.9998 10.6825 15.9998L10.8436 15.8442H10.6325L10.5269 15.9442L10.4214 15.8442H10.2158L10.3769 15.9998C10.3769 15.9998 10.2519 16.1192 10.238 16.1359C10.2464 16.1498 10.3464 16.2442 10.3575 16.2553Z"
              fill="#00843D"/>
        <path d="M9.89627 16.2553C9.88238 16.2415 9.7296 16.0942 9.7296 16.0942C9.7296 16.0942 9.5796 16.2387 9.56293 16.2553C9.54904 16.2442 9.44904 16.1498 9.43238 16.1359C9.44627 16.122 9.57127 15.9998 9.57127 15.9998L9.41016 15.8442H9.61571L9.72127 15.9442L9.82682 15.8442H10.0324L9.87127 15.9998C9.87127 15.9998 9.99627 16.1192 10.0102 16.1359C10.0129 16.1498 9.91016 16.2442 9.89627 16.2553Z"
              fill="#00843D"/>
        <path d="M8.39862 15.3831V15.8442H12.6458V15.3831H13.2764V12.5776H12.6458V12.1165H8.39862V12.5776H7.76807V15.3831H8.39862Z"
              fill="#383739"/>
        <path d="M8.41864 12.1389V12.6H7.78809V15.3639H8.41864V15.825H12.627V15.3639H13.2575V12.6H12.627V12.1389H8.41864ZM8.68809 12.3139H12.3492V12.7611L12.4992 12.8722H13.077V15.0917H12.5048L12.3548 15.2028V15.6528H8.69364V15.2056L8.54364 15.0945H7.96864V12.875H8.54086L8.69642 12.7639L8.68809 12.3139Z"
              fill="#FFC72C"/>
        <path d="M8.71261 12.3389V12.75L9.26261 12.3389H8.71261ZM11.7793 12.3389L12.3293 12.75V12.3389H11.7793ZM7.99316 12.8944V13.275L8.51539 12.8944H7.99316ZM12.532 12.8944L13.0543 13.2805V12.8944H12.532ZM13.057 14.6833L12.5348 15.0694H13.057V14.6833ZM7.99316 14.6889V15.075H8.51539L7.99316 14.6889ZM8.71261 15.2194V15.625H9.26261L8.71261 15.2194ZM12.332 15.2194L11.782 15.625H12.332V15.2194Z"
              fill="#D22630"/>
        <path d="M11.7458 12.3389C11.7513 12.3444 13.0486 13.3 13.0569 13.3055V14.6583C13.0458 14.6639 11.7486 15.625 11.7458 15.625H9.30135C9.29579 15.6194 7.99857 14.6639 7.99023 14.6583V13.3055C8.00135 13.3 9.29857 12.3389 9.30135 12.3389H11.7458Z"
              fill="#00843D"/>
        <path d="M8.3043 14.8138L8.1543 14.6388L8.29319 14.4721L8.1543 14.3055L8.29319 14.1388L8.1543 13.9721L8.29319 13.8055L8.1543 13.6388L8.29319 13.4721L8.1543 13.3055L8.3043 13.1305H12.7487L12.8987 13.3055L12.7599 13.4721L12.8987 13.6388L12.7599 13.8055L12.8987 13.9721L12.7599 14.1388L12.8987 14.3055L12.7599 14.4721L12.8987 14.6388L12.7487 14.8138H8.3043ZM11.3543 12.5499L11.1793 12.3999L11.0126 12.5388L10.846 12.3999L10.6793 12.5388L10.5126 12.3999L10.346 12.5388L10.1793 12.3999L10.0126 12.5388L9.84596 12.3999L9.67096 12.5499V15.4166L9.84596 15.5666L10.0126 15.4277L10.1793 15.5666L10.346 15.4277L10.5126 15.5666L10.6793 15.4277L10.846 15.5666L11.0126 15.4277L11.1793 15.5666L11.3543 15.4166V12.5499Z"
              fill="#383739"/>
        <path d="M11.004 12.558L10.8484 12.4275L10.6929 12.558V15.4025L10.8484 15.533L11.004 15.4025V12.558Z"
              fill="#FFC72C"/>
        <path d="M10.3463 12.558L10.1907 12.4275L10.0352 12.558V15.4025L10.1907 15.533L10.3463 15.4025V12.558Z"
              fill="#FFC72C"/>
        <path d="M8.31268 14.7916L8.18213 14.636L8.31268 14.4805H12.7349L12.8655 14.636L12.7349 14.7916H8.31268Z"
              fill="#FFC72C"/>
        <path d="M12.7323 13.8247L12.8629 13.9803L12.7323 14.1358H8.30731L8.17676 13.9803L8.30731 13.8247H12.7323Z"
              fill="#FFC72C"/>
        <path d="M12.7323 13.4805L12.8629 13.325L12.7323 13.1694H8.30731L8.17676 13.325L8.30731 13.4805H12.7323Z"
              fill="#FFC72C"/>
        <path d="M11.3345 12.558L11.179 12.4275L11.0234 12.558V15.4025L11.179 15.533L11.3345 15.4025V12.558Z"
              fill="#D22630"/>
        <path d="M10.0157 12.558L9.86015 12.4275L9.70459 12.558V15.4025L9.86015 15.533L10.0157 15.4025V12.558Z"
              fill="#D22630"/>
        <path d="M8.31268 14.461L8.18213 14.3055L8.31268 14.1499H12.7349L12.8655 14.3055L12.7349 14.461H8.31268Z"
              fill="#D22630"/>
        <path d="M8.31268 13.8055L8.18213 13.6499L8.31268 13.4944H12.7349L12.8655 13.6499L12.7349 13.8055H8.31268Z"
              fill="#D22630"/>
        <path d="M10.6763 15.4025L10.5208 15.533L10.3652 15.4025V12.558L10.5208 12.4275L10.6763 12.558V15.4025Z"
              fill="#D22630"/>
        <path d="M12.0042 12.614H9.02362V12.8501H8.64307V15.114H9.02362V15.3501H12.0153V15.114H12.3958V12.8501H12.0153V12.614H12.0042Z"
              fill="#383739"/>
        <path d="M9.04901 12.6335V12.8697H8.66846V15.0891H9.04901V15.3252H9.36568L8.74346 14.803V13.1585L9.36568 12.6363L9.04901 12.6335ZM11.6851 12.6335L12.3073 13.1558V14.803L11.6851 15.3252H11.9962V15.0891H12.3768V12.8697H11.9962V12.6335H11.6851Z"
              fill="#D22630"/>
        <path d="M9.39588 12.6335C9.39032 12.6391 8.76532 13.1585 8.75977 13.1641V14.7919C8.77088 14.7974 9.39032 15.3169 9.39588 15.3224H11.6514C11.657 15.3169 12.2764 14.7974 12.2875 14.7919V13.1641C12.2764 13.1585 11.6625 12.6391 11.6514 12.6335H9.39588ZM9.42921 12.7252H11.6125L12.1875 13.2113V14.753L11.6125 15.2335H9.42921L8.85421 14.753V13.2113L9.42921 12.7252Z"
              fill="#00843D"/>
        <path d="M10.0062 14.7776L10.1062 14.8165L10.1256 14.9304L10.0006 15.0415L10.1812 15.2165H10.0117L9.88673 15.097L9.76173 15.2165H9.59229L9.77284 15.0415L9.64784 14.9304L9.66728 14.8165L9.76729 14.7776L9.89229 14.8776L9.89784 14.872L10.0062 14.7776Z"
              fill="#00843D"/>
        <path d="M10.6488 14.7776L10.7488 14.8165L10.7682 14.9304L10.6432 15.0415L10.8238 15.2165H10.6543L10.5293 15.097L10.4043 15.2165H10.2349L10.4154 15.0415L10.2904 14.9304L10.3099 14.8165L10.4099 14.7776L10.5349 14.8776L10.5404 14.872L10.6488 14.7776Z"
              fill="#00843D"/>
        <path d="M11.0383 14.7776L10.9383 14.8165L10.9188 14.9304L11.0438 15.0415L10.8633 15.2165H11.0327L11.1577 15.097L11.2827 15.2165H11.4522L11.2716 15.0415L11.3966 14.9304L11.3772 14.8165L11.2772 14.7776L11.1522 14.8776L11.1466 14.872L11.0383 14.7776Z"
              fill="#00843D"/>
        <path d="M10.0062 13.1862L10.1062 13.1473L10.1256 13.0334L10.0006 12.9223L10.1812 12.7473H10.0117L9.88673 12.8668L9.76173 12.7473H9.59229L9.77284 12.9223L9.64784 13.0334L9.66728 13.1473L9.76729 13.1862L9.89229 13.0862L9.89784 13.0918L10.0062 13.1862Z"
              fill="#00843D"/>
        <path d="M10.6488 13.1862L10.7488 13.1473L10.7682 13.0334L10.6432 12.9223L10.8238 12.7473H10.6543L10.5293 12.8668L10.4043 12.7473H10.2349L10.4154 12.9223L10.2904 13.0334L10.3099 13.1473L10.4099 13.1862L10.5349 13.0862L10.5404 13.0918L10.6488 13.1862Z"
              fill="#00843D"/>
        <path d="M11.0383 13.1862L10.9383 13.1473L10.9188 13.0334L11.0438 12.9223L10.8633 12.7473H11.0327L11.1577 12.8668L11.2827 12.7473H11.4522L11.2716 12.9223L11.3966 13.0334L11.3772 13.1473L11.2772 13.1862L11.1522 13.0862L11.1466 13.0918L11.0383 13.1862Z"
              fill="#00843D"/>
        <path d="M12.1717 13.3696L12.0773 13.4501L12.1717 13.5307V13.6668L12.0217 13.5418C12.0217 13.5418 11.9217 13.6307 11.9106 13.6418C11.8995 13.6418 11.805 13.6279 11.7967 13.6279C11.7911 13.6168 11.7606 13.564 11.7578 13.5529C11.7689 13.5418 11.8578 13.4529 11.8578 13.4529C11.8578 13.4529 11.7689 13.364 11.7578 13.3529C11.7634 13.3418 11.7939 13.289 11.7967 13.2779C11.8078 13.2779 11.9023 13.264 11.9106 13.264C11.9161 13.2696 12.0217 13.364 12.0217 13.364L12.1717 13.239V13.3696Z"
              fill="#00843D"/>
        <path d="M12.1717 13.9L12.0773 13.9806L12.1717 14.0611V14.1972L12.0217 14.0722C12.0217 14.0722 11.9217 14.1611 11.9106 14.1667C11.8995 14.1667 11.805 14.1528 11.7967 14.1528C11.7911 14.1417 11.7606 14.0889 11.7578 14.0778C11.7689 14.0667 11.8578 13.9778 11.8578 13.9778C11.8578 13.9778 11.7689 13.8889 11.7578 13.8778C11.7634 13.8667 11.7939 13.8139 11.7967 13.8028C11.8078 13.8028 11.9023 13.7889 11.9106 13.7889C11.9161 13.7945 12.0217 13.8889 12.0217 13.8889L12.1717 13.7639V13.9Z"
              fill="#00843D"/>
        <path d="M12.1717 14.5917L12.0773 14.5111L12.1717 14.4305V14.2944L12.0217 14.4194C12.0217 14.4194 11.9217 14.3305 11.9106 14.3194C11.8995 14.3194 11.805 14.3333 11.7967 14.3333C11.7911 14.3444 11.7606 14.3972 11.7578 14.4083C11.7689 14.4194 11.8578 14.5083 11.8578 14.5083C11.8578 14.5083 11.7689 14.5972 11.7578 14.6083C11.7634 14.6194 11.7939 14.6722 11.7967 14.6833C11.8078 14.6833 11.9023 14.6972 11.9106 14.6972C11.9161 14.6917 12.0217 14.6028 12.0217 14.6028L12.1717 14.7278V14.5917Z"
              fill="#00843D"/>
        <path d="M8.87402 13.3696L8.96847 13.4501L8.87402 13.5307V13.6668L9.02402 13.5418C9.02402 13.5418 9.12402 13.6307 9.13513 13.6418C9.14625 13.6418 9.24069 13.6279 9.24902 13.6279C9.25458 13.6168 9.28513 13.564 9.28791 13.5529C9.2768 13.5418 9.18791 13.4529 9.18791 13.4529C9.18791 13.4529 9.2768 13.364 9.28791 13.3529C9.28236 13.3418 9.2518 13.289 9.24902 13.2779C9.23791 13.2779 9.14347 13.264 9.13513 13.264C9.12958 13.2696 9.02402 13.364 9.02402 13.364L8.87402 13.239V13.3696Z"
              fill="#00843D"/>
        <path d="M8.87402 13.9L8.96847 13.9806L8.87402 14.0611V14.1972L9.02402 14.0722C9.02402 14.0722 9.12402 14.1611 9.13513 14.1667C9.14625 14.1667 9.24069 14.1528 9.24902 14.1528C9.25458 14.1417 9.28513 14.0889 9.28791 14.0778C9.2768 14.0667 9.18791 13.9778 9.18791 13.9778C9.18791 13.9778 9.2768 13.8889 9.28791 13.8778C9.28236 13.8667 9.2518 13.8139 9.24902 13.8028C9.23791 13.8028 9.14347 13.7889 9.13513 13.7889C9.12958 13.7945 9.02402 13.8889 9.02402 13.8889L8.87402 13.7639V13.9Z"
              fill="#00843D"/>
        <path d="M8.87402 14.5917L8.96847 14.5111L8.87402 14.4305V14.2944L9.02402 14.4194C9.02402 14.4194 9.12402 14.3305 9.13513 14.3194C9.14625 14.3194 9.24069 14.3333 9.24902 14.3333C9.25458 14.3444 9.28513 14.3972 9.28791 14.4083C9.2768 14.4194 9.18791 14.5083 9.18791 14.5083C9.18791 14.5083 9.2768 14.5972 9.28791 14.6083C9.28236 14.6194 9.2518 14.6722 9.24902 14.6833C9.23791 14.6833 9.14347 14.6972 9.13513 14.6972C9.12958 14.6917 9.02402 14.6028 9.02402 14.6028L8.87402 14.7278V14.5917Z"
              fill="#00843D"/>
        <path d="M9.43483 12.75C9.42927 12.7556 8.90427 13.1972 8.87928 13.2167C8.92372 13.2556 8.97372 13.2972 9.01816 13.3361C9.02927 13.325 9.12372 13.2417 9.12372 13.2417L9.25983 13.2611L9.31539 13.3611C9.31539 13.3611 9.23483 13.4417 9.22094 13.4556C9.23483 13.4694 9.31539 13.55 9.31539 13.55L9.25983 13.65L9.12372 13.6639C9.12372 13.6639 9.03483 13.5833 9.01816 13.575L8.86816 13.7V13.7389C8.91816 13.7778 8.96816 13.825 9.01816 13.8639C9.02927 13.8528 9.12372 13.775 9.12372 13.775L9.25983 13.7889L9.31539 13.8889C9.31539 13.8889 9.23483 13.9694 9.22094 13.9833C9.23483 13.9972 9.31539 14.0778 9.31539 14.0778L9.25983 14.1778L9.12372 14.1917C9.12372 14.1917 9.03483 14.1111 9.01816 14.0972L8.86816 14.2222V14.2667L9.01816 14.3917C9.02927 14.3805 9.12372 14.2972 9.12372 14.2972L9.25983 14.3167L9.31539 14.4167C9.31539 14.4167 9.23483 14.4972 9.22094 14.5111C9.23483 14.525 9.31539 14.6055 9.31539 14.6055L9.25983 14.7055L9.12372 14.725C9.12372 14.725 9.03483 14.6444 9.01816 14.6305C8.97372 14.6694 8.92372 14.7111 8.87928 14.7444C8.90427 14.7639 9.42927 15.2055 9.43483 15.2111H9.55428L9.72927 15.0417L9.61539 14.9417L9.63483 14.8028L9.75427 14.7528L9.87372 14.8472L9.99316 14.7528L10.1126 14.8028L10.1376 14.9417L10.0237 15.0417L10.1932 15.2083L10.3626 15.0417L10.2487 14.9417L10.2682 14.8028L10.3876 14.7528L10.5071 14.8472L10.6265 14.7528L10.7459 14.8028L10.7654 14.9417L10.6515 15.0417L10.8209 15.2083L10.9904 15.0417L10.8765 14.9417L10.8959 14.8028L11.0154 14.7528L11.1348 14.8472L11.2543 14.7528L11.3737 14.8028L11.3932 14.9417L11.2793 15.0417L11.4543 15.2111H11.5737C11.5793 15.2055 12.1043 14.7639 12.1293 14.7444C12.0848 14.7055 12.0348 14.6639 11.9904 14.6305C11.9793 14.6417 11.8904 14.725 11.8904 14.725L11.7543 14.7055L11.6987 14.6055C11.6987 14.6055 11.7793 14.525 11.7932 14.5111C11.7793 14.4972 11.6987 14.4167 11.6987 14.4167L11.7543 14.3167L11.8904 14.2972C11.8904 14.2972 11.9793 14.3778 11.9904 14.3917L12.1404 14.2667V14.2222L11.9904 14.0972C11.9793 14.1083 11.8904 14.1917 11.8904 14.1917L11.7543 14.1778L11.6987 14.0778C11.6987 14.0778 11.7793 13.9972 11.7932 13.9833C11.7793 13.9694 11.6987 13.8889 11.6987 13.8889L11.7543 13.7889L11.8904 13.775C11.8904 13.775 11.9793 13.8555 11.9904 13.8639C12.0404 13.825 12.0904 13.7833 12.1404 13.7444V13.6944L11.9904 13.575C11.9793 13.5861 11.8904 13.6639 11.8904 13.6639L11.7543 13.65L11.6987 13.55C11.6987 13.55 11.7793 13.4694 11.7932 13.4556C11.7793 13.4417 11.6987 13.3611 11.6987 13.3611L11.7543 13.2611L11.8904 13.2417C11.8904 13.2417 11.9793 13.3222 11.9904 13.3361C12.0348 13.2972 12.0848 13.2611 12.1348 13.2222C12.1154 13.2083 11.5848 12.7611 11.5793 12.7556H11.4598L11.2848 12.925L11.3987 13.025L11.3793 13.1639L11.2598 13.2194L11.1404 13.125L11.0209 13.2194L10.9015 13.1639L10.8821 13.025L10.9959 12.925L10.8265 12.7583L10.6571 12.925L10.7709 13.025L10.7515 13.1639L10.6321 13.2194L10.5126 13.125L10.3932 13.2194L10.2737 13.1639L10.2543 13.025L10.3682 12.925L10.1987 12.7583L10.0293 12.925L10.1432 13.025L10.1182 13.1611L9.99872 13.2167L9.87927 13.1222L9.75983 13.2167L9.64039 13.1611L9.62094 13.0222L9.73483 12.9222L9.55428 12.7528L9.43483 12.75ZM8.87372 13.925V14.0361L8.93761 13.9805L8.87372 13.925Z"
              fill="#D22630"/>
        <path d="M9.88546 15.1277L9.79102 15.2138H9.97713L9.88546 15.1277Z" fill="white"/>
        <path d="M10.521 15.1277L10.4321 15.2138H10.6182L10.521 15.1277Z" fill="white"/>
        <path d="M11.1594 15.1277L11.0649 15.2138H11.2511L11.1594 15.1277Z" fill="white"/>
        <path d="M9.79102 12.75L9.88546 12.8389L9.97991 12.75H9.79102Z" fill="white"/>
        <path d="M10.4263 12.75L10.5207 12.8389L10.6152 12.75H10.4263Z" fill="white"/>
        <path d="M11.0679 12.75L11.1623 12.8389L11.2568 12.75H11.0679Z" fill="white"/>
        <path d="M12.1708 13.3945L12.1069 13.4501L12.1708 13.5001V13.3945Z" fill="white"/>
        <path d="M12.1708 13.9253L12.1069 13.9808L12.1708 14.0364V13.9253Z" fill="white"/>
        <path d="M12.1708 14.4612L12.1069 14.5167L12.1708 14.5723V14.4612Z" fill="white"/>
        <path d="M8.87402 13.3945V13.5056L8.93791 13.4501L8.87402 13.3945Z" fill="white"/>
        <path d="M8.87402 13.9253V14.0364L8.93791 13.9808L8.87402 13.9253Z" fill="white"/>
        <path d="M8.87402 14.4583V14.5694L8.93791 14.5138L8.87402 14.4583Z" fill="white"/>
        <path d="M11.0686 13.8054V13.6137H10.8769V13.4026H10.1714V13.6137H9.97971V13.8054H9.71582V14.1609H9.98249V14.3526H10.1742V14.5637H10.8797V14.3526H11.0714V14.1609H11.338V13.8054H11.0686Z"
              fill="#383739"/>
        <path d="M10.5125 13.4253V13.642L10.2069 13.817V13.9725H9.73193V13.8281H9.9986V13.6364H10.1903V13.4253H10.5125Z"
              fill="#FFC72C"/>
        <path d="M10.5317 14.5362V14.3196L10.8373 14.1446V13.989H11.3123V14.1335H11.0484V14.3251H10.8567V14.5362H10.5317Z"
              fill="#FFC72C"/>
        <path d="M10.8373 13.9725V13.817L10.5317 13.642V13.4253H10.854V13.6364H11.0456V13.8281H11.3123V13.9725H10.8373Z"
              fill="white"/>
        <path d="M9.73193 13.9915H10.2069V14.147L10.5125 14.322V14.5387H10.193V14.3276H10.0014V14.1359H9.73471L9.73193 13.9915Z"
              fill="white"/>
        <path d="M10.2271 13.9915V14.1359L10.5076 14.297V13.9915H10.2271Z" fill="#D22630"/>
        <path d="M10.5125 13.6667L10.2319 13.8279V13.9723H10.5125V13.6667Z" fill="#00843D"/>
        <path d="M10.8186 13.9723V13.8279L10.5381 13.6667V13.9723H10.8186Z" fill="#D22630"/>
        <path d="M10.5317 14.297L10.8123 14.1359V13.9915H10.5317V14.297Z" fill="#00843D"/>
        <path d="M7.94907 17.7529V18.339H7.38796V18.8695H6.82129V20.389H7.38796V20.9251H7.94907V21.5112H9.9824L10.338 21.7279L10.1713 21.8279H9.44629L9.38518 21.7584H10.0407L9.85462 21.5723H8.91296L9.33796 22.0195H10.2185L10.5185 21.839L10.8185 22.0195H11.6991L12.1241 21.5723H11.188L11.0018 21.7584H11.6602L11.5991 21.8279H10.8741L10.7046 21.7223L11.0602 21.5056H13.0935V20.9251H13.6546V20.3945H14.2213V18.8779H13.6546V18.3473H13.0935V17.7612H11.0602L10.7046 17.5445L10.8741 17.439H11.5991L11.6602 17.5084H11.0046L11.1907 17.6945H12.1324L11.7074 17.2473H10.8268L10.5268 17.4279L10.2268 17.2473H9.34629L8.91573 17.6945H9.8574L10.0435 17.5084H9.38796L9.44907 17.439H10.1741L10.3435 17.5445L9.98796 17.7612H7.94907V17.7529Z"
              fill="#D22630"/>
        <path d="M11.0542 21.4861H13.0736V20.9H13.6292V20.3694H14.1959V18.8972H13.6292V18.3667H13.0736V17.7778H11.0542L10.2153 17.2722H9.34863L8.9653 17.6722H9.84585L9.9903 17.5278H9.33474L9.43474 17.4139H10.1764L11.1292 17.9861H12.8625V18.5722H13.4236V19.1028H13.9903V20.1556H13.4236V20.6861H12.8625V21.2778H11.1292L10.1764 21.85H9.43474L9.33474 21.7389H9.9903L9.84585 21.5944H8.9653L9.35141 21.9944H10.2153L11.0542 21.4861ZM9.9153 21.275H8.18197V20.6889H7.62641V20.1583H7.05974V19.1056H7.62641V18.575H8.18197V17.9889H9.9153L10.8681 17.4167H11.6097L11.7097 17.5305H11.0597L11.2042 17.675H12.0847L11.6986 17.2778H10.832L9.99585 17.7833H7.97641V18.3694H7.4153V18.9H6.84863V20.3722H7.4153V20.9028H7.97641V21.4889H9.99585L10.832 21.9944H11.6986L12.0847 21.5944H11.2042L11.0597 21.7389H11.7097L11.6097 21.85H10.8681L9.9153 21.275Z"
              fill="#FFC72C"/>
        <path d="M12.6905 20.5249V21.111H11.0766L10.521 21.4443L9.96545 21.111H8.35434V20.5249H7.79323V19.9943H7.22656V19.2832H7.79323V18.7499H8.35434V18.1638H9.96267H9.96823L10.5238 17.8193L11.0793 18.1554H12.6932V18.7416H13.2543V19.2721H13.821V19.9832H13.2543V20.5249H12.6905Z"
              fill="#00843D"/>
        <path d="M8.56299 20.3139V20.8805H9.4491L8.56299 20.2944V20.3139Z" fill="#383739"/>
        <path d="M8.56299 18.9502V18.3835H9.4491L8.56299 18.9724V18.9502Z" fill="#383739"/>
        <path d="M12.4818 20.3139V20.8805H11.5957L12.4818 20.2944V20.3139Z" fill="#383739"/>
        <path d="M12.4818 18.9502V18.3835H11.5957L12.4818 18.9697V18.9502Z" fill="#383739"/>
        <path d="M8.58447 20.3333L9.37614 20.8583H8.58447V20.3333Z" fill="#D22630"/>
        <path d="M8.58447 18.9308C8.61503 18.9113 9.32614 18.4391 9.37614 18.4058H8.58447V18.9308Z" fill="#D22630"/>
        <path d="M12.4601 20.3333C12.4296 20.3527 11.7185 20.8249 11.6685 20.8583H12.4601V20.3333Z" fill="#D22630"/>
        <path d="M12.4601 18.9308C12.4296 18.9113 11.7185 18.4391 11.6685 18.4058H12.4601V18.9308Z" fill="#D22630"/>
        <path d="M9.69077 19.478V19.1863H9.59077L9.11577 18.8918L9.11021 18.8974L8.63799 19.1918H8.53799V19.4835H8.31299V19.7946H8.53799V20.0835H8.63799L9.11299 20.378L9.58799 20.0835H9.68799V19.7918H10.0297V19.4807L9.69077 19.478Z"
              fill="#383739"/>
        <path d="M9.12102 18.9167L9.55713 19.1862H8.68768L9.12102 18.9167ZM9.55435 20.0779L9.11824 20.3473L8.68213 20.0779H9.55435Z"
              fill="#D22630"/>
        <path d="M9.45182 19.4973V19.7667H8.91016V19.4973H9.45182Z" fill="#D22630"/>
        <path d="M9.67106 19.7861V20.0556H9.12939V19.7861H9.67106Z" fill="#FFC72C"/>
        <path d="M9.10954 19.7861V20.0556H8.56787V19.7861H9.10954Z" fill="#FFC72C"/>
        <path d="M10.0124 19.4973V19.7667H9.4707V19.4973H10.0124Z" fill="#FFC72C"/>
        <path d="M8.88493 19.4973V19.7667H8.34326V19.4973H8.88493Z" fill="#FFC72C"/>
        <path d="M9.67106 19.2056V19.475H9.12939V19.2056H9.67106Z" fill="#FFC72C"/>
        <path d="M9.10954 19.2056V19.475H8.56787V19.2056H9.10954Z" fill="#FFC72C"/>
        <path d="M8.73468 19.5583V19.7083H8.49023V19.5583H8.73468Z" fill="#383739"/>
        <path d="M8.95978 19.2668V19.4168H8.71533V19.2668H8.95978Z" fill="#383739"/>
        <path d="M9.5213 19.2668V19.4168H9.27686V19.2668H9.5213Z" fill="#383739"/>
        <path d="M9.29864 19.5583V19.7083H9.0542V19.5583H9.29864Z" fill="#383739"/>
        <path d="M9.85983 19.5583V19.7083H9.61816V19.5583H9.85983Z" fill="#383739"/>
        <path d="M9.5213 19.8474V19.9974H9.27686V19.8474H9.5213Z" fill="#383739"/>
        <path d="M8.95978 19.8474V19.9974H8.71533V19.8474H8.95978Z" fill="#383739"/>
        <path d="M8.71251 19.5833H8.51807V19.6888H8.71251V19.5833Z" fill="white"/>
        <path d="M8.93468 19.2917H8.74023V19.3973H8.93468V19.2917Z" fill="white"/>
        <path d="M9.50157 19.2917H9.30713V19.3973H9.50157V19.2917Z" fill="white"/>
        <path d="M9.27354 19.5833H9.0791V19.6888H9.27354V19.5833Z" fill="white"/>
        <path d="M9.83995 19.5833H9.64551V19.6888H9.83995V19.5833Z" fill="white"/>
        <path d="M9.50157 19.8723H9.30713V19.9779H9.50157V19.8723Z" fill="white"/>
        <path d="M8.93468 19.8723H8.74023V19.9779H8.93468V19.8723Z" fill="white"/>
        <path d="M11.3537 19.478V19.1863H11.4537L11.9287 18.8918L11.9343 18.8974L12.4065 19.1918H12.5065V19.4835H12.7315V19.7946H12.5065V20.0835H12.4065L11.9259 20.3752L11.4509 20.0807H11.3509V19.7891H11.0093V19.478H11.3537Z"
              fill="#383739"/>
        <path d="M11.9244 18.9167L11.4883 19.1862H12.355L11.9244 18.9167ZM11.4911 20.0779L11.9272 20.3473L12.3633 20.0779H11.4911Z"
              fill="#D22630"/>
        <path d="M11.5923 19.4973V19.7667H12.134V19.4973H11.5923Z" fill="#D22630"/>
        <path d="M11.373 19.7861V20.0556H11.9147V19.7861H11.373Z" fill="#FFC72C"/>
        <path d="M11.9351 19.7861V20.0556H12.4767V19.7861H11.9351Z" fill="#FFC72C"/>
        <path d="M11.0317 19.4973V19.7667H11.5734V19.4973H11.0317Z" fill="#FFC72C"/>
        <path d="M12.1602 19.4973V19.7667H12.7018V19.4973H12.1602Z" fill="#FFC72C"/>
        <path d="M11.373 19.2056V19.475H11.9147V19.2056H11.373Z" fill="#FFC72C"/>
        <path d="M11.9351 19.2056V19.475H12.4767V19.2056H11.9351Z" fill="#FFC72C"/>
        <path d="M12.3042 19.5583V19.7083H12.5486V19.5583H12.3042Z" fill="#383739"/>
        <path d="M12.0845 19.2668V19.4168H12.3289V19.2668H12.0845Z" fill="#383739"/>
        <path d="M11.5234 19.2668V19.4168H11.7679V19.2668H11.5234Z" fill="#383739"/>
        <path d="M11.7461 19.5583V19.7083H11.9905V19.5583H11.7461Z" fill="#383739"/>
        <path d="M11.1851 19.5583V19.7083H11.4295V19.5583H11.1851Z" fill="#383739"/>
        <path d="M11.5234 19.8474V19.9974H11.7679V19.8474H11.5234Z" fill="#383739"/>
        <path d="M12.0845 19.8474V19.9974H12.3289V19.8474H12.0845Z" fill="#383739"/>
        <path d="M12.3325 19.5833H12.527V19.6888H12.3325V19.5833Z" fill="white"/>
        <path d="M12.1035 19.2917H12.298V19.3973H12.1035V19.2917Z" fill="white"/>
        <path d="M11.5435 19.2917H11.7379V19.3973H11.5435V19.2917Z" fill="white"/>
        <path d="M11.7705 19.5833H11.965V19.6888H11.7705V19.5833Z" fill="white"/>
        <path d="M11.2046 19.5833H11.399V19.6888H11.2046V19.5833Z" fill="white"/>
        <path d="M11.5435 19.8723H11.7379V19.9779H11.5435V19.8723Z" fill="white"/>
        <path d="M12.1035 19.8723H12.298V19.9779H12.1035V19.8723Z" fill="white"/>
        <path d="M11.0935 18.9916V19.2833H10.9935L10.5185 19.5778L10.5129 19.5722L10.0407 19.2778H9.94071V18.9861H9.66016V18.675H9.94071V18.3833H10.0407L10.5157 18.0889L10.9907 18.3833H11.0907V18.675H11.3713V18.9861H11.0907V18.9916H11.0935Z"
              fill="#383739"/>
        <path d="M10.5206 19.5527L10.9567 19.2833H10.09L10.5206 19.5527ZM10.9567 18.3888L10.5206 18.1194L10.0845 18.3888H10.9567Z"
              fill="#FFC72C"/>
        <path d="M11.0734 18.6806V18.4111H10.5317V18.6806H11.0734Z" fill="#D22630"/>
        <path d="M10.5124 18.6806V18.4111H9.9707V18.6806H10.5124Z" fill="#D22630"/>
        <path d="M11.3542 18.9723V18.7029H10.8125V18.9723H11.3542Z" fill="#D22630"/>
        <path d="M10.7931 18.9723V18.7029H10.2515V18.9723H10.7931Z" fill="#D22630"/>
        <path d="M10.2316 18.9723V18.7029H9.68994V18.9723H10.2316Z" fill="#D22630"/>
        <path d="M11.0734 19.2609V18.9915H10.5317V19.2609H11.0734Z" fill="#D22630"/>
        <path d="M10.5124 19.2609V18.9915H9.9707V19.2609H10.5124Z" fill="#D22630"/>
        <path d="M10.3628 18.4692V18.6192H10.1211V18.4692H10.3628Z" fill="#383739"/>
        <path d="M10.9236 18.4692V18.6192H10.6792V18.4692H10.9236Z" fill="#383739"/>
        <path d="M10.0823 18.761V18.911H9.83789V18.761H10.0823Z" fill="#383739"/>
        <path d="M10.6429 18.761V18.911H10.3984V18.761H10.6429Z" fill="#383739"/>
        <path d="M11.2103 18.761V18.911H10.9658V18.761H11.2103Z" fill="#383739"/>
        <path d="M10.3628 19.05V19.2001H10.1211V19.05H10.3628Z" fill="#383739"/>
        <path d="M10.9236 19.05V19.2001H10.6792V19.05H10.9236Z" fill="#383739"/>
        <path d="M10.3429 18.4944H10.1484V18.5999H10.3429V18.4944Z" fill="white"/>
        <path d="M10.9039 18.4944H10.7095V18.5999H10.9039V18.4944Z" fill="white"/>
        <path d="M10.0577 18.7861H9.86328V18.8917H10.0577V18.7861Z" fill="white"/>
        <path d="M10.6238 18.7861H10.4238V18.8917H10.6183V18.7861H10.6238Z" fill="white"/>
        <path d="M11.1847 18.7861H10.9902V18.8917H11.1847V18.7861Z" fill="white"/>
        <path d="M10.3429 19.0747H10.1484V19.1803H10.3429V19.0747Z" fill="white"/>
        <path d="M10.9039 19.0747H10.7095V19.1803H10.9039V19.0747Z" fill="white"/>
        <path d="M11.0935 20.5835V20.8752H10.9935L10.5185 21.1696L10.5129 21.1641L10.0407 20.8696H9.94071V20.5779H9.66016V20.2724H9.94071V19.9807H10.0407L10.5157 19.6863L10.9907 19.9807H11.0907V20.2724H11.3713V20.5835H11.0935Z"
              fill="#383739"/>
        <path d="M10.5206 21.1444L10.9567 20.875H10.09L10.5206 21.1444ZM10.9567 19.9833L10.5206 19.7139L10.0845 19.9833H10.9567Z"
              fill="#FFC72C"/>
        <path d="M11.0734 20.2721V20.0027H10.5317V20.2721H11.0734Z" fill="#D22630"/>
        <path d="M10.5124 20.2721V20.0027H9.9707V20.2721H10.5124Z" fill="#D22630"/>
        <path d="M11.3542 20.5639V20.2944H10.8125V20.5639H11.3542Z" fill="#D22630"/>
        <path d="M10.7931 20.5639V20.2944H10.2515V20.5639H10.7931Z" fill="#D22630"/>
        <path d="M10.2316 20.5639V20.2944H9.68994V20.5639H10.2316Z" fill="#D22630"/>
        <path d="M11.0734 20.8555V20.5833H10.5317V20.8527H11.0734V20.8555Z" fill="#D22630"/>
        <path d="M10.5124 20.8555V20.5833H9.9707V20.8527H10.5124V20.8555Z" fill="#D22630"/>
        <path d="M10.3628 20.0637V20.2137H10.1211V20.0637H10.3628Z" fill="#383739"/>
        <path d="M10.9236 20.0637V20.2137H10.6792V20.0637H10.9236Z" fill="#383739"/>
        <path d="M10.0823 20.3528V20.5028H9.83789V20.3528H10.0823Z" fill="#383739"/>
        <path d="M10.6429 20.3528V20.5028H10.3984V20.3528H10.6429Z" fill="#383739"/>
        <path d="M11.2103 20.3528V20.5028H10.9658V20.3528H11.2103Z" fill="#383739"/>
        <path d="M10.3628 20.6445V20.7945H10.1211V20.6445H10.3628Z" fill="#383739"/>
        <path d="M10.9236 20.6445V20.7945H10.6792V20.6445H10.9236Z" fill="#383739"/>
        <path d="M10.3429 20.0889H10.1484V20.1944H10.3429V20.0889Z" fill="white"/>
        <path d="M10.9039 20.0889H10.7095V20.1944H10.9039V20.0889Z" fill="white"/>
        <path d="M10.0577 20.3777H9.86328V20.4832H10.0577V20.3777Z" fill="white"/>
        <path d="M10.6238 20.3777H10.4238V20.4832H10.6183V20.3777H10.6238Z" fill="white"/>
        <path d="M11.1847 20.3777H10.9902V20.4832H11.1847V20.3777Z" fill="white"/>
        <path d="M10.3429 20.6694H10.1484V20.775H10.3429V20.6694Z" fill="white"/>
        <path d="M10.9039 20.6694H10.7095V20.775H10.9039V20.6694Z" fill="white"/>
        <path d="M7.45117 24.0501L9.55951 22.9167H9.56506H11.4928L13.6012 24.0501V25.9195L11.4928 27.0501H9.56506L7.45673 25.9167V24.0473H7.45117V24.0501Z"
              fill="#383739"/>
        <path d="M9.56545 22.9387L7.47656 24.0665V25.9109L9.56545 27.0387H11.4849L13.5738 25.9109V24.0665L11.4849 22.9387H9.56545ZM9.60156 23.0887H11.446L13.4238 24.1498V25.8137L11.446 26.8748H9.60156L7.62378 25.8137V24.1498L9.60156 23.0887Z"
              fill="#00843D"/>
        <path d="M10.532 24.972V26.8554H11.4375L13.4014 25.797V24.9915H10.5125V23.1082H9.60418L7.64307 24.1665V24.972H10.532Z"
              fill="#FFC72C"/>
        <path d="M10.5128 24.972V26.8554H9.60451L7.64062 25.797V24.9915H10.5323V23.1082H11.4378L13.4017 24.1665V24.972H10.5128Z"
              fill="white"/>
        <path d="M10.6984 26.7498V26.2026L10.5234 26.3137L10.3484 26.2026V26.7498H9.80114L10.1706 26.4803V26.0942L9.60392 25.7387H9.20947V24.2303H9.60392L10.1706 23.8748V23.4887L9.80114 23.2192H9.83725H10.3539V23.7665L10.5289 23.6553L10.7039 23.7665V23.2192H11.2511L10.8817 23.4887V23.8748L11.4484 24.2303H11.8428V25.7331H11.4484L10.8817 26.0887V26.4748L11.2511 26.7442H10.7011V26.7498H10.6984Z"
              fill="#383739"/>
        <path d="M10.7239 23.2332V23.7944L10.5323 23.6749V23.836L11.3934 24.386H11.6795V24.9721H11.8156V24.2499H11.435L10.86 23.8832V23.4721L11.185 23.2305L10.7239 23.2332ZM9.22949 24.9916V25.7138H9.60449L10.1878 26.0832V26.4944L9.86282 26.736H10.3239V26.1749L10.51 26.2944V26.1277L9.64894 25.5805H9.36838V24.9944L9.22949 24.9916Z"
              fill="#FFC72C"/>
        <path d="M9.86005 23.2332L10.185 23.4748V23.8859L9.60449 24.2498H9.22949V24.972H9.3656V24.3859H9.64616L10.5073 23.8387V23.6776L10.3212 23.797V23.2359L9.86005 23.2332ZM11.6795 24.9915V25.5776H11.3934L10.5323 26.1248V26.2915L10.7239 26.172V26.7332H11.185L10.86 26.4915V26.0832L11.435 25.7137H11.8156V24.9915H11.6795Z"
              fill="white"/>
        <path d="M9.38983 25.5583H9.6565L10.5232 26.1083L11.3898 25.5583H11.6565V24.4111H11.3898H11.3843L10.5176 23.8611L9.65094 24.4111H9.38428L9.38983 25.5583Z"
              fill="#D22630"/>
        <path d="M11.124 25.2526H11.3101V25.1665H11.1713V25.0054H11.4657V25.4109H11.1796V25.6859H10.5935V25.2915H10.8546V25.4526H10.7546V25.5331H11.024V25.3831L9.92126 24.7109H9.73515V24.797H9.87403V24.9581H9.57959V24.5526H9.8657V24.2776H9.87681H10.4518V24.672H10.1907V24.5109H10.2907V24.4304H10.0213V24.5804L11.124 25.2526ZM11.024 24.5859V24.4359H10.7546V24.5165H10.8546V24.6776H10.5935V24.2831H11.1796V24.5581H11.4657V24.9637H11.1713V24.8026H11.3101V24.7165H11.124L10.0213 25.3887V25.5387H10.2907V25.4581H10.1907V25.297H10.4518V25.6943H9.8657V25.4193H9.57959V25.0137H9.87403V25.1748H9.73515V25.2609H9.92126L11.024 24.5859Z"
              fill="#383739"/>
        <path d="M11.0436 25.3667V25.5528H10.7269V25.4333H10.8269V25.3194H10.6102V25.675H11.1602V25.4H11.4463V25.0389H11.188V25.1528H11.3269V25.2833H11.1158L9.99912 24.6028V24.4167H10.3158V24.5361H10.2158V24.65H10.4325V24.2944H9.88523V24.5694H9.59912V24.9305H9.85468V24.8167H9.71579V24.6861H9.9269L11.0436 25.3667ZM11.1186 24.6861H11.3297V24.8167H11.1908V24.9305H11.4463V24.5694H11.1602V24.2944H10.613V24.65H10.8297V24.5305H10.7297V24.4111H11.0463V24.5972L9.9269 25.2778H9.71579V25.1472H9.85468V25.0333H9.59912V25.3944H9.88523V25.6694H10.4325V25.3139H10.2158V25.4278H10.3158V25.5472H9.99912V25.3611L11.1186 24.6861Z"
              fill="white"/>
        <path d="M12.977 25.0779V25.6695H12.7271V25.4584H12.4771V25.6695H12.2271V25.0779H12.4771V25.289H12.7271V25.0779H12.977Z"
              fill="#383739"/>
        <path d="M12.0796 25.8582V26.4498H11.8296V26.2387H11.5796V26.4498H11.3296V25.8582H11.5796V26.0693H11.8296V25.8582H12.0796Z"
              fill="#383739"/>
        <path d="M12.977 24.8861V24.2944H12.7271V24.5055H12.4771V24.2944H12.2271V24.8861H12.4771V24.6805H12.7271V24.8917H12.977V24.8861Z"
              fill="#383739"/>
        <path d="M8.06787 25.0779V25.6695H8.31787V25.4584H8.56788V25.6695H8.81788V25.0779H8.56788V25.289H8.31787V25.0779H8.06787Z"
              fill="#383739"/>
        <path d="M8.06787 24.8861V24.2944H8.31787V24.5055H8.56788V24.2944H8.81788V24.8861H8.56788V24.6805H8.31787V24.8917H8.06787V24.8861Z"
              fill="#383739"/>
        <path d="M12.0796 24.1056V23.5139H11.8296V23.725H11.5796V23.5139H11.3296V24.1056H11.5796V23.8945H11.8296V24.1056H12.0796Z"
              fill="#383739"/>
        <path d="M8.96533 25.8582V26.4498H9.21533V26.2387H9.46533V26.4498H9.71533V25.8582H9.46533V26.0693H9.21533V25.8582H8.96533Z"
              fill="#383739"/>
        <path d="M8.96533 24.1056V23.5139H9.21533V23.725H9.46533V23.5139H9.71533V24.1056H9.46533V23.8945H9.21533V24.1056H8.96533Z"
              fill="#383739"/>
        <path d="M12.2285 23.6943V24.1416H13.0591L12.2285 23.6943Z" fill="#383739"/>
        <path d="M8.81541 26.2697V25.8225H7.98486L8.81541 26.2697Z" fill="#383739"/>
        <path d="M8.81541 23.6943V24.1416H7.98486L8.81541 23.6943Z" fill="#383739"/>
        <path d="M12.2285 26.2697V25.8225H13.0591L12.2285 26.2697Z" fill="#383739"/>
        <path d="M12.7515 25.4389V25.65H12.957V25.1028H12.7515V25.3139H12.457V25.1028H12.2515V25.65H12.457V25.4389H12.7515Z"
              fill="#D22630"/>
        <path d="M11.8535 26.2197V26.4308H12.0591V25.8835H11.8535V26.0947H11.5591V25.8835H11.3535V26.4308H11.5591V26.2197H11.8535Z"
              fill="#D22630"/>
        <path d="M12.7515 24.5276V24.3165H12.957V24.8609H12.7515V24.6498H12.457V24.8609H12.2515V24.3137H12.457V24.5248H12.7515V24.5276Z"
              fill="#D22630"/>
        <path d="M8.29345 25.4389V25.65H8.08789V25.1028H8.29345V25.3139H8.58789V25.1028H8.79345V25.65H8.58789V25.4389H8.29345Z"
              fill="#D22630"/>
        <path d="M8.29345 24.5276V24.3165H8.08789V24.8609H8.29345V24.6498H8.58789V24.8609H8.79345V24.3137H8.58789V24.5248H8.29345V24.5276Z"
              fill="#D22630"/>
        <path d="M11.8535 23.7446V23.5334H12.0591V24.0807H11.8535V23.8696H11.5591V24.0807H11.3535V23.5334H11.5591V23.7446H11.8535Z"
              fill="#D22630"/>
        <path d="M9.19042 26.2197V26.4308H8.98486V25.8835H9.19042V26.0947H9.48486V25.8835H9.69042V26.4308H9.48486V26.2197H9.19042Z"
              fill="#D22630"/>
        <path d="M9.19042 23.7446V23.5334H8.98486V24.0807H9.19042V23.8696H9.48486V24.0807H9.69042V23.5334H9.48486V23.7446H9.19042Z"
              fill="#D22630"/>
        <path d="M12.254 23.7305V24.1221H12.9762L12.254 23.7305ZM8.06787 25.8499L8.79287 26.2416V25.8499H8.06787Z"
              fill="#FFC72C"/>
        <path d="M8.78799 23.7305L8.06299 24.1221H8.78799V23.7305ZM12.2547 25.8499V26.2416L12.9797 25.8499H12.2547Z"
              fill="white"/>
        <path d="M13.9243 26.6249C13.8854 26.7944 13.7493 26.9249 13.7132 27.0999C13.6493 26.9138 13.5882 26.7583 13.6326 26.5583C13.6632 26.4138 13.7882 26.3138 13.7993 26.1638C13.9354 26.286 13.9632 26.4555 13.9243 26.6249ZM13.9604 27.3416C13.8493 27.4972 13.6909 27.611 13.5187 27.6916C13.5548 27.5555 13.4882 27.4555 13.4187 27.3472C13.3326 27.2166 13.2937 27.0916 13.3632 26.9416C13.3937 27.0166 13.4382 27.0805 13.4882 27.1472C13.5632 27.2527 13.6132 27.3416 13.6243 27.4722C13.7104 27.4083 13.7493 27.311 13.7937 27.2166C13.8632 27.0805 13.9798 26.9722 14.1104 26.8972C14.0798 27.0555 14.0493 27.2166 13.9604 27.3416ZM13.3271 27.8027C13.3521 27.8888 13.3715 27.9722 13.3659 28.0638C13.4409 27.9833 13.5354 27.9249 13.6271 27.8583C13.7465 27.7638 13.8882 27.6916 13.9826 27.5666C13.9687 27.7472 13.8937 27.8972 13.7409 28.0083C13.5854 28.1222 13.3965 28.1888 13.2437 28.3083C13.2687 28.1416 13.2048 28.0138 13.1548 27.8583C13.1104 27.7138 13.1548 27.5666 13.2493 27.4583C13.2521 27.5833 13.2937 27.686 13.3271 27.8027ZM12.9771 28.3583C12.9465 28.4833 12.8576 28.5833 12.7909 28.6999C12.9576 28.6499 13.1021 28.561 13.2521 28.4749C13.4326 28.3805 13.6215 28.3138 13.7826 28.1888C13.7021 28.4833 13.5021 28.661 13.2104 28.7444C13.0104 28.8055 12.8437 28.7749 12.6048 28.8694C12.6354 28.7027 12.6798 28.5277 12.7604 28.3833C12.8215 28.2777 12.8854 28.1722 12.9271 28.0527C12.9826 28.1527 13.0076 28.2472 12.9771 28.3583ZM12.3715 28.8138C12.3159 28.9083 12.2409 28.9944 12.1465 29.0583C12.3826 29.0722 12.5715 28.9222 12.7965 28.9194C12.9354 28.9138 13.0715 28.9583 13.2159 28.9444C13.0465 29.0583 12.8659 29.161 12.6604 29.1888C12.3909 29.2249 12.1382 29.1527 11.8437 29.1833C11.9826 29.0833 12.0548 28.9527 12.1382 28.8138C12.2521 28.6388 12.3576 28.5138 12.5798 28.4833C12.4854 28.5749 12.4354 28.6999 12.3715 28.8138ZM11.5354 29.1999C11.9521 29.2694 12.3465 29.361 12.7687 29.3666C12.2965 29.5333 11.8521 29.561 11.3798 29.3916C11.1243 29.3027 10.9326 29.2527 10.7437 29.2666C10.4632 29.286 10.1215 29.3972 9.7465 29.7916L9.60205 29.6721C10.1382 29.1944 10.8437 29.086 11.5354 29.1999Z"
              fill="#FFC72C"/>
    </g>
    <defs>
        <clipPath id="clip0_6_91648">
            <rect width="53.3333" height="30" fill="white" transform="translate(0.993164)"/>
        </clipPath>
    </defs>
</svg>
