<svg width="54" height="30" viewBox="0 0 54 30" fill="none" xmlns="http://www.w3.org/2000/svg">
    <g clip-path="url(#clip0_6_88267)">
        <path d="M57.3286 0H-2.67139V30H57.3286V0Z" fill="#CC092F"/>
        <path d="M37.3286 0H-2.67139V30H37.3286V0Z" fill="#FFD200"/>
        <path d="M17.3286 0H-2.67139V30H17.3286V0Z" fill="#0046AE"/>
        <path d="M25.5845 6.10522C25.4789 6.10522 25.3845 6.133 25.3289 6.17467C25.415 6.20245 25.4789 6.28022 25.4789 6.37745V6.62467H25.2317C25.1345 6.62467 25.0539 6.56078 25.0289 6.47467C24.9845 6.52745 24.9595 6.62467 24.9595 6.73022C24.9595 6.83578 24.9873 6.93022 25.0289 6.98578C25.0567 6.89967 25.1345 6.83578 25.2317 6.83578H25.4789V8.02466C25.4789 8.11911 25.4178 8.19411 25.34 8.22466C25.4567 8.24133 25.5595 8.39688 25.5872 8.48577C25.615 8.39966 25.7178 8.23855 25.8345 8.22466C25.7511 8.19688 25.69 8.11911 25.69 8.02466V6.83578H25.9373C26.0345 6.83578 26.115 6.89967 26.14 6.98578C26.1845 6.933 26.2095 6.83578 26.2095 6.73022C26.2095 6.62467 26.1817 6.53022 26.14 6.47467C26.1123 6.56078 26.0345 6.62467 25.9373 6.62467H25.69V6.37745C25.69 6.28022 25.7539 6.19967 25.84 6.17467C25.7845 6.13578 25.6928 6.10522 25.5845 6.10522Z"
              fill="black"/>
        <path d="M25.5846 6.16113C25.5291 6.16113 25.4791 6.17224 25.4374 6.18336C25.4929 6.23058 25.5318 6.30002 25.5318 6.38058V6.6278C25.5318 6.63058 25.5318 6.63335 25.5291 6.63891V6.6778H25.4902C25.4874 6.6778 25.4846 6.68058 25.4791 6.68058H25.2318C25.1513 6.68058 25.0846 6.64446 25.0346 6.59169C25.0207 6.63613 25.0068 6.68058 25.0068 6.73891C25.0068 6.79724 25.0179 6.84446 25.0291 6.88613C25.0763 6.83057 25.1457 6.79169 25.2263 6.79169H25.5263C25.5263 6.79724 25.5235 6.8028 25.5235 6.80835V6.83613C25.5235 6.83891 25.5263 6.84169 25.5263 6.84724V8.03612C25.5263 8.1139 25.4874 8.17224 25.4318 8.22224C25.4679 8.24446 25.5013 8.27501 25.5291 8.30835C25.5513 8.3389 25.5624 8.36946 25.5791 8.39723C25.5957 8.36668 25.6068 8.33612 25.6291 8.30835C25.6568 8.27501 25.6902 8.24724 25.7263 8.22501C25.6735 8.17779 25.6318 8.1139 25.6318 8.0389V6.80002H25.6707C25.6735 6.80002 25.6763 6.79724 25.6818 6.79724H25.9291C26.0096 6.79724 26.0763 6.83335 26.1263 6.88613C26.1402 6.84169 26.1541 6.79724 26.1541 6.73891C26.1541 6.68058 26.1429 6.63335 26.1318 6.59169C26.0846 6.64724 26.0152 6.68613 25.9346 6.68613H25.6902C25.6874 6.68613 25.6846 6.68613 25.6791 6.68335H25.6402V6.63891C25.6402 6.63613 25.6374 6.63335 25.6374 6.6278V6.38058C25.6374 6.30002 25.6735 6.23335 25.7263 6.18336C25.6902 6.16947 25.6429 6.16113 25.5846 6.16113Z"
              fill="#F5D402"/>
        <path d="M28.6814 10.4671C28.5314 10.3616 28.4036 10.2366 28.3175 10.0977C28.1036 9.75878 28.0147 9.33656 28.0147 8.91434C28.0147 8.73378 28.2147 8.53101 28.2147 8.38656C28.2147 8.16712 28.1953 8.03656 28.1953 8.03656C28.2647 8.04767 28.3925 8.17267 28.3925 8.17267C28.3925 8.17267 28.3897 7.80878 28.2731 7.74489C28.2731 7.74489 28.3203 7.69767 28.4897 7.69212C28.4425 7.57267 28.2092 7.42545 28.2092 7.42545C28.2231 7.40601 28.2425 7.38656 28.2703 7.37267C28.3314 7.33934 28.4092 7.31989 28.4731 7.30601C28.4064 7.29212 28.3258 7.2699 28.2425 7.24212C28.0481 7.17823 27.8203 7.08656 27.6064 6.98101C27.2175 6.79489 26.9175 6.78101 26.7536 6.78101C26.6342 6.78101 26.4592 6.78378 26.3564 6.85323C26.262 6.91712 26.2703 6.99767 26.237 7.02545C26.1592 7.09212 26.0258 7.08934 25.9647 7.08934C25.5508 7.08934 25.5342 7.53378 25.5342 7.53378C25.5342 7.53378 25.6397 7.37267 25.8286 7.37267C26.1425 7.37267 26.3758 7.54212 26.3758 7.60601C26.3758 7.63378 26.3425 7.63656 26.3425 7.63656C26.1397 7.63656 25.8314 7.51989 25.6703 7.51434V7.59489C26.0342 7.72267 26.4036 7.90045 26.4036 8.69212C26.4036 9.18934 26.3425 9.69767 26.0925 10.0977C26.0064 10.2366 25.8786 10.3616 25.7258 10.4671L27.2064 10.7338L28.6814 10.4671Z"
              fill="black"/>
        <path d="M27.2008 10.1333L25.7203 10.4666C25.6536 10.4472 25.337 10.3472 25.1148 10.2222C24.7259 10.0055 24.5203 9.78886 24.0592 9.76664V9.41386C24.0592 9.22497 24.1259 9.05275 24.1259 8.87497C23.9286 8.8222 23.387 8.15831 22.887 7.86108C22.1509 8.33886 21.5759 9.12497 21.5759 9.48331C21.5759 9.48331 21.5981 17.2333 21.5759 19.9333C21.5759 20.0889 21.4814 20.3111 21.4814 20.3111C21.7509 20.1972 22.2453 19.5222 22.3481 19.2639V19.3861C22.7537 19.2 23.0509 18.7139 23.1842 18.4639C23.187 18.5 23.1953 18.5916 23.1953 18.5916C23.5592 18.2694 24.0231 16.3889 24.0231 16.3889L24.7925 17.1444C24.7925 17.1444 24.512 17.7111 24.4064 17.8111C24.4064 17.8111 24.4786 17.8222 24.562 17.8222C24.512 17.8944 24.1259 18.4527 24.0009 18.6611C23.887 18.8583 23.8064 18.7722 23.6314 18.7722C23.487 18.7722 23.1592 19.0028 23.1037 19.0944C23.0481 19.1916 23.0037 19.3111 23.0037 19.4111C23.0037 19.5166 23.1175 19.6666 23.1175 19.6666C23.1314 19.6139 23.1509 19.5972 23.1509 19.5972C23.1509 19.5972 23.4509 19.9694 23.4953 20.0194C23.5287 20.0555 23.6814 20.0833 23.7398 20.0333C23.8759 19.9111 24.0064 19.8222 24.1259 19.6472C24.1898 19.5527 24.1925 19.45 24.262 19.35C24.5009 19.0194 24.9759 18.3889 25.0842 18.2472C25.0898 18.2861 25.0981 18.3194 25.1036 18.3611C25.2259 18.1111 25.8203 17.6389 25.8203 17.6389L26.4397 17.9222C26.4397 17.9222 25.2842 20.5777 24.2564 20.9889C24.2564 20.9889 24.7036 21.1777 25.2509 21.4611C25.3314 21.5 25.4147 21.5472 25.4981 21.5916C25.5675 21.5083 25.6425 21.4139 25.712 21.3222C26.0397 20.8833 26.362 20.375 26.362 20.375C26.3842 20.5083 26.212 20.9139 25.9175 21.4194C25.862 21.5194 25.8009 21.6222 25.7342 21.725C25.8064 21.7694 25.8814 21.8111 25.9564 21.8555C26.5009 22.1833 27.0092 22.5583 27.2008 22.9028L27.3342 22.5694L27.2008 22.2361V10.5694L27.2675 10.4028L27.2008 10.1333Z"
              fill="black"/>
        <path d="M27.2011 22.239C27.0122 22.0335 26.6066 21.7751 26.1566 21.5418C26.7011 20.564 26.9705 19.0196 26.8427 18.7112C26.8427 18.7112 26.6205 19.5112 26.3455 19.9668C26.0927 20.389 25.7816 20.8668 25.4788 21.2168C25.2316 21.1112 24.9927 21.0224 24.7844 20.9612C25.6872 20.2668 26.6066 17.9724 26.6066 17.9724L25.6622 17.5335C25.6622 17.5335 25.3066 17.9501 25.1899 18.0279C25.1899 18.0279 25.1399 17.8224 25.1094 17.7474C25.1094 17.7474 24.9733 17.8501 24.8983 17.8529C24.8983 17.8529 24.8761 17.714 24.8594 17.6196C24.7649 17.6835 24.6094 17.6696 24.6094 17.6696C24.7455 17.6029 24.9094 17.2057 24.9094 17.2057L23.9983 15.9946C23.9983 15.9946 23.6788 17.5307 23.3149 17.8474V11.2307L23.6038 11.4974L24.0399 11.0918V10.7807L23.6538 11.1446V10.2085C23.7149 10.1224 23.7511 10.0557 23.7816 10.0029C23.8455 10.114 24.0483 10.4474 24.2844 10.6529C24.3233 10.4918 24.5816 10.3418 24.5816 10.3418C24.5816 10.3418 24.6761 10.5918 24.8149 10.6557C24.8649 10.5696 25.1622 10.3752 25.1622 10.3752C25.1622 10.3752 24.9094 10.414 24.8066 10.5085C24.7205 10.489 24.6955 10.139 24.6955 10.139C24.6955 10.139 24.3233 10.3224 24.2566 10.4529C24.1872 10.4335 24.0733 10.1529 24.0288 10.039C24.0955 10.0335 24.1844 10.0224 24.3066 10.0224C24.4122 10.0224 24.5511 10.0724 24.6927 10.139C24.8483 10.2113 25.0122 10.3057 25.1594 10.3724C25.3455 10.4557 25.6316 10.4752 25.7122 10.4779C25.6177 10.5446 25.5122 10.6057 25.3983 10.6613C25.3983 10.6613 25.8455 10.6585 26.1594 10.5002C26.2733 10.4279 26.3872 10.3557 26.4872 10.2696C26.4427 10.389 26.3761 10.5307 26.2705 10.6529C26.7316 10.614 26.9594 10.3502 27.0261 10.264C27.0566 10.3446 27.1122 10.4696 27.1955 10.5807H27.3622V21.914L27.2011 22.239Z"
              fill="#B07F55"/>
        <path d="M23.8009 8.91148L23.812 9.12259V9.74482C23.6453 9.68926 23.4342 9.41148 23.3314 9.26704V9.18092C23.3314 9.10037 23.3787 9.04203 23.4148 9.01148L23.3148 8.97537C23.2759 9.01981 23.2342 9.08648 23.2342 9.16981V9.21981L22.9342 9.54204L22.637 9.09481V8.9837C22.637 8.91148 22.6925 8.82814 22.7398 8.77259L22.6398 8.73647C22.5898 8.80036 22.537 8.88925 22.537 8.96981V9.0587C22.4675 9.13092 22.1981 9.40871 22.1981 9.40871C22.1981 9.40871 22.062 9.11981 22.0259 9.03926C22.2314 8.75314 22.5703 8.43369 22.8814 8.20313C22.8898 8.20036 23.5731 8.83092 23.8009 8.91148Z"
              fill="#B07F55"/>
        <path d="M22.0651 9.51356V10.0275L21.8262 10.2497V9.48578C21.8262 9.41356 21.8567 9.32467 21.9095 9.23022L22.0651 9.51356Z"
              fill="#B07F55"/>
        <path d="M22.8093 9.71397V10.0306L22.5371 10.2862V9.29175L22.8093 9.71397Z" fill="#B07F55"/>
        <path d="M22.4397 10.2855L22.1675 10.03V9.65778L22.4397 9.3689V10.2855Z" fill="#B07F55"/>
        <path d="M23.6928 9.9005C23.629 9.98939 23.4623 10.2116 23.2817 10.3061V9.43384C23.3234 9.50328 23.5123 9.81161 23.6928 9.9005Z"
              fill="#B07F55"/>
        <path d="M23.1843 9.48047V10.286L22.9121 10.0305V9.74714L23.1843 9.48047Z" fill="#B07F55"/>
        <path d="M22.0651 10.3369V11.1397L21.8262 10.9175V10.5619L22.0651 10.3369Z" fill="#B07F55"/>
        <path d="M22.4397 10.5971V10.886L22.1675 11.1416V10.3416L22.4397 10.5971Z" fill="#B07F55"/>
        <path d="M22.8093 10.3389V11.1389L22.5371 10.8833V10.6L22.8093 10.3389Z" fill="#B07F55"/>
        <path d="M23.1843 10.598V10.8814L22.9121 11.1369V10.3369L23.1843 10.598Z" fill="#B07F55"/>
        <path d="M23.5564 11.1438L23.2842 10.8882V10.6215C23.3786 10.566 23.4731 10.4576 23.5564 10.3438V11.1438Z"
              fill="#B07F55"/>
        <path d="M22.8591 11.498L23.1479 11.2285V17.848C23.1479 17.848 23.1674 18.1785 23.1813 18.3924C23.0507 18.523 22.5674 19.0118 22.5674 19.0118V11.2285L22.8591 11.498Z"
              fill="#B07F55"/>
        <path d="M22.4069 18.7646C22.4069 18.9785 22.018 19.4757 21.8291 19.5868V11.2313L22.1152 11.498L22.4041 11.2285V18.7646H22.4069Z"
              fill="#B07F55"/>
        <path d="M24.8122 18.0482L25.0233 17.9009C25.0233 17.9009 25.0372 17.9704 25.0566 18.0676C24.9678 18.1898 24.4455 18.9009 24.1872 19.2482C24.1233 19.3343 24.0705 19.5537 24.0705 19.5537C24.0705 19.5537 23.9761 19.5093 23.9761 19.4315C23.9761 19.351 23.9872 19.2593 23.9872 19.2593C23.9872 19.2593 23.9178 19.3398 23.7983 19.3398C23.7983 19.2426 23.9844 19.1371 23.9928 19.0009C23.8483 19.1065 23.7261 19.0509 23.5594 19.1037C23.3789 19.1593 23.3289 19.2343 23.2761 19.2315C23.2428 19.2287 23.2122 19.176 23.2261 19.1371C23.2455 19.076 23.4705 18.9148 23.6261 18.8843C23.6622 18.8787 23.9566 18.9482 24.015 18.8565C24.2594 18.4787 24.6511 17.8732 24.6928 17.812C24.7205 17.8065 24.74 17.7982 24.7594 17.7898C24.7566 17.787 24.7511 17.9815 24.8122 18.0482Z"
              fill="#D10429"/>
        <path d="M23.451 19.2174C23.4649 19.2313 23.4621 19.2508 23.4482 19.2619L23.3509 19.3452C23.3371 19.3563 23.3176 19.3563 23.3065 19.3397C23.2926 19.3258 23.2954 19.3063 23.3093 19.2952L23.4065 19.2119C23.4121 19.2063 23.4204 19.2063 23.4287 19.2063C23.4398 19.2035 23.4454 19.2063 23.451 19.2174Z"
              fill="#D10429"/>
        <path d="M23.5986 19.3173C23.6291 19.3507 23.6264 19.3979 23.5958 19.4229L23.3625 19.6257C23.3319 19.6534 23.2819 19.6451 23.2569 19.6118C23.2264 19.5784 23.2291 19.5312 23.2597 19.5062L23.493 19.3062C23.5041 19.2951 23.5208 19.2896 23.5319 19.2896C23.5569 19.284 23.5791 19.2979 23.5986 19.3173Z"
              fill="#D10429"/>
        <path d="M23.7318 19.4721C23.7624 19.5054 23.7596 19.5527 23.729 19.5777L23.4957 19.7804C23.4651 19.8082 23.4179 19.7999 23.3901 19.7665C23.3623 19.7332 23.3623 19.686 23.3929 19.661L23.6262 19.461C23.6374 19.4499 23.654 19.4443 23.6651 19.4443C23.6846 19.4443 23.7124 19.4527 23.7318 19.4721Z"
              fill="#D10429"/>
        <path d="M23.8122 19.5982C23.8344 19.5954 23.8622 19.6037 23.8788 19.6259C23.9094 19.6593 23.9066 19.7065 23.8761 19.7315L23.6427 19.9315C23.6122 19.9593 23.5649 19.9509 23.5372 19.9176C23.5094 19.8843 23.5066 19.8371 23.5399 19.8121L23.7733 19.6093C23.7816 19.6037 23.7955 19.6009 23.8122 19.5982Z"
              fill="#D10429"/>
        <path d="M27.2007 10.1333L28.6813 10.4666C28.7479 10.4472 29.0646 10.3472 29.2868 10.2222C29.6757 10.0055 29.8813 9.78886 30.3424 9.76664V9.41386C30.3424 9.22497 30.2757 9.05275 30.2757 8.87497C30.4729 8.8222 31.0146 8.15831 31.5146 7.86108C32.2507 8.33886 32.8257 9.12497 32.8257 9.48331C32.8257 9.48331 32.8035 17.2333 32.8257 19.9333C32.8257 20.0889 32.9202 20.3111 32.9202 20.3111C32.6507 20.1972 32.1563 19.5222 32.0535 19.2639V19.3861C31.6479 19.2 31.3507 18.7139 31.2174 18.4639C31.2146 18.5 31.2063 18.5916 31.2063 18.5916C30.8424 18.2722 30.3785 16.3916 30.3785 16.3916L29.6091 17.1472C29.6091 17.1472 29.8896 17.7139 29.9952 17.8139C29.9952 17.8139 29.9229 17.825 29.8396 17.825C29.8896 17.8972 30.2757 18.4555 30.4007 18.6639C30.5146 18.8611 30.5952 18.775 30.7702 18.775C30.9146 18.775 31.2424 19.0055 31.2979 19.0972C31.3535 19.1944 31.3979 19.3139 31.3979 19.4139C31.3979 19.5194 31.2841 19.6694 31.2841 19.6694C31.2702 19.6166 31.2507 19.6 31.2507 19.6C31.2507 19.6 30.9507 19.9722 30.9063 20.0222C30.8729 20.0583 30.7202 20.0861 30.6618 20.0361C30.5257 19.9139 30.3952 19.825 30.2757 19.65C30.2118 19.5555 30.2091 19.4528 30.1396 19.3528C29.9007 19.0222 29.4257 18.3916 29.3174 18.25C29.3118 18.2889 29.3035 18.3222 29.2979 18.3639C29.1757 18.1139 28.5813 17.6416 28.5813 17.6416L27.9618 17.925C27.9618 17.925 29.1174 20.5805 30.1452 20.9916C30.1452 20.9916 29.6979 21.1805 29.1507 21.4639C29.0702 21.5028 28.9868 21.55 28.9035 21.5944C28.8341 21.5111 28.7591 21.4166 28.6896 21.325C28.3618 20.8861 28.0396 20.3777 28.0396 20.3777C28.0174 20.5111 28.1896 20.9166 28.4841 21.4222C28.5396 21.5222 28.6007 21.625 28.6674 21.7277C28.5952 21.7722 28.5202 21.8139 28.4452 21.8583C27.9007 22.1861 27.3924 22.5611 27.2007 22.9055L27.0674 22.5722L27.2007 22.2389V10.5722L27.1341 10.4055L27.2007 10.1333Z"
              fill="black"/>
        <path d="M27.201 22.239C27.3899 22.0335 27.7954 21.7751 28.2454 21.5418C27.701 20.564 27.4315 19.0196 27.5593 18.7112C27.5593 18.7112 27.7815 19.5112 28.0565 19.9668C28.3093 20.389 28.6204 20.8668 28.9232 21.2168C29.1704 21.1112 29.4093 21.0224 29.6177 20.9612C28.7149 20.2668 27.7954 17.9724 27.7954 17.9724L28.7482 17.5279C28.7482 17.5279 29.1038 17.9446 29.2204 18.0224C29.2204 18.0224 29.2704 17.8168 29.301 17.7418C29.301 17.7418 29.4371 17.8446 29.5121 17.8474C29.5121 17.8474 29.5343 17.7085 29.551 17.614C29.6454 17.6779 29.801 17.664 29.801 17.664C29.6649 17.5974 29.501 17.2001 29.501 17.2001L30.4121 15.989C30.4121 15.989 30.7316 17.5251 31.0954 17.8418V11.2307L30.8066 11.4974L30.3677 11.0918V10.7807L30.7538 11.1446V10.2085C30.6927 10.1224 30.6566 10.0557 30.626 10.0029C30.5621 10.114 30.3593 10.4474 30.1232 10.6529C30.0843 10.4918 29.826 10.3418 29.826 10.3418C29.826 10.3418 29.7315 10.5918 29.5927 10.6557C29.5427 10.5696 29.2454 10.3752 29.2454 10.3752C29.2454 10.3752 29.4982 10.414 29.601 10.5085C29.6871 10.489 29.7121 10.139 29.7121 10.139C29.7121 10.139 30.0843 10.3224 30.151 10.4529C30.2204 10.4335 30.3343 10.1529 30.3788 10.039C30.3121 10.0335 30.2232 10.0224 30.101 10.0224C29.9954 10.0224 29.8565 10.0724 29.7149 10.139C29.5593 10.2113 29.3954 10.3057 29.2482 10.3724C29.0621 10.4557 28.776 10.4752 28.6954 10.4779C28.7899 10.5446 28.8954 10.6057 29.0093 10.6613C29.0093 10.6613 28.5621 10.6585 28.2482 10.5002C28.1343 10.4279 28.0204 10.3557 27.9204 10.2696C27.9649 10.389 28.0315 10.5307 28.1371 10.6529C27.676 10.614 27.4482 10.3502 27.3815 10.264C27.351 10.3446 27.2954 10.4696 27.2121 10.5807H27.0454V21.914L27.201 22.239Z"
              fill="#B07F55"/>
        <path d="M30.601 8.91148L30.5898 9.12259V9.74482C30.7565 9.68926 30.9676 9.41148 31.0704 9.26704V9.18092C31.0704 9.10037 31.0232 9.04203 30.9871 9.01148L31.0871 8.97537C31.126 9.01981 31.1676 9.08648 31.1676 9.16981V9.21981L31.4676 9.54204L31.7648 9.09481V8.9837C31.7648 8.91148 31.7093 8.82814 31.6621 8.77259L31.7621 8.73647C31.8121 8.80036 31.8648 8.88925 31.8648 8.96981V9.0587C31.9343 9.13092 32.2037 9.40871 32.2037 9.40871C32.2037 9.40871 32.3398 9.11981 32.376 9.03926C32.1704 8.75314 31.8315 8.43369 31.5204 8.20313C31.5148 8.20036 30.8315 8.83092 30.601 8.91148Z"
              fill="#B07F55"/>
        <path d="M32.3398 9.51356V10.0275L32.5787 10.2497V9.48578C32.5787 9.41356 32.5482 9.32467 32.4954 9.23022L32.3398 9.51356Z"
              fill="#B07F55"/>
        <path d="M31.5952 9.71397V10.0306L31.8674 10.2862V9.29175L31.5952 9.71397Z" fill="#B07F55"/>
        <path d="M31.9648 10.2855L32.2371 10.03V9.65778L31.9648 9.3689V10.2855Z" fill="#B07F55"/>
        <path d="M30.7119 9.9005C30.7758 9.98939 30.9425 10.2116 31.123 10.3061V9.43384C31.0814 9.50328 30.8925 9.81161 30.7119 9.9005Z"
              fill="#B07F55"/>
        <path d="M31.2178 9.48047V10.286L31.49 10.0305V9.74714L31.2178 9.48047Z" fill="#B07F55"/>
        <path d="M32.3398 10.3369V11.1397L32.5787 10.9175V10.5619L32.3398 10.3369Z" fill="#B07F55"/>
        <path d="M31.9648 10.5971V10.886L32.2371 11.1416V10.3416L31.9648 10.5971Z" fill="#B07F55"/>
        <path d="M31.5952 10.3389V11.1389L31.8674 10.8833V10.6L31.5952 10.3389Z" fill="#B07F55"/>
        <path d="M31.2231 10.598V10.8814L31.4954 11.1369V10.3369L31.2231 10.598Z" fill="#B07F55"/>
        <path d="M30.8481 11.1438L31.1204 10.8882V10.6215C31.0259 10.566 30.9315 10.4576 30.8481 10.3438V11.1438Z"
              fill="#B07F55"/>
        <path d="M31.5454 11.498L31.2565 11.2285V17.848C31.2565 17.848 31.237 18.1785 31.2231 18.3924C31.3537 18.523 31.837 19.0118 31.837 19.0118V11.2285L31.5454 11.498Z"
              fill="#B07F55"/>
        <path d="M32.001 18.7646C32.001 18.9785 32.3899 19.4757 32.5788 19.5868V11.2313L32.2926 11.498L32.0038 11.2285L32.001 18.7646Z"
              fill="#B07F55"/>
        <path d="M29.5926 18.0482L29.3815 17.9009C29.3815 17.9009 29.3676 17.9704 29.3481 18.0676C29.437 18.1898 29.9593 18.9009 30.2176 19.2482C30.2815 19.3343 30.3343 19.5537 30.3343 19.5537C30.3343 19.5537 30.4287 19.5093 30.4287 19.4315C30.4287 19.351 30.4176 19.2593 30.4176 19.2593C30.4176 19.2593 30.487 19.3398 30.6065 19.3398C30.6065 19.2426 30.4204 19.1371 30.412 19.0009C30.5565 19.1065 30.6787 19.0509 30.8454 19.1037C31.0259 19.1593 31.0759 19.2343 31.1287 19.2315C31.162 19.2287 31.1926 19.176 31.1787 19.1371C31.1593 19.076 30.9343 18.9148 30.7787 18.8843C30.7426 18.8787 30.4481 18.9482 30.3898 18.8565C30.1454 18.4787 29.7537 17.8732 29.712 17.812C29.6843 17.8065 29.6648 17.7982 29.6454 17.7898C29.6481 17.787 29.6509 17.9815 29.5926 18.0482Z"
              fill="#D10429"/>
        <path d="M30.951 19.2174C30.9371 19.2313 30.9399 19.2508 30.9538 19.2619L31.051 19.3452C31.0649 19.3563 31.0844 19.3563 31.0955 19.3397C31.1094 19.3258 31.1066 19.3063 31.0927 19.2952L30.9955 19.2119C30.9899 19.2063 30.9816 19.2063 30.9732 19.2063C30.9649 19.2035 30.9594 19.2063 30.951 19.2174Z"
              fill="#D10429"/>
        <path d="M30.8067 19.3173C30.7762 19.3507 30.779 19.3979 30.8095 19.4229L31.0429 19.6257C31.0734 19.6534 31.1234 19.6451 31.1484 19.6118C31.179 19.5784 31.1762 19.5312 31.1456 19.5062L30.9123 19.3062C30.9012 19.2951 30.8845 19.2896 30.8734 19.2896C30.8484 19.284 30.8262 19.2979 30.8067 19.3173Z"
              fill="#D10429"/>
        <path d="M30.6734 19.4721C30.6429 19.5054 30.6457 19.5527 30.6762 19.5777L30.9096 19.7804C30.9401 19.8082 30.9873 19.7999 31.0151 19.7665C31.0429 19.7332 31.0429 19.686 31.0123 19.661L30.779 19.461C30.7679 19.4499 30.7512 19.4443 30.7401 19.4443C30.7179 19.4443 30.6929 19.4527 30.6734 19.4721Z"
              fill="#D10429"/>
        <path d="M30.5926 19.5982C30.5704 19.5954 30.5426 19.6037 30.526 19.6259C30.4954 19.6593 30.4982 19.7065 30.5287 19.7315L30.762 19.9315C30.7926 19.9593 30.8398 19.9509 30.8676 19.9176C30.8981 19.8843 30.8981 19.8371 30.8648 19.8121L30.6315 19.6093C30.6232 19.6037 30.6093 19.6009 30.5926 19.5982Z"
              fill="#D10429"/>
        <path d="M26.8592 6.88583C27.2426 6.88583 27.5092 7.05806 27.8731 7.21917C27.9676 7.26361 28.0565 7.29695 28.1342 7.32195C28.0842 7.36639 28.0481 7.40806 28.037 7.44417C28.037 7.44417 28.2009 7.47473 28.2731 7.61084C28.2731 7.61084 28.1204 7.6275 28.0926 7.71639C28.1787 7.72195 28.2648 7.83306 28.2648 7.93584L28.0454 7.86917C28.0454 7.86917 28.0981 8.11639 28.0981 8.38306C28.0981 8.51917 27.9009 8.68028 27.9009 8.91084C27.9009 9.63306 28.0842 9.91362 28.2148 10.1386C28.2648 10.2247 28.3092 10.3275 28.3926 10.4025C28.0204 10.2025 27.7398 9.95529 27.7398 9.72195V8.84417H27.6426V9.72195C27.6426 9.88862 27.6815 9.96918 27.6815 9.96918C27.7426 10.1553 27.8592 10.4414 27.9315 10.5553C27.587 10.3692 27.412 10.1358 27.412 10.0497V8.84695H27.3148V10.0664L27.3342 10.1497C27.2898 10.2136 27.237 10.2858 27.2009 10.3136C27.1648 10.2858 27.112 10.2136 27.0704 10.1497L27.0898 10.0664V8.84695H26.9954V10.0497C26.9954 10.1358 26.8231 10.3692 26.4759 10.5553C26.5481 10.4386 26.6704 10.1553 26.7259 9.96918C26.7259 9.96918 26.7648 9.8914 26.7648 9.72195V8.84417H26.6676V9.72195C26.6676 9.95251 26.3898 10.2025 26.0176 10.4025C26.1009 10.3247 26.1454 10.2247 26.1954 10.1386C26.3398 9.89418 26.512 9.58306 26.512 8.69417C26.512 8.36084 26.462 8.13306 26.3787 7.9775C26.3509 7.92473 26.3176 7.78861 26.5148 7.78861C26.6176 7.78861 26.8537 7.97195 26.8537 7.97195C26.8537 7.97195 26.8426 7.82473 26.7231 7.74139C26.7037 7.7275 26.6704 7.68584 26.6704 7.64417C26.6704 7.61361 26.7231 7.54139 26.7648 7.52195C26.7926 7.50806 26.3592 7.43584 26.3592 7.23861C26.3592 7.19972 26.387 7.17195 26.4759 7.17195C26.5926 7.17195 26.787 7.31084 26.9565 7.31084C27.0842 7.31084 27.1342 7.28028 27.262 7.28028C27.4176 7.28028 27.7481 7.58028 27.862 7.56917C27.7342 7.48861 27.5315 7.18861 27.2259 7.18861C27.1204 7.18861 27.0231 7.21084 26.9231 7.21084C26.7954 7.21084 26.6704 7.09417 26.5287 7.09417C26.4342 7.09417 26.3315 7.09972 26.3176 7.07472C26.2898 7.03028 26.3148 7.00806 26.3398 6.97472C26.387 6.90806 26.5204 6.89139 26.6509 6.88583C26.6898 6.88583 26.7287 6.88306 26.7648 6.88306C26.7981 6.88583 26.8315 6.88583 26.8592 6.88583Z"
              fill="#B07F55"/>
        <path d="M25.6177 7.35584C25.6177 7.35584 25.6982 7.20306 25.901 7.20306C25.9871 7.20306 26.2677 7.19751 26.2677 7.19751C26.3038 7.29473 26.4732 7.45862 26.4732 7.62806C26.4732 7.62806 26.301 7.31418 25.8177 7.31418C25.6982 7.31418 25.6177 7.35584 25.6177 7.35584Z"
              fill="#CC092F"/>
        <path d="M26.4064 7.68617C26.4064 7.68617 26.3036 7.79728 26.2786 7.85284C26.1758 7.81395 25.998 7.63062 25.998 7.63062C25.998 7.63062 26.1508 7.7195 26.4064 7.68617Z"
              fill="#D10429"/>
        <path d="M26.243 7.4C26.243 7.4 26.1235 7.36389 26.1235 7.32222C26.1235 7.27222 26.1791 7.27222 26.218 7.31111C26.243 7.33611 26.243 7.4 26.243 7.4Z"
              fill="black"/>
        <path d="M26.7568 7.53717C26.8504 7.53717 26.9263 7.47748 26.9263 7.40384C26.9263 7.3302 26.8504 7.27051 26.7568 7.27051C26.6633 7.27051 26.5874 7.3302 26.5874 7.40384C26.5874 7.47748 26.6633 7.53717 26.7568 7.53717Z"
              fill="black"/>
        <path d="M26.7567 7.52209C26.8226 7.52209 26.8761 7.46861 26.8761 7.40265C26.8761 7.33668 26.8226 7.2832 26.7567 7.2832C26.6907 7.2832 26.6372 7.33668 26.6372 7.40265C26.6372 7.46861 26.6907 7.52209 26.7567 7.52209Z"
              fill="#F5D402"/>
        <path d="M26.7565 7.45327C26.7842 7.45327 26.8065 7.43089 26.8065 7.40327C26.8065 7.37566 26.7842 7.35327 26.7565 7.35327C26.7289 7.35327 26.7065 7.37566 26.7065 7.40327C26.7065 7.43089 26.7289 7.45327 26.7565 7.45327Z"
              fill="black"/>
        <path d="M24.0425 19.7324L24.5814 20.0269L24.4481 20.6269L23.9092 20.3324L24.0425 19.7324Z" fill="black"/>
        <path d="M21.526 13.9551L21.3315 14.044L23.5288 18.8607H23.7621L21.526 13.9551ZM24.1177 19.6357L23.9565 19.7995L24.0565 20.019L24.251 19.9301L24.1177 19.6357Z"
              fill="black"/>
        <path d="M22.2095 17.7537C22.2095 17.7537 22.3956 18.137 22.5372 18.187C22.465 18.1675 22.2261 18.2537 22.2261 18.2537C22.2261 18.2537 22.6428 18.6259 22.9956 18.6509C23.2956 18.6703 23.4428 18.5203 23.4428 18.5203L23.3817 18.2037C23.3817 18.2037 23.1984 17.9842 22.9039 17.8814C22.6095 17.7814 22.2095 17.7537 22.2095 17.7537Z"
              fill="black"/>
        <path d="M23.6067 17.0654C23.6067 17.0654 23.3511 17.2849 23.2789 17.5377C23.2095 17.7904 23.3261 18.0765 23.3261 18.0765L23.54 18.4765C23.54 18.4765 23.8372 18.3154 23.9622 18.0793C24.09 17.8432 24.0428 17.5238 24.0428 17.5238C24.0428 17.5238 23.8067 17.6099 23.7761 17.6515C23.8289 17.3932 23.6067 17.0654 23.6067 17.0654Z"
              fill="black"/>
        <path d="M22.7815 16.9657C22.7815 16.9657 22.4926 17.0629 22.2093 17.0462C21.9398 17.0296 21.7148 16.8018 21.7148 16.8018C21.7148 16.8018 21.9371 16.6518 22.0482 16.6712C21.9287 16.6268 21.751 16.324 21.751 16.324C21.751 16.324 22.001 16.2462 22.2204 16.3296C22.4398 16.4129 22.6343 16.6573 22.6343 16.6573L22.7815 16.9657Z"
              fill="black"/>
        <path d="M22.8814 15.5469C22.8814 15.5469 23.0286 15.8469 22.9925 15.9524C23.0397 15.883 23.2092 15.7747 23.2092 15.7747C23.2092 15.7747 23.312 16.2608 23.212 16.5635C23.112 16.8635 22.812 16.9802 22.812 16.9802L22.4814 16.3358C22.4814 16.3358 22.4314 16.0969 22.5342 15.908C22.6425 15.7163 22.8814 15.5469 22.8814 15.5469Z"
              fill="black"/>
        <path d="M20.9925 14.7504C20.9925 14.7504 21.3064 14.717 21.5953 14.8365C21.8342 14.9365 21.9092 15.117 21.9092 15.117L22.0286 15.4337C22.0286 15.4337 21.6842 15.5615 21.4148 15.4643C21.1453 15.367 20.9453 15.042 20.9453 15.042C20.9453 15.042 21.1342 14.9726 21.2064 14.9976C21.0981 14.9504 20.9925 14.7504 20.9925 14.7504Z"
              fill="black"/>
        <path d="M21.9786 14.1602C21.9786 14.1602 22.1147 14.3379 22.123 14.5407C22.1591 14.4352 22.3341 14.3129 22.3341 14.3129C22.3341 14.3129 22.5119 14.7435 22.4702 15.0463C22.4313 15.349 22.1758 15.5296 22.1758 15.5296L21.8591 14.9268C21.8591 14.9268 21.7564 14.6796 21.7869 14.4879C21.8147 14.2963 21.9786 14.1602 21.9786 14.1602Z"
              fill="black"/>
        <path d="M20.8927 13.0061C20.8927 13.0061 20.8371 13.3367 20.9316 13.5228C21.0177 13.6922 21.076 13.7283 21.076 13.7283C20.9093 13.6172 20.6621 13.6089 20.6621 13.6089C20.6621 13.6089 20.751 13.9644 20.9621 14.1283C21.1732 14.2922 21.501 14.2505 21.501 14.2505C21.501 14.2505 21.7177 13.9644 21.701 13.6533C21.6871 13.3422 21.4399 13.0144 21.4399 13.0144C21.4399 13.0144 21.3427 13.2144 21.3343 13.3644C21.2732 13.2172 20.8927 13.0061 20.8927 13.0061Z"
              fill="black"/>
        <path d="M23.4595 18.5098L23.4706 18.6265C23.6678 18.6293 23.6984 18.6098 23.7484 18.671C23.7817 18.7099 23.8622 18.7487 23.9428 18.7099C24.0233 18.6737 24.0595 18.5765 24.0233 18.4959C23.9872 18.4154 23.9122 18.3987 23.84 18.4126C23.7956 18.4237 23.7678 18.4571 23.7289 18.4765C23.6484 18.5154 23.4595 18.5098 23.4595 18.5098Z"
              fill="black"/>
        <path d="M23.44 18.4199L23.5372 18.4894C23.4344 18.656 23.4039 18.6699 23.4261 18.7449C23.4428 18.7949 23.4317 18.881 23.3594 18.931C23.2872 18.981 23.1872 18.9588 23.1372 18.8838C23.0872 18.8116 23.115 18.7366 23.165 18.6838C23.1955 18.6505 23.2428 18.6449 23.2789 18.6227C23.3455 18.5866 23.44 18.4199 23.44 18.4199Z"
              fill="black"/>
        <path d="M22.7788 17.0206L22.7899 17.1372C22.9872 17.14 23.0177 17.1206 23.0677 17.1817C23.1011 17.2205 23.1816 17.2594 23.2622 17.2205C23.3427 17.1844 23.3788 17.0872 23.3427 17.0067C23.3066 16.9261 23.2316 16.9095 23.1594 16.9233C23.115 16.9345 23.0872 16.9678 23.0483 16.9872C22.9677 17.0289 22.7761 17.0206 22.7788 17.0206Z"
              fill="black"/>
        <path d="M22.8148 17.0618L22.8981 17.1451C22.7703 17.2951 22.737 17.3062 22.7509 17.3812C22.762 17.434 22.7342 17.5173 22.6537 17.5534C22.5731 17.5895 22.4759 17.5534 22.4398 17.4729C22.4037 17.3923 22.4398 17.3256 22.4954 17.2784C22.5315 17.2506 22.5759 17.2507 22.6148 17.234C22.6953 17.2118 22.8148 17.0618 22.8148 17.0618Z"
              fill="black"/>
        <path d="M22.1177 15.6221L22.1288 15.7388C22.326 15.7416 22.3566 15.7221 22.4066 15.7832C22.4399 15.8221 22.5205 15.861 22.601 15.8221C22.6816 15.786 22.7177 15.6888 22.6816 15.6082C22.6455 15.5277 22.5705 15.511 22.4982 15.5249C22.4538 15.536 22.426 15.5694 22.3871 15.5888C22.3094 15.6305 22.1177 15.6221 22.1177 15.6221Z"
              fill="black"/>
        <path d="M22.1732 15.6006L22.2565 15.6839C22.1287 15.8339 22.0954 15.845 22.1093 15.92C22.1204 15.9728 22.0926 16.0561 22.0121 16.0922C21.9315 16.1284 21.8343 16.0922 21.7982 16.0117C21.7621 15.9311 21.7982 15.8645 21.8538 15.8173C21.8899 15.7895 21.9343 15.7895 21.9732 15.7728C22.051 15.7506 22.1732 15.6006 22.1732 15.6006Z"
              fill="black"/>
        <path d="M21.415 14.1495L21.4262 14.2662C21.6234 14.2689 21.6539 14.2495 21.7039 14.3106C21.7373 14.3495 21.8178 14.3884 21.8984 14.3495C21.9789 14.3134 22.015 14.2161 21.9789 14.1356C21.9428 14.055 21.8678 14.0384 21.7956 14.0523C21.7511 14.0634 21.7234 14.0967 21.6845 14.1161C21.6095 14.155 21.415 14.1495 21.415 14.1495Z"
              fill="black"/>
        <path d="M21.4676 14.1282L21.551 14.2115C21.4232 14.3615 21.3898 14.3726 21.4037 14.4476C21.4148 14.5004 21.3871 14.5837 21.3065 14.6199C21.226 14.656 21.1287 14.6199 21.0926 14.5393C21.0565 14.4587 21.0926 14.3921 21.1482 14.3448C21.1843 14.3171 21.2287 14.3171 21.2676 14.3004C21.3482 14.2782 21.4676 14.1282 21.4676 14.1282Z"
              fill="black"/>
        <path d="M24.1178 19.9026L24.4567 20.0831L24.3734 20.4554L24.04 20.272L24.1178 19.9026Z" fill="#F5D402"/>
        <path d="M22.6511 16.6701C22.5816 16.7007 22.4789 16.3924 22.4011 16.2257C22.3206 16.0535 22.165 15.7896 22.2067 15.7702C22.2567 15.7479 22.3233 15.8868 22.4039 16.0646C22.4844 16.2368 22.7178 16.6451 22.6511 16.6701Z"
              fill="#F5D402"/>
        <path d="M21.9315 15.0612C21.862 15.0918 21.7842 14.8918 21.7092 14.7223C21.6287 14.5501 21.5564 14.4279 21.5981 14.4085C21.6481 14.3862 21.7203 14.5362 21.7842 14.6779C21.8481 14.814 21.9981 15.0334 21.9315 15.0612Z"
              fill="#F5D402"/>
        <path d="M23.598 18.7105C23.5425 18.7244 23.3008 18.2216 23.1092 17.7966C22.9147 17.3688 22.7703 17.0272 22.8147 17.0077C22.8647 16.9855 23.0203 17.3883 23.2147 17.8133C23.4119 18.2355 23.6425 18.6994 23.598 18.7105Z"
              fill="#F5D402"/>
        <path d="M20.9898 13.2048C20.9898 13.2048 20.9787 13.4437 21.0592 13.5826C21.1398 13.7187 21.3148 13.7715 21.3148 13.7715C21.3148 13.7715 21.3259 13.5326 21.2454 13.3937C21.1648 13.2604 20.9898 13.2048 20.9898 13.2048Z"
              fill="#097754"/>
        <path d="M20.8232 13.75C20.8232 13.75 21.0344 13.7639 21.1538 13.8528C21.2732 13.9472 21.3205 14.1361 21.3205 14.1361C21.3205 14.1361 21.1844 14.15 21.0594 14.0583C20.9399 13.9667 20.8232 13.75 20.8232 13.75Z"
              fill="#097754"/>
        <path d="M21.4759 13.2637C21.4759 13.2637 21.4064 13.4248 21.4148 13.5942C21.4203 13.7637 21.5203 13.9581 21.5203 13.9581C21.5203 13.9581 21.6092 13.7526 21.6036 13.5803C21.5953 13.4109 21.4981 13.3137 21.4759 13.2637Z"
              fill="#097754"/>
        <path d="M21.126 14.8098C21.126 14.8098 21.2288 14.9543 21.3871 15.0293C21.5426 15.107 21.7815 15.1098 21.7815 15.1098C21.7815 15.1098 21.6649 14.9571 21.5093 14.8793C21.3454 14.8015 21.126 14.8098 21.126 14.8098Z"
              fill="#097754"/>
        <path d="M21.1758 15.1448C21.1758 15.1448 21.2536 15.292 21.3897 15.3559C21.5258 15.4198 21.8091 15.4115 21.8091 15.4115C21.8091 15.4115 21.7036 15.2753 21.5619 15.2114C21.4258 15.1476 21.1758 15.1448 21.1758 15.1448Z"
              fill="#097754"/>
        <path d="M21.9677 14.3552C21.9677 14.3552 21.8844 14.4913 21.8899 14.6441C21.8955 14.7941 21.9955 14.9608 21.9955 14.9608C21.9955 14.9608 22.0649 14.7719 22.0593 14.6219C22.0566 14.4691 21.9677 14.3552 21.9677 14.3552Z"
              fill="#097754"/>
        <path d="M22.2763 14.5496C22.2763 14.5496 22.1318 14.7385 22.1124 14.9357C22.0929 15.1329 22.1929 15.3329 22.1929 15.3329C22.1929 15.3329 22.3652 15.1607 22.3874 14.9635C22.4068 14.769 22.2763 14.5496 22.2763 14.5496Z"
              fill="#097754"/>
        <path d="M21.8818 16.364C21.8818 16.364 21.8985 16.4334 21.9596 16.5112C22.0207 16.589 22.1207 16.664 22.1207 16.664C22.1207 16.664 22.2179 16.6334 22.3402 16.6584C22.4624 16.6862 22.6235 16.7945 22.6235 16.7945C22.6235 16.7945 22.4513 16.5334 22.2679 16.4306C22.0846 16.3306 21.8818 16.364 21.8818 16.364Z"
              fill="#097754"/>
        <path d="M21.8623 16.8146C21.8623 16.8146 22.0901 16.7174 22.2762 16.7424C22.4623 16.7646 22.629 16.9146 22.629 16.9146C22.629 16.9146 22.3762 17.0007 22.1901 16.9785C22.0067 16.9507 21.8623 16.8146 21.8623 16.8146Z"
              fill="#097754"/>
        <path d="M22.8232 15.7607C22.8232 15.7607 22.6232 15.9746 22.6066 16.158C22.5899 16.3413 22.7704 16.5135 22.7704 16.5135C22.7704 16.5135 22.7593 16.3969 22.7927 16.3163C22.8232 16.2385 22.8899 16.1552 22.8899 16.1552C22.8899 16.1552 22.9176 16.0607 22.9065 15.9857C22.8843 15.8774 22.8232 15.7607 22.8232 15.7607Z"
              fill="#097754"/>
        <path d="M23.1096 16.0059C23.1096 16.0059 22.9207 16.1947 22.8707 16.4031C22.8207 16.6059 22.9096 16.8253 22.9096 16.8253C22.9096 16.8253 23.0791 16.6892 23.1291 16.4864C23.1791 16.2809 23.1096 16.0059 23.1096 16.0059Z"
              fill="#097754"/>
        <path d="M23.5815 17.2361C23.5815 17.2361 23.6676 17.4166 23.687 17.5639C23.7092 17.7139 23.687 17.7639 23.687 17.7639C23.687 17.7639 23.5981 17.85 23.5593 17.9C23.5093 17.9666 23.4981 18.0861 23.4981 18.0861C23.4981 18.0861 23.3204 17.8222 23.3482 17.6305C23.3787 17.4389 23.5815 17.2361 23.5815 17.2361Z"
              fill="#097754"/>
        <path d="M23.9567 17.6497C23.9567 17.6497 23.7289 17.7996 23.64 17.9524C23.5511 18.1052 23.5956 18.2635 23.5956 18.2635C23.5956 18.2635 23.7595 18.2496 23.8484 18.0968C23.9345 17.9441 23.9567 17.6497 23.9567 17.6497Z"
              fill="#097754"/>
        <path d="M22.4619 18.2843C22.4619 18.2843 22.7897 18.2731 22.9897 18.3231C23.1897 18.3731 23.2619 18.4787 23.2619 18.4787C23.2619 18.4787 23.0341 18.5843 22.8341 18.5343C22.6341 18.4898 22.4619 18.2843 22.4619 18.2843Z"
              fill="#097754"/>
        <path d="M22.4062 17.8972C22.4062 17.8972 22.5535 18.1277 22.7451 18.2111C23.009 18.325 23.3118 18.2722 23.3118 18.2722C23.3118 18.2722 23.1451 18.0694 22.9174 17.9777C22.6924 17.886 22.4062 17.8972 22.4062 17.8972Z"
              fill="#097754"/>
        <path d="M33.6178 13.3972L33.6622 13.4861C33.6622 13.4861 33.5928 13.5083 33.5622 13.5722C33.5317 13.6333 33.5817 13.7222 33.5817 13.7222C33.5817 13.7222 33.2206 13.6917 33.165 13.7278C33.115 13.7611 33.1845 14.0111 33.1511 14.2222C33.1039 14.5167 32.9872 14.4917 32.9844 14.55C32.9817 14.6056 33.0289 14.6889 33.0289 14.6889C33.0289 14.6889 32.9622 14.7083 32.9456 14.7389C32.9233 14.7861 32.9622 14.8694 32.9317 14.9222C32.7761 15.2278 32.5456 15.6833 32.3928 15.9833C32.3733 16.0278 32.3122 16.0389 32.2872 16.0972C32.2594 16.15 32.2817 16.225 32.2817 16.225C32.2817 16.225 32.1817 16.2306 32.1456 16.3028C32.1094 16.375 32.1289 16.475 32.1289 16.475C32.1289 16.475 32.065 16.4806 32.0317 16.5444C31.9983 16.6111 32.0539 16.6444 32.0428 16.675C31.8372 17.0778 31.5955 17.5556 31.4455 17.8444C31.3928 17.95 31.2011 17.9722 31.09 18.1889C30.9844 18.4 31.1372 18.5556 31.1372 18.5556C31.1372 18.5556 30.9761 18.5694 30.9372 18.6528C30.8928 18.7361 30.9261 18.8667 31.0428 18.9222C31.1567 18.9833 31.2817 18.9333 31.3261 18.85C31.3705 18.7667 31.2817 18.6306 31.2817 18.6306C31.2817 18.6306 31.4983 18.6611 31.6039 18.45C31.715 18.2333 31.6206 18.0694 31.6761 17.9639C31.8233 17.675 32.065 17.1972 32.2733 16.7944C32.2872 16.7639 32.3511 16.7917 32.3844 16.725C32.415 16.6611 32.3844 16.6083 32.3844 16.6083C32.3844 16.6083 32.4789 16.5694 32.515 16.4944C32.5511 16.425 32.4956 16.3389 32.4956 16.3389C32.4956 16.3389 32.5678 16.3111 32.5956 16.2583C32.6261 16.2028 32.6011 16.1444 32.6261 16.1056C32.7789 15.8056 33.0094 15.3528 33.165 15.0444C33.1928 14.9889 33.2845 14.9722 33.3039 14.925C33.3178 14.8972 33.2928 14.8278 33.2928 14.8278C33.2928 14.8278 33.3928 14.8167 33.4317 14.7806C33.4761 14.7444 33.3872 14.6639 33.5983 14.4528C33.7483 14.3028 33.9928 14.2139 33.9872 14.1528C33.9845 14.0861 33.7483 13.8139 33.7483 13.8139C33.7483 13.8139 33.8483 13.8028 33.8789 13.7444C33.9095 13.6833 33.89 13.6111 33.89 13.6111L33.99 13.5944V13.125L33.6178 13.3972ZM30.3483 19.9333C30.3344 19.9639 30.3316 20.0028 30.3483 20.0361C30.3483 20.0361 30.2289 20 30.1872 20.0194C30.1483 20.0389 30.1872 20.6028 30.1872 20.6028C30.1872 20.6028 30.665 20.3028 30.6567 20.2583C30.6511 20.2111 30.5511 20.1389 30.5511 20.1389C30.59 20.1333 30.6205 20.1083 30.6344 20.0778C30.6511 20.0472 30.6511 19.9583 30.5455 19.9056C30.5067 19.8861 30.4678 19.8778 30.44 19.8833C30.39 19.8861 30.3594 19.9139 30.3483 19.9333Z"
              fill="black"/>
        <path d="M33.7065 13.4163L33.9343 13.5302L33.9315 13.2607L33.7065 13.4163Z" fill="#F5D402"/>
        <path d="M33.6179 13.5816C33.5873 13.6372 33.6179 13.7122 33.6818 13.7455C33.7457 13.7788 33.8179 13.7594 33.8485 13.7011C33.879 13.6455 33.8485 13.5705 33.7846 13.5372C33.7624 13.5233 33.7346 13.5205 33.7123 13.5205C33.6735 13.5233 33.6401 13.5483 33.6179 13.5816Z"
              fill="#F5D402"/>
        <path d="M33.2316 13.7867C33.2094 13.8034 33.2427 14.0034 33.2344 14.1756C33.2288 14.3395 33.1733 14.3867 33.1483 14.4395C33.1205 14.4895 33.0288 14.5534 33.0288 14.5534L33.1094 14.6339C33.1094 14.6339 33.1594 14.5534 33.2399 14.3978C33.3344 14.2117 33.3344 13.8756 33.3594 13.8589C33.3816 13.8423 33.5816 13.795 33.5816 13.795C33.5816 13.795 33.401 13.7839 33.301 13.7839C33.2621 13.7839 33.2399 13.7839 33.2316 13.7867Z"
              fill="#F5D402"/>
        <path d="M33.251 14.7224C33.251 14.7224 33.2787 14.6502 33.3676 14.4696C33.4788 14.253 33.7149 14.0974 33.7177 14.0558C33.7232 14.0169 33.6343 13.8252 33.6343 13.8252C33.6343 13.8252 33.4288 13.8641 33.3982 13.8919C33.3676 13.9196 33.3815 14.203 33.2704 14.4196C33.1815 14.6002 33.1343 14.6669 33.1343 14.6669L33.251 14.7224Z"
              fill="#F5D402"/>
        <path d="M33.7843 14.0731C33.7871 14.1064 33.512 14.3036 33.4176 14.487C33.337 14.6425 33.3037 14.7342 33.3037 14.7342L33.4148 14.7509C33.4148 14.7509 33.4093 14.637 33.4343 14.587C33.4648 14.5314 33.4704 14.4647 33.5982 14.3592C33.7343 14.2536 33.9176 14.1592 33.9148 14.1286C33.9148 14.1008 33.7121 13.8508 33.7121 13.8508C33.7121 13.8508 33.7815 14.0481 33.7843 14.0731Z"
              fill="#F5D402"/>
        <path d="M32.9813 15.288C33.1452 14.9658 33.1952 14.9436 33.2174 14.9019C33.2397 14.8602 33.2341 14.7991 33.1619 14.763C33.1341 14.7491 33.1119 14.7463 33.0925 14.7463C33.0591 14.7491 33.0313 14.7741 33.0202 14.7991C33.0008 14.838 33.0091 14.8963 32.848 15.2158L32.4758 15.9491C32.4758 15.9491 32.4369 16.0213 32.5091 16.0602C32.5813 16.0963 32.6147 16.0241 32.6147 16.0241L32.9813 15.288Z"
              fill="#F5D402"/>
        <path d="M32.3229 16.1309C32.3034 16.1698 32.3368 16.2309 32.4034 16.2615C32.4673 16.2948 32.5368 16.2892 32.5562 16.2476C32.5756 16.2087 32.5395 16.1476 32.4757 16.117C32.4423 16.1004 32.4118 16.0948 32.3812 16.0976C32.3507 16.1004 32.3312 16.1115 32.3229 16.1309Z"
              fill="#F5D402"/>
        <path d="M32.1814 16.3394C32.1537 16.3922 32.1953 16.4672 32.2759 16.5061C32.3537 16.545 32.437 16.5367 32.462 16.4839C32.4898 16.4311 32.4481 16.3561 32.3675 16.3172C32.337 16.3033 32.312 16.295 32.2814 16.295C32.2398 16.2894 32.1981 16.3061 32.1814 16.3394Z"
              fill="#F5D402"/>
        <path d="M32.0958 16.5692C32.0764 16.6081 32.1097 16.6692 32.1764 16.6997C32.2403 16.7331 32.3097 16.7275 32.3291 16.6859C32.3486 16.647 32.3152 16.5858 32.2486 16.5553C32.2153 16.5386 32.1819 16.5331 32.1542 16.5358C32.1292 16.5386 32.1069 16.5497 32.0958 16.5692Z"
              fill="#F5D402"/>
        <path d="M32.0401 16.7933C32.0401 16.7933 31.6262 17.61 31.479 17.8961C31.4318 17.9905 31.2346 18.0461 31.1596 18.1961C31.0818 18.3489 31.1374 18.4905 31.2401 18.5433C31.3401 18.5933 31.4901 18.5572 31.5679 18.4072C31.6457 18.2572 31.5735 18.06 31.6207 17.9711C31.7679 17.685 32.1818 16.8683 32.1818 16.8683C32.1818 16.8683 32.2207 16.7961 32.1484 16.7572C32.129 16.7461 32.1151 16.7461 32.1012 16.7461C32.0596 16.7489 32.0401 16.7933 32.0401 16.7933Z"
              fill="#F5D402"/>
        <path d="M30.9898 18.6865C30.9592 18.7476 30.9925 18.8309 31.0703 18.867C31.1481 18.9059 31.2342 18.8865 31.2648 18.8282C31.2953 18.767 31.2592 18.6837 31.1814 18.6476C31.1509 18.6337 31.1259 18.6282 31.0953 18.6282C31.0509 18.6282 31.0092 18.6504 30.9898 18.6865Z"
              fill="#F5D402"/>
        <path d="M30.4401 19.9353C30.4178 19.9353 30.3956 19.9408 30.39 19.9575C30.3734 19.988 30.4067 20.038 30.4623 20.0686C30.5178 20.0991 30.579 20.0963 30.5928 20.063C30.6095 20.0325 30.5762 19.9825 30.5206 19.9519C30.4901 19.938 30.4623 19.9325 30.4401 19.9353Z"
              fill="#F5D402"/>
        <path d="M30.2427 20.0887V20.4915L30.5705 20.2554C30.5705 20.2554 30.526 20.1748 30.426 20.1276C30.3316 20.0804 30.2427 20.0887 30.2427 20.0887Z"
              fill="#F5D402"/>
        <path d="M30.4484 11.1193C30.4484 10.8999 30.7373 10.6804 30.7373 10.6804H23.665C23.665 10.6804 23.9539 10.8971 23.9539 11.1193V16.386C23.9539 16.5249 23.9984 16.6166 24.065 16.7027C24.1317 16.7999 24.2789 16.9305 24.4289 17.0249C24.8928 17.3277 25.6678 17.6444 26.2595 17.911C26.7484 18.1332 26.9484 18.2249 27.2039 18.5388C27.4567 18.2221 27.6595 18.1332 28.1512 17.911C28.7373 17.6444 29.515 17.3249 29.9817 17.0249C30.1317 16.9277 30.2789 16.7943 30.3456 16.7027C30.4123 16.6166 30.4567 16.5221 30.4567 16.386L30.4484 11.1193Z"
              fill="#F5D402"/>
        <path d="M24.1232 14.1008V11.1203C24.1232 10.9508 24.0371 10.8508 24.0371 10.8508H30.3677C30.3677 10.8508 30.2816 10.9536 30.2816 11.1203L30.2843 14.1008L27.2038 15.0342L24.1232 14.1008Z"
              fill="#D10429"/>
        <path d="M30.2848 14.0998L28.3793 14.0637H26.032L24.1265 14.0998V16.3859C24.1265 16.4998 24.2459 16.7693 24.932 17.1137C26.0681 17.6804 26.9432 17.9443 27.2043 18.2665C27.4682 17.9443 28.3404 17.6804 29.4765 17.1137C30.1626 16.7693 30.2821 16.4998 30.2821 16.3859V14.0998H30.2848Z"
              fill="#0B45BB"/>
        <path d="M28.3316 13.9808C28.3316 13.9808 29.4316 13.703 29.4316 12.528C29.4316 11.6086 28.3288 11.1558 28.2983 10.9336C28.1927 11.3142 28.6677 11.8364 28.6677 12.4558C28.6677 13.2586 28.0733 13.2947 28.0733 13.2947C27.9344 13.2947 27.8788 13.3947 27.8233 13.3947C27.7066 13.3808 27.6538 13.2336 27.5372 13.2336C27.4316 13.2336 27.3483 13.4003 27.2038 13.4003C27.0594 13.4003 26.9816 13.2336 26.8705 13.2336C26.7538 13.2336 26.7011 13.3808 26.5844 13.3947C26.5316 13.3947 26.4733 13.2947 26.3344 13.2947C26.3344 13.2947 25.74 13.2558 25.74 12.4558C25.74 11.8364 26.2177 11.3114 26.1094 10.9336C26.0788 11.153 24.9761 11.6114 24.9761 12.528C24.9761 13.7058 26.0761 13.9808 26.0761 13.9808L25.7622 14.5503C25.7622 14.5503 26.215 14.5725 26.4594 14.7808C26.7483 15.028 26.7233 15.5531 26.7233 15.9364C26.7233 16.2364 26.6872 16.5558 26.5288 16.6864C26.3233 16.8642 26.1816 16.8753 26.1816 17.0836C26.1816 17.2558 26.315 17.2892 26.5288 17.4031C26.8066 17.5503 26.7927 17.7419 27.2011 17.7419C27.6094 17.7419 27.601 17.5447 27.8788 17.4031C28.0955 17.2892 28.226 17.2531 28.226 17.0836C28.226 16.8781 28.0872 16.8642 27.8788 16.6864C27.726 16.5558 27.6844 16.2364 27.6844 15.9364C27.6844 15.5531 27.6566 15.0253 27.9483 14.7808C28.1872 14.5753 28.6455 14.5503 28.6455 14.5503L28.3316 13.9808Z"
              fill="black"/>
        <path d="M27.2009 11.0139L27.012 11.5584L26.4925 11.3111L26.7398 11.8306L26.1953 12.025L26.7398 12.2195L26.4925 12.7389L27.012 12.4917L27.2009 13.0361L27.3953 12.4917L27.9148 12.7389L27.6675 12.2195L28.212 12.025L27.6675 11.8306L27.9148 11.3111L27.3953 11.5584L27.2009 11.0139Z"
              fill="black"/>
        <path d="M26.0286 14.0641C26.0286 14.0641 25.348 13.8974 25.0953 13.5613C24.6508 13.9613 24.123 14.0974 24.123 14.0974C24.123 14.0974 24.6758 14.3474 25.0953 14.6641C25.2925 14.3891 26.0286 14.0641 26.0286 14.0641Z"
              fill="black"/>
        <path d="M28.376 14.0632C28.376 14.0632 29.1149 14.391 29.3093 14.666C29.7288 14.3493 30.2816 14.0993 30.2816 14.0993C30.2816 14.0993 29.751 13.9605 29.3093 13.5632C29.0565 13.8966 28.376 14.0632 28.376 14.0632Z"
              fill="black"/>
        <path d="M26.3093 14.7852L26.0454 15.049L26.3093 15.3129L26.5732 15.049L26.3093 14.7852Z" fill="black"/>
        <path d="M28.0984 14.7852L27.8345 15.049L28.0984 15.3129L28.3623 15.049L28.0984 14.7852Z" fill="black"/>
        <path d="M26.2427 16.3304C26.2427 16.6637 26.2094 16.8415 26.2094 16.8415C26.2094 16.8415 26.5816 16.7304 26.6566 16.3554C26.6899 16.1776 26.7288 15.5248 26.551 15.4109L26.0649 15.3137C26.1177 15.4471 26.2427 15.8498 26.2427 16.3304Z"
              fill="black"/>
        <path d="M27.8566 15.4109C27.676 15.5221 27.7177 16.1748 27.751 16.3554C27.8232 16.7332 28.1983 16.8415 28.1983 16.8415C28.1983 16.8415 28.1649 16.6637 28.1649 16.3304C28.1649 15.8471 28.2872 15.4443 28.3427 15.3137L27.8566 15.4109Z"
              fill="black"/>
        <path d="M25.095 15.4305C24.9283 15.4749 24.8256 15.6443 24.8672 15.811C24.8728 15.8388 24.8839 15.861 24.8978 15.8805C24.8756 15.8749 24.8478 15.8666 24.82 15.8638C24.8089 15.8638 24.7978 15.8638 24.7867 15.8638C24.6256 15.8693 24.4978 15.9943 24.4839 16.1582C24.47 16.3305 24.6033 16.4777 24.7783 16.4916C24.8061 16.4943 24.8283 16.4916 24.8561 16.4888C24.8422 16.5082 24.8283 16.5332 24.82 16.5554C24.7561 16.7166 24.8339 16.9027 24.9922 16.9666C25.1533 17.0304 25.3367 16.9499 25.3978 16.7888C25.4089 16.7666 25.4145 16.7388 25.4172 16.7166C25.4311 16.736 25.4506 16.7554 25.47 16.7721C25.6033 16.8832 25.8006 16.8666 25.9145 16.7332C26.0256 16.5999 26.0089 16.4027 25.8756 16.2943C25.8561 16.2777 25.8311 16.2638 25.8117 16.2555C25.8339 16.2499 25.8589 16.236 25.8811 16.2221C26.0283 16.1277 26.07 15.936 25.9811 15.7888C25.9172 15.6888 25.8089 15.636 25.6978 15.6416C25.6478 15.6443 25.5978 15.661 25.5506 15.6888C25.5283 15.7027 25.5061 15.7193 25.4895 15.736C25.4895 15.7082 25.4867 15.686 25.4783 15.6582C25.4422 15.511 25.3061 15.4138 25.1617 15.4221C25.1395 15.4221 25.1145 15.4277 25.095 15.4305Z"
              fill="black"/>
        <path d="M28.4234 16.344C28.4567 16.6635 28.7178 16.9301 29.0372 17.0079C28.9844 16.919 28.9483 16.819 28.9344 16.7107C28.8956 16.3301 29.1872 16.0246 29.5872 16.0246C29.6511 16.0246 29.7094 16.0301 29.7705 16.0468C29.6316 15.8162 29.365 15.6523 29.0733 15.6523C28.6761 15.6523 28.3817 15.9635 28.4234 16.344Z"
              fill="black"/>
        <path d="M25.5816 12.4565C25.5816 13.0592 25.9038 13.4176 26.3344 13.4176C26.4177 13.4176 26.5066 13.5287 26.5844 13.5287C26.7122 13.5287 26.7955 13.3898 26.8705 13.3898C26.9677 13.3898 27.0344 13.5426 27.2038 13.5426C27.3733 13.5426 27.44 13.3898 27.5372 13.3898C27.615 13.3898 27.6983 13.5287 27.8233 13.5287C27.9011 13.5287 27.99 13.4176 28.0733 13.4176C28.5038 13.4176 28.8261 13.062 28.8261 12.4565C28.8261 11.962 28.4122 11.362 28.4566 11.2676C28.4566 11.2676 29.2622 11.8481 29.2622 12.5287C29.2622 13.6287 28.1483 13.8981 28.1483 13.8981L28.3983 14.462C28.3983 14.462 28.0511 14.5148 27.8427 14.6842C27.5622 14.912 27.5594 15.5231 27.5594 15.937C27.5594 16.4231 27.5761 16.6342 27.7538 16.7648C27.94 16.9037 28.0816 16.9342 28.0816 17.0787C28.0816 17.2009 27.9372 17.2509 27.7483 17.3342C27.5344 17.4287 27.5122 17.5898 27.2038 17.5898C26.8927 17.5898 26.8733 17.4259 26.6594 17.3342C26.4733 17.2509 26.3261 17.2009 26.3261 17.0787C26.3261 16.9342 26.465 16.9064 26.6538 16.7648C26.8316 16.6315 26.8483 16.4259 26.8483 15.937C26.8483 15.5231 26.8455 14.9092 26.565 14.6842C26.3538 14.5148 26.0094 14.462 26.0094 14.462L26.2594 13.8981C26.2594 13.8981 25.1455 13.6287 25.1455 12.5287C25.1455 11.8454 25.9511 11.2676 25.9511 11.2676C25.9955 11.3648 25.5816 11.9648 25.5816 12.4565ZM26.7816 16.9953C26.5622 16.9953 26.4205 17.0426 26.4205 17.1092C26.4205 17.1759 26.5594 17.2203 26.7816 17.2203C26.8427 17.2203 26.9038 17.187 26.9038 17.1092C26.9066 17.0314 26.84 16.9953 26.7816 16.9953ZM27.6261 16.9953C27.565 16.9953 27.5038 17.0314 27.5038 17.1092C27.5038 17.187 27.5705 17.2203 27.6261 17.2203C27.8455 17.2203 27.9872 17.1759 27.9872 17.1092C27.9844 17.0398 27.8455 16.9953 27.6261 16.9953Z"
              fill="#FFD200"/>
        <path d="M27.2066 11.3806L27.3288 11.7278L27.6594 11.5667L27.5038 11.9001L27.8483 12.0223L27.5038 12.1445L27.6594 12.4751L27.3288 12.3195L27.2066 12.6639L27.0844 12.3195L26.7538 12.4751L26.9094 12.1445L26.5649 12.0223L26.9094 11.9001L26.7538 11.5667L27.0844 11.7278L27.2066 11.3806Z"
              fill="#FFD200"/>
        <path d="M25.6648 14.083L25.0953 14.5052L25.0898 14.5163L25.0759 14.5052L24.4453 14.1108C24.4453 14.1108 24.8481 13.9719 25.0842 13.7302C25.312 13.9858 25.6648 14.083 25.6648 14.083Z"
              fill="#FFD200"/>
        <path d="M29.9593 14.1102C29.9593 14.1102 29.5398 14.3213 29.3287 14.5074L29.3148 14.5186L29.3092 14.5074C29.1092 14.2769 28.7397 14.0852 28.7397 14.0852C28.7397 14.0852 29.0953 13.988 29.3203 13.7324C29.5592 13.9685 29.9593 14.1102 29.9593 14.1102Z"
              fill="#FFD200"/>
        <path d="M26.3093 14.9131L26.4454 15.0492L26.3093 15.1881L26.1704 15.0492L26.3093 14.9131Z" fill="#FFD200"/>
        <path d="M28.098 14.9131L28.2369 15.0492L28.098 15.1881L27.9619 15.0492L28.098 14.9131Z" fill="#FFD200"/>
        <path d="M26.4955 15.5169C26.5927 15.6502 26.576 15.8669 26.576 16.1669C26.576 16.4697 26.3483 16.5836 26.3483 16.5836C26.3483 15.8558 26.276 15.6836 26.2344 15.4641L26.4955 15.5169Z"
              fill="#FFD200"/>
        <path d="M28.1734 15.4641C28.1345 15.6836 28.0595 15.8586 28.0595 16.5836C28.0595 16.5836 27.8317 16.4669 27.8317 16.1669C27.8317 15.8669 27.815 15.6502 27.9122 15.5169L28.1734 15.4641Z"
              fill="#FFD200"/>
        <path d="M25.4231 15.7373C25.4287 15.765 25.4287 15.79 25.4287 15.8178C25.4259 15.84 25.4231 15.8567 25.412 15.8789C25.3759 15.865 25.3314 15.8595 25.2926 15.8595C25.187 15.8595 25.0926 15.9067 25.0287 15.9789C25.012 15.9623 24.9953 15.9456 24.9842 15.9289C24.9703 15.9095 24.9564 15.8817 24.9509 15.8595C24.9176 15.7289 24.9981 15.5956 25.1287 15.5623C25.1453 15.5595 25.162 15.5567 25.1787 15.5567C25.2926 15.5511 25.3953 15.6234 25.4231 15.7373Z"
              fill="#FFD200"/>
        <path d="M25.7841 16.1954C25.7619 16.2093 25.7341 16.2176 25.7119 16.226C25.6924 16.2287 25.6674 16.2315 25.648 16.2287C25.648 16.1898 25.6452 16.1482 25.6313 16.1093C25.598 16.0093 25.5258 15.9315 25.4341 15.8954C25.4452 15.876 25.4535 15.8565 25.4674 15.8399C25.4841 15.8204 25.5035 15.801 25.523 15.7871C25.6369 15.7176 25.7869 15.751 25.8591 15.8649C25.8702 15.8787 25.8758 15.8954 25.8813 15.9093C25.9258 16.0065 25.8841 16.1315 25.7841 16.1954Z"
              fill="#FFD200"/>
        <path d="M25.4648 16.6805C25.4454 16.6639 25.4287 16.6417 25.4148 16.6167C25.4037 16.5972 25.3981 16.5806 25.3926 16.5556C25.4315 16.5444 25.4704 16.525 25.5037 16.5028C25.5898 16.4389 25.637 16.35 25.6481 16.25C25.6704 16.2528 25.6926 16.2556 25.7148 16.2667C25.737 16.2778 25.762 16.2861 25.7843 16.3056C25.887 16.3917 25.9009 16.5444 25.8148 16.65C25.8037 16.6639 25.7926 16.6722 25.7787 16.6833C25.6842 16.7528 25.5565 16.7555 25.4648 16.6805Z"
              fill="#FFD200"/>
        <path d="M24.9065 16.5282C24.9176 16.5004 24.9342 16.4809 24.9509 16.4615C24.9648 16.4448 24.9815 16.4309 25.0009 16.4226C25.0231 16.4559 25.0509 16.4865 25.087 16.5087C25.1732 16.5726 25.2759 16.5893 25.3704 16.5698C25.3732 16.592 25.3759 16.6143 25.3759 16.6365C25.3759 16.6643 25.3704 16.6893 25.3593 16.7143C25.3093 16.8365 25.1648 16.8976 25.0426 16.8476C25.0259 16.842 25.012 16.8337 24.9981 16.8254C24.9009 16.7559 24.862 16.6337 24.9065 16.5282Z"
              fill="#FFD200"/>
        <path d="M24.8788 15.9434C24.9066 15.9462 24.9316 15.9545 24.9566 15.9629C24.976 15.974 24.9927 15.9823 25.0093 15.9962C24.9871 16.0268 24.9649 16.0657 24.9538 16.1073C24.9204 16.2073 24.9371 16.3101 24.9871 16.3962C24.9677 16.4073 24.9482 16.4157 24.9232 16.424C24.8982 16.4323 24.8732 16.4351 24.8454 16.4351C24.7121 16.424 24.6093 16.3073 24.6177 16.174C24.6177 16.1573 24.6204 16.1407 24.6288 16.124C24.6565 16.0101 24.7593 15.9323 24.8788 15.9434Z"
              fill="#FFD200"/>
        <path d="M25.2928 16.4527C25.4232 16.4527 25.5289 16.347 25.5289 16.2166C25.5289 16.0862 25.4232 15.9805 25.2928 15.9805C25.1624 15.9805 25.0566 16.0862 25.0566 16.2166C25.0566 16.347 25.1624 16.4527 25.2928 16.4527Z"
              fill="#FFD200"/>
        <path d="M29.4259 15.8966C29.037 15.9743 28.7536 16.316 28.7953 16.7188C28.673 16.616 28.5786 16.4743 28.5619 16.3216C28.5286 16.0216 28.7481 15.791 29.0758 15.791C29.2008 15.7966 29.3231 15.8327 29.4259 15.8966Z"
              fill="#FFD200"/>
    </g>
    <defs>
        <clipPath id="clip0_6_88267">
            <rect width="53.3333" height="30" fill="white" transform="translate(0.662109)"/>
        </clipPath>
    </defs>
</svg>
