<svg width="54" height="30" viewBox="0 0 54 30" fill="none" xmlns="http://www.w3.org/2000/svg">
<g clip-path="url(#clip0)">
<path d="M0.268555 0H53.713V30H0.268555V0Z" fill="#00AFCA"/>
<path d="M29.1377 16.4584C31.1244 16.4584 32.735 14.8478 32.735 12.8611C32.735 10.8744 31.1244 9.26392 29.1377 9.26392C27.1511 9.26392 25.5405 10.8744 25.5405 12.8611C25.5405 14.8478 27.1511 16.4584 29.1377 16.4584Z" fill="#FEC50C"/>
<path d="M29.1377 8.77747C29.3516 8.77192 29.4322 8.63858 29.4322 8.47747C29.4322 8.26358 29.1377 7.24414 29.1377 7.24414C29.1377 7.24414 28.8433 8.26358 28.8433 8.47747C28.846 8.63858 28.9238 8.77747 29.1377 8.77747Z" fill="#FEC50C"/>
<path d="M33.2266 12.8611C33.2266 13.075 33.3599 13.1555 33.521 13.1555C33.7349 13.1555 34.7516 12.8611 34.7516 12.8611C34.7516 12.8611 33.7349 12.5667 33.521 12.5667C33.3599 12.5694 33.2266 12.6472 33.2266 12.8611Z" fill="#FEC50C"/>
<path d="M29.1377 16.9502C28.9238 16.9502 28.8433 17.0835 28.8433 17.2446C28.8433 17.4585 29.1377 18.4752 29.1377 18.4752C29.1377 18.4752 29.4322 17.4585 29.4322 17.2446C29.4322 17.0835 29.3516 16.9502 29.1377 16.9502Z" fill="#FEC50C"/>
<path d="M25.0572 12.8611C25.0572 12.6472 24.9239 12.5667 24.7628 12.5667C24.5489 12.5667 23.5322 12.8611 23.5322 12.8611C23.5322 12.8611 24.5489 13.1555 24.7628 13.1555C24.9156 13.1555 25.0572 13.075 25.0572 12.8611Z" fill="#FEC50C"/>
<path d="M30.7045 9.0886C30.9017 9.16915 31.0295 9.07193 31.0906 8.92749C31.1712 8.73026 31.2879 7.67749 31.2879 7.67749C31.2879 7.67749 30.624 8.50526 30.5462 8.70249C30.4851 8.84693 30.5073 9.00249 30.7045 9.0886Z" fill="#FEC50C"/>
<path d="M32.9188 14.4277C32.8382 14.6249 32.9354 14.7527 33.0799 14.8138C33.2771 14.8943 34.3299 15.011 34.3299 15.011C34.3299 15.011 33.5021 14.3471 33.3049 14.2693C33.1521 14.2082 32.9993 14.2304 32.9188 14.4277Z" fill="#FEC50C"/>
<path d="M27.5804 16.6363C27.3832 16.5557 27.2554 16.653 27.1943 16.7974C27.1137 16.9946 26.9971 18.0474 26.9971 18.0474C26.9971 18.0474 27.661 17.2196 27.7387 17.0224C27.7999 16.8752 27.7776 16.7224 27.5804 16.6363Z" fill="#FEC50C"/>
<path d="M25.3657 11.2974C25.4463 11.1002 25.349 10.9724 25.2046 10.9113C25.0074 10.8308 23.9546 10.7141 23.9546 10.7141C23.9546 10.7141 24.7824 11.378 24.9796 11.4558C25.1268 11.5169 25.2852 11.4947 25.3657 11.2974Z" fill="#FEC50C"/>
<path d="M32.0291 9.9724C32.1847 10.1224 32.3347 10.0835 32.4458 9.9724C32.5958 9.8224 33.1097 8.89185 33.1097 8.89185C33.1097 8.89185 32.1791 9.40573 32.0291 9.55573C31.918 9.66684 31.8791 9.8224 32.0291 9.9724Z" fill="#FEC50C"/>
<path d="M32.0291 15.7528C31.8791 15.9083 31.918 16.0583 32.0291 16.1695C32.1791 16.3195 33.1097 16.8333 33.1097 16.8333C33.1097 16.8333 32.5958 15.9028 32.4458 15.7528C32.3347 15.6417 32.1791 15.5972 32.0291 15.7528Z" fill="#FEC50C"/>
<path d="M26.2524 15.7532C26.0969 15.6032 25.9469 15.6421 25.8358 15.7532C25.6858 15.9032 25.1719 16.8338 25.1719 16.8338C25.1719 16.8338 26.1024 16.3199 26.2524 16.1699C26.3663 16.0588 26.4024 15.9032 26.2524 15.7532Z" fill="#FEC50C"/>
<path d="M26.2524 9.9724C26.4024 9.81684 26.3635 9.66684 26.2524 9.55573C26.1024 9.40573 25.1719 8.89185 25.1719 8.89185C25.1719 8.89185 25.6858 9.8224 25.8358 9.9724C25.9496 10.0835 26.0996 10.1252 26.2524 9.9724Z" fill="#FEC50C"/>
<path d="M32.918 11.2971C33.0041 11.4943 33.1597 11.5166 33.3041 11.4582C33.5014 11.3777 34.3291 10.7166 34.3291 10.7166C34.3291 10.7166 33.2764 10.8332 33.0791 10.9138C32.9291 10.9749 32.8319 11.0971 32.918 11.2971Z" fill="#FEC50C"/>
<path d="M30.7045 16.6363C30.5072 16.7224 30.485 16.878 30.5434 17.0224C30.6239 17.2196 31.285 18.0474 31.285 18.0474C31.285 18.0474 31.1684 16.9946 31.0878 16.7974C31.0267 16.653 30.9017 16.5557 30.7045 16.6363Z" fill="#FEC50C"/>
<path d="M25.3657 14.4279C25.2796 14.2306 25.124 14.2084 24.9796 14.2667C24.7824 14.3473 23.9546 15.0084 23.9546 15.0084C23.9546 15.0084 25.0074 14.8917 25.2046 14.8112C25.3546 14.7501 25.4463 14.6251 25.3657 14.4279Z" fill="#FEC50C"/>
<path d="M27.5796 9.0886C27.7768 9.00249 27.799 8.84693 27.7407 8.70249C27.6601 8.50526 26.999 7.67749 26.999 7.67749C26.999 7.67749 27.1157 8.73026 27.1962 8.92749C27.2518 9.07193 27.3796 9.16915 27.5796 9.0886Z" fill="#FEC50C"/>
<path d="M29.9411 8.85288C30.1494 8.88899 30.2577 8.77788 30.2883 8.61676C30.33 8.40843 30.2411 7.3501 30.2411 7.3501C30.2411 7.3501 29.755 8.29176 29.7133 8.5001C29.68 8.66121 29.7272 8.81121 29.9411 8.85288Z" fill="#FEC50C"/>
<path d="M33.147 13.6581C33.1109 13.8665 33.222 13.9748 33.3831 14.0054C33.5914 14.047 34.6498 13.9581 34.6498 13.9581C34.6498 13.9581 33.7081 13.472 33.4998 13.4304C33.3414 13.397 33.1914 13.4498 33.147 13.6581Z" fill="#FEC50C"/>
<path d="M28.3432 16.8691C28.1349 16.833 28.0265 16.9441 27.996 17.1053C27.9543 17.3136 28.0432 18.3719 28.0432 18.3719C28.0432 18.3719 28.5293 17.4303 28.571 17.2219C28.6043 17.0636 28.5515 16.9136 28.3432 16.8691Z" fill="#FEC50C"/>
<path d="M25.1351 12.0666C25.1712 11.8583 25.0601 11.7499 24.899 11.7194C24.6907 11.6777 23.6323 11.7666 23.6323 11.7666C23.6323 11.7666 24.574 12.2527 24.7823 12.2944C24.9434 12.3277 25.0934 12.2749 25.1351 12.0666Z" fill="#FEC50C"/>
<path d="M31.4099 9.46387C31.5905 9.58054 31.7294 9.5111 31.821 9.37776C31.9377 9.20276 32.2599 8.19165 32.2599 8.19165C32.2599 8.19165 31.4488 8.87498 31.3294 9.05276C31.246 9.19165 31.2349 9.34443 31.4099 9.46387Z" fill="#FEC50C"/>
<path d="M32.5388 15.1335C32.4222 15.3141 32.4916 15.453 32.625 15.5446C32.8 15.6613 33.8111 15.9835 33.8111 15.9835C33.8111 15.9835 33.1277 15.1724 32.95 15.053C32.8166 14.9641 32.6555 14.953 32.5388 15.1335Z" fill="#FEC50C"/>
<path d="M26.8744 16.261C26.6939 16.1443 26.555 16.2138 26.4633 16.3471C26.3466 16.5221 26.0244 17.5332 26.0244 17.5332C26.0244 17.5332 26.8355 16.8499 26.955 16.6721C27.0383 16.5332 27.0494 16.3777 26.8744 16.261Z" fill="#FEC50C"/>
<path d="M25.7468 10.5919C25.8635 10.4114 25.794 10.2725 25.6607 10.1808C25.4857 10.0642 24.4746 9.74194 24.4746 9.74194C24.4746 9.74194 25.1579 10.5531 25.3357 10.6725C25.469 10.7614 25.6218 10.7725 25.7468 10.5919Z" fill="#FEC50C"/>
<path d="M32.5388 10.5919C32.6611 10.7669 32.8166 10.7642 32.95 10.6725C33.125 10.5558 33.8111 9.74194 33.8111 9.74194C33.8111 9.74194 32.8 10.0614 32.625 10.1808C32.4916 10.2697 32.4222 10.4142 32.5388 10.5919Z" fill="#FEC50C"/>
<path d="M31.411 16.2612C31.236 16.3834 31.2388 16.539 31.3304 16.6723C31.4471 16.8473 32.261 17.5334 32.261 17.5334C32.261 17.5334 31.9416 16.5223 31.8221 16.3473C31.7332 16.2084 31.5888 16.139 31.411 16.2612Z" fill="#FEC50C"/>
<path d="M25.7468 15.1336C25.6246 14.9587 25.469 14.9614 25.3357 15.0531C25.1607 15.1698 24.4746 15.9836 24.4746 15.9836C24.4746 15.9836 25.4857 15.6642 25.6607 15.5448C25.794 15.4559 25.8635 15.3114 25.7468 15.1336Z" fill="#FEC50C"/>
<path d="M26.8744 9.46387C27.0494 9.34165 27.0466 9.18609 26.955 9.05276C26.8383 8.87776 26.0244 8.19165 26.0244 8.19165C26.0244 8.19165 26.3439 9.20276 26.4633 9.37776C26.5522 9.51665 26.6911 9.5861 26.8744 9.46387Z" fill="#FEC50C"/>
<path d="M33.1467 12.0666C33.1884 12.2749 33.3384 12.3277 33.4939 12.2971C33.7023 12.2555 34.6439 11.7693 34.6439 11.7693C34.6439 11.7693 33.5856 11.6777 33.3773 11.7221C33.2217 11.7499 33.105 11.8582 33.1467 12.0666Z" fill="#FEC50C"/>
<path d="M29.9407 16.8691C29.7324 16.9108 29.6796 17.0608 29.7102 17.2163C29.7518 17.4247 30.2379 18.3663 30.2379 18.3663C30.2379 18.3663 30.3296 17.308 30.2852 17.0997C30.2518 16.9441 30.149 16.8274 29.9407 16.8691Z" fill="#FEC50C"/>
<path d="M25.1354 13.6585C25.0937 13.4501 24.9437 13.3974 24.7882 13.4279C24.5798 13.4696 23.6382 13.9557 23.6382 13.9557C23.6382 13.9557 24.6965 14.0474 24.9048 14.0029C25.0576 13.9751 25.1743 13.8668 25.1354 13.6585Z" fill="#FEC50C"/>
<path d="M28.3439 8.85244C28.5522 8.81078 28.605 8.66078 28.5745 8.50522C28.5328 8.29689 28.0467 7.35522 28.0467 7.35522C28.0467 7.35522 27.955 8.41355 27.9995 8.62189C28.0272 8.77744 28.1356 8.89689 28.3439 8.85244Z" fill="#FEC50C"/>
<path d="M28.499 20.6499C28.4017 20.6555 28.3129 20.6666 28.2156 20.6971C28.0934 20.7138 27.9684 20.7555 27.8462 20.7777L27.799 20.7832L27.7129 20.7888C27.7184 20.811 27.724 20.836 27.724 20.8582C27.724 20.886 27.724 20.9055 27.7129 20.9277C27.7073 20.9499 27.6906 20.9693 27.6768 20.9805C27.6601 21.0027 27.6406 21.0166 27.6184 21.0277C27.5962 21.0388 27.5712 21.0443 27.549 21.0443C27.5212 21.0443 27.5018 21.0443 27.474 21.0332C27.4462 21.0277 27.4268 21.011 27.4045 20.9916C27.3768 20.9971 27.3518 21.0027 27.3295 21.0082C27.3018 21.0082 27.2823 21.0082 27.2601 21.0082C27.2323 21.0027 27.2073 20.9916 27.1851 20.9805C27.1573 20.9693 27.1379 20.9582 27.1156 20.9443C27.024 20.9971 26.924 21.0499 26.8684 21.1416C26.8351 21.1832 26.8323 21.2332 26.8268 21.286C26.8212 21.3499 26.8379 21.4138 26.8629 21.4721C26.874 21.4888 26.8795 21.4138 26.9101 21.3971C26.9629 21.3554 27.0212 21.3221 27.0851 21.3054C27.1379 21.2777 27.1323 21.3054 27.1129 21.3471C27.1073 21.3693 27.0768 21.4527 27.1184 21.411C27.299 21.3304 27.499 21.3138 27.6962 21.2999C27.9795 21.2721 28.2629 21.2638 28.5462 21.2638C28.8129 21.2693 29.0795 21.2693 29.349 21.2804C29.4767 21.286 29.6045 21.3138 29.7295 21.2916C29.7628 21.286 29.8101 21.2804 29.8267 21.2638C29.7684 21.2305 29.7045 21.2305 29.6406 21.2221H29.1295C28.9851 21.2055 28.8406 21.2055 28.7073 21.1527C28.6712 21.136 28.6379 21.1055 28.6045 21.1416C28.5517 21.1582 28.499 21.1749 28.4434 21.1749C28.3462 21.1805 28.2573 21.1638 28.1712 21.1277C28.2351 21.0416 28.3101 20.9666 28.374 20.886C28.3212 20.8749 28.2684 20.8638 28.2073 20.8527C28.3156 20.7999 28.4073 20.7249 28.499 20.6499Z" fill="#FEC50C"/>
<path d="M32.6608 21.5749C32.4691 21.6916 32.3191 21.4832 32.158 21.4249C32.0414 21.4888 32.0303 21.6971 31.9219 21.7999C31.7941 21.9499 31.633 21.7582 31.6441 21.6138C31.4886 21.7416 31.408 22.0416 31.1636 21.9999C31.0469 21.9027 30.9553 21.6999 30.8636 21.9305C30.7886 22.0416 30.5914 22.2027 30.4886 22.0332C30.4553 21.8833 30.383 21.7083 30.3025 21.9416C30.2441 22.1138 30.0664 22.236 29.8914 22.161C29.7941 22.0805 29.9664 21.7916 29.8497 21.8138C29.6691 21.9305 29.5608 22.2305 29.3108 22.2083C29.2136 22.0971 29.3691 21.9082 29.2636 21.786C29.1358 21.9527 28.9969 22.186 28.7719 22.2083C28.6664 22.1221 28.7775 21.8721 28.708 21.8388C28.483 21.9721 28.2441 22.2194 27.9608 22.1388C28.0719 21.7166 28.533 21.5666 28.9219 21.536C29.5914 21.4555 30.2941 21.6055 30.9414 21.3638C31.0469 21.2999 31.2997 21.2082 31.208 21.0638C31.1275 20.9471 31.4164 20.9944 31.4441 20.8555C31.4275 20.6832 31.5775 20.7055 31.7219 20.6888C32.3747 20.661 33.0164 20.7944 33.6664 20.8221C33.7136 21.1388 33.3608 21.361 33.083 21.2666C32.9497 21.2888 32.7469 20.9555 32.783 21.1971C32.758 21.3221 32.7803 21.4888 32.6608 21.5749ZM27.1191 20.9277C27.2691 21.0666 27.3747 20.8999 27.5136 20.8416C27.983 20.6805 28.3997 20.3916 28.808 20.1082C29.0553 19.9055 29.2664 19.6388 29.5997 19.5749C30.2469 19.3777 30.9303 19.4027 31.5775 19.2221C32.0691 18.5499 32.908 18.3082 33.608 17.9194C33.7636 17.8721 33.8275 17.7444 33.8747 17.5999C34.1414 17.1777 34.5053 16.8027 34.9386 16.5471C35.1414 16.436 35.3886 16.3721 35.6164 16.4249C35.5997 16.7027 35.4414 16.9444 35.2525 17.136C35.408 17.1305 35.5414 17.0332 35.7025 17.0388C35.7553 17.3221 35.4525 17.4721 35.2914 17.6471C35.383 17.6694 35.7303 17.6944 35.5386 17.786C35.2969 17.9527 35.0247 18.0694 34.7997 18.261C35.0025 18.2971 35.0303 18.3416 34.8219 18.4166C34.7108 18.4916 34.4914 18.5194 34.4691 18.6666C34.6247 18.7638 34.3997 18.8527 34.308 18.886C34.1414 18.9221 33.9664 18.9971 34.1858 19.1277C34.0997 19.2555 33.9247 19.2832 33.7747 19.2666C33.8164 19.411 33.8803 19.5721 33.6997 19.636C33.283 19.9527 32.7914 20.1805 32.2664 20.2332C32.9247 20.2805 33.5969 20.1638 34.158 19.8055C34.233 19.7194 34.6164 19.6249 34.4053 19.5499C34.3025 19.5082 34.0858 19.4582 34.0691 19.3832C34.3747 19.1971 34.7525 19.261 35.0803 19.1527C35.0914 19.0471 34.833 19.0777 34.7386 19.0499C34.508 19.0277 34.5247 18.9749 34.7441 18.9527C35.0219 18.8777 35.3386 18.861 35.5719 18.686C35.3803 18.5944 35.1386 18.6749 34.9358 18.6055C35.283 18.4555 35.6886 18.4388 35.9997 18.211C36.1386 18.0555 35.8191 18.1055 35.7275 18.1082C35.5358 18.1416 35.4497 18.0499 35.6636 17.9694C36.033 17.6971 36.5025 17.5194 36.7636 17.1249C36.8275 17.0332 36.908 16.7666 36.7108 16.8638C36.4553 16.9499 36.2247 17.2444 35.9303 17.1527C36.5136 16.7027 37.0636 16.1916 37.458 15.5666C37.4803 15.386 37.1969 15.3694 37.1219 15.5082C36.7469 15.8666 36.4108 16.2944 35.9358 16.5194C36.3941 16.0749 36.7691 15.5582 37.0997 15.011C37.1691 14.8499 37.3608 14.6582 37.2608 14.4777C37.0941 14.3388 36.8858 14.4666 36.8025 14.6332C36.5136 15.0138 36.2941 15.4555 35.9219 15.761C36.2469 15.136 36.5858 14.4721 36.5941 13.7582C36.5941 13.6082 36.5608 13.3944 36.3636 13.4221C36.2025 13.4499 36.2414 13.6888 36.1775 13.811C36.033 14.3027 35.9636 14.8305 35.6691 15.2638C35.733 14.8638 35.8497 14.4471 35.7664 14.0444C35.7247 13.8638 35.4358 13.9416 35.4719 14.1194C35.1247 15.8777 33.9441 17.4166 32.3997 18.3082C31.6941 18.7082 30.9025 18.9666 30.1025 19.0832C29.8886 19.1305 29.6525 19.1055 29.4441 19.1749C28.9414 19.561 28.6414 20.1999 28.0053 20.4055C27.7219 20.5444 27.3525 20.5777 27.1497 20.8388C27.1247 20.8471 27.1191 20.8888 27.1191 20.9277Z" fill="#FEC50C"/>
<path d="M29.0162 19.1416C28.919 19.3138 28.8662 19.5055 28.7496 19.6611C28.3857 19.3305 27.8634 19.3416 27.4023 19.3194C27.0218 19.2972 26.6107 19.2666 26.3162 18.9944C26.0051 18.7444 25.7551 18.4111 25.4134 18.2083C25.0968 18.1222 24.7829 18.0166 24.5329 17.8027C23.994 17.3638 23.6829 16.7083 23.1551 16.2527C23.0523 16.15 22.9357 16.0777 22.8246 15.9916C22.719 16.0194 22.7662 16.2472 22.6329 16.1305C22.5634 16.0777 22.3829 16.0777 22.3662 16.1472C22.5273 16.3611 22.6857 16.6027 22.7134 16.875C22.6023 16.8861 22.4079 16.8527 22.3551 16.8916C22.4996 17.1111 22.6857 17.3027 22.8996 17.4583C22.7968 17.475 22.594 17.4638 22.5579 17.5055C22.7718 17.6777 22.9968 17.8527 23.2746 17.8944C23.3329 17.9694 23.194 18.1138 23.3079 18.1777C23.3773 18.2055 23.6023 18.2527 23.4468 18.3277C23.3412 18.3972 23.3829 18.5694 23.5162 18.5638C23.6023 18.6055 23.794 18.6166 23.8107 18.6916C23.7357 18.7666 23.4996 18.8638 23.6996 18.9333C23.8857 19.0388 24.0996 19.1055 24.319 19.1138C24.2134 19.2055 24.0773 19.2583 23.9662 19.3444C24.4634 19.6333 25.0134 19.825 25.5523 20.0111C25.7662 20.0861 25.9857 20.15 26.2107 20.1916C25.5579 20.1555 24.9273 19.9611 24.3357 19.7C24.0246 19.5666 23.7218 19.4333 23.4051 19.3194C23.544 19.25 23.7051 19.2277 23.8496 19.1694C23.5496 19.1111 23.2301 19.0888 22.969 18.9277C23.0107 18.8583 23.1607 18.8527 23.2468 18.8166C23.4079 18.7805 23.5023 18.7305 23.2801 18.7194C23.0551 18.6611 22.7996 18.6861 22.6023 18.5472C22.6134 18.4666 22.8218 18.4944 22.9079 18.4611C23.0134 18.4444 23.1329 18.4277 23.219 18.3555C22.8718 18.2111 22.4162 18.3138 22.144 18.0083C22.0801 17.8916 22.3357 17.9861 22.4107 17.9666C22.5968 17.9666 22.7968 18.025 22.9773 17.95C22.469 17.725 21.9301 17.5222 21.544 17.1111C21.5023 17.0472 21.3718 16.8638 21.4746 16.8444C21.7746 16.8805 21.994 17.2138 22.3134 17.1611C22.3551 17.1027 22.1273 17.0111 22.0662 16.925C21.5968 16.525 21.1412 16.0861 20.8162 15.5611C20.794 15.3861 21.0662 15.3583 21.1412 15.4972C21.4996 15.8444 21.8246 16.2444 22.269 16.4805C22.4301 16.5555 22.1773 16.3888 22.1468 16.3305C21.7357 15.85 21.3384 15.3472 21.0579 14.7805C21.0051 14.6777 20.919 14.4972 21.0746 14.4388C21.2301 14.3638 21.3857 14.4666 21.4607 14.6C21.7662 14.9861 21.9857 15.4388 22.3634 15.7555C22.044 15.1305 21.6996 14.4722 21.6912 13.7555C21.6968 13.6166 21.7079 13.4083 21.894 13.4138C22.0551 13.3916 22.0273 13.5888 22.0801 13.6916C22.2357 14.2194 22.3051 14.7916 22.619 15.2583C22.5496 14.8694 22.4468 14.4611 22.5162 14.0666C22.5329 13.9388 22.6773 13.8944 22.7718 13.975C22.8523 14.1666 22.869 14.3972 22.9384 14.6C23.3384 15.9777 24.2412 17.1861 25.4246 18C26.3912 18.6638 27.5468 19.0638 28.7218 19.1333C28.8023 19.1305 28.9107 19.1361 29.0162 19.1416Z" fill="#FEC50C"/>
<path d="M27.5243 20.964C27.5596 20.964 27.5882 20.9354 27.5882 20.9001C27.5882 20.8648 27.5596 20.8362 27.5243 20.8362C27.4891 20.8362 27.4604 20.8648 27.4604 20.9001C27.4604 20.9354 27.4891 20.964 27.5243 20.964Z" fill="#FEC50C"/>
<path d="M27.519 20.9225C27.5343 20.9225 27.5467 20.9101 27.5467 20.8947C27.5467 20.8794 27.5343 20.8669 27.519 20.8669C27.5036 20.8669 27.4912 20.8794 27.4912 20.8947C27.4912 20.9101 27.5036 20.9225 27.519 20.9225Z" fill="#FEC50C" stroke="#00AFCA" stroke-width="0.1905" stroke-miterlimit="2"/>
<path d="M3.47433 3.58886C3.47433 3.58886 3.21877 3.37497 3.13266 3.48331C2.99377 3.65831 3.56599 4.52497 3.56599 4.83053C3.56599 5.33331 3.22988 5.46664 2.81877 5.54164C2.54099 5.58331 2.08544 5.51386 2.08544 5.51386C2.17155 5.40275 2.22433 5.36386 2.36877 5.35831C2.20766 5.27775 2.04933 5.0972 2.04933 4.81942C2.04933 4.38608 2.22433 4.21108 2.22433 3.72497C2.22433 3.45831 2.00488 3.11108 2.00488 3.11108C2.39377 3.1472 2.58822 3.51108 2.47988 3.79997C2.54377 3.81108 2.59655 3.79442 2.64655 3.74719C2.67433 3.82775 2.62988 3.91942 2.57155 3.99719C2.61877 4.02497 2.65766 4.00831 2.73266 3.99164C2.7271 4.07219 2.67433 4.16386 2.55766 4.24164C2.91044 4.14997 3.12433 4.39719 3.12433 4.65275C3.12433 4.84442 2.99099 4.98331 2.85766 4.98331C2.81599 4.98331 2.7521 4.96664 2.71877 4.94164C2.69099 4.99442 2.70766 5.06386 2.73544 5.11664C2.63822 5.08886 2.57433 5.03053 2.61877 4.91386C2.54377 4.90831 2.48544 4.88053 2.44377 4.83331C2.48544 4.78053 2.54655 4.75275 2.61877 4.75275C2.56599 4.64164 2.62433 4.57775 2.71599 4.52775C2.71599 4.52775 2.65766 4.75275 2.8021 4.75275C2.86599 4.75275 2.92433 4.73053 2.92433 4.63608C2.92433 4.55553 2.84933 4.43886 2.68266 4.44442C2.51599 4.44997 2.3771 4.56108 2.3771 4.83053C2.3771 5.07775 2.57433 5.19997 2.83544 5.20553C3.07155 5.21108 3.2521 5.08331 3.2521 4.84164C3.2521 4.51664 2.78266 3.77775 2.78266 3.48886C2.78266 3.26942 2.97433 3.15275 3.16877 3.15275C3.41599 3.15275 3.62433 3.39997 3.62433 3.39997L3.47433 3.58886Z" fill="#FEC50C"/>
<path d="M3.5304 9.44747C3.5304 9.98636 3.04429 10.2641 2.66374 10.2641C2.14985 10.2641 1.87207 9.95303 1.87207 9.55303C1.87207 9.32247 1.91374 9.17803 2.02207 8.96414C2.02207 8.96414 2.87207 7.20025 3.20263 6.51692C3.24429 6.43081 3.2554 6.33636 3.2554 6.19192C3.2554 5.97247 3.04151 5.79192 2.81651 5.78636C2.61374 5.78081 2.38874 5.97803 2.38874 6.19747C2.38874 6.46414 2.52763 6.58636 2.67207 6.58636C2.84707 6.58636 2.91929 6.51136 2.91929 6.38914C2.91929 6.30303 2.87763 6.26692 2.81651 6.26692C2.66651 6.26692 2.71096 6.4697 2.71096 6.4697C2.63596 6.45303 2.57207 6.37803 2.60818 6.28359C2.54985 6.27247 2.50263 6.24192 2.45818 6.19747C2.49985 6.16136 2.54429 6.12803 2.60818 6.11692C2.57207 5.9947 2.61929 5.94192 2.72485 5.91414C2.70263 5.95581 2.70263 6.00025 2.70818 6.04192C2.86929 5.9947 3.11929 6.0697 3.11929 6.34747C3.11929 6.62525 2.92763 6.85581 2.56929 6.80303C2.6554 6.8447 2.69707 6.92525 2.70818 7.02247C2.64429 6.9947 2.56929 6.9947 2.56929 6.9947C2.61096 7.0697 2.67207 7.13359 2.66651 7.27803C2.59707 7.2447 2.53874 7.19192 2.45263 7.22525C2.58596 7.48636 2.41929 7.85581 2.00263 7.94192C2.15818 7.76136 2.23318 7.56692 2.23318 7.37525C2.23318 6.75025 2.05818 6.64192 2.05818 6.20581C2.05818 6.02525 2.1554 5.82525 2.33596 5.69192V5.69747C2.21374 5.66414 2.13318 5.60581 2.08874 5.52247C2.37207 5.44192 2.77763 5.44192 2.99707 5.53358C3.24707 5.56136 3.42485 5.75859 3.47763 5.85303C3.5304 5.95025 3.63318 6.30859 3.47763 6.62803C3.31096 6.97525 2.52207 8.64748 2.2804 9.17248C2.22763 9.28359 2.19429 9.40303 2.19429 9.53081C2.19429 9.85025 2.48874 9.96414 2.65263 9.96414C2.84985 9.96414 3.05818 9.80859 3.05818 9.62247C3.05818 9.50025 2.99429 9.43081 2.89707 9.43081C2.67207 9.43081 2.68318 9.62247 2.7304 9.74747C2.59151 9.68359 2.5054 9.57247 2.53318 9.45303C2.45263 9.44192 2.37763 9.40581 2.30818 9.32525C2.36096 9.25581 2.4304 9.20303 2.53318 9.20303C2.49151 9.01692 2.61374 8.94192 2.7304 8.89747C2.69429 9.03081 2.66651 9.19192 2.89707 9.19192C3.06929 9.19192 3.19707 9.2197 3.27763 9.33081C3.28318 9.18636 3.29429 8.60859 3.29429 8.60859C3.3054 8.3947 3.0054 8.40025 2.81374 8.46414C2.88318 8.21414 3.03318 8.07803 3.37485 8.11692C3.29429 8.08359 3.20263 8.00581 3.20263 7.85581C3.20263 7.65303 3.36929 7.42803 3.47485 7.36414L3.5304 9.44747Z" fill="#FEC50C"/>
<path d="M3.5304 11.0725C3.5304 10.5336 3.04429 10.2559 2.66374 10.2559C2.14985 10.2559 1.87207 10.567 1.87207 10.967C1.87207 11.1975 1.91374 11.342 2.02207 11.5559C2.02207 11.5559 2.87207 13.3197 3.20263 14.0031C3.24429 14.0892 3.2554 14.1836 3.2554 14.3281C3.2554 14.5475 3.04152 14.7281 2.81651 14.7336C2.61374 14.7392 2.38874 14.542 2.38874 14.3225C2.38874 14.0559 2.52763 13.9336 2.67207 13.9336C2.84707 13.9336 2.91929 14.0086 2.91929 14.1309C2.91929 14.217 2.87763 14.2531 2.81651 14.2531C2.66651 14.2531 2.71096 14.0503 2.71096 14.0503C2.63596 14.067 2.57207 14.142 2.60818 14.2364C2.54985 14.2475 2.50263 14.2781 2.45818 14.3225C2.49985 14.3586 2.54429 14.392 2.60818 14.4031C2.57207 14.5197 2.61929 14.5781 2.71929 14.6003C2.69707 14.5586 2.69707 14.5142 2.70263 14.4725C2.86374 14.5197 3.11374 14.4447 3.11374 14.167C3.11374 13.8892 2.92207 13.6586 2.56374 13.7114C2.64985 13.6697 2.69151 13.5892 2.70263 13.492C2.63874 13.5197 2.56374 13.5197 2.56374 13.5197C2.6054 13.4447 2.66651 13.3809 2.66096 13.2364C2.59151 13.2697 2.53318 13.3225 2.44707 13.2892C2.5804 13.0281 2.41374 12.6586 1.99707 12.5725C2.15263 12.7531 2.22763 12.9475 2.22763 13.1392C2.22763 13.7642 2.05263 13.8725 2.05263 14.3086C2.05263 14.4892 2.14985 14.6892 2.3304 14.8225V14.817C2.20818 14.8503 2.12763 14.9086 2.08318 14.992C2.36651 15.0725 2.77207 15.0725 2.99152 14.9809C3.24152 14.9531 3.41929 14.7559 3.47207 14.6614C3.52485 14.5642 3.62763 14.2059 3.47207 13.8864C3.3054 13.5392 2.51651 11.867 2.27485 11.342C2.22207 11.2309 2.18874 11.1114 2.18874 10.9836C2.18874 10.6642 2.48318 10.5503 2.64707 10.5503C2.84429 10.5503 3.05263 10.7059 3.05263 10.892C3.05263 11.0142 2.98874 11.0836 2.89152 11.0836C2.66652 11.0836 2.67763 10.892 2.72485 10.767C2.58596 10.8309 2.49985 10.942 2.52763 11.0614C2.44707 11.0725 2.37207 11.1086 2.30263 11.1892C2.3554 11.2586 2.42485 11.3114 2.52763 11.3114C2.48596 11.4975 2.60818 11.5725 2.72485 11.617C2.68874 11.4836 2.66096 11.3225 2.89152 11.3225C3.06374 11.3225 3.19152 11.2947 3.27207 11.1836C3.27763 11.3281 3.28874 11.9059 3.28874 11.9059C3.29985 12.1197 2.99985 12.1142 2.80818 12.0503C2.87763 12.3003 3.02763 12.4364 3.36929 12.3975C3.28874 12.4309 3.19707 12.5086 3.19707 12.6586C3.19707 12.8614 3.36374 13.0864 3.46929 13.1503L3.5304 11.0725Z" fill="#FEC50C"/>
<path d="M3.47403 3.58892C3.47403 3.58892 3.72959 3.37503 3.8157 3.48337C3.95459 3.65837 3.38237 4.52503 3.38237 4.83059C3.38237 5.33336 3.71848 5.4667 4.12959 5.5417C4.40737 5.58892 4.85737 5.51947 4.85737 5.51947C4.77126 5.40836 4.71848 5.36948 4.57403 5.36392C4.73515 5.28336 4.89348 5.10281 4.89348 4.82503C4.89348 4.3917 4.71848 4.2167 4.71848 3.73059C4.71848 3.46392 4.93792 3.1167 4.93792 3.1167C4.54903 3.15281 4.35459 3.5167 4.46292 3.80559C4.39903 3.8167 4.34626 3.80003 4.29626 3.75281C4.27403 3.83337 4.31848 3.92503 4.38237 4.00281C4.33515 4.03059 4.29626 4.01392 4.22126 3.99725C4.22681 4.07781 4.27959 4.16948 4.39626 4.24725C4.04348 4.15559 3.82959 4.40281 3.82959 4.65836C3.82959 4.85003 3.96292 4.98892 4.09626 4.98892C4.13792 4.98892 4.20181 4.97225 4.23515 4.94725C4.26292 5.00003 4.24626 5.06948 4.21848 5.12225C4.3157 5.09448 4.37959 5.03614 4.33515 4.91948C4.41015 4.91392 4.46848 4.88614 4.51015 4.83892C4.46848 4.78614 4.40737 4.75836 4.33515 4.75836C4.38792 4.64725 4.32959 4.58336 4.23792 4.53336C4.23792 4.53336 4.29626 4.75836 4.15181 4.75836C4.08792 4.75836 4.02959 4.73614 4.02959 4.6417C4.02959 4.56114 4.10459 4.44448 4.27126 4.45003C4.43792 4.45559 4.57681 4.5667 4.57681 4.83614C4.57681 5.08336 4.37959 5.20559 4.11848 5.21114C3.88237 5.2167 3.70181 5.08892 3.70181 4.84725C3.70181 4.52225 4.17126 3.78337 4.17126 3.49448C4.17126 3.27503 3.97959 3.15837 3.78515 3.15837C3.53792 3.15837 3.32959 3.40559 3.32959 3.40559L3.47403 3.58892Z" fill="#FEC50C"/>
<path d="M3.42203 9.44705C3.42203 9.98594 3.90814 10.2637 4.2887 10.2637C4.80259 10.2637 5.08037 9.9526 5.08037 9.5526C5.08037 9.32205 5.0387 9.1776 4.93037 8.96372C4.93037 8.96372 4.08037 7.19982 3.74981 6.51649C3.70814 6.43038 3.69703 6.33593 3.69703 6.19149C3.69703 5.97205 3.91092 5.79149 4.13592 5.78593C4.3387 5.78038 4.5637 5.9776 4.5637 6.19705C4.5637 6.46371 4.42481 6.58594 4.28037 6.58594C4.10537 6.58594 4.03314 6.51094 4.03314 6.38871C4.03314 6.3026 4.07481 6.26649 4.13592 6.26649C4.28592 6.26649 4.24148 6.46927 4.24148 6.46927C4.31648 6.4526 4.38037 6.3776 4.34425 6.28316C4.40259 6.27205 4.44981 6.24149 4.49426 6.19705C4.45259 6.16094 4.40814 6.1276 4.34425 6.11649C4.38037 5.99982 4.33314 5.94149 4.23314 5.91927C4.25537 5.96093 4.25537 6.00538 4.24981 6.04705C4.0887 5.99982 3.8387 6.07482 3.8387 6.3526C3.8387 6.63038 4.03037 6.86094 4.3887 6.80816C4.30259 6.84982 4.26092 6.93038 4.24981 7.0276C4.3137 6.99982 4.3887 6.99982 4.3887 6.99982C4.34703 7.07482 4.28592 7.13871 4.29148 7.28316C4.36092 7.24983 4.41926 7.19705 4.50537 7.23038C4.37203 7.49149 4.5387 7.86094 4.95537 7.94705C4.79981 7.76649 4.72481 7.57205 4.72481 7.38038C4.72481 6.75538 4.89981 6.64705 4.89981 6.21094C4.89981 6.03038 4.80259 5.83038 4.62203 5.69705V5.7026C4.74425 5.66927 4.82481 5.61093 4.86925 5.5276C4.58592 5.44705 4.18037 5.44705 3.96092 5.53871C3.71092 5.56649 3.53314 5.76371 3.48037 5.85816C3.42759 5.95538 3.32481 6.31371 3.48037 6.63316C3.64703 6.98038 4.43592 8.6526 4.67759 9.1776C4.73037 9.28872 4.7637 9.40816 4.7637 9.53594C4.7637 9.85538 4.46926 9.96927 4.30537 9.96927C4.10814 9.96927 3.89981 9.81372 3.89981 9.6276C3.89981 9.50538 3.9637 9.43594 4.06092 9.43594C4.28592 9.43594 4.27481 9.6276 4.22759 9.7526C4.36648 9.68872 4.45259 9.5776 4.42481 9.45816C4.50537 9.44705 4.58037 9.41094 4.64981 9.33038C4.59703 9.26094 4.52759 9.20816 4.42481 9.20816C4.46648 9.02205 4.34426 8.94705 4.22759 8.9026C4.2637 9.03594 4.29148 9.19705 4.06092 9.19705C3.8887 9.19705 3.76092 9.22483 3.68037 9.33594C3.67481 9.19149 3.6637 8.61372 3.6637 8.61372C3.65259 8.39983 3.95259 8.40538 4.14426 8.46927C4.07481 8.21927 3.92481 8.08316 3.58314 8.12205C3.6637 8.08871 3.75537 8.01094 3.75537 7.86094C3.75537 7.65816 3.5887 7.43316 3.48314 7.36927L3.42203 9.44705Z" fill="#FEC50C"/>
<path d="M3.42203 11.0725C3.42203 10.5336 3.90814 10.2559 4.2887 10.2559C4.80259 10.2559 5.08037 10.567 5.08037 10.967C5.08037 11.1975 5.0387 11.342 4.93037 11.5559C4.93037 11.5559 4.08037 13.3197 3.74981 14.0031C3.70814 14.0892 3.69703 14.1836 3.69703 14.3281C3.69703 14.5475 3.91092 14.7281 4.13592 14.7336C4.3387 14.7392 4.5637 14.542 4.5637 14.3225C4.5637 14.0559 4.42481 13.9336 4.28037 13.9336C4.10537 13.9336 4.03314 14.0086 4.03314 14.1309C4.03314 14.217 4.07481 14.2531 4.13592 14.2531C4.28592 14.2531 4.24148 14.0503 4.24148 14.0503C4.31648 14.067 4.38037 14.142 4.34425 14.2364C4.40259 14.2475 4.44981 14.2781 4.49426 14.3225C4.45259 14.3586 4.40814 14.392 4.34425 14.4031C4.38037 14.5197 4.33314 14.5781 4.23314 14.6003C4.25537 14.5586 4.25537 14.5142 4.24981 14.4725C4.0887 14.5197 3.8387 14.4447 3.8387 14.167C3.8387 13.8892 4.03037 13.6586 4.3887 13.7114C4.30259 13.6697 4.26092 13.5892 4.24981 13.492C4.3137 13.5197 4.3887 13.5197 4.3887 13.5197C4.34703 13.4447 4.28592 13.3809 4.29148 13.2364C4.36092 13.2697 4.41926 13.3225 4.50537 13.2892C4.37203 13.0281 4.5387 12.6586 4.95537 12.5725C4.79981 12.7531 4.72481 12.9475 4.72481 13.1392C4.72481 13.7642 4.89981 13.8725 4.89981 14.3086C4.89981 14.4892 4.80259 14.6892 4.62203 14.8225V14.817C4.74425 14.8503 4.82481 14.9086 4.86925 14.992C4.58592 15.0725 4.18037 15.0725 3.96092 14.9809C3.71092 14.9531 3.53314 14.7559 3.48037 14.6614C3.42759 14.5642 3.32481 14.2059 3.48037 13.8864C3.64703 13.5392 4.43592 11.867 4.67759 11.342C4.73037 11.2309 4.7637 11.1114 4.7637 10.9836C4.7637 10.6642 4.46926 10.5503 4.30537 10.5503C4.10814 10.5503 3.89981 10.7059 3.89981 10.892C3.89981 11.0142 3.9637 11.0836 4.06092 11.0836C4.28592 11.0836 4.27481 10.892 4.22759 10.767C4.36648 10.8309 4.45259 10.942 4.42481 11.0614C4.50537 11.0725 4.58037 11.1086 4.64981 11.1892C4.59703 11.2586 4.52759 11.3114 4.42481 11.3114C4.46648 11.4975 4.34426 11.5725 4.22759 11.617C4.2637 11.4836 4.29148 11.3225 4.06092 11.3225C3.8887 11.3225 3.76092 11.2947 3.68037 11.1836C3.67481 11.3281 3.6637 11.9059 3.6637 11.9059C3.65259 12.1197 3.95259 12.1142 4.14426 12.0503C4.07481 12.3003 3.92481 12.4364 3.58314 12.3975C3.6637 12.4309 3.75537 12.5086 3.75537 12.6586C3.75537 12.8614 3.5887 13.0864 3.48314 13.1503L3.42203 11.0725Z" fill="#FEC50C"/>
<path d="M3.47414 26.4111C3.47414 26.4111 3.21859 26.625 3.13248 26.5167C2.99359 26.3417 3.56581 25.475 3.56581 25.1695C3.56581 24.6667 3.2297 24.5333 2.81859 24.4583C2.54081 24.4111 2.09081 24.4806 2.09081 24.4806C2.17692 24.5917 2.2297 24.6306 2.37414 24.6361C2.21303 24.7167 2.0547 24.8972 2.0547 25.175C2.0547 25.6083 2.2297 25.7833 2.2297 26.2695C2.2297 26.5361 2.01025 26.8833 2.01025 26.8833C2.39914 26.8472 2.59359 26.4833 2.48525 26.1945C2.54914 26.1833 2.60192 26.2 2.65192 26.2472C2.6797 26.1667 2.63525 26.075 2.57692 25.9972C2.62414 25.9695 2.66303 25.9861 2.73803 26.0028C2.73248 25.9222 2.6797 25.8306 2.56303 25.7528C2.91581 25.8445 3.1297 25.5972 3.1297 25.3417C3.1297 25.15 2.99636 25.0111 2.86303 25.0111C2.82136 25.0111 2.75748 25.0278 2.72414 25.0528C2.69636 25 2.71303 24.9306 2.74081 24.8778C2.64359 24.9056 2.5797 24.9639 2.62414 25.0806C2.54914 25.0861 2.49081 25.1139 2.44914 25.1611C2.49081 25.2139 2.55192 25.2417 2.62414 25.2417C2.57136 25.3528 2.6297 25.4167 2.72136 25.4667C2.72136 25.4667 2.66303 25.2417 2.80748 25.2417C2.87136 25.2417 2.9297 25.2639 2.9297 25.3583C2.9297 25.4389 2.8547 25.5556 2.68803 25.55C2.52136 25.5445 2.38248 25.4333 2.38248 25.1639C2.38248 24.9167 2.5797 24.7945 2.84081 24.7889C3.07692 24.7833 3.25748 24.9111 3.25748 25.1528C3.25748 25.4778 2.78803 26.2167 2.78803 26.5056C2.78803 26.725 2.9797 26.8417 3.17414 26.8417C3.42136 26.8417 3.6297 26.5945 3.6297 26.5945L3.47414 26.4111Z" fill="#FEC50C"/>
<path d="M3.5304 20.5527C3.5304 20.0139 3.04429 19.7361 2.66374 19.7361C2.14985 19.7361 1.87207 20.0472 1.87207 20.4472C1.87207 20.6777 1.91374 20.8222 2.02207 21.0361C2.02207 21.0361 2.87207 22.8 3.20263 23.4833C3.24429 23.5694 3.2554 23.6639 3.2554 23.8083C3.2554 24.0277 3.04152 24.2083 2.81651 24.2139C2.61374 24.2194 2.38874 24.0222 2.38874 23.8027C2.38874 23.5361 2.52763 23.4139 2.67207 23.4139C2.84707 23.4139 2.91929 23.4889 2.91929 23.6111C2.91929 23.6972 2.87763 23.7333 2.81651 23.7333C2.66651 23.7333 2.71096 23.5305 2.71096 23.5305C2.63596 23.5472 2.57207 23.6222 2.60818 23.7166C2.54985 23.7277 2.50263 23.7583 2.45818 23.8027C2.49985 23.8389 2.54429 23.8722 2.60818 23.8833C2.57207 24 2.61929 24.0583 2.71929 24.0805C2.69707 24.0389 2.69707 23.9944 2.70263 23.9527C2.86374 24 3.11374 23.925 3.11374 23.6472C3.11374 23.3694 2.92207 23.1389 2.56374 23.1916C2.64985 23.15 2.69151 23.0694 2.70263 22.9722C2.63874 23 2.56374 23 2.56374 23C2.6054 22.925 2.66651 22.8611 2.66096 22.7166C2.59151 22.75 2.53318 22.8027 2.44707 22.7694C2.5804 22.5083 2.41374 22.1389 1.99707 22.0527C2.15263 22.2333 2.22763 22.4277 2.22763 22.6194C2.22763 23.2444 2.05263 23.3527 2.05263 23.7889C2.05263 23.9694 2.14985 24.1694 2.3304 24.3027V24.2972C2.20818 24.3305 2.12763 24.3889 2.08318 24.4722C2.36651 24.5527 2.77207 24.5527 2.99152 24.4611C3.24152 24.4333 3.41929 24.2361 3.47207 24.1416C3.52485 24.0444 3.62763 23.6861 3.47207 23.3666C3.3054 23.0194 2.51651 21.3472 2.27485 20.8222C2.22207 20.7111 2.18874 20.5916 2.18874 20.4639C2.18874 20.1444 2.48318 20.0305 2.64707 20.0305C2.84429 20.0305 3.05263 20.1861 3.05263 20.3722C3.05263 20.4944 2.98874 20.5639 2.89152 20.5639C2.66652 20.5639 2.67763 20.3722 2.72485 20.2472C2.58596 20.3111 2.49985 20.4222 2.52763 20.5416C2.44707 20.5527 2.37207 20.5889 2.30263 20.6694C2.3554 20.7389 2.42485 20.7916 2.52763 20.7916C2.48596 20.9777 2.60818 21.0527 2.72485 21.0972C2.68874 20.9639 2.66096 20.8027 2.89152 20.8027C3.06374 20.8027 3.19152 20.775 3.27207 20.6639C3.27763 20.8083 3.28874 21.3861 3.28874 21.3861C3.29985 21.6 2.99985 21.5944 2.80818 21.5305C2.87763 21.7805 3.02763 21.9166 3.36929 21.8777C3.28874 21.9111 3.19707 21.9889 3.19707 22.1389C3.19707 22.3416 3.36374 22.5666 3.46929 22.6305L3.5304 20.5527Z" fill="#FEC50C"/>
<path d="M3.5304 18.928C3.5304 19.4669 3.04429 19.7447 2.66374 19.7447C2.14985 19.7447 1.87207 19.4336 1.87207 19.0336C1.87207 18.803 1.91374 18.6586 2.02207 18.4447C2.02207 18.4447 2.87207 16.6808 3.20263 15.9974C3.24429 15.9113 3.2554 15.8169 3.2554 15.6724C3.2554 15.453 3.04152 15.2724 2.81651 15.2669C2.61374 15.2613 2.38874 15.4586 2.38874 15.678C2.38874 15.9447 2.52763 16.0669 2.67207 16.0669C2.84707 16.0669 2.91929 15.9919 2.91929 15.8697C2.91929 15.7836 2.87763 15.7474 2.81651 15.7474C2.66651 15.7474 2.71096 15.9502 2.71096 15.9502C2.63596 15.9336 2.57207 15.8586 2.60818 15.7641C2.54985 15.753 2.50263 15.7224 2.45818 15.678C2.49985 15.6419 2.54429 15.6086 2.60818 15.5974C2.57207 15.4808 2.61929 15.4224 2.71929 15.4002C2.69707 15.4419 2.69707 15.4863 2.70263 15.528C2.86374 15.4808 3.11374 15.5558 3.11374 15.8336C3.11374 16.1113 2.92207 16.3419 2.56374 16.2891C2.64985 16.3308 2.69151 16.4113 2.70263 16.5086C2.63874 16.4808 2.56374 16.4808 2.56374 16.4808C2.6054 16.5558 2.66651 16.6197 2.66096 16.7641C2.59151 16.7308 2.53318 16.678 2.44707 16.7113C2.5804 16.9724 2.41374 17.3419 1.99707 17.428C2.15263 17.2474 2.22763 17.053 2.22763 16.8613C2.22763 16.2363 2.05263 16.128 2.05263 15.6919C2.05263 15.5113 2.14985 15.3113 2.3304 15.178V15.1836C2.20818 15.1502 2.12763 15.0919 2.08318 15.0086C2.36651 14.928 2.77207 14.928 2.99152 15.0197C3.24152 15.0474 3.41929 15.2447 3.47207 15.3391C3.52485 15.4363 3.62763 15.7947 3.47207 16.1141C3.3054 16.4613 2.51651 18.1336 2.27485 18.6586C2.22207 18.7697 2.18874 18.8891 2.18874 19.0169C2.18874 19.3363 2.48318 19.4502 2.64707 19.4502C2.84429 19.4502 3.05263 19.2947 3.05263 19.1086C3.05263 18.9863 2.98874 18.9169 2.89152 18.9169C2.66652 18.9169 2.67763 19.1086 2.72485 19.2336C2.58596 19.1697 2.49985 19.0586 2.52763 18.9391C2.44707 18.928 2.37207 18.8919 2.30263 18.8113C2.3554 18.7419 2.42485 18.6891 2.52763 18.6891C2.48596 18.503 2.60818 18.428 2.72485 18.3836C2.68874 18.5169 2.66096 18.678 2.89152 18.678C3.06374 18.678 3.19152 18.7058 3.27207 18.8169C3.27763 18.6724 3.28874 18.0947 3.28874 18.0947C3.29985 17.8808 2.99985 17.8863 2.80818 17.9502C2.87763 17.7002 3.02763 17.5641 3.36929 17.603C3.28874 17.5697 3.19707 17.4919 3.19707 17.3419C3.19707 17.1391 3.36374 16.9141 3.46929 16.8502L3.5304 18.928Z" fill="#FEC50C"/>
<path d="M3.4744 26.4111C3.4744 26.4111 3.72996 26.625 3.81607 26.5167C3.95496 26.3417 3.38274 25.475 3.38274 25.1695C3.38274 24.6667 3.71885 24.5333 4.12996 24.4583C4.40774 24.4111 4.85774 24.4806 4.85774 24.4806C4.77163 24.5917 4.71885 24.6306 4.5744 24.6361C4.73551 24.7167 4.89385 24.8972 4.89385 25.175C4.89385 25.6083 4.71885 25.7833 4.71885 26.2695C4.71885 26.5361 4.93829 26.8833 4.93829 26.8833C4.5494 26.8472 4.35496 26.4833 4.46329 26.1945C4.3994 26.1833 4.34663 26.2 4.29663 26.2472C4.26885 26.1667 4.31329 26.075 4.37163 25.9972C4.3244 25.9695 4.28551 25.9861 4.21051 26.0028C4.21607 25.9222 4.26885 25.8306 4.38551 25.7528C4.03274 25.8445 3.81885 25.5972 3.81885 25.3417C3.81885 25.15 3.95218 25.0111 4.08551 25.0111C4.12718 25.0111 4.19107 25.0278 4.2244 25.0528C4.25218 25 4.23551 24.9306 4.20774 24.8778C4.30496 24.9056 4.36885 24.9639 4.3244 25.0806C4.3994 25.0861 4.45774 25.1139 4.4994 25.1611C4.45774 25.2139 4.39663 25.2417 4.3244 25.2417C4.37718 25.3528 4.31885 25.4167 4.22718 25.4667C4.22718 25.4667 4.28551 25.2417 4.14107 25.2417C4.07718 25.2417 4.01885 25.2639 4.01885 25.3583C4.01885 25.4389 4.09385 25.5556 4.26051 25.55C4.42718 25.5445 4.56607 25.4333 4.56607 25.1639C4.56607 24.9167 4.36885 24.7945 4.10774 24.7889C3.87163 24.7833 3.69107 24.9111 3.69107 25.1528C3.69107 25.4778 4.16051 26.2167 4.16051 26.5056C4.16051 26.725 3.96885 26.8417 3.7744 26.8417C3.52718 26.8417 3.31885 26.5945 3.31885 26.5945L3.4744 26.4111Z" fill="#FEC50C"/>
<path d="M3.42203 20.5527C3.42203 20.0139 3.90814 19.7361 4.2887 19.7361C4.80259 19.7361 5.08037 20.0472 5.08037 20.4472C5.08037 20.6777 5.0387 20.8222 4.93037 21.0361C4.93037 21.0361 4.08037 22.8 3.74981 23.4833C3.70814 23.5694 3.69703 23.6639 3.69703 23.8083C3.69703 24.0277 3.91092 24.2083 4.13592 24.2139C4.3387 24.2194 4.5637 24.0222 4.5637 23.8027C4.5637 23.5361 4.42481 23.4139 4.28037 23.4139C4.10537 23.4139 4.03314 23.4889 4.03314 23.6111C4.03314 23.6972 4.07481 23.7333 4.13592 23.7333C4.28592 23.7333 4.24148 23.5305 4.24148 23.5305C4.31648 23.5472 4.38037 23.6222 4.34425 23.7166C4.40259 23.7277 4.44981 23.7583 4.49426 23.8027C4.45259 23.8389 4.40814 23.8722 4.34425 23.8833C4.38037 24 4.33314 24.0583 4.23314 24.0805C4.25537 24.0389 4.25537 23.9944 4.24981 23.9527C4.0887 24 3.8387 23.925 3.8387 23.6472C3.8387 23.3694 4.03037 23.1389 4.3887 23.1916C4.30259 23.15 4.26092 23.0694 4.24981 22.9722C4.3137 23 4.3887 23 4.3887 23C4.34703 22.925 4.28592 22.8611 4.29148 22.7166C4.36092 22.75 4.41926 22.8027 4.50537 22.7694C4.37203 22.5083 4.5387 22.1389 4.95537 22.0527C4.79981 22.2333 4.72481 22.4277 4.72481 22.6194C4.72481 23.2444 4.89981 23.3527 4.89981 23.7889C4.89981 23.9694 4.80259 24.1694 4.62203 24.3027V24.2972C4.74425 24.3305 4.82481 24.3889 4.86925 24.4722C4.58592 24.5527 4.18037 24.5527 3.96092 24.4611C3.71092 24.4333 3.53314 24.2361 3.48037 24.1416C3.42759 24.0444 3.32481 23.6861 3.48037 23.3666C3.64703 23.0194 4.43592 21.3472 4.67759 20.8222C4.73037 20.7111 4.7637 20.5916 4.7637 20.4639C4.7637 20.1444 4.46926 20.0305 4.30537 20.0305C4.10814 20.0305 3.89981 20.1861 3.89981 20.3722C3.89981 20.4944 3.9637 20.5639 4.06092 20.5639C4.28592 20.5639 4.27481 20.3722 4.22759 20.2472C4.36648 20.3111 4.45259 20.4222 4.42481 20.5416C4.50537 20.5527 4.58037 20.5889 4.64981 20.6694C4.59703 20.7389 4.52759 20.7916 4.42481 20.7916C4.46648 20.9777 4.34426 21.0527 4.22759 21.0972C4.2637 20.9639 4.29148 20.8027 4.06092 20.8027C3.8887 20.8027 3.76092 20.775 3.68037 20.6639C3.67481 20.8083 3.6637 21.3861 3.6637 21.3861C3.65259 21.6 3.95259 21.5944 4.14426 21.5305C4.07481 21.7805 3.92481 21.9166 3.58314 21.8777C3.6637 21.9111 3.75537 21.9889 3.75537 22.1389C3.75537 22.3416 3.5887 22.5666 3.48314 22.6305L3.42203 20.5527Z" fill="#FEC50C"/>
<path d="M3.42203 18.928C3.42203 19.4669 3.90814 19.7447 4.2887 19.7447C4.80259 19.7447 5.08037 19.4336 5.08037 19.0336C5.08037 18.803 5.0387 18.6586 4.93037 18.4447C4.93037 18.4447 4.08037 16.6808 3.74981 15.9974C3.70814 15.9113 3.69703 15.8169 3.69703 15.6724C3.69703 15.453 3.91092 15.2724 4.13592 15.2669C4.3387 15.2613 4.5637 15.4586 4.5637 15.678C4.5637 15.9447 4.42481 16.0669 4.28037 16.0669C4.10537 16.0669 4.03314 15.9919 4.03314 15.8697C4.03314 15.7836 4.07481 15.7474 4.13592 15.7474C4.28592 15.7474 4.24148 15.9502 4.24148 15.9502C4.31648 15.9336 4.38037 15.8586 4.34425 15.7641C4.40259 15.753 4.44981 15.7224 4.49426 15.678C4.45259 15.6419 4.40814 15.6086 4.34425 15.5974C4.38037 15.4808 4.33314 15.4224 4.23314 15.4002C4.25537 15.4419 4.25537 15.4863 4.24981 15.528C4.0887 15.4808 3.8387 15.5558 3.8387 15.8336C3.8387 16.1113 4.03037 16.3419 4.3887 16.2891C4.30259 16.3308 4.26092 16.4113 4.24981 16.5086C4.3137 16.4808 4.3887 16.4808 4.3887 16.4808C4.34703 16.5558 4.28592 16.6197 4.29148 16.7641C4.36092 16.7308 4.41926 16.678 4.50537 16.7113C4.37203 16.9724 4.5387 17.3419 4.95537 17.428C4.79981 17.2474 4.72481 17.053 4.72481 16.8613C4.72481 16.2363 4.89981 16.128 4.89981 15.6919C4.89981 15.5113 4.80259 15.3113 4.62203 15.178V15.1836C4.74425 15.1502 4.82481 15.0919 4.86925 15.0086C4.58592 14.928 4.18037 14.928 3.96092 15.0197C3.71092 15.0474 3.53314 15.2447 3.48037 15.3391C3.42759 15.4363 3.32481 15.7947 3.48037 16.1141C3.64703 16.4613 4.43592 18.1336 4.67759 18.6586C4.73037 18.7697 4.7637 18.8891 4.7637 19.0169C4.7637 19.3363 4.46926 19.4502 4.30537 19.4502C4.10814 19.4502 3.89981 19.2947 3.89981 19.1086C3.89981 18.9863 3.9637 18.9169 4.06092 18.9169C4.28592 18.9169 4.27481 19.1086 4.22759 19.2336C4.36648 19.1697 4.45259 19.0586 4.42481 18.9391C4.50537 18.928 4.58037 18.8919 4.64981 18.8113C4.59703 18.7419 4.52759 18.6891 4.42481 18.6891C4.46648 18.503 4.34426 18.428 4.22759 18.3836C4.2637 18.5169 4.29148 18.678 4.06092 18.678C3.8887 18.678 3.76092 18.7058 3.68037 18.8169C3.67481 18.6724 3.6637 18.0947 3.6637 18.0947C3.65259 17.8808 3.95259 17.8863 4.14426 17.9502C4.07481 17.7002 3.92481 17.5641 3.58314 17.603C3.6637 17.5697 3.75537 17.4919 3.75537 17.3419C3.75537 17.1391 3.5887 16.9141 3.48314 16.8502L3.42203 18.928Z" fill="#FEC50C"/>
</g>
<defs>
<clipPath id="clip0">
<rect width="53.3333" height="30" fill="white" transform="translate(0.324219)"/>
</clipPath>
</defs>
</svg>
