<svg width="61" height="30" viewBox="0 0 61 30" fill="none" xmlns="http://www.w3.org/2000/svg">
    <g clip-path="url(#clip0_6_90154)">
        <path d="M60.5986 0H0.598633V30H60.5986V0Z" fill="#006600"/>
        <path d="M60.5986 0H0.598633V21.43H60.5986V0Z" fill="white"/>
        <path d="M60.5986 0H0.598633V8.57H60.5986V0Z" fill="#CC0000"/>
        <path d="M29.3984 14.5998C29.5484 14.3448 29.8734 14.2548 30.1284 14.4048C30.2884 14.4998 30.3884 14.6648 30.3934 14.8498V16.9948H30.7984V14.8498C30.8084 14.5548 31.0534 14.3198 31.3484 14.3298C31.5334 14.3348 31.7034 14.4348 31.7934 14.5948C32.0134 13.9298 31.6534 13.2148 30.9934 12.9948C30.3334 12.7748 29.6134 13.1348 29.3934 13.7948C29.3134 14.0648 29.3134 14.3448 29.3984 14.5998Z"
              fill="#F8C300"/>
        <path d="M29.6836 14.04C30.0436 13.965 30.4136 14.13 30.5986 14.45C30.7836 14.13 31.1486 13.965 31.5136 14.04C31.4436 13.535 30.9786 13.185 30.4736 13.255C30.0636 13.31 29.7436 13.635 29.6836 14.04Z"
              fill="white"/>
        <path d="M30.3986 16.1399C30.3186 17.0349 29.5286 17.6949 28.6286 17.6149C28.2686 17.5799 27.9236 17.4299 27.6586 17.1799C27.3136 18.0499 26.3286 18.4699 25.4586 18.1249C25.3286 18.0749 25.2086 18.0099 25.0986 17.9249C25.2536 19.4849 27.5936 19.1649 27.7686 17.6499C28.5036 18.9399 30.1186 18.5699 30.5936 16.9899L30.3986 16.1399Z"
              fill="#F8C300"/>
        <path d="M30.7985 16.1399C30.8785 17.0349 31.6685 17.6949 32.5685 17.6149C32.9285 17.5799 33.2735 17.4299 33.5385 17.1799C33.8835 18.0499 34.8685 18.4699 35.7385 18.1249C35.8685 18.0749 35.9885 18.0099 36.0985 17.9249C35.9435 19.4849 33.6035 19.1649 33.4285 17.6499C32.6935 18.9399 31.0785 18.5699 30.6035 16.9899L30.7985 16.1399Z"
              fill="#F8C300"/>
        <path d="M28.8342 18.9151C28.5092 19.6201 27.8542 19.7401 27.2842 19.1701C27.2842 19.1701 27.5142 19.0101 27.7592 18.9651C27.7142 18.7701 27.8092 18.5001 27.9392 18.3501C28.0792 18.4451 28.2742 18.6351 28.3242 18.8601C28.6692 18.8151 28.8342 18.9151 28.8342 18.9151Z"
              fill="#F8C300"/>
        <path d="M31.3884 18.8353C30.9534 19.4753 30.2884 19.4903 29.8184 18.8353C29.8184 18.8353 30.0734 18.7103 30.3184 18.7103C30.3034 18.5103 30.4434 18.2553 30.5984 18.1353C30.7184 18.2503 30.8834 18.4703 30.8934 18.7003C31.2434 18.7103 31.3884 18.8353 31.3884 18.8353Z"
              fill="#F8C300"/>
        <path d="M33.924 19.17C33.389 19.735 32.729 19.64 32.374 18.915C32.374 18.915 32.644 18.835 32.889 18.87C32.909 18.67 33.084 18.445 33.259 18.345C33.359 18.48 33.484 18.725 33.459 18.95C33.799 19.025 33.924 19.17 33.924 19.17Z"
              fill="#F8C300"/>
        <path d="M34.6588 20.8151C32.0038 20.0251 29.1937 20.0251 26.5387 20.8151L26.3438 20.1601C29.1288 19.3301 32.0687 19.3301 34.8538 20.1601L34.6588 20.8151Z"
              fill="#F8C300"/>
        <path d="M30.5991 9.21484L31.2291 11.1548L29.5791 9.95484H31.6191L29.9691 11.1548L30.5991 9.21484Z"
              fill="#F8C300"/>
        <path d="M27.5991 10.02L28.2291 11.955L26.5791 10.76H28.6191L26.9691 11.955L27.5991 10.02Z" fill="#F8C300"/>
        <path d="M25.4028 12.2148L26.0328 14.1548L24.3828 12.9548H26.4228L24.7728 14.1548L25.4028 12.2148Z"
              fill="#F8C300"/>
        <path d="M24.5991 15.2148L25.2291 17.1549L23.5791 15.9548H25.6191L23.9691 17.1549L24.5991 15.2148Z"
              fill="#F8C300"/>
        <path d="M33.5991 10.02L32.9691 11.955L34.6191 10.76H32.5791L34.2291 11.955L33.5991 10.02Z" fill="#F8C300"/>
        <path d="M35.7934 12.2148L35.1634 14.1548L36.8134 12.9548H34.7734L36.4234 14.1548L35.7934 12.2148Z"
              fill="#F8C300"/>
        <path d="M36.5991 15.2148L35.9691 17.1549L37.6191 15.9548H35.5791L37.2291 17.1549L36.5991 15.2148Z"
              fill="#F8C300"/>
    </g>
    <defs>
        <clipPath id="clip0_6_90154">
            <rect width="60" height="30" fill="white" transform="translate(0.598633)"/>
        </clipPath>
    </defs>
</svg>
