<svg width="54" height="30" viewBox="0 0 54 30" fill="none" xmlns="http://www.w3.org/2000/svg">
<g clip-path="url(#clip0)">
<path d="M61.5941 -0.316406H0.333008V30.3142H61.5941V-0.316406Z" fill="#CE1720"/>
<path d="M0.674561 -0.316406H7.4801V30.3142H0.674561V-0.316406Z" fill="white"/>
<path d="M4.22734 -0.316406V0.791927H3.92734V-0.316406H4.22734ZM0.402344 1.62526H0.941233V1.18082H1.21345V0.644705H1.59401V0.17526H1.9079V-0.313628H2.85512V0.17526H3.16068V0.644705H3.54123V1.18359H3.81345V1.62526H4.22734V2.31137H3.81345V2.75304H3.54123V3.29193H3.16068V3.76137H2.85512V4.26415H2.63845V4.68637H2.12179V4.26415H1.90512V3.76137H1.59123V3.29193H1.21068V2.75582H0.938455V2.31137H0.402344V1.62526ZM0.402344 -0.083073H0.941233V0.528038H0.402344V-0.083073ZM2.51068 0.711371H2.2329V1.12526H1.96623V1.65026H1.7079V2.29748H1.96623V2.82248H2.2329V3.23082H2.51068V2.82248H2.77734V2.29748H3.04401V1.65304H2.77734V1.12804H2.51068V0.711371ZM2.53845 1.65859V2.27248H2.20512V1.65859H2.53845ZM0.402344 3.26415H0.941233V3.92526H0.402344V3.26415ZM4.22734 3.32526V4.25859H3.92734V3.32526H4.22734ZM3.49123 4.36137V4.82526H3.81901V5.30304H4.22734V5.92804H3.81901V6.41137H3.49123V6.87526H3.11068V6.41137H2.7829V5.92804H2.51068V5.30304H2.7829V4.82526H3.11068V4.36137H3.49123ZM0.402344 5.30026H0.941233V4.82248H1.26901V4.36137H1.63845V4.82526H1.96623V5.30304H2.23845V5.92804H1.96623V6.41137H1.63845V6.87526H1.26623V6.41137H0.938455V5.92804H0.402344V5.30026ZM3.44401 5.31415H3.16623V5.90581H3.44401V5.31415ZM1.59957 5.31415H1.32179V5.90581H1.59957V5.31415ZM1.7079 15.1225V14.803H1.47734V14.3197H1.17179V14.028H0.941233V13.5558H0.402344V12.4669H0.941233V12.7808H1.17179V13.2364H1.47734V13.7808H1.91345V13.2919H2.2329V12.9308H2.46345V12.503H2.76901V12.0475H2.99401V11.5836H3.21068V11.1058H3.50234V10.4669H3.11345V9.88915H2.69401V9.54193H1.98568V10.0447H2.39401V10.5003H2.12179V11.0586H1.80234V11.5475H1.40234V11.0586H1.06901V10.5003H0.863455V10.0447H0.402344V9.18081H0.941233V8.62248H1.14679V8.1947H1.3329V7.70581H1.60512V7.22248H1.87179V6.90304H2.19123V6.41693H2.58012V6.90026H2.89957V7.2197H3.17179V7.70304H3.43845V8.1947H3.65512V8.61693H3.87179V8.98359H4.22457V11.6864H3.82179V12.1419H3.70512V12.6197H3.40512V13.0836H3.22179V13.4253H3.03012V13.7864H2.7079V14.1391H2.23845V15.1253L1.7079 15.1225ZM4.22734 6.86693V7.80026H3.92734V6.86693H4.22734ZM0.402344 7.04193H0.941233V7.70304H0.402344V7.04193ZM0.402344 11.0114H0.941233V11.6725H0.402344V11.0114ZM4.21345 12.6864V13.2864H3.92734V12.6864H4.21345ZM3.81901 15.1225V14.7475H3.64123V14.4558H3.3829V13.578H3.64123V13.9308H3.91345V14.4475H4.21345V15.1141L3.81901 15.1225ZM2.75512 15.1169V14.6808H3.04123V15.1169" fill="#CE1720"/>
<path d="M3.92749 -0.316406V0.791927H4.22749V-0.316406H3.92749ZM7.75249 1.62526H7.2136V1.18082H6.94138V0.644705H6.56082V0.17526H6.24693V-0.313628H5.29971V0.17526H4.99416V0.644705H4.6136V1.18359H4.34138V1.62526H3.92749V2.31137H4.34138V2.75304H4.6136V3.29193H4.99416V3.76137H5.29971V4.26415H5.51638V4.68637H6.02749V4.26415H6.24416V3.76137H6.55805V3.29193H6.9386V2.75582H7.21082V2.31137H7.74971L7.75249 1.62526ZM7.75249 -0.083073H7.2136V0.528038H7.75249V-0.083073ZM5.64138 0.711371H5.91916V1.12526H6.18582V1.65026H6.44416V2.29748H6.18582V2.82248H5.91916V3.23082H5.64138V2.82248H5.37471V2.29748H5.11082V1.65304H5.37749V1.12804H5.64416V0.711371H5.64138ZM5.61638 1.65859V2.27248H5.94971V1.65859H5.61638ZM7.75249 3.26415H7.2136V3.92526H7.75249V3.26415ZM3.92749 3.32526V4.25859H4.22749V3.32526H3.92749ZM4.6636 4.36137V4.82526H4.33582V5.30304H3.92749V5.92804H4.33582V6.41137H4.6636V6.87526H5.04416V6.41137H5.37193V5.92804H5.64416V5.30304H5.37193V4.82526H5.04416V4.36137H4.6636ZM7.75249 5.30026H7.2136V4.82248H6.8886V4.36137H6.5136V4.82526H6.18582V5.30304H5.9136V5.92804H6.18582V6.41137H6.5136V6.87526H6.8886V6.41137H7.21638V5.92804H7.75527L7.75249 5.30026ZM4.71082 5.31415H4.9886V5.90581H4.71082V5.31415ZM6.55527 5.31415H6.83305V5.90581H6.55527V5.31415ZM6.44694 15.1225V14.803H6.67749V14.3197H6.98305V14.028H7.2136V13.5558H7.75249V12.4669H7.2136V12.7808H6.98305V13.2364H6.67749V13.7808H6.24138V13.2919H5.92194V12.9308H5.69138V12.503H5.38582V12.0475H5.16082V11.5836H4.94416V11.1058H4.65249V10.4669H5.04138V9.88915H5.4636V9.54193H6.16638V10.0447H5.75805V10.5003H6.03027V11.0586H6.34971V11.5475H6.75249V11.0586H7.08582V10.5003H7.29138V10.0447H7.75527V9.18081H7.21638V8.62248H7.01082V8.1947H6.81916V7.70581H6.54694V7.22248H6.28027V6.90304H5.96082V6.41693H5.57194V6.90026H5.25249V7.2197H4.98027V7.70304H4.7136V8.1947H4.49971V8.61693H4.28305V8.98359H3.93027V11.6864H4.33305V12.1419H4.44971V12.6197H4.74971V13.0836H4.93305V13.4253H5.12471V13.7864H5.44416V14.1391H5.9136V15.1253L6.44694 15.1225ZM3.92749 6.86693V7.80026H4.22749V6.86693H3.92749ZM7.75249 7.04193H7.2136V7.70304H7.75249V7.04193ZM7.75249 11.0114H7.2136V11.6725H7.75249V11.0114ZM3.94138 12.6864V13.2864H4.22749V12.6864H3.94138ZM4.33582 15.1225V14.7475H4.5136V14.4558H4.77194V13.578H4.5136V13.9308H4.24138V14.4475H3.94138V15.1141L4.33582 15.1225ZM5.39694 15.1169V14.6808H5.11082V15.1169" fill="#CE1720"/>
<path d="M4.22734 30.3157V29.2074H3.92734V30.3157H4.22734ZM0.402344 28.374H0.941233V28.8157H1.21345V29.3546H1.59401V29.824H1.9079V30.3129H2.85512V29.824H3.16068V29.3546H3.54123V28.8157H3.81345V28.374H4.22734V27.6851H3.81345V27.2435H3.54123V26.7046H3.16068V26.2351H2.85512V25.7324H2.63845V25.3101H2.12179V25.7324H1.90512V26.2351H1.59123V26.7046H1.21068V27.2435H0.938455V27.6851H0.402344V28.374ZM0.402344 30.0824H0.941233V29.4713H0.402344V30.0824ZM2.51068 29.2879H2.2329V28.874H1.96623V28.349H1.7079V27.7018H1.96623V27.1768H2.2329V26.7685H2.51068V27.1768H2.77734V27.7018H3.04401V28.349H2.77734V28.874H2.51068V29.2879ZM2.53845 28.3407V27.7268H2.20512V28.3407H2.53845ZM0.402344 26.7351H0.941233V26.074H0.402344V26.7351ZM4.22734 26.674V25.7407H3.92734V26.674H4.22734ZM3.49123 25.6379V25.174H3.81901V24.6962H4.22734V24.0712H3.81901V23.5879H3.49123V23.124H3.11068V23.5879H2.7829V24.0712H2.51068V24.6962H2.7829V25.174H3.11068V25.6379H3.49123ZM0.402344 24.699H0.941233V25.1768H1.26901V25.6379H1.63845V25.174H1.96623V24.6962H2.23845V24.0712H1.96623V23.5879H1.63845V23.124H1.26623V23.5879H0.938455V24.0712H0.402344V24.699ZM3.44401 24.6851H3.16623V24.0935H3.44401V24.6851ZM1.59957 24.6851H1.32179V24.0935H1.59957V24.6851ZM1.7079 14.8768V15.1962H1.47734V15.6796H1.17179V15.9712H0.941233V16.4435H0.402344V17.5324H0.941233V17.2185H1.17179V16.7629H1.47734V16.2185H1.91345V16.7074H2.2329V17.0685H2.46345V17.4962H2.76901V17.9518H2.99401V18.4157H3.21068V18.8935H3.50234V19.5324H3.11345V20.1101H2.69401V20.4574H1.98568V19.9546H2.39401V19.499H2.12179V18.9407H1.80234V18.4518H1.40234V18.9407H1.06901V19.499H0.863455V19.9546H0.402344V20.8185H0.941233V21.3768H1.14679V21.8046H1.3329V22.2935H1.60512V22.7768H1.87179V23.0962H2.19123V23.5824H2.58012V23.099H2.89957V22.7796H3.17179V22.2962H3.43845V21.8046H3.65512V21.3824H3.87179V21.0157H4.22457V18.3129H3.82179V17.8574H3.70512V17.3796H3.40512V16.9157H3.22179V16.574H3.03012V16.2129H2.7079V15.8601H2.23845V14.874L1.7079 14.8768ZM4.22734 23.1324V22.199H3.92734V23.1324H4.22734ZM0.402344 22.9574H0.941233V22.2962H0.402344V22.9574ZM0.402344 18.9879H0.941233V18.3268H0.402344V18.9879ZM4.21345 17.3129V16.7129H3.92734V17.3129H4.21345ZM3.81901 14.8768V15.2518H3.64123V15.5435H3.3829V16.4212H3.64123V16.0685H3.91345V15.5518H4.21345V14.8851L3.81901 14.8768ZM2.75512 14.8824V15.3185H3.04123V14.8824" fill="#CE1720"/>
<path d="M3.92749 30.3157V29.2074H4.22749V30.3157H3.92749ZM7.75249 28.374H7.2136V28.8157H6.94138V29.3546H6.56082V29.824H6.24693V30.3129H5.29971V29.824H4.99416V29.3546H4.6136V28.8157H4.34138V28.374H3.92749V27.6851H4.34138V27.2435H4.6136V26.7046H4.99416V26.2351H5.29971V25.7324H5.51638V25.3101H6.02749V25.7324H6.24416V26.2351H6.55805V26.7046H6.9386V27.2435H7.21082V27.6851H7.74971L7.75249 28.374ZM7.75249 30.0824H7.2136V29.4713H7.75249V30.0824ZM5.64138 29.2879H5.91916V28.874H6.18582V28.349H6.44416V27.7018H6.18582V27.1768H5.91916V26.7685H5.64138V27.1768H5.37471V27.7018H5.11082V28.349H5.37749V28.874H5.64416V29.2879H5.64138ZM5.61638 28.3407V27.7268H5.94971V28.3407H5.61638ZM7.75249 26.7351H7.2136V26.074H7.75249V26.7351ZM3.92749 26.674V25.7407H4.22749V26.674H3.92749ZM4.6636 25.6379V25.174H4.33582V24.6962H3.92749V24.0712H4.33582V23.5879H4.6636V23.124H5.04416V23.5879H5.37193V24.0712H5.64416V24.6962H5.37193V25.174H5.04416V25.6379H4.6636ZM7.75249 24.699H7.2136V25.1768H6.8886V25.6379H6.5136V25.174H6.18582V24.6962H5.9136V24.0712H6.18582V23.5879H6.5136V23.124H6.8886V23.5879H7.21638V24.0712H7.75527L7.75249 24.699ZM4.71082 24.6851H4.9886V24.0935H4.71082V24.6851ZM6.55527 24.6851H6.83305V24.0935H6.55527V24.6851ZM6.44694 14.8768V15.1962H6.67749V15.6796H6.98305V15.9712H7.2136V16.4435H7.75249V17.5324H7.2136V17.2185H6.98305V16.7629H6.67749V16.2185H6.24138V16.7074H5.92194V17.0685H5.69138V17.4962H5.38582V17.9518H5.16082V18.4157H4.94416V18.8935H4.65249V19.5324H5.04138V20.1101H5.4636V20.4574H6.16638V19.9546H5.75805V19.499H6.03027V18.9407H6.34971V18.4518H6.75249V18.9407H7.08582V19.499H7.29138V19.9546H7.75527V20.8185H7.21638V21.3768H7.01082V21.8046H6.81916V22.2935H6.54694V22.7768H6.28027V23.0962H5.96082V23.5824H5.57194V23.099H5.25249V22.7796H4.98027V22.2962H4.7136V21.8046H4.49971V21.3824H4.28305V21.0157H3.93027V18.3129H4.33305V17.8574H4.44971V17.3796H4.74971V16.9157H4.93305V16.574H5.12471V16.2129H5.44416V15.8601H5.9136V14.874L6.44694 14.8768ZM3.92749 23.1324V22.199H4.22749V23.1324H3.92749ZM7.75249 22.9574H7.2136V22.2962H7.75249V22.9574ZM7.75249 18.9879H7.2136V18.3268H7.75249V18.9879ZM3.94138 17.3129V16.7129H4.22749V17.3129H3.94138ZM4.33582 14.8768V15.2518H4.5136V15.5435H4.77194V16.4212H4.5136V16.0685H4.24138V15.5518H3.94138V14.8851L4.33582 14.8768ZM5.39694 14.8824V15.3185H5.11082V14.8824" fill="#CE1720"/>
<path d="M7.48047 20.1055H61.5943V30.3166H7.48047V20.1055Z" fill="#007C30"/>
</g>
<defs>
<clipPath id="clip0">
<rect width="53.3333" height="30" fill="white" transform="translate(0.333008)"/>
</clipPath>
</defs>
</svg>
