<svg width="54" height="30" viewBox="0 0 54 30" fill="none" xmlns="http://www.w3.org/2000/svg">
    <g clip-path="url(#clip0_6_92711)">
        <path d="M0.655273 0H53.9886V30H0.655273V0Z" fill="#FF0000"/>
        <path d="M25.0661 12.9636C24.5077 12.6164 23.9133 12.3275 23.305 12.0914C22.78 12.8691 22.4744 13.8025 22.4744 14.808C22.4744 15.308 22.5494 15.7914 22.6938 16.2469C22.9466 15.6636 23.2688 15.0941 23.6605 14.5525C24.0744 13.9636 24.5494 13.4303 25.0661 12.9636ZM23.5744 11.7358C24.2355 11.9636 24.8688 12.2608 25.48 12.608C25.6161 12.4886 25.7605 12.3886 25.8938 12.2858C25.2494 11.9303 24.5633 11.6414 23.8605 11.4219C23.7605 11.5247 23.6605 11.6247 23.5744 11.7358ZM24.1688 11.133C24.93 11.3358 25.6577 11.6164 26.3438 11.9803C26.505 11.8775 26.6661 11.7858 26.8188 11.6914C26.0911 11.3191 25.3188 11.0469 24.5244 10.8525C24.3966 10.9386 24.2772 11.033 24.1688 11.133ZM24.8883 10.6275C25.7272 10.7969 26.5383 11.0691 27.3022 11.4414C28.0716 11.0691 28.8855 10.7969 29.7161 10.6275C29.0133 10.2136 28.1827 9.9747 27.3022 9.9747C26.4188 9.9747 25.5994 10.2108 24.8883 10.6275ZM30.0772 10.8636C29.28 11.0497 28.5105 11.3303 27.7827 11.6941C27.9438 11.7886 28.0966 11.8803 28.2577 11.983C28.9522 11.6191 29.68 11.3386 30.4327 11.1358C30.3244 11.033 30.205 10.9386 30.0772 10.8636ZM30.7383 11.4303C30.0355 11.6414 29.3577 11.9303 28.705 12.2858C28.8494 12.3886 28.9938 12.4969 29.1272 12.608C29.7272 12.2608 30.3633 11.9636 31.0244 11.7358C30.9411 11.6247 30.8494 11.5247 30.7383 11.4303ZM31.2966 12.0997C30.6883 12.3275 30.1022 12.6164 29.5438 12.9636C30.0605 13.4303 30.5272 13.9636 30.9494 14.5553C31.33 15.0969 31.6522 15.6636 31.9161 16.2497C32.0522 15.783 32.1272 15.3108 32.1272 14.8108C32.1272 13.8025 31.8216 12.8691 31.2966 12.0997ZM30.8827 15.4191C30.3744 14.5969 29.7661 13.8691 29.0883 13.2525C28.9355 13.3636 28.7744 13.4719 28.63 13.583C29.7744 14.6497 30.6966 15.9886 31.28 17.5469C31.4161 17.3441 31.5411 17.133 31.6438 16.9191C31.4327 16.4108 31.1772 15.9108 30.8827 15.4191ZM28.1966 13.2164C28.3494 13.1053 28.5022 12.9969 28.6633 12.8941C28.5272 12.7747 28.3827 12.6664 28.2411 12.5553C28.08 12.658 27.9188 12.758 27.7577 12.8691H27.7661C27.9105 12.9803 28.055 13.0997 28.1966 13.2164ZM27.2994 12.5386C27.4605 12.4358 27.63 12.3358 27.7827 12.2414C27.6216 12.1386 27.4605 12.0386 27.2994 11.9441C27.1383 12.0386 26.9855 12.1386 26.8244 12.2414C26.9883 12.3358 27.1383 12.4386 27.2994 12.5386ZM26.8438 12.8691C26.6827 12.758 26.53 12.658 26.3688 12.5553C26.2244 12.6664 26.08 12.7747 25.9383 12.8858C26.0994 12.9969 26.2522 13.0969 26.405 13.208C26.5466 13.0914 26.6911 12.9803 26.8438 12.8691ZM27.2994 13.208C27.155 13.3191 27.0105 13.4358 26.8577 13.5636C27.0105 13.683 27.155 13.808 27.2994 13.9358C27.4438 13.808 27.5883 13.683 27.7411 13.5636C27.5966 13.4469 27.4522 13.3191 27.2994 13.208ZM27.2994 14.7914C26.655 15.4858 26.0883 16.2803 25.63 17.1719C25.3161 17.7636 25.0716 18.383 24.8855 18.9997C25.5966 19.3969 26.4188 19.6358 27.2994 19.6358C28.18 19.6358 29.0022 19.3997 29.7133 18.9997C29.5272 18.3803 29.2827 17.7636 28.9688 17.1719C28.5105 16.283 27.9522 15.4858 27.2994 14.7914ZM24.505 18.0025C25.055 16.5969 25.8688 15.3691 26.8661 14.3525C26.7216 14.2164 26.5772 14.0914 26.4244 13.9553C25.2633 15.0803 24.3327 16.4775 23.7661 18.0969C23.9272 18.2747 24.0966 18.4358 24.2827 18.5886C24.355 18.3914 24.43 18.1969 24.505 18.0025ZM27.7327 14.3525C28.7327 15.3691 29.5438 16.5969 30.105 18.0025C30.18 18.1969 30.2494 18.3914 30.3161 18.5858C30.5022 18.433 30.68 18.2719 30.8411 18.0941C30.2661 16.4775 29.3327 15.0803 28.1744 13.9525C28.0188 14.0886 27.8772 14.2164 27.7327 14.3525ZM23.3216 17.5441C23.905 15.9858 24.83 14.658 25.98 13.5886C25.8272 13.4691 25.6744 13.3608 25.5133 13.2497C24.8355 13.8775 24.2272 14.6053 23.7188 15.4247C23.4216 15.908 23.1688 16.408 22.9577 16.9136C23.0577 17.1386 23.1855 17.3414 23.3216 17.5441ZM27.3272 9.58581C30.3077 9.58581 32.7383 12.0164 32.7383 14.9969C32.7383 17.9775 30.3077 20.408 27.3272 20.408C24.3466 20.408 21.9161 17.9775 21.9161 14.9969C21.9161 12.0164 24.3466 9.58581 27.3272 9.58581ZM29.7133 8.3997C29.5605 8.57747 29.3911 8.80525 29.2216 9.16914C29.18 9.0747 29.18 8.96636 29.205 8.84692C29.2466 8.45803 29.3577 8.21914 29.5605 7.89136C29.6272 7.77192 29.6966 7.67192 29.73 7.54414C29.8577 7.16359 29.8327 6.65525 29.5522 6.25803C29.5938 6.70803 29.4577 7.08025 29.3077 7.30803C29.2827 7.3497 29.2577 7.3747 29.2244 7.41081C29.0633 7.57192 28.8855 7.73303 28.6577 8.10525C28.53 8.30803 28.405 8.55525 28.2855 8.94414C28.2355 8.86081 28.2188 8.75803 28.2272 8.63859C28.2105 8.24136 28.2772 7.99414 28.4216 7.63025C28.4716 7.50247 28.5244 7.39414 28.5411 7.25803C28.5994 6.86914 28.4994 6.36914 28.1605 6.02192C28.2716 6.45247 28.2022 6.84414 28.0855 7.09692C28.0605 7.13858 28.0438 7.17192 28.0188 7.20803C27.8827 7.39414 27.7383 7.58025 27.5605 7.97747C27.4772 8.20525 27.3827 8.46914 27.3327 8.86636C27.2661 8.79136 27.23 8.68859 27.2216 8.56914C27.1466 8.18025 27.1716 7.9247 27.255 7.54414C27.2883 7.41636 27.3216 7.2997 27.3133 7.16358C27.3133 6.76636 27.1355 6.29136 26.7466 5.99414C26.9244 6.40803 26.9161 6.80803 26.8411 7.07747C26.8244 7.11081 26.8077 7.15247 26.7911 7.18858C26.6883 7.3997 26.5716 7.60247 26.4605 8.02747C26.4105 8.26359 26.3577 8.54414 26.3661 8.94136C26.2994 8.8747 26.2466 8.78025 26.2133 8.66914C26.0772 8.28859 26.0605 8.04136 26.0938 7.64414C26.1022 7.50803 26.1105 7.39136 26.0938 7.26358C26.0272 6.86636 25.7716 6.4247 25.3494 6.19692C25.5855 6.57747 25.6383 6.9747 25.6022 7.24692C25.5938 7.28858 25.5855 7.33025 25.5772 7.3747C25.5105 7.59414 25.4244 7.81636 25.3827 8.25525C25.3661 8.49136 25.3577 8.77192 25.4327 9.16914C25.3494 9.11081 25.2883 9.0247 25.2383 8.9247C25.0438 8.56914 24.9938 8.3247 24.9577 7.93303C24.9494 7.79692 24.9411 7.68025 24.8911 7.55247C24.7716 7.17192 24.4494 6.7747 23.9938 6.62192C24.2855 6.95247 24.405 7.33303 24.405 7.61081C24.405 7.65247 24.405 7.69414 24.3966 7.73859C24.3633 7.96636 24.3216 8.20525 24.3466 8.63581C24.3716 8.87192 24.405 9.15247 24.5411 9.53303C24.4466 9.49136 24.3716 9.41359 24.305 9.32192C24.0605 9.00803 23.9744 8.77192 23.8827 8.39136C23.8494 8.25525 23.8244 8.14692 23.755 8.01914C23.5772 7.67192 23.1966 7.3247 22.7216 7.24136C23.0605 7.53025 23.2383 7.89414 23.2883 8.16358C23.2966 8.20525 23.2966 8.24692 23.2966 8.29136C23.305 8.51914 23.2966 8.75803 23.3911 9.18858C23.4494 9.41636 23.5272 9.68858 23.7216 10.0358C23.6272 10.0108 23.5438 9.95247 23.4605 9.86636C23.1633 9.59414 23.0383 9.3747 22.8938 9.01081C22.8438 8.88303 22.7911 8.7747 22.7161 8.66358C22.48 8.3497 22.055 8.07192 21.5633 8.06358C21.9522 8.29136 22.1827 8.61359 22.2744 8.87747C22.2827 8.91914 22.2911 8.96081 22.2994 9.00525C22.3411 9.23303 22.3661 9.47192 22.5272 9.87747C22.6216 10.0969 22.7466 10.3525 22.9938 10.6636C22.8911 10.6553 22.7994 10.6053 22.705 10.5358C22.3744 10.3164 22.2133 10.1136 22.0022 9.78303C21.9355 9.66359 21.8744 9.56358 21.7744 9.46914C21.4938 9.18858 21.03 8.97747 20.5466 9.04692C20.9605 9.21636 21.2411 9.50525 21.3772 9.7497C21.3938 9.78303 21.4105 9.8247 21.4272 9.86914C21.5022 10.0803 21.5633 10.3108 21.7827 10.6914C21.9105 10.8941 22.0716 11.1219 22.3661 11.4025C22.2633 11.4025 22.1633 11.3691 22.0605 11.3191C21.6966 11.1497 21.5105 10.9803 21.255 10.683C21.1605 10.5803 21.0855 10.4886 20.9744 10.4025C20.6522 10.1747 20.1605 10.0386 19.6966 10.183C20.1383 10.2858 20.4577 10.5219 20.6188 10.7414C20.6522 10.7747 20.6688 10.808 20.6855 10.8525C20.7966 11.0553 20.8966 11.2747 21.1772 11.6053C21.33 11.7914 21.5244 11.9941 21.855 12.2247C21.7605 12.2414 21.6605 12.2247 21.5411 12.183C21.1605 12.0803 20.9494 11.9386 20.6522 11.683C20.5494 11.5997 20.4577 11.5219 20.3383 11.4553C19.9827 11.2775 19.4744 11.2275 19.0355 11.4386C19.4855 11.4636 19.8411 11.658 20.0438 11.8441C20.0688 11.8775 20.0938 11.9025 20.1188 11.9469C20.2633 12.1247 20.3911 12.3275 20.7188 12.6164C20.8966 12.7691 21.1244 12.9386 21.4883 13.1164C21.3938 13.1497 21.2855 13.1497 21.1744 13.1247C20.7772 13.083 20.5466 12.9719 20.2077 12.7691C20.0883 12.7025 19.9883 12.633 19.8605 12.5997C19.48 12.4719 18.98 12.4969 18.5827 12.7775C19.0244 12.7358 19.405 12.8719 19.6327 13.0219C19.6661 13.0469 19.6994 13.0719 19.7272 13.1053C19.8966 13.2664 20.0577 13.4441 20.4216 13.6719C20.6244 13.7997 20.88 13.933 21.2605 14.0441C21.1772 14.0941 21.0744 14.1108 20.955 14.1108C20.5577 14.1191 20.3105 14.0525 19.9466 13.908C19.8188 13.858 19.7105 13.8053 19.5744 13.7886C19.1855 13.7303 18.6855 13.8303 18.3383 14.1691C18.7688 14.058 19.1688 14.1275 19.4133 14.2441C19.455 14.2691 19.4883 14.2858 19.5244 14.3108C19.7105 14.4469 19.8966 14.5914 20.3022 14.7691C20.5216 14.8525 20.7855 14.9469 21.1827 14.9969C21.1077 15.0636 21.005 15.0997 20.8938 15.108C20.4966 15.1914 20.2494 15.158 19.8605 15.0747C19.7327 15.0414 19.6161 15.0164 19.48 15.0164C19.0827 15.0164 18.6077 15.1941 18.3188 15.583C18.7244 15.4053 19.1244 15.4136 19.3938 15.4886C19.4355 15.5053 19.4688 15.5219 19.5133 15.5386C19.7161 15.6414 19.9272 15.758 20.3522 15.8691C20.58 15.9191 20.8605 15.9719 21.2577 15.9636C21.1911 16.0303 21.0966 16.083 20.9855 16.1164C20.6133 16.2525 20.3577 16.2691 19.9688 16.2358C19.8327 16.2275 19.7161 16.2191 19.58 16.2358C19.1911 16.3025 18.7494 16.558 18.5216 16.9886C18.8938 16.7441 19.2911 16.6914 19.5716 16.7275C19.6133 16.7358 19.6466 16.7441 19.6911 16.7525C19.9105 16.8275 20.1327 16.9053 20.5716 16.9469C20.8077 16.9636 21.0883 16.9719 21.4855 16.8969C21.4272 16.9803 21.3411 17.0414 21.2411 17.0914C20.8938 17.2858 20.6411 17.3358 20.2494 17.3719C20.1133 17.3886 19.9966 17.3969 19.8688 17.4386C19.4883 17.558 19.0994 17.8803 18.9383 18.3358C19.2772 18.0386 19.6577 17.9303 19.9383 17.9219C19.98 17.9219 20.0216 17.9219 20.0661 17.9303C20.2855 17.9636 20.5244 18.0053 20.9633 17.9803C21.1994 17.9636 21.48 17.9219 21.8522 17.7858C21.8188 17.8803 21.7411 17.9553 21.6411 18.0219C21.3272 18.2664 21.0911 18.3525 20.7105 18.4441C20.5827 18.4775 20.4661 18.5025 20.3466 18.5719C19.9911 18.7497 19.6522 19.1303 19.5688 19.6053C19.8494 19.2664 20.2133 19.0886 20.4827 19.0386C20.5244 19.0303 20.5661 19.0303 20.6105 19.0303C20.8383 19.0219 21.0855 19.0303 21.5077 18.9358C21.7355 18.8775 22.0077 18.7997 22.3633 18.6053C22.3383 18.6997 22.2688 18.7914 22.1855 18.8664C21.9133 19.1636 21.6938 19.2886 21.33 19.433C21.2105 19.4914 21.1022 19.5358 20.9911 19.6108C20.6688 19.8469 20.3911 20.2719 20.3827 20.7636C20.6105 20.3747 20.9411 20.1441 21.205 20.0525C21.2466 20.0441 21.28 20.0358 21.3244 20.0275C21.5522 19.9858 21.7911 19.9608 22.1966 19.7997C22.4161 19.7053 22.6716 19.5803 22.9938 19.3414C22.9772 19.4358 22.9355 19.5275 22.8577 19.6219C22.6383 19.9525 22.4438 20.1136 22.105 20.3247C21.9938 20.3914 21.8938 20.4525 21.7911 20.5525C21.5105 20.833 21.3077 21.2969 21.3772 21.7803C21.5383 21.3664 21.8272 21.0858 22.0716 20.9497C22.1133 20.933 22.1466 20.9164 22.1911 20.8997C22.4105 20.833 22.6411 20.7636 23.0133 20.5441C23.2161 20.4164 23.4438 20.2553 23.7244 19.9608C23.7327 20.0636 23.6994 20.1636 23.6411 20.2664C23.4716 20.6303 23.3022 20.8164 23.005 21.0719C22.9022 21.1664 22.8105 21.2414 22.7327 21.3525C22.505 21.6747 22.3688 22.1664 22.5133 22.6303C22.6077 22.1886 22.8438 21.8691 23.0716 21.708C23.105 21.683 23.1383 21.658 23.1744 21.6414C23.3772 21.5303 23.5966 21.4303 23.9355 21.1497C24.1133 20.9969 24.3161 20.8025 24.5438 20.4719C24.5605 20.5664 24.5438 20.6747 24.5105 20.7858C24.3994 21.1664 24.2661 21.3775 24.0022 21.6747C23.9188 21.7775 23.8411 21.8691 23.7827 21.9969C23.605 22.3525 23.5466 22.8525 23.7577 23.2914C23.7911 22.8414 23.9772 22.4858 24.1716 22.2914C24.1966 22.258 24.23 22.233 24.2661 22.208C24.4522 22.0636 24.6466 21.9358 24.9355 21.608C25.0883 21.4303 25.2577 21.2025 25.4355 20.8386C25.4688 20.933 25.4688 21.0414 25.4522 21.1525C25.4022 21.5497 25.2994 21.7803 25.0966 22.1191C25.0216 22.2386 24.9605 22.3386 24.9188 22.4664C24.7994 22.8469 24.8244 23.3553 25.105 23.7525C25.0633 23.3025 25.1883 22.9219 25.3494 22.6941C25.3744 22.6608 25.3994 22.6275 25.4244 22.5997C25.5855 22.4303 25.7633 22.2691 25.9994 21.9053C26.1188 21.7025 26.2522 21.4469 26.3633 21.0664C26.4133 21.1497 26.43 21.2525 26.43 21.3719C26.4466 21.7691 26.38 22.0164 26.2272 22.3803C26.1772 22.508 26.1327 22.6164 26.1077 22.7525C26.0494 23.1414 26.1494 23.6414 26.4883 23.9886C26.3772 23.558 26.4466 23.158 26.5716 22.9136C26.5883 22.8719 26.605 22.8386 26.63 22.8025C26.7661 22.6164 26.9188 22.4303 27.0883 22.0247C27.1827 21.8053 27.2744 21.5414 27.3244 21.1441C27.3827 21.2191 27.4188 21.3219 27.4355 21.433C27.5105 21.8303 27.4855 22.0775 27.3938 22.4664C27.3605 22.5941 27.3355 22.7108 27.3355 22.8469C27.3355 23.2441 27.5216 23.7191 27.9105 24.008C27.7327 23.6025 27.7327 23.2025 27.8161 22.933C27.8244 22.8914 27.8411 22.858 27.8577 22.8136C27.9605 22.6108 28.0772 22.3997 28.1883 21.9747C28.2383 21.7469 28.2911 21.4664 28.2827 21.0691C28.3577 21.1358 28.4022 21.2303 28.4355 21.3414C28.58 21.7136 28.5883 21.9691 28.5633 22.3664C28.5466 22.4941 28.5383 22.6108 28.5633 22.7469C28.6216 23.1441 28.8772 23.5858 29.3077 23.8136C29.0716 23.433 29.0105 23.0358 29.055 22.7636C29.055 22.7219 29.0633 22.6803 29.08 22.6358C29.1466 22.4164 29.2327 22.1941 29.2744 21.7553C29.2827 21.5191 29.2911 21.2386 29.2244 20.8414C29.2994 20.8997 29.3688 20.9858 29.4188 21.0858C29.6133 21.433 29.6633 21.6858 29.6994 22.0775C29.7077 22.2136 29.7161 22.3303 29.7577 22.458C29.8855 22.8386 30.1994 23.2275 30.6633 23.3886C30.3661 23.0497 30.2494 22.6691 30.2411 22.3886C30.2411 22.3469 30.2411 22.3053 30.2494 22.2608C30.2827 22.0414 30.3327 21.8025 30.2994 21.3636C30.2827 21.1275 30.2411 20.8469 30.1133 20.4747C30.1966 20.5164 30.2744 20.5858 30.3411 20.6858C30.5855 20.9997 30.68 21.2358 30.7716 21.6164C30.7966 21.7441 30.83 21.8608 30.8911 21.9803C31.0772 22.3358 31.4494 22.6747 31.9327 22.758C31.5855 22.4775 31.4077 22.1136 31.3577 21.8441C31.3494 21.8025 31.3494 21.7608 31.3494 21.7164C31.3494 21.4886 31.3577 21.2497 31.2661 20.8191C31.2077 20.5914 31.1216 20.3191 30.9272 19.9636C31.03 19.9886 31.1133 20.058 31.1883 20.1414C31.4855 20.4136 31.6105 20.633 31.7633 20.9969C31.8133 21.1164 31.8577 21.2247 31.9411 21.3358C32.1772 21.658 32.6022 21.9358 33.0855 21.9441C32.705 21.7164 32.4772 21.3858 32.3827 21.1219C32.3661 21.0803 32.3577 21.0469 32.3494 21.0025C32.3161 20.7747 32.2827 20.5358 32.1216 20.1303C32.0272 19.9108 31.9105 19.6553 31.6633 19.3441C31.7661 19.3525 31.8577 19.3941 31.9522 19.4719C32.2827 19.6914 32.4438 19.8858 32.6466 20.2247C32.7133 20.3358 32.7827 20.4441 32.8744 20.5386C33.155 20.8191 33.6188 21.0219 34.1022 20.9525C33.6883 20.7914 33.4077 20.5025 33.28 20.258C33.255 20.2164 33.2383 20.183 33.23 20.1386C33.155 19.9191 33.0855 19.6886 32.8661 19.3164C32.7383 19.1136 32.5772 18.8858 32.2911 18.6053C32.3855 18.6053 32.4855 18.6303 32.5966 18.6886C32.9522 18.858 33.1466 19.0275 33.4022 19.3247C33.4855 19.4275 33.5633 19.5191 33.6744 19.5969C33.9966 19.833 34.4883 19.9608 34.9522 19.8247C34.5216 19.7219 34.1994 19.4858 34.03 19.258C34.005 19.2247 33.98 19.1914 33.9633 19.1553C33.8522 18.9525 33.7605 18.733 33.48 18.3941C33.3188 18.2164 33.1244 18.0136 32.7938 17.7858C32.8966 17.7691 32.9966 17.7858 33.1077 17.8191C33.4883 17.9303 33.6994 18.0719 34.005 18.3275C34.1077 18.4108 34.1994 18.4886 34.3188 18.5469C34.6744 18.7247 35.1744 18.783 35.6133 18.5719C35.1633 18.5386 34.8161 18.3525 34.6133 18.158C34.58 18.133 34.555 18.0997 34.53 18.0636C34.3938 17.8775 34.2577 17.683 33.9383 17.3941C33.7522 17.2414 33.5244 17.0719 33.1688 16.8941C33.2633 16.8608 33.3633 16.8608 33.4827 16.8775C33.8716 16.9275 34.1105 17.0303 34.4383 17.2414C34.5577 17.308 34.6577 17.3691 34.7855 17.4108C35.1661 17.5303 35.6744 17.5053 36.0716 17.2247C35.6216 17.2664 35.2494 17.1414 35.0216 16.9803C34.9883 16.9553 34.955 16.9303 34.9188 16.9053C34.7577 16.7441 34.5966 16.5664 34.2244 16.3303C34.0216 16.2108 33.7744 16.0775 33.3855 15.9664C33.4688 15.9164 33.58 15.8997 33.6911 15.8997C34.0966 15.883 34.3438 15.9497 34.6994 16.1025C34.8272 16.1525 34.9355 16.1969 35.0716 16.2219C35.4605 16.2803 35.9605 16.1803 36.3077 15.8414C35.8772 15.9525 35.4855 15.883 35.2327 15.758C35.1994 15.7414 35.1577 15.7247 35.1216 15.6997C34.9355 15.5636 34.7494 15.4191 34.3522 15.2414C34.1327 15.158 33.8605 15.0636 33.4633 15.0053C33.5383 14.9469 33.6411 14.9108 33.7605 14.8941C34.1494 14.8191 34.405 14.8441 34.7855 14.9358C34.9133 14.9691 35.03 14.9941 35.1661 14.9941C35.5633 14.9941 36.0383 14.808 36.3355 14.4275C35.9216 14.5969 35.5216 14.5969 35.2605 14.5108C35.2188 14.5025 35.1772 14.4858 35.1411 14.4691C34.93 14.3664 34.7272 14.2497 34.3022 14.1386C34.0661 14.0886 33.7938 14.0358 33.3883 14.0441C33.455 13.9691 33.5494 13.9247 33.6605 13.8914C34.0411 13.7469 34.2966 13.7386 34.6855 13.7636C34.8216 13.7803 34.9383 13.7886 35.0744 13.7636C35.4633 13.7053 35.905 13.4497 36.1327 13.0191C35.7522 13.2553 35.3633 13.3164 35.0827 13.2803C35.0411 13.2719 34.9994 13.2636 34.955 13.2469C34.7355 13.1803 34.5133 13.0941 34.0827 13.0525C33.8466 13.0441 33.5577 13.0358 33.1688 13.1108C33.2188 13.0275 33.305 12.958 33.4133 12.908C33.7605 12.7136 34.005 12.6636 34.3966 12.6275C34.5327 12.6191 34.6494 12.6108 34.7772 12.5691C35.1577 12.4414 35.555 12.1275 35.7077 11.6636C35.3772 11.9608 34.9966 12.0775 34.7161 12.0858C34.6744 12.0858 34.6327 12.0858 34.5883 12.0775C34.3605 12.0441 34.1216 11.9941 33.6911 12.0275C33.455 12.0441 33.1744 12.0858 32.7938 12.2219C32.8355 12.1275 32.9133 12.0525 33.005 11.9858C33.3188 11.7414 33.555 11.6469 33.9355 11.5553C34.0716 11.5303 34.18 11.4969 34.3077 11.4358C34.655 11.2497 35.0022 10.8775 35.0855 10.3941C34.7966 10.7414 34.4411 10.9191 34.1633 10.9691C34.1216 10.9775 34.08 10.9775 34.0355 10.9775C33.8077 10.9775 33.5688 10.9691 33.1466 11.0608C32.9105 11.1191 32.6383 11.2053 32.2911 11.3997C32.3161 11.2969 32.3744 11.2136 32.4605 11.1386C32.7327 10.8414 32.9522 10.7164 33.3161 10.5636C33.4438 10.5136 33.5522 10.4691 33.6633 10.3858C33.9772 10.1497 34.255 9.7247 34.2633 9.24136C34.0355 9.62192 33.7133 9.8497 33.4494 9.94414C33.4077 9.96081 33.3661 9.96914 33.3216 9.97747C33.0938 10.0191 32.855 10.0441 32.4494 10.2053C32.2383 10.2997 31.9827 10.4164 31.6633 10.6636C31.6716 10.5691 31.7216 10.4691 31.7911 10.3747C32.0105 10.0441 32.2133 9.88303 32.5438 9.68025C32.6633 9.61358 32.7633 9.54414 32.8577 9.45247C33.1383 9.17192 33.3494 8.70803 33.28 8.2247C33.1105 8.63859 32.8216 8.91914 32.5772 9.05525C32.5438 9.07192 32.5022 9.08858 32.4661 9.09692C32.2466 9.17192 32.0161 9.24136 31.6355 9.46081C31.4327 9.58859 31.205 9.7497 30.9244 10.0358C30.9244 9.94136 30.9577 9.84136 31.0077 9.73859C31.1772 9.3747 31.3466 9.18858 31.6438 8.9247C31.7466 8.84136 31.8383 8.76359 31.9244 8.65247C32.1522 8.33025 32.2883 7.83859 32.1438 7.3747C32.0411 7.80525 31.805 8.12747 31.5855 8.29692C31.5522 8.32192 31.5188 8.34692 31.4744 8.36359C31.2716 8.4747 31.0522 8.56636 30.7216 8.84692C30.5355 9.00803 30.3327 9.20247 30.1133 9.53303C30.0883 9.43859 30.105 9.33025 30.1466 9.21914C30.2577 8.83858 30.3911 8.62747 30.6466 8.32192C30.73 8.21914 30.8161 8.13581 30.8744 8.00803C31.0522 7.65247 31.1022 7.15247 30.8911 6.71358C30.8661 7.16358 30.68 7.51081 30.4855 7.71359C30.4522 7.74692 30.4272 7.77192 30.3911 7.79692C30.205 7.93303 30.0022 8.06914 29.7133 8.3997Z"
              fill="#FFFF00"/>
    </g>
    <defs>
        <clipPath id="clip0_6_92711">
            <rect width="53.3333" height="30" fill="white" transform="translate(0.655273)"/>
        </clipPath>
    </defs>
</svg>
