<svg width="55" height="30" viewBox="0 0 55 30" fill="none" xmlns="http://www.w3.org/2000/svg">
    <g clip-path="url(#clip0)">
        <path d="M-2.66895 -0.163086V30.1675H57.9921V-0.163086H-2.66895Z" fill="#012169"/>
        <path d="M-2.66895 -0.163086L57.9921 30.1675L-2.66895 -0.163086ZM57.9921 -0.163086L-2.66895 30.1647L57.9921 -0.163086Z"
              fill="black"/>
        <path d="M56.6367 32.8802L27.6617 18.3914L-1.3133 32.8802L-4.02441 27.4497L20.8784 14.9997L-4.02441 2.5497L-1.3133 -2.88086L27.6617 11.608L56.6367 -2.88086L59.3478 2.5497L34.445 14.9997L59.3478 27.4497L56.6367 32.8802Z"
              fill="white"/>
        <path d="M-2.66895 -0.163086L57.9921 30.1675L-2.66895 -0.163086ZM57.9921 -0.163086L-2.66895 30.1647L57.9921 -0.163086Z"
              fill="black"/>
        <path d="M57.0869 31.9742L27.6619 17.2575L-1.76311 31.9742L-3.57422 28.3547L23.1425 14.9992L-3.57422 1.64361L-1.76311 -1.97583L27.6619 12.7408L57.0869 -1.97583L58.898 1.64361L32.1813 14.9992L58.898 28.3547L57.0869 31.9742Z"
              fill="#C8102E"/>
        <path d="M27.6616 -0.163086V30.1675V-0.163086ZM-2.66895 15.0008H57.9921H-2.66895Z" fill="black"/>
        <path d="M32.7172 30.1647H22.606V20.0564H-2.66895V9.94525H22.606V-0.163086H32.7172V9.94525H57.9921V20.0564H32.7172V30.1647Z"
              fill="white"/>
        <path d="M27.6616 -0.163086V30.1675V-0.163086ZM-2.66895 15.0008H57.9921H-2.66895Z" fill="black"/>
        <path d="M30.6949 30.1647H24.6283V18.0341H-2.66895V11.9675H24.6283V-0.163086H30.6949V11.9675H57.9921V18.0341H30.6949V30.1647Z"
              fill="#C8102E"/>
    </g>
    <defs>
        <clipPath id="clip0">
            <rect width="53.3333" height="30" fill="white" transform="translate(0.995117)"/>
        </clipPath>
    </defs>
</svg>
