<svg width="22" height="22" viewBox="0 0 22 22" fill="none" xmlns="http://www.w3.org/2000/svg">
<path d="M18.563 5.5H15.1248V4.8125C15.1242 4.26568 14.9067 3.74144 14.52 3.35478C14.1334 2.96812 13.6091 2.75063 13.0623 2.75H8.93732C8.3905 2.75063 7.86626 2.96812 7.4796 3.35478C7.09294 3.74144 6.87544 4.26568 6.87482 4.8125V5.5H3.43799C3.07344 5.50042 2.72395 5.64542 2.46618 5.90319C2.2084 6.16096 2.06341 6.51046 2.06299 6.875V17.875C2.06341 18.2395 2.2084 18.589 2.46618 18.8468C2.72395 19.1046 3.07344 19.2496 3.43799 19.25H18.563C18.9275 19.2496 19.277 19.1046 19.5348 18.8468C19.7926 18.589 19.9376 18.2395 19.938 17.875V6.875C19.9376 6.51046 19.7926 6.16096 19.5348 5.90319C19.277 5.64542 18.9275 5.50042 18.563 5.5V5.5ZM8.24982 4.8125C8.25003 4.63023 8.32253 4.45548 8.45141 4.32659C8.5803 4.19771 8.75504 4.12521 8.93732 4.125H13.0623C13.2446 4.12521 13.4193 4.19771 13.5482 4.32659C13.6771 4.45548 13.7496 4.63023 13.7498 4.8125V5.5H8.24982V4.8125Z" fill="#0C212E"/>
</svg>
