<svg width="18" height="18" viewBox="0 0 18 18" fill="none" xmlns="http://www.w3.org/2000/svg">
<path d="M9 0.875C7.39303 0.875 5.82214 1.35152 4.486 2.24431C3.14985 3.1371 2.10844 4.40605 1.49348 5.8907C0.87852 7.37535 0.717618 9.00901 1.03112 10.5851C1.34463 12.1612 2.11846 13.6089 3.25476 14.7452C4.39106 15.8815 5.8388 16.6554 7.41489 16.9689C8.99099 17.2824 10.6247 17.1215 12.1093 16.5065C13.594 15.8916 14.8629 14.8502 15.7557 13.514C16.6485 12.1779 17.125 10.607 17.125 9C17.1226 6.84586 16.2658 4.78065 14.7426 3.25745C13.2193 1.73425 11.1541 0.877438 9 0.875V0.875ZM9.93758 13.3753C9.93754 13.624 9.83872 13.8624 9.66287 14.0383C9.48701 14.2141 9.24852 14.3128 8.99985 14.3128C8.75118 14.3128 8.5127 14.214 8.33688 14.0381C8.16105 13.8623 8.06227 13.6238 8.06227 13.3752C8.06227 13.1265 8.16105 12.888 8.33688 12.7122C8.5127 12.5363 8.75118 12.4375 8.99985 12.4375C9.24852 12.4375 9.48701 12.5362 9.66287 12.712C9.83872 12.8879 9.93754 13.1263 9.93758 13.375V13.3753ZM11.2098 9.95978C10.7774 10.3944 10.2259 10.6913 9.62501 10.8129V10.875C9.62501 11.0408 9.55916 11.1997 9.44195 11.3169C9.32474 11.4342 9.16577 11.5 9.00001 11.5C8.83425 11.5 8.67527 11.4342 8.55806 11.3169C8.44085 11.1997 8.37501 11.0408 8.37501 10.875V10.25C8.37501 10.0842 8.44086 9.92528 8.55807 9.80807C8.67528 9.69086 8.83425 9.62501 9.00001 9.625C9.37082 9.62498 9.7333 9.51501 10.0416 9.30898C10.3499 9.10296 10.5902 8.81014 10.7321 8.46755C10.874 8.12496 10.9111 7.74798 10.8388 7.38429C10.7664 7.02061 10.5879 6.68654 10.3257 6.42433C10.0635 6.16213 9.7294 5.98356 9.36571 5.91122C9.00202 5.83887 8.62505 5.87599 8.28246 6.01789C7.93987 6.15978 7.64705 6.40008 7.44102 6.70839C7.235 7.0167 7.12502 7.37919 7.12501 7.75C7.12501 7.91576 7.05916 8.07473 6.94195 8.19194C6.82474 8.30915 6.66577 8.375 6.50001 8.375C6.33425 8.375 6.17527 8.30915 6.05806 8.19194C5.94085 8.07473 5.87501 7.91576 5.87501 7.75C5.87503 7.2361 6.00179 6.73014 6.24405 6.27693C6.48632 5.82372 6.83662 5.43725 7.26391 5.15175C7.69121 4.86626 8.18233 4.69054 8.69375 4.64018C9.20518 4.58982 9.72113 4.66636 10.1959 4.86302C10.6707 5.05969 11.0896 5.3704 11.4157 5.76765C11.7417 6.1649 11.9647 6.63642 12.065 7.14044C12.1652 7.64447 12.1396 8.16544 11.9905 8.65721C11.8413 9.14899 11.5732 9.59638 11.2098 9.95978V9.95978Z" fill="#003FC4"/>
</svg>
