<svg width="22" height="22" viewBox="0 0 22 22" fill="none" xmlns="http://www.w3.org/2000/svg">
<path d="M20.5531 8.37103C20.4673 8.10155 20.3022 7.86419 20.0794 7.68993C19.8567 7.51567 19.5865 7.4126 19.3043 7.39417L14.2004 7.03699L12.3071 2.26947C12.2047 2.0059 12.025 1.77943 11.7916 1.61973C11.5582 1.46003 11.282 1.37456 10.9993 1.37451H10.9979C10.7156 1.37502 10.4399 1.46071 10.2071 1.62038C9.97422 1.78005 9.79496 2.00628 9.69274 2.26947L7.77123 7.06451L2.69555 7.39417C2.41333 7.4126 2.14321 7.51567 1.92044 7.68993C1.69768 7.86419 1.53261 8.10155 1.44677 8.37103C1.35622 8.64434 1.35006 8.93859 1.42909 9.21545C1.50813 9.49231 1.6687 9.73896 1.88989 9.92328L5.79467 13.2238L4.63317 17.7926C4.55312 18.1004 4.56784 18.4251 4.67541 18.7243C4.78299 19.0236 4.9784 19.2834 5.23608 19.4697C5.48486 19.6507 5.78236 19.7526 6.08986 19.7622C6.39737 19.7718 6.70063 19.6886 6.9602 19.5234L10.9885 16.9715C10.9939 16.9675 10.9993 16.9648 11.0113 16.9715L15.3458 19.7175C15.5811 19.8678 15.8563 19.9436 16.1355 19.935C16.4146 19.9264 16.6846 19.8337 16.9101 19.6691C17.1436 19.5004 17.3207 19.265 17.4182 18.9939C17.5157 18.7228 17.5291 18.4286 17.4567 18.1498L16.2227 13.1587L20.11 9.92328C20.3312 9.73896 20.4917 9.49231 20.5708 9.21545C20.6498 8.93859 20.6436 8.64434 20.5531 8.37103Z" fill="#0C212E"/>
</svg>
