<svg width="48" height="48" viewBox="0 0 48 48" fill="none" xmlns="http://www.w3.org/2000/svg">
<g opacity="0.4">
<path d="M23.9997 26.7973C30.157 26.7973 35.1484 21.8059 35.1484 15.6487C35.1484 9.49142 30.157 4.5 23.9997 4.5C17.8425 4.5 12.8511 9.49142 12.8511 15.6487C12.8511 21.8059 17.8425 26.7973 23.9997 26.7973Z" fill="#0C212E"/>
<path fill-rule="evenodd" clip-rule="evenodd" d="M43.0145 41.9997C43.6571 41.9997 44.1329 41.4023 43.9891 40.776L43.3393 37.9457C42.1345 34.1381 39.8376 30.7684 36.734 28.2551C36.0129 27.6737 35.2525 27.1429 34.4581 26.6665C31.6388 29.3527 27.8939 30.8511 23.9998 30.8511C20.1056 30.8511 16.3608 29.3527 13.5414 26.6665C12.747 27.1429 11.9866 27.6737 11.2655 28.2551C8.16195 30.7684 5.86509 34.1381 4.66021 37.9457L4.01044 40.776C3.86665 41.4023 4.34246 41.9997 4.98508 41.9997H43.0145Z" fill="#0C212E"/>
</g>
</svg>
