<svg width="24" height="24" viewBox="0 0 24 24" fill="none" xmlns="http://www.w3.org/2000/svg">
<path d="M11.9999 13.3987C15.0785 13.3987 17.5742 10.9029 17.5742 7.82433C17.5742 4.74571 15.0785 2.25 11.9999 2.25C8.92125 2.25 6.42554 4.74571 6.42554 7.82433C6.42554 10.9029 8.92125 13.3987 11.9999 13.3987Z" fill="#003FC4"/>
<path fill-rule="evenodd" clip-rule="evenodd" d="M20.8794 20.9996C21.5221 20.9996 21.9979 20.4022 21.8541 19.7759L21.6697 18.9726C21.0672 17.0688 19.9188 15.384 18.367 14.1273C18.0065 13.8366 17.6262 13.5712 17.2291 13.333C15.8194 14.6761 13.947 15.4253 11.9999 15.4253C10.0528 15.4253 8.18038 14.6761 6.77071 13.333C6.37352 13.5712 5.9933 13.8366 5.63276 14.1273C4.08097 15.384 2.93254 17.0688 2.3301 18.9726L2.14569 19.7759C2.0019 20.4022 2.47772 20.9996 3.12034 20.9996H20.8794Z" fill="#003FC4"/>
</svg>
