<svg width="20" height="20" viewBox="0 0 20 20" fill="none" xmlns="http://www.w3.org/2000/svg">
<path d="M7.1607 6.84599L9.37501 4.63164V11.8751C9.37501 12.0408 9.44086 12.1998 9.55807 12.317C9.67528 12.4342 9.83425 12.5001 10 12.5001C10.1658 12.5001 10.3247 12.4342 10.442 12.317C10.5592 12.1998 10.625 12.0408 10.625 11.8751V4.63164L12.8393 6.84599C12.8974 6.90402 12.9663 6.95006 13.0421 6.98146C13.1179 7.01287 13.1992 7.02903 13.2813 7.02903C13.3634 7.02903 13.4446 7.01286 13.5205 6.98144C13.5963 6.95003 13.6652 6.90399 13.7232 6.84595C13.7813 6.78791 13.8273 6.719 13.8587 6.64317C13.8901 6.56734 13.9063 6.48607 13.9063 6.40399C13.9063 6.32191 13.8901 6.24064 13.8587 6.16481C13.8273 6.08898 13.7812 6.02008 13.7232 5.96204L10.4419 2.68079C10.3247 2.56362 10.1658 2.4978 10 2.4978C9.83427 2.4978 9.67531 2.56362 9.55808 2.68079L6.27683 5.96204C6.21879 6.02008 6.17275 6.08898 6.14134 6.16481C6.10992 6.24064 6.09375 6.32191 6.09375 6.40399C6.09375 6.48607 6.10991 6.56734 6.14132 6.64317C6.17272 6.719 6.21876 6.78791 6.27679 6.84595C6.33483 6.90399 6.40373 6.95003 6.47956 6.98144C6.55539 7.01286 6.63666 7.02903 6.71874 7.02903C6.80082 7.02903 6.88209 7.01287 6.95792 6.98146C7.03375 6.95006 7.10266 6.90402 7.1607 6.84599V6.84599Z" fill="#0C212E"/>
<path d="M17.5 10C17.3342 10 17.1753 10.0659 17.0581 10.1831C16.9409 10.3003 16.875 10.4592 16.875 10.625V16.25H3.125V10.625C3.125 10.4592 3.05915 10.3003 2.94194 10.1831C2.82473 10.0658 2.66576 10 2.5 10C2.33424 10 2.17527 10.0658 2.05806 10.1831C1.94085 10.3003 1.875 10.4592 1.875 10.625V16.25C1.87538 16.5814 2.0072 16.8991 2.24154 17.1335C2.47587 17.3678 2.7936 17.4996 3.125 17.5H16.875C17.2064 17.4996 17.5241 17.3678 17.7585 17.1335C17.9928 16.8991 18.1246 16.5814 18.125 16.25V10.625C18.125 10.4592 18.0591 10.3003 17.9419 10.1831C17.8247 10.0659 17.6658 10 17.5 10V10Z" fill="#0C212E"/>
</svg>
