<svg width="28" height="25" viewBox="0 0 28 25" fill="none" xmlns="http://www.w3.org/2000/svg">
<path d="M27.593 20.4957L16.5969 1.49572C16.3331 1.0407 15.9544 0.662985 15.4986 0.400414C15.0429 0.137842 14.5262 -0.000366211 14.0002 -0.000366211C13.4743 -0.000366211 12.9575 0.137842 12.5018 0.400414C12.0461 0.662985 11.6673 1.0407 11.4035 1.49572V1.4967L0.407445 20.4957C0.143438 20.9517 0.00417342 21.4691 0.00366351 21.996C0.00315361 22.5228 0.141416 23.0405 0.40454 23.497C0.667664 23.9535 1.04637 24.3326 1.50254 24.5962C1.95872 24.8598 2.47628 24.9986 3.00315 24.9987H24.9973C25.5242 24.9986 26.0417 24.8598 26.4979 24.5962C26.9541 24.3326 27.3328 23.9535 27.5959 23.497C27.859 23.0405 27.9973 22.5228 27.9968 21.996C27.9963 21.4691 27.857 20.9517 27.593 20.4957ZM12.9992 8.99963C12.9992 8.73441 13.1046 8.48006 13.2921 8.29252C13.4797 8.10499 13.734 7.99963 13.9992 7.99963C14.2645 7.99963 14.5188 8.10499 14.7063 8.29252C14.8939 8.48006 14.9992 8.73441 14.9992 8.99963V14.9996C14.9992 15.2648 14.8939 15.5192 14.7063 15.7067C14.5188 15.8943 14.2645 15.9996 13.9992 15.9996C13.734 15.9996 13.4797 15.8943 13.2921 15.7067C13.1046 15.5192 12.9992 15.2648 12.9992 14.9996V8.99963ZM14 21C13.7033 21 13.4133 20.912 13.1666 20.7472C12.9199 20.5824 12.7277 20.3481 12.6142 20.074C12.5006 19.7999 12.4709 19.4983 12.5288 19.2074C12.5867 18.9164 12.7295 18.6491 12.9393 18.4393C13.1491 18.2296 13.4164 18.0867 13.7073 18.0288C13.9983 17.9709 14.2999 18.0006 14.574 18.1142C14.8481 18.2277 15.0824 18.42 15.2472 18.6666C15.412 18.9133 15.5 19.2033 15.5 19.5C15.5 19.8978 15.3419 20.2793 15.0606 20.5606C14.7793 20.8419 14.3978 21 14 21Z" fill="#FC7716"/>
</svg>
