<svg width="22" height="22" viewBox="0 0 22 22" fill="none" xmlns="http://www.w3.org/2000/svg">
<path d="M18.5625 3.4375H3.4375C3.07296 3.43792 2.72346 3.58292 2.46569 3.84069C2.20792 4.09846 2.06292 4.44796 2.0625 4.8125V17.875C2.0625 17.9922 2.09246 18.1074 2.14953 18.2098C2.2066 18.3122 2.28888 18.3982 2.38857 18.4598C2.48827 18.5214 2.60205 18.5565 2.71913 18.5618C2.8362 18.5671 2.95268 18.5423 3.05749 18.4899L5.5 17.2687L7.94251 18.4899C8.03798 18.5376 8.14326 18.5625 8.25 18.5625C8.35674 18.5625 8.46202 18.5376 8.55749 18.4899L11 17.2687L13.4425 18.4899C13.538 18.5376 13.6433 18.5625 13.75 18.5625C13.8567 18.5625 13.962 18.5376 14.0575 18.4899L16.5 17.2687L18.9425 18.4899C19.0473 18.5423 19.1638 18.5671 19.2809 18.5618C19.3979 18.5565 19.5117 18.5214 19.6114 18.4598C19.7111 18.3982 19.7934 18.3122 19.8505 18.2098C19.9075 18.1074 19.9375 17.9922 19.9375 17.875V4.8125C19.9371 4.44796 19.7921 4.09846 19.5343 3.84069C19.2765 3.58292 18.927 3.43792 18.5625 3.4375ZM15.4688 12.375H6.53125C6.34891 12.375 6.17405 12.3026 6.04511 12.1736C5.91618 12.0447 5.84375 11.8698 5.84375 11.6875C5.84375 11.5052 5.91618 11.3303 6.04511 11.2014C6.17405 11.0724 6.34891 11 6.53125 11H15.4688C15.6511 11 15.826 11.0724 15.9549 11.2014C16.0838 11.3303 16.1562 11.5052 16.1562 11.6875C16.1562 11.8698 16.0838 12.0447 15.9549 12.1736C15.826 12.3026 15.6511 12.375 15.4688 12.375ZM15.4688 9.625H6.53125C6.34891 9.625 6.17405 9.55257 6.04511 9.42364C5.91618 9.2947 5.84375 9.11984 5.84375 8.9375C5.84375 8.75516 5.91618 8.5803 6.04511 8.45136C6.17405 8.32243 6.34891 8.25 6.53125 8.25H15.4688C15.6511 8.25 15.826 8.32243 15.9549 8.45136C16.0838 8.5803 16.1562 8.75516 16.1562 8.9375C16.1562 9.11984 16.0838 9.2947 15.9549 9.42364C15.826 9.55257 15.6511 9.625 15.4688 9.625Z" fill="#0C212E"/>
</svg>
