<svg width="20" height="20" viewBox="0 0 20 20" fill="none" xmlns="http://www.w3.org/2000/svg">
<path d="M9.55808 12.3168C9.6753 12.434 9.83426 12.4998 10 12.4998C10.1658 12.4998 10.3247 12.434 10.4419 12.3168L13.7232 9.03557C13.7812 8.97753 13.8273 8.90863 13.8587 8.83281C13.8901 8.75698 13.9063 8.6757 13.9063 8.59362C13.9063 8.51155 13.8901 8.43027 13.8587 8.35444C13.8273 8.27861 13.7813 8.20971 13.7232 8.15166C13.6652 8.09362 13.5963 8.04758 13.5205 8.01617C13.4446 7.98476 13.3634 7.96859 13.2813 7.96858C13.1992 7.96858 13.1179 7.98474 13.0421 8.01615C12.9663 8.04756 12.8974 8.09359 12.8393 8.15163L10.625 10.366V3.12256C10.625 2.9568 10.5592 2.79783 10.442 2.68062C10.3247 2.56341 10.1658 2.49756 10 2.49756C9.83425 2.49756 9.67528 2.56341 9.55807 2.68062C9.44086 2.79783 9.37501 2.9568 9.37501 3.12256V10.366L7.1607 8.15163C7.10266 8.09359 7.03375 8.04756 6.95792 8.01615C6.88209 7.98474 6.80082 7.96858 6.71874 7.96858C6.55297 7.96859 6.394 8.03445 6.27679 8.15166C6.15959 8.26888 6.09374 8.42786 6.09375 8.59362C6.09376 8.75939 6.15961 8.91836 6.27683 9.03557L9.55808 12.3168Z" fill="#0C212E"/>
<path d="M17.5 10C17.3342 10 17.1753 10.0659 17.0581 10.1831C16.9409 10.3003 16.875 10.4592 16.875 10.625V16.25H3.125V10.625C3.125 10.4592 3.05915 10.3003 2.94194 10.1831C2.82473 10.0658 2.66576 10 2.5 10C2.33424 10 2.17527 10.0658 2.05806 10.1831C1.94085 10.3003 1.875 10.4592 1.875 10.625V16.25C1.87538 16.5814 2.0072 16.8991 2.24154 17.1335C2.47587 17.3678 2.7936 17.4996 3.125 17.5H16.875C17.2064 17.4996 17.5241 17.3678 17.7585 17.1335C17.9928 16.8991 18.1246 16.5814 18.125 16.25V10.625C18.125 10.4592 18.0591 10.3003 17.9419 10.1831C17.8247 10.0659 17.6658 10 17.5 10V10Z" fill="#0C212E"/>
</svg>
