<svg width="14" height="14" viewBox="0 0 14 14" fill="none" xmlns="http://www.w3.org/2000/svg">
<path d="M13.9479 5.08814C13.8855 4.89215 13.7654 4.71952 13.6034 4.59279C13.4414 4.46605 13.245 4.39109 13.0397 4.37769L9.32781 4.11792L7.95086 0.650635C7.87634 0.458947 7.74566 0.29424 7.57593 0.178096C7.4062 0.061953 7.20535 -0.000209103 6.99969 -0.000244141H6.99871C6.79337 0.000122117 6.59291 0.0624427 6.42356 0.178569C6.2542 0.294695 6.12383 0.459221 6.04949 0.650635L4.65203 4.13794L0.960623 4.37769C0.755368 4.39109 0.55892 4.46605 0.396909 4.59279C0.234898 4.71952 0.114847 4.89215 0.0524198 5.08814C-0.0134369 5.28691 -0.0179169 5.5009 0.0395629 5.70226C0.0970428 5.90361 0.213819 6.08299 0.374685 6.21704L3.21453 8.61743L2.3698 11.9402C2.31158 12.164 2.32229 12.4002 2.40052 12.6178C2.47876 12.8355 2.62088 13.0244 2.80828 13.1599C2.98921 13.2915 3.20557 13.3657 3.42921 13.3726C3.65285 13.3796 3.87341 13.3191 4.06218 13.199L6.99187 11.343C6.99578 11.3401 6.99968 11.3381 7.00847 11.343L10.1608 13.3401C10.332 13.4494 10.5321 13.5046 10.7351 13.4983C10.9381 13.492 11.1345 13.4246 11.2985 13.3049C11.4683 13.1822 11.5971 13.011 11.668 12.8139C11.7389 12.6167 11.7487 12.4027 11.696 12.2L10.7985 8.57007L13.6257 6.21704C13.7865 6.08299 13.9033 5.90361 13.9608 5.70226C14.0183 5.5009 14.0138 5.28691 13.9479 5.08814Z" fill="white"/>
</svg>
