<svg width="22" height="22" viewBox="0 0 22 22" fill="none" xmlns="http://www.w3.org/2000/svg">
<path d="M14.2468 19.2501L17.875 19.25C18.2395 19.2496 18.589 19.1046 18.8468 18.8468C19.1046 18.589 19.2496 18.2395 19.25 17.875L19.25 14.6393C19.25 14.5263 19.2222 14.415 19.1689 14.3153C19.1156 14.2156 19.0386 14.1306 18.9446 14.0677C18.8506 14.0049 18.7426 13.9663 18.6301 13.9552C18.5176 13.9441 18.4041 13.9609 18.2996 14.0041C18.056 14.105 17.7949 14.1567 17.5313 14.1563C16.394 14.1563 15.4688 13.203 15.4688 12.0312C15.4688 10.8595 16.394 9.90623 17.5313 9.90623C17.7949 9.90577 18.056 9.95748 18.2996 10.0584C18.4041 10.1016 18.5176 10.1184 18.6301 10.1073C18.7426 10.0962 18.8506 10.0576 18.9446 9.99476C19.0386 9.93194 19.1156 9.84692 19.1689 9.74722C19.2222 9.64751 19.25 9.53621 19.25 9.42316L19.25 6.1875C19.2496 5.82295 19.1046 5.47344 18.8468 5.21567C18.589 4.95789 18.2395 4.8129 17.875 4.8125L14.7625 4.81259C14.775 4.6984 14.7813 4.58362 14.7812 4.46875C14.7812 3.64824 14.4553 2.86133 13.8751 2.28114C13.2949 1.70095 12.508 1.375 11.6875 1.375C10.867 1.375 10.0801 1.70095 9.49989 2.28114C8.9197 2.86133 8.59375 3.64824 8.59375 4.46875C8.59371 4.58362 8.59995 4.6984 8.61247 4.81259L5.5 4.8125C5.13545 4.81291 4.78595 4.95791 4.52818 5.21568C4.27041 5.47345 4.12541 5.82295 4.125 6.1875L4.12504 8.95621C4.01087 8.94368 3.8961 8.93744 3.78125 8.9375C2.96074 8.9375 2.17383 9.26345 1.59364 9.84364C1.01345 10.4238 0.6875 11.2107 0.6875 12.0312C0.6875 12.8518 1.01345 13.6387 1.59364 14.2189C2.17383 14.7991 2.96074 15.125 3.78125 15.125C3.8961 15.1251 4.01087 15.1188 4.12504 15.1063L4.125 17.875C4.12541 18.2395 4.2704 18.589 4.52816 18.8468C4.78593 19.1046 5.13542 19.2496 5.49996 19.25L9.1283 19.2501" fill="#0C212E"/>
</svg>
