<svg width="22" height="22" viewBox="0 0 22 22" fill="none" xmlns="http://www.w3.org/2000/svg">
<path d="M15.125 5.5H16.5V6.875C16.5 7.05734 16.5724 7.2322 16.7014 7.36114C16.8303 7.49007 17.0052 7.5625 17.1875 7.5625C17.3698 7.5625 17.5447 7.49007 17.6736 7.36114C17.8026 7.2322 17.875 7.05734 17.875 6.875V5.5H19.25C19.4323 5.5 19.6072 5.42757 19.7361 5.29864C19.8651 5.1697 19.9375 4.99484 19.9375 4.8125C19.9375 4.63016 19.8651 4.4553 19.7361 4.32636C19.6072 4.19743 19.4323 4.125 19.25 4.125H17.875V2.75C17.875 2.56766 17.8026 2.3928 17.6736 2.26386C17.5447 2.13493 17.3698 2.0625 17.1875 2.0625C17.0052 2.0625 16.8303 2.13493 16.7014 2.26386C16.5724 2.3928 16.5 2.56766 16.5 2.75V4.125H15.125C14.9427 4.125 14.7678 4.19743 14.6389 4.32636C14.5099 4.4553 14.4375 4.63016 14.4375 4.8125C14.4375 4.99484 14.5099 5.1697 14.6389 5.29864C14.7678 5.42757 14.9427 5.5 15.125 5.5Z" fill="#0C212E"/>
<path d="M19.932 18.2177C18.6492 16.0082 16.5948 14.3511 14.1639 13.5648C14.9845 13.0757 15.6809 12.4034 16.1987 11.6006C16.7166 10.7977 17.0417 9.88599 17.1489 8.93666C16.6089 8.92604 16.0946 8.70427 15.7163 8.31888C15.3379 7.9335 15.1256 7.4152 15.1249 6.87514C14.6594 6.87523 14.2076 6.71781 13.8429 6.42849C13.4782 6.13916 13.2222 5.73496 13.1164 5.28162C13.0106 4.82829 13.0613 4.3525 13.2603 3.93166C13.4593 3.51081 13.7948 3.16967 14.2123 2.96373C13.5161 2.54028 12.743 2.25857 11.9376 2.13478C11.1322 2.01099 10.3103 2.04756 9.51905 2.24239C8.72782 2.43721 7.98287 2.78646 7.32702 3.27006C6.67117 3.75366 6.11733 4.36208 5.69733 5.06037C5.27733 5.75866 4.99945 6.53306 4.87964 7.33907C4.75983 8.14508 4.80046 8.96683 4.99919 9.75709C5.19793 10.5474 5.55085 11.2906 6.03768 11.944C6.52452 12.5975 7.13567 13.1483 7.83603 13.5648C5.40521 14.351 3.35086 16.0082 2.06802 18.2175C2.00755 18.322 1.97567 18.4406 1.97559 18.5614C1.9755 18.6821 2.00721 18.8007 2.06753 18.9053C2.12785 19.0099 2.21465 19.0968 2.31919 19.1572C2.42374 19.2175 2.54234 19.2493 2.66308 19.2493L19.3369 19.2495C19.4577 19.2495 19.5763 19.2177 19.6808 19.1573C19.7854 19.0969 19.8722 19.0101 19.9325 18.9055C19.9928 18.8009 20.0245 18.6823 20.0244 18.5615C20.0243 18.4408 19.9925 18.3222 19.932 18.2177L19.932 18.2177Z" fill="#0C212E"/>
</svg>
