<svg width="22" height="22" viewBox="0 0 22 22" fill="none" xmlns="http://www.w3.org/2000/svg">
<path d="M10.9995 13.0625C13.6574 13.0625 15.812 10.9079 15.812 8.25C15.812 5.59213 13.6574 3.4375 10.9995 3.4375C8.34164 3.4375 6.18701 5.59213 6.18701 8.25C6.18701 10.9079 8.34164 13.0625 10.9995 13.0625Z" fill="#0C212E"/>
<path d="M10.9995 0.687501C9.44232 0.686903 7.92294 1.1672 6.64904 2.06275C5.37514 2.9583 4.40888 4.22539 3.88232 5.69085C3.35576 7.15631 3.29461 8.74863 3.70721 10.2502C4.11982 11.7517 4.98605 13.0892 6.18752 14.0798V20.625C6.1875 20.7422 6.21745 20.8574 6.27452 20.9598C6.33159 21.0622 6.41387 21.1483 6.51357 21.2099C6.61327 21.2715 6.72706 21.3066 6.84414 21.3118C6.96121 21.3171 7.07769 21.2923 7.18251 21.2399L10.9994 19.3312L14.8176 21.2399C14.9224 21.2923 15.0389 21.3171 15.156 21.3118C15.273 21.3065 15.3868 21.2714 15.4865 21.2098C15.5862 21.1482 15.6684 21.0621 15.7255 20.9598C15.7826 20.8574 15.8125 20.7422 15.8125 20.625V14.0789C17.0137 13.0882 17.8797 11.7507 18.2921 10.2492C18.7045 8.74773 18.6431 7.15554 18.1165 5.69023C17.5898 4.22492 16.6236 2.95799 15.3497 2.06256C14.0759 1.16713 12.5566 0.686902 10.9995 0.687501V0.687501ZM10.9995 14.4375C9.77574 14.4375 8.57945 14.0746 7.56192 13.3947C6.54439 12.7148 5.75133 11.7485 5.28301 10.6179C4.81469 9.48724 4.69216 8.24314 4.9309 7.04288C5.16965 5.84262 5.75895 4.74011 6.62429 3.87478C7.48963 3.00944 8.59213 2.42014 9.79239 2.18139C10.9926 1.94265 12.2367 2.06518 13.3674 2.5335C14.498 3.00181 15.4643 3.79488 16.1442 4.81241C16.8241 5.82994 17.187 7.02623 17.187 8.25C17.1852 9.89046 16.5327 11.4632 15.3727 12.6232C14.2127 13.7832 12.64 14.4357 10.9995 14.4375V14.4375Z" fill="black"/>
</svg>
