<svg width="566" height="154" viewBox="0 0 566 154" fill="none" xmlns="http://www.w3.org/2000/svg">
<g clip-path="url(#clip0)">
<path d="M247.691 56.6303V91.2578C247.691 92.9989 247.117 94.5149 245.97 95.8208C244.823 97.1116 242.906 97.772 240.219 97.772C236.671 97.772 234.075 96.5262 232.444 94.0496L216.488 70.1691C216.065 69.5087 215.688 69.1785 215.371 69.1785C214.903 69.1785 214.677 69.5687 214.677 70.3342V97.2917H205.785V62.5442C205.785 60.4128 206.495 58.8218 207.914 57.7561C209.333 56.6904 211.189 56.165 213.499 56.165C216.956 56.165 219.477 57.3208 221.032 59.6473L237.094 83.7679C237.139 83.813 237.199 83.918 237.305 84.0831C237.396 84.2633 237.471 84.3683 237.532 84.4284C237.592 84.4884 237.682 84.5484 237.788 84.6385C237.909 84.7135 238.015 84.7586 238.135 84.7586C238.558 84.7586 238.784 84.4284 238.784 83.7679V56.6303H247.691Z" fill="white"/>
<path d="M288.419 56.6318V64.542H267.375C266.364 64.542 265.654 64.7521 265.247 65.1573C264.839 65.5626 264.643 66.2681 264.643 67.2737V72.9174H287.905V80.4673H264.643V86.6813C264.643 87.687 264.854 88.3924 265.247 88.7977C265.654 89.2029 266.364 89.4131 267.375 89.4131H288.645V97.3232H260.31C256.174 97.3232 254.121 95.2519 254.121 91.1092V62.9209C254.121 58.7332 256.189 56.6469 260.31 56.6469H288.419V56.6318Z" fill="white"/>
<path d="M304.252 57.0356C306.864 56.4502 310.276 56.165 314.472 56.165C318.684 56.165 322.096 56.4502 324.692 57.0356C327.304 57.621 329.508 58.6867 331.319 60.2327C333.131 61.7787 334.399 63.895 335.123 66.5668C335.848 69.2385 336.21 72.7058 336.21 76.9685C336.21 81.2313 335.848 84.6985 335.123 87.3703C334.399 90.042 333.131 92.1584 331.319 93.7344C329.508 95.3104 327.289 96.3761 324.692 96.9315C322.081 97.4868 318.669 97.772 314.472 97.772C310.261 97.772 306.864 97.4868 304.252 96.9315C301.641 96.3761 299.437 95.3104 297.625 93.7344C295.814 92.1584 294.546 90.042 293.821 87.3703C293.097 84.6985 292.734 81.2313 292.734 76.9685C292.734 72.7058 293.097 69.2385 293.821 66.5668C294.531 63.895 295.814 61.7787 297.625 60.2327C299.437 58.6867 301.641 57.621 304.252 57.0356ZM305.807 67.0021C304.268 68.8032 303.498 72.1204 303.498 76.9685C303.498 81.8167 304.268 85.1338 305.807 86.935C307.347 88.7361 310.23 89.6367 314.487 89.6367C318.729 89.6367 321.628 88.7361 323.167 86.935C324.707 85.1338 325.477 81.8167 325.477 76.9685C325.477 72.1204 324.707 68.8032 323.167 67.0021C321.628 65.2009 318.729 64.3003 314.487 64.3003C310.23 64.3003 307.347 65.2009 305.807 67.0021Z" fill="white"/>
<path d="M376.719 72.5966L353.832 73.3936L354.098 80.9389L376.984 80.142L376.719 72.5966Z" fill="white"/>
<path d="M404.067 63.2511H394.949V56.6318H404.067V63.2511ZM394.949 66.5083H404.067V97.3082H394.949V66.5083Z" fill="white"/>
<path d="M408.973 97.3078V72.3166C408.973 68.4441 410.92 66.5078 414.815 66.5078H427.435C431.254 66.5078 434.228 67.4084 436.371 69.2095C438.515 71.0107 439.587 73.8025 439.587 77.6V97.2927H430.469V79.9265C430.469 77.57 429.971 75.8438 428.974 74.7781C427.978 73.7125 426.333 73.1871 424.038 73.1871H420.128C419.389 73.1871 418.86 73.3372 418.543 73.6524C418.226 73.9676 418.075 74.478 418.075 75.2134V97.2927H408.973V97.3078Z" fill="white"/>
<path d="M450.942 66.5078L458.837 86.846C459.154 87.5814 459.426 87.9567 459.652 87.9567C459.849 87.9567 460.105 87.5965 460.407 86.846L468.302 66.5078H477.767L465.328 94.9212C464.815 96.077 464.106 96.8274 463.17 97.1576C462.234 97.4879 461.071 97.653 459.668 97.653C458.777 97.653 458.037 97.6079 457.448 97.5329C456.86 97.4578 456.226 97.2027 455.516 96.7824C454.822 96.3621 454.293 95.7317 453.946 94.9212L441.492 66.5078H450.942Z" fill="white"/>
<path d="M509.255 97.3078H490.551C485.766 97.3078 482.595 96.1971 481.056 93.9906C479.516 91.7842 478.746 87.7166 478.746 81.7877C478.746 78.4556 478.972 75.7989 479.44 73.8326C479.908 71.8513 480.784 70.2752 482.067 69.1045C483.35 67.9187 484.95 67.1383 486.837 66.748C488.724 66.3577 491.291 66.1626 494.521 66.1626C497.329 66.1626 499.608 66.3127 501.359 66.5979C503.111 66.8831 504.726 67.4684 506.175 68.309C507.639 69.1645 508.696 70.4254 509.33 72.0915C509.964 73.7575 510.296 75.9039 510.296 78.5456C510.296 82.8084 508.681 84.9398 505.435 84.9398H487.985C487.985 86.9511 488.422 88.437 489.298 89.3826C490.174 90.3283 491.804 90.8086 494.174 90.8086H509.255V97.3078ZM487.985 78.6507H499.321C500.454 78.6507 501.027 78.0353 501.027 76.7895C501.027 75.3635 500.378 74.3129 499.065 73.6524C497.767 72.992 496.242 72.6618 494.536 72.6618C492.272 72.6618 490.611 73.1121 489.57 73.9977C488.513 74.8983 487.985 76.4443 487.985 78.6507Z" fill="white"/>
<path d="M513.574 97.3078V90.6284H530.753C532.157 90.6284 532.851 90.013 532.851 88.7672C532.851 88.377 532.73 88.0318 532.504 87.7166C532.262 87.4014 531.915 87.1462 531.447 86.936C530.979 86.7259 530.541 86.5458 530.134 86.4107C529.726 86.2756 529.228 86.1405 528.639 86.0054C528.051 85.8703 527.643 85.7653 527.417 85.6902L521.107 83.769C518.193 82.8834 516.14 81.7727 514.978 80.4518C513.815 79.131 513.227 77.2247 513.227 74.7031C513.227 71.8813 513.921 69.8099 515.295 68.4891C516.683 67.1682 518.827 66.5078 521.756 66.5078H541.033V73.1871H524.443C522.812 73.1871 521.997 73.7125 521.997 74.7481C521.997 75.4836 522.314 76.039 522.963 76.3992C523.612 76.7595 524.548 77.1497 525.801 77.5399L533.047 79.7464C534.602 80.2117 535.855 80.647 536.791 81.0522C537.727 81.4575 538.663 82.0129 539.599 82.7333C540.535 83.4538 541.199 84.3544 541.622 85.4351C542.029 86.5158 542.241 87.8216 542.241 89.3226C542.241 91.9943 541.607 93.9906 540.339 95.3115C539.071 96.6323 537.078 97.2927 534.346 97.2927H513.574V97.3078Z" fill="white"/>
<path d="M566.003 97.3083H559.632C551.964 97.3083 548.114 93.9011 548.114 87.0867V73.2027H543.797V66.5233H548.114V56.647H557.232V66.5233H566.003V73.2027H557.232V83.7695C557.232 86.1411 557.806 87.8672 558.923 88.9779C560.055 90.0886 561.851 90.629 564.297 90.629H565.988V97.3083H566.003Z" fill="white"/>
<path d="M43.8532 81.8482V105.729L0 78.381V54.5005L43.8532 81.8482Z" fill="white"/>
<path d="M171.365 27.3477V51.2282L127.512 23.8955V0L171.365 27.3477Z" fill="white"/>
<path d="M65.9688 81.8482V105.729L109.822 78.381V54.5005L65.9688 81.8482Z" fill="white"/>
<path d="M65.9688 27.3477V51.2282L109.822 23.8955V0L65.9688 27.3477Z" fill="white"/>
<path d="M65.9688 130.106V154.001L109.822 126.653V102.773L65.9688 130.106Z" fill="white"/>
<path d="M127.512 78.7262V102.607L171.365 75.274V51.3936L127.512 78.7262Z" fill="white"/>
</g>
<defs>
<clipPath id="clip0">
<rect width="566" height="154" fill="white"/>
</clipPath>
</defs>
</svg>
