<svg width="176" height="48" viewBox="0 0 176 48" fill="none" xmlns="http://www.w3.org/2000/svg">
<g clip-path="url(#clip0)">
<path d="M77.0205 17.6509V28.4439C77.0205 28.9865 76.8421 29.4591 76.4854 29.8661C76.1286 30.2684 75.5325 30.4743 74.6969 30.4743C73.5938 30.4743 72.7865 30.086 72.2795 29.314L67.3178 21.8708C67.1864 21.6649 67.0691 21.562 66.9705 21.562C66.825 21.562 66.7546 21.6836 66.7546 21.9222V30.3245H63.9897V19.4942C63.9897 18.8298 64.2104 18.3339 64.6516 18.0018C65.0929 17.6696 65.6702 17.5059 66.3884 17.5059C67.4634 17.5059 68.2473 17.8661 68.7308 18.5912L73.7253 26.1094C73.7394 26.1234 73.7581 26.1561 73.791 26.2076C73.8192 26.2637 73.8426 26.2965 73.8614 26.3152C73.8802 26.3339 73.9084 26.3526 73.9412 26.3807C73.9788 26.4041 74.0116 26.4181 74.0492 26.4181C74.1806 26.4181 74.251 26.3152 74.251 26.1094V17.6509H77.0205Z" fill="#002237"/>
<path d="M89.685 17.6514V20.1169H83.1414C82.8269 20.1169 82.6063 20.1824 82.4796 20.3087C82.3528 20.435 82.2918 20.6549 82.2918 20.9683V22.7274H89.5254V25.0806H82.2918V27.0174C82.2918 27.3309 82.3575 27.5508 82.4796 27.6771C82.6063 27.8034 82.8269 27.8689 83.1414 27.8689H89.7554V30.3344H80.9446C79.6584 30.3344 79.02 29.6888 79.02 28.3975V19.6116C79.02 18.3063 79.6631 17.6561 80.9446 17.6561H89.685V17.6514Z" fill="#002237"/>
<path d="M94.6089 17.7772C95.421 17.5948 96.4819 17.5059 97.7868 17.5059C99.0965 17.5059 100.157 17.5948 100.965 17.7772C101.777 17.9597 102.462 18.2918 103.025 18.7737C103.589 19.2556 103.983 19.9152 104.208 20.748C104.434 21.5807 104.546 22.6614 104.546 23.9901C104.546 25.3187 104.434 26.3994 104.208 27.2322C103.983 28.0649 103.589 28.7246 103.025 29.2158C102.462 29.707 101.772 30.0392 100.965 30.2123C100.153 30.3854 99.0918 30.4743 97.7868 30.4743C96.4772 30.4743 95.421 30.3854 94.6089 30.2123C93.7969 30.0392 93.1115 29.707 92.5482 29.2158C91.9849 28.7246 91.5906 28.0649 91.3653 27.2322C91.14 26.3994 91.0273 25.3187 91.0273 23.9901C91.0273 22.6614 91.14 21.5807 91.3653 20.748C91.5859 19.9152 91.9849 19.2556 92.5482 18.7737C93.1115 18.2918 93.7969 17.9597 94.6089 17.7772ZM95.0924 20.8836C94.6136 21.445 94.3742 22.479 94.3742 23.9901C94.3742 25.5012 94.6136 26.5351 95.0924 27.0965C95.5712 27.6579 96.4678 27.9386 97.7915 27.9386C99.1106 27.9386 100.012 27.6579 100.491 27.0965C100.969 26.5351 101.209 25.5012 101.209 23.9901C101.209 22.479 100.969 21.445 100.491 20.8836C100.012 20.3222 99.1106 20.0415 97.7915 20.0415C96.4678 20.0415 95.5712 20.3222 95.0924 20.8836Z" fill="#002237"/>
<path d="M117.141 22.6276L110.024 22.876L110.107 25.2278L117.224 24.9794L117.141 22.6276Z" fill="#0055FF"/>
<path d="M125.647 19.7145H122.812V17.6514H125.647V19.7145ZM122.812 20.7297H125.647V30.3297H122.812V20.7297Z" fill="#002237"/>
<path d="M127.172 30.3295V22.54C127.172 21.333 127.777 20.7295 128.988 20.7295H132.913C134.1 20.7295 135.025 21.0102 135.692 21.5716C136.358 22.133 136.691 23.0032 136.691 24.1868V30.3248H133.856V24.9119C133.856 24.1774 133.701 23.6394 133.392 23.3073C133.082 22.9751 132.57 22.8114 131.857 22.8114H130.641C130.411 22.8114 130.246 22.8581 130.148 22.9564C130.049 23.0546 130.002 23.2137 130.002 23.4429V30.3248H127.172V30.3295Z" fill="#002237"/>
<path d="M140.222 20.7295L142.677 27.0687C142.775 27.2979 142.86 27.4148 142.93 27.4148C142.991 27.4148 143.071 27.3026 143.165 27.0687L145.62 20.7295H148.563L144.695 29.5856C144.536 29.9458 144.315 30.1798 144.024 30.2827C143.733 30.3856 143.371 30.4371 142.935 30.4371C142.658 30.4371 142.428 30.423 142.245 30.3996C142.062 30.3763 141.865 30.2967 141.644 30.1657C141.428 30.0347 141.264 29.8382 141.156 29.5856L137.283 20.7295H140.222Z" fill="#002237"/>
<path d="M158.355 30.3297H152.539C151.051 30.3297 150.065 29.9835 149.586 29.2957C149.108 28.608 148.868 27.3402 148.868 25.4922C148.868 24.4536 148.939 23.6256 149.084 23.0127C149.23 22.3952 149.502 21.9039 149.901 21.539C150.3 21.1694 150.797 20.9262 151.384 20.8045C151.971 20.6829 152.769 20.6221 153.773 20.6221C154.647 20.6221 155.355 20.6689 155.9 20.7577C156.444 20.8466 156.947 21.0291 157.397 21.2911C157.853 21.5577 158.181 21.9507 158.378 22.47C158.575 22.9893 158.679 23.6583 158.679 24.4817C158.679 25.8104 158.177 26.4747 157.167 26.4747H151.741C151.741 27.1016 151.877 27.5647 152.149 27.8595C152.422 28.1542 152.929 28.3039 153.665 28.3039H158.355V30.3297ZM151.741 24.5145H155.266C155.618 24.5145 155.797 24.3226 155.797 23.9343C155.797 23.4899 155.595 23.1624 155.186 22.9566C154.783 22.7507 154.309 22.6478 153.778 22.6478C153.074 22.6478 152.558 22.7881 152.234 23.0642C151.905 23.3449 151.741 23.8267 151.741 24.5145Z" fill="#002237"/>
<path d="M159.698 30.3295V28.2476H165.04C165.476 28.2476 165.692 28.0558 165.692 27.6675C165.692 27.5458 165.655 27.4383 165.584 27.34C165.509 27.2418 165.401 27.1622 165.256 27.0967C165.11 27.0312 164.974 26.9751 164.847 26.933C164.72 26.8909 164.566 26.8488 164.383 26.8067C164.199 26.7646 164.073 26.7318 164.002 26.7084L162.04 26.1096C161.134 25.8336 160.496 25.4874 160.134 25.0757C159.773 24.664 159.59 24.0698 159.59 23.2839C159.59 22.4043 159.806 21.7587 160.233 21.347C160.665 20.9353 161.331 20.7295 162.242 20.7295H168.236V22.8114H163.078C162.571 22.8114 162.317 22.9751 162.317 23.2979C162.317 23.5271 162.416 23.7002 162.618 23.8125C162.819 23.9248 163.11 24.0464 163.5 24.1681L165.753 24.8558C166.237 25.0008 166.626 25.1365 166.917 25.2628C167.208 25.3891 167.499 25.5622 167.79 25.7868C168.081 26.0114 168.288 26.292 168.419 26.6289C168.546 26.9657 168.612 27.3727 168.612 27.8406C168.612 28.6733 168.415 29.2956 168.02 29.7073C167.626 30.119 167.006 30.3248 166.157 30.3248H159.698V30.3295Z" fill="#002237"/>
<path d="M176 30.3299H174.019C171.635 30.3299 170.438 29.2679 170.438 27.144V22.8165H169.095V20.7346H170.438V17.6562H173.273V20.7346H176V22.8165H173.273V26.11C173.273 26.8492 173.451 27.3872 173.799 27.7334C174.151 28.0796 174.709 28.248 175.47 28.248H175.996V30.3299H176Z" fill="#002237"/>
<path d="M13.6363 25.5113V32.9545L0 24.4306V16.9873L13.6363 25.5113Z" fill="#0055FF"/>
<path d="M53.2872 8.52397V15.9672L39.6509 7.44794V0L53.2872 8.52397Z" fill="#003FC4"/>
<path d="M20.5132 25.5113V32.9545L34.1495 24.4306V16.9873L20.5132 25.5113Z" fill="#003FC4"/>
<path d="M20.5132 8.52397V15.9672L34.1495 7.44794V0L20.5132 8.52397Z" fill="#0055FF"/>
<path d="M20.5132 40.5525V48.0004L34.1495 39.4765V32.0332L20.5132 40.5525Z" fill="#0055FF"/>
<path d="M39.6509 24.5378V31.9811L53.2872 23.4618V16.0186L39.6509 24.5378Z" fill="#003FC4"/>
</g>
<defs>
<clipPath id="clip0">
<rect width="176" height="48" fill="white"/>
</clipPath>
</defs>
</svg>
