<svg width="40" height="40" viewBox="0 0 40 40" fill="none" xmlns="http://www.w3.org/2000/svg">
<path d="M23.2335 12H16.7665C14.1382 12 12 14.1382 12 16.7665V23.2335C12 25.8618 14.1382 28 16.7665 28H23.2335C25.8618 28 28 25.8618 28 23.2335V16.7665C28 14.1382 25.8617 12 23.2335 12ZM26.3904 23.2335C26.3904 24.977 24.977 26.3904 23.2335 26.3904H16.7665C15.023 26.3904 13.6096 24.977 13.6096 23.2335V16.7665C13.6096 15.023 15.023 13.6096 16.7665 13.6096H23.2335C24.977 13.6096 26.3904 15.023 26.3904 16.7665V23.2335Z" fill="#C95589"/>
<path d="M20 15.8618C17.7182 15.8618 15.8618 17.7182 15.8618 20C15.8618 22.2817 17.7182 24.1381 20 24.1381C22.2818 24.1381 24.1382 22.2817 24.1382 20C24.1382 17.7182 22.2818 15.8618 20 15.8618ZM20 22.5286C18.6035 22.5286 17.4714 21.3965 17.4714 20C17.4714 18.6035 18.6035 17.4714 20 17.4714C21.3965 17.4714 22.5286 18.6035 22.5286 20C22.5286 21.3965 21.3965 22.5286 20 22.5286Z" fill="#C95589"/>
<path d="M24.1462 16.8845C24.6938 16.8845 25.1378 16.4406 25.1378 15.893C25.1378 15.3453 24.6938 14.9014 24.1462 14.9014C23.5986 14.9014 23.1546 15.3453 23.1546 15.893C23.1546 16.4406 23.5986 16.8845 24.1462 16.8845Z" fill="#C95589"/>
<circle cx="20" cy="20" r="20" fill="#C95589" fill-opacity="0.05"/>
</svg>
