<svg width="40" height="40" viewBox="0 0 40 40" fill="none" xmlns="http://www.w3.org/2000/svg">
<rect width="40" height="40" rx="20" fill="#C95589" fill-opacity="0.05"/>
<g clip-path="url(#clip0_80_2014)">
<path d="M28 20.0486C28 24.0413 25.0707 27.3512 21.2467 27.9519V22.3766H23.106L23.46 20.0699H21.2467V18.5733C21.2467 17.9419 21.556 17.3273 22.5467 17.3273H23.5527V15.3633C23.5527 15.3633 22.6393 15.2073 21.7667 15.2073C19.944 15.2073 18.7533 16.3119 18.7533 18.3113V20.0693H16.7273V22.3759H18.7533V27.9513C14.93 27.3499 12 24.0406 12 20.0486C12 15.6306 15.582 12.0486 20 12.0486C24.418 12.0486 28 15.6299 28 20.0486Z" fill="#C95589"/>
</g>
<defs>
<clipPath id="clip0_80_2014">
<rect width="16" height="16" fill="white" transform="translate(12 12)"/>
</clipPath>
</defs>
</svg>
