<svg width="40" height="40" viewBox="0 0 40 40" fill="none" xmlns="http://www.w3.org/2000/svg">
<rect width="40" height="40" rx="20" fill="#C95589" fill-opacity="0.05"/>
<path d="M24.7815 25.7816H22.5587V22.3007C22.5587 21.4706 22.5439 20.4024 21.4026 20.4024C20.245 20.4024 20.0676 21.3065 20.0676 22.2408V25.7816H17.8456V18.6232H19.9796V19.6011H20.0092C20.4446 18.8575 21.2533 18.4133 22.1145 18.445C24.3675 18.445 24.7822 19.9271 24.7822 21.8542L24.7815 25.7816ZM15.3375 17.6445C14.6249 17.6445 14.0476 17.0672 14.0476 16.3546C14.0476 15.642 14.6249 15.0647 15.3375 15.0647C16.0501 15.0647 16.6274 15.642 16.6274 16.3546C16.6274 17.0672 16.0501 17.6445 15.3375 17.6445ZM16.4485 25.7816H14.2235V18.6232H16.4485V25.7816ZM25.8895 13.0008H13.1066C12.5027 12.9942 12.0074 13.4784 12 14.0823V26.9177C12.0074 27.5224 12.5027 28.0066 13.1066 27.9999H25.8895C26.4949 28.0073 26.9924 27.5231 27.0006 26.9177V14.0815C26.9917 13.4761 26.4942 12.992 25.8895 13.0001" fill="#C95589"/>
</svg>
