<svg width="40" height="40" viewBox="0 0 40 40" fill="none" xmlns="http://www.w3.org/2000/svg">
<rect width="40" height="40" rx="20" fill="#C95589" fill-opacity="0.05"/>
<path d="M27.6653 15.76C27.4813 15.0673 26.9393 14.5213 26.2507 14.336C25.0033 14 20 14 20 14C20 14 14.9967 14 13.7487 14.336C13.0607 14.5213 12.5187 15.0667 12.3347 15.76C12 17.016 12 19.636 12 19.636C12 19.636 12 22.256 12.3347 23.512C12.5187 24.2047 13.0607 24.7507 13.7493 24.936C14.9967 25.272 20 25.272 20 25.272C20 25.272 25.0033 25.272 26.2513 24.936C26.9393 24.7507 27.4813 24.2053 27.666 23.512C28 22.256 28 19.636 28 19.636C28 19.636 28 17.016 27.6653 15.76ZM18.364 22.0153V17.2567L22.5453 19.636L18.364 22.0153Z" fill="#C95589"/>
</svg>
