<svg width="40" height="40" viewBox="0 0 40 40" fill="none" xmlns="http://www.w3.org/2000/svg">
<rect width="40" height="40" rx="20" fill="#C95589" fill-opacity="0.05"/>
<g clip-path="url(#clip0_80_2001)">
<path fill-rule="evenodd" clip-rule="evenodd" d="M20 12C15.582 12 12 15.582 12 20C12 24.418 15.582 28 20 28C24.418 28 28 24.418 28 20C28 15.582 24.418 12 20 12ZM23.708 17.4407C23.588 18.7053 23.0667 21.7753 22.802 23.192C22.69 23.792 22.4687 23.9927 22.2553 24.012C21.7907 24.0547 21.438 23.7047 20.988 23.41C20.284 22.9487 19.886 22.6613 19.2027 22.2107C18.4127 21.69 18.9247 21.404 19.3747 20.9367C19.4927 20.814 21.5393 18.952 21.5793 18.7833C21.584 18.762 21.5893 18.6833 21.542 18.642C21.4947 18.6007 21.426 18.6147 21.3767 18.626C21.306 18.642 20.1813 19.3853 18.002 20.856C17.6827 21.0753 17.3933 21.182 17.134 21.1767C16.8487 21.1707 16.2993 21.0153 15.8907 20.882C15.39 20.7193 14.9913 20.6327 15.026 20.3567C15.044 20.2127 15.242 20.0653 15.6207 19.9147C17.9527 18.8987 19.508 18.2287 20.286 17.9047C22.508 16.9807 22.9693 16.82 23.2707 16.8147C23.648 16.8093 23.7387 17.1207 23.708 17.4407Z" fill="#C95589"/>
</g>
<defs>
<clipPath id="clip0_80_2001">
<rect width="16" height="16" fill="white" transform="translate(12 12)"/>
</clipPath>
</defs>
</svg>
