<?xml version="1.0" standalone="no"?>
<!DOCTYPE svg PUBLIC "-//W3C//DTD SVG 20010904//EN"
 "http://www.w3.org/TR/2001/REC-SVG-20010904/DTD/svg10.dtd">
<svg version="1.0" xmlns="http://www.w3.org/2000/svg"
 width="256.000000pt" height="256.000000pt" viewBox="0 0 256.000000 256.000000"
 preserveAspectRatio="xMidYMid meet">
<metadata>
Created by potrace 1.14, written by Peter Selinger 2001-2017
</metadata>
<g transform="translate(0.000000,256.000000) scale(0.100000,-0.100000)"
fill="#000000" stroke="none">
<path d="M1303 1973 l-233 -146 0 -129 0 -129 53 34 c28 18 134 84 235 146
l182 114 0 128 c0 71 -1 129 -2 128 -2 0 -108 -66 -235 -146z"/>
<path d="M1730 1992 l0 -129 231 -144 c128 -79 236 -146 241 -147 5 -2 7 53 6
124 l-3 128 -220 139 c-121 76 -228 142 -237 148 -17 9 -18 1 -18 -119z"/>
<path d="M1963 1413 l-233 -146 0 -129 c0 -120 1 -128 18 -119 9 6 116 72 237
148 l220 139 3 127 c1 70 -1 127 -5 126 -4 0 -113 -66 -240 -146z"/>
<path d="M350 1402 l0 -129 183 -113 c100 -63 206 -129 235 -147 l52 -34 0
129 0 129 -182 114 c-101 62 -207 128 -235 146 l-53 34 0 -129z"/>
<path d="M1303 1383 l-233 -145 0 -129 0 -129 78 48 c42 27 148 93 235 146
l157 98 0 129 c0 71 -1 129 -2 128 -2 0 -108 -66 -235 -146z"/>
<path d="M1298 857 l-228 -142 0 -128 0 -129 23 14 c12 8 118 74 235 147 l212
132 0 125 c0 68 -3 124 -7 124 -5 0 -110 -65 -235 -143z"/>
</g>
</svg>
