<svg width="16" height="16" viewBox="0 0 16 16" fill="none" xmlns="http://www.w3.org/2000/svg">
<g clip-path="url(#clip0_2010_2518)">
<path d="M4.66667 4.66667C4.88667 3.08 6.08 1.78667 7.66667 1.37333L9.98 0.773333C10.0933 0.746667 10.2 0.68 10.2867 0.6L10.6933 0.193333C10.82 0.0666667 10.9867 0 11.1667 0H15.34C15.7067 0 16.0067 0.3 16.0067 0.666667V6.06667C16.0067 6.24667 15.9333 6.42667 15.8 6.55333L14.9733 7.33333H8.66667V5.33333C8.66667 4.96667 8.36667 4.66667 8 4.66667C7.63333 4.66667 7.33333 4.96667 7.33333 5.33333V8.66667C7.33333 9.4 6.73333 10 6 10C5.26667 10 4.66667 9.4 4.66667 8.66667C4.66667 8.66667 4.65333 4.66667 4.66667 4.66667ZM8.66667 8.66667C8.66667 10.14 7.47333 11.3333 6 11.3333C4.52667 11.3333 3.33333 10.14 3.33333 8.66667V5.15333C2.38667 5.67333 1.66 6.56667 1.37333 7.66667L0.773333 9.98C0.746667 10.0933 0.68 10.2 0.6 10.2867L0.193333 10.6933C0.0666667 10.82 0 10.9867 0 11.1667V15.34C0 15.7067 0.3 16.0067 0.666667 16.0067H5.38C5.56 16.0067 5.72667 15.9333 5.85333 15.8067L6.74667 14.8933C6.87333 14.7667 7.04 14.6933 7.22 14.6933L9.44 14.68C11.2133 14.6733 12.7867 13.4733 13.2733 11.7667L14.1467 8.67333H8.66667V8.66667Z" fill="#5B55C9"/>
</g>
<defs>
<clipPath id="clip0_2010_2518">
<rect width="16" height="16" fill="white"/>
</clipPath>
</defs>
</svg>
