<svg width="16" height="16" viewBox="0 0 16 16" fill="none" xmlns="http://www.w3.org/2000/svg">
<g clip-path="url(#clip0_2010_1968)">
<path d="M5.33333 8.00006C7.53933 8.00006 9.33333 6.20606 9.33333 4.00006C9.33333 1.79406 7.53933 6.10352e-05 5.33333 6.10352e-05C3.12733 6.10352e-05 1.33333 1.79406 1.33333 4.00006C1.33333 6.20606 3.12733 8.00006 5.33333 8.00006ZM15.1307 12.7561L14.4813 12.3814C14.592 12.0501 14.6667 11.7021 14.6667 11.3334C14.6667 10.9647 14.5927 10.6167 14.4813 10.2854L15.1307 9.91073C15.4493 9.72673 15.5587 9.31873 15.3747 9.00006C15.19 8.68073 14.7827 8.57139 14.464 8.75606L13.8153 9.13073C13.3453 8.60139 12.7193 8.21406 12 8.06806V7.33406C12 6.96606 11.7013 6.66739 11.3333 6.66739C10.9653 6.66739 10.6667 6.96606 10.6667 7.33406V8.06806C9.94733 8.21473 9.32133 8.60206 8.85133 9.13073L8.20267 8.75606C7.882 8.57139 7.476 8.68073 7.292 9.00006C7.108 9.3194 7.21733 9.72673 7.536 9.91073L8.18533 10.2854C8.07467 10.6167 8 10.9647 8 11.3334C8 11.7021 8.074 12.0501 8.18533 12.3814L7.536 12.7561C7.21733 12.9401 7.108 13.3481 7.292 13.6667C7.416 13.8807 7.63933 14.0001 7.87 14.0001C7.98267 14.0001 8.09733 13.9714 8.20267 13.9107L8.85133 13.5361C9.32133 14.0654 9.94733 14.4527 10.6667 14.5987V15.3327C10.6667 15.7007 10.9653 15.9994 11.3333 15.9994C11.7013 15.9994 12 15.7007 12 15.3327V14.5987C12.7193 14.4521 13.3453 14.0647 13.8153 13.5361L14.464 13.9107C14.5693 13.9714 14.684 14.0001 14.7967 14.0001C15.0273 14.0001 15.2513 13.8807 15.3747 13.6667C15.5587 13.3474 15.4493 12.9401 15.1307 12.7561ZM11.3333 12.3334C10.782 12.3334 10.3333 11.8847 10.3333 11.3334C10.3333 10.7821 10.782 10.3334 11.3333 10.3334C11.8847 10.3334 12.3333 10.7821 12.3333 11.3334C12.3333 11.8847 11.8847 12.3334 11.3333 12.3334ZM5.66667 11.3334C5.66667 10.9674 5.70333 10.5961 5.77667 10.2281C5.82067 10.0061 5.74867 9.7774 5.58667 9.62006C5.42467 9.46273 5.194 9.39873 4.97333 9.44873C2.138 10.0994 0 12.6294 0 15.3334C0 15.7014 0.298667 16.0001 0.666667 16.0001H6.42467C6.682 16.0001 6.91667 15.8521 7.02667 15.6194C7.13733 15.3867 7.104 15.1114 6.94133 14.9121C6.11933 13.9047 5.66667 12.6341 5.66667 11.3334Z" fill="#5B55C9"/>
</g>
<defs>
<clipPath id="clip0_2010_1968">
<rect width="16" height="16" fill="white"/>
</clipPath>
</defs>
</svg>
