<svg width="16" height="16" viewBox="0 0 16 16" fill="none" xmlns="http://www.w3.org/2000/svg">
<g clip-path="url(#clip0_2010_2222)">
<path d="M15.512 11.8454L13.542 13.8154C13.412 13.9454 13.2413 14.0107 13.0707 14.0107C12.9 14.0107 12.7293 13.9454 12.5993 13.8154C12.3387 13.5547 12.3387 13.1334 12.5993 12.8727L14.1387 11.3334H11.6673C10.748 11.3334 10.0007 12.0807 10.0007 13.0001V15.3334C10.0007 15.7021 9.70267 16.0001 9.334 16.0001C8.96533 16.0001 8.66733 15.7021 8.66733 15.3334V13.0001C8.66733 11.3461 10.0133 10.0001 11.6673 10.0001H14.1387L12.61 8.47139C12.3493 8.21073 12.3493 7.78939 12.61 7.52873C12.8707 7.26806 13.292 7.26806 13.5527 7.52873L15.512 9.48806C16.162 10.1381 16.162 11.1961 15.512 11.8454ZM1.33333 4.00006C1.33333 1.79406 3.12733 6.10352e-05 5.33333 6.10352e-05C7.53933 6.10352e-05 9.33333 1.79406 9.33333 4.00006C9.33333 6.20606 7.53933 8.00006 5.33333 8.00006C3.12733 8.00006 1.33333 6.20606 1.33333 4.00006ZM8.13867 9.99073C8.21067 10.1907 8.18333 10.4127 8.06533 10.5887C7.58667 11.3021 7.33333 12.1354 7.33333 12.9994V15.3327C7.33333 15.7014 7.03533 15.9994 6.66667 15.9994H0.666667C0.298 15.9994 0 15.7014 0 15.3327C0 12.0241 2.69133 9.33273 6 9.33273C6.57733 9.33273 7.15 9.41473 7.70067 9.57739C7.904 9.63739 8.06667 9.79073 8.13867 9.99006V9.99073Z" fill="#5B55C9"/>
</g>
<defs>
<clipPath id="clip0_2010_2222">
<rect width="16" height="16" fill="white"/>
</clipPath>
</defs>
</svg>
