<svg width="16" height="16" viewBox="0 0 16 16" fill="none" xmlns="http://www.w3.org/2000/svg">
<g clip-path="url(#clip0_2010_1982)">
<path d="M8 8.66673C8 9.77139 6.20933 10.6667 4 10.6667C1.79067 10.6667 0 9.77139 0 8.66673C0 7.56206 1.79067 6.66673 4 6.66673C6.20933 6.66673 8 7.56206 8 8.66673ZM8 12.3334V13.6667C8 14.9967 6.28067 16.0001 4 16.0001C1.71933 16.0001 0 14.9967 0 13.6667V12.3334C0 13.6474 1.66667 14.6667 4 14.6667C6.33333 14.6667 8 13.6474 8 12.3334ZM8 9.66673V11.0001C8 12.3301 6.28067 13.3334 4 13.3334C1.71933 13.3334 0 12.3301 0 11.0001V9.66673C0 10.9807 1.66667 12.0001 4 12.0001C6.33333 12.0001 8 10.9807 8 9.66673ZM7.33333 4.00006C6.32733 4.00006 5.45 4.56006 4.996 5.38406C7.44667 5.63939 9.174 6.83673 9.32267 8.44073C9.744 7.96873 10 7.34739 10 6.66673C10 5.19606 8.804 4.00006 7.33333 4.00006ZM14 4.00006C14 3.63206 14.2987 3.33339 14.6667 3.33339H16C16 1.49539 14.5047 6.10352e-05 12.6667 6.10352e-05H3.33333C1.49533 6.10352e-05 0 1.49539 0 3.33339V6.39073C0.867333 5.78939 2.106 5.40806 3.55867 5.34339C4.106 3.78606 5.59133 2.66673 7.33333 2.66673C9.53933 2.66673 11.3333 4.46073 11.3333 6.66673C11.3333 8.14406 10.528 9.43739 9.33333 10.1301V13.3334H12.6667C12.8947 13.3334 13.118 13.3101 13.3333 13.2661V14.0001C13.3333 14.3681 13.632 14.6667 14 14.6667C14.368 14.6667 14.6667 14.3681 14.6667 14.0001V12.6647C15.476 12.0561 16 11.0881 16 10.0001H14.6667C14.2987 10.0001 14 9.7014 14 9.3334C14 8.96539 14.2987 8.66673 14.6667 8.66673H16V4.66673H14.6667C14.2987 4.66673 14 4.36806 14 4.00006Z" fill="#5B55C9"/>
</g>
<defs>
<clipPath id="clip0_2010_1982">
<rect width="16" height="16" fill="white"/>
</clipPath>
</defs>
</svg>
