<svg width="20" height="22" viewBox="0 0 20 22" fill="none" xmlns="http://www.w3.org/2000/svg">
<path d="M17.1494 8.78455V7.18925C17.1494 6.9777 17.0654 6.77482 16.9158 6.62523C16.7662 6.47564 16.5633 6.3916 16.3518 6.3916H15.7216C15.4515 7.29987 14.9531 8.12374 14.2739 8.78455H17.1494ZM17.9471 13.9693C17.7133 13.9626 17.4828 14.0261 17.2854 14.1514C17.0879 14.2768 16.9324 14.4583 16.8389 14.6727C16.7455 14.8871 16.7182 15.1246 16.7608 15.3546C16.8033 15.5846 16.9137 15.7966 17.0776 15.9634C17.5802 16.4898 18.1385 16.3622 19.1436 16.3622C19.3551 16.3622 19.558 16.2782 19.7076 16.1286C19.8572 15.979 19.9412 15.7761 19.9412 15.5646V13.6662C19.3509 14.073 18.7128 13.9693 17.9471 13.9693ZM0.330993 8.44555C0.765712 8.9042 0.729817 8.78455 6.46492 8.78455C5.78575 8.12374 5.28732 7.29987 5.01718 6.3916H1.09674C0.119616 6.3916 -0.370939 7.68778 0.330993 8.44555Z" fill="#C95589"/>
<path d="M17.9471 13.1716H18.3459V10.3799C18.3459 10.1683 18.2619 9.96544 18.1123 9.81585C17.9627 9.66626 17.7598 9.58223 17.5483 9.58223C-0.0877419 9.58223 0.761755 9.75372 0 9.1834V20.3505C0 20.562 0.0840378 20.7649 0.233626 20.9145C0.383214 21.0641 0.5861 21.1481 0.79765 21.1481H17.5483C17.7598 21.1481 17.9627 21.0641 18.1123 20.9145C18.2619 20.7649 18.3459 20.562 18.3459 20.3505V17.1599C15.0357 17.1599 15.4265 13.1716 17.9471 13.1716ZM19.1436 11.1975V13.1716C19.3813 13.1378 19.5987 13.0193 19.7561 12.838C19.9134 12.6566 20 12.4246 20 12.1846C20 11.9445 19.9134 11.7125 19.7561 11.5311C19.5987 11.3498 19.3813 11.2313 19.1436 11.1975ZM10.7683 3.59985H9.5718V4.3975H10.7683C10.874 4.3975 10.9755 4.35548 11.0503 4.28069C11.1251 4.2059 11.1671 4.10445 11.1671 3.99868C11.1671 3.8929 11.1251 3.79146 11.0503 3.71667C10.9755 3.64187 10.874 3.59985 10.7683 3.59985ZM11.1671 5.19515H9.5718V5.9928H11.1671C11.2729 5.9928 11.3743 5.95078 11.4491 5.87599C11.5239 5.8012 11.5659 5.69975 11.5659 5.59398C11.5659 5.4882 11.5239 5.38676 11.4491 5.31197C11.3743 5.23717 11.2729 5.19515 11.1671 5.19515Z" fill="#C95589"/>
<path d="M7.72127 8.78459H13.0177C14.0062 8.13409 14.717 7.13885 15.0118 5.99281C16.1086 1.93677 11.6298 -1.4692 7.97652 0.648562C7.26995 1.05561 6.6791 1.63644 6.26003 2.33594C5.84096 3.03545 5.60757 3.83043 5.582 4.64546C5.55644 5.46049 5.73954 6.26853 6.11393 6.99293C6.48833 7.71733 7.0416 8.33405 7.72127 8.78459ZM8.77416 2.80222H9.17299V2.40339C9.17299 2.29762 9.21501 2.19617 9.2898 2.12138C9.3646 2.04659 9.46604 2.00457 9.57181 2.00457C9.67759 2.00457 9.77903 2.04659 9.85383 2.12138C9.92862 2.19617 9.97064 2.29762 9.97064 2.40339V2.80222H10.3695V2.40339C10.3695 2.29762 10.4115 2.19617 10.4863 2.12138C10.5611 2.04659 10.6625 2.00457 10.7683 2.00457C10.8741 2.00457 10.9755 2.04659 11.0503 2.12138C11.1251 2.19617 11.1671 2.29762 11.1671 2.40339V2.874C11.3313 2.93205 11.4809 3.02525 11.6053 3.14708C11.7298 3.26892 11.8261 3.41645 11.8877 3.57938C11.9492 3.74231 11.9744 3.91671 11.9615 4.0904C11.9487 4.26408 11.8981 4.43287 11.8132 4.58496C12.0318 4.72424 12.1992 4.93072 12.2903 5.17335C12.3815 5.41598 12.3913 5.68164 12.3185 5.93036C12.2456 6.17908 12.0939 6.39742 11.8863 6.55253C11.6787 6.70765 11.4263 6.79114 11.1671 6.79046V7.18929C11.1671 7.29506 11.1251 7.39651 11.0503 7.4713C10.9755 7.5461 10.8741 7.58811 10.7683 7.58811C10.6625 7.58811 10.5611 7.5461 10.4863 7.4713C10.4115 7.39651 10.3695 7.29506 10.3695 7.18929V6.79046H9.97064V7.18929C9.97064 7.29506 9.92862 7.39651 9.85383 7.4713C9.77903 7.5461 9.67759 7.58811 9.57181 7.58811C9.46604 7.58811 9.3646 7.5461 9.2898 7.4713C9.21501 7.39651 9.17299 7.29506 9.17299 7.18929V6.79046H8.77416C8.66839 6.79046 8.56695 6.74845 8.49215 6.67365C8.41736 6.59886 8.37534 6.49741 8.37534 6.39164C8.37534 6.28586 8.41736 6.18442 8.49215 6.10963C8.56695 6.03483 8.66839 5.99281 8.77416 5.99281V3.59987C8.66839 3.59987 8.56695 3.55785 8.49215 3.48305C8.41736 3.40826 8.37534 3.30682 8.37534 3.20104C8.37534 3.09527 8.41736 2.99382 8.49215 2.91903C8.56695 2.84423 8.66839 2.80222 8.77416 2.80222Z" fill="#C95589"/>
</svg>
