<svg width="16" height="16" viewBox="0 0 16 16" fill="none" xmlns="http://www.w3.org/2000/svg">
<g clip-path="url(#clip0_2010_2053)">
<path d="M8.634 12.6893L7.40867 11.386C7.29067 11.2593 7.18667 11.1233 7.09533 10.9813C6.912 11.1967 6.63867 11.334 6.33333 11.334C5.78133 11.334 5.33333 10.886 5.33333 10.334C5.33333 9.782 5.78133 9.334 6.33333 9.334C6.446 9.334 6.554 9.35267 6.65533 9.38734C6.65867 9.28401 6.66733 9.18067 6.682 9.07667C6.80067 8.236 7.28933 7.49934 8.02333 7.05667C8.62133 6.696 9.328 6.59 10.0007 6.72467V6.00067C10.0007 4.16267 8.50533 2.66734 6.66733 2.66734H1.33333C1.33333 1.934 1.93333 1.334 2.66667 1.334H5.62667C5.16667 0.540671 4.31333 0.000671666 3.33333 0.000671666H2.66667C1.19333 4.99928e-06 0 1.19334 0 2.66667V13.3333C0 14.8067 1.19333 16 2.66667 16H3.33333C4.31333 16 5.16667 15.46 5.62667 14.6667H2.66667C1.93333 14.6667 1.33333 14.0667 1.33333 13.3333H6.66667C7.402 13.3333 8.082 13.094 8.634 12.6893ZM6.33333 4.66667C6.88533 4.66667 7.33333 5.11467 7.33333 5.66667C7.33333 6.21867 6.88533 6.66667 6.33333 6.66667C5.78133 6.66667 5.33333 6.21867 5.33333 5.66667C5.33333 5.11467 5.78133 4.66667 6.33333 4.66667ZM2.17467 10.5307C1.76 10.6687 1.33333 10.338 1.33333 9.90067C1.33333 9.62334 1.49133 9.35267 1.75467 9.26534C2.284 9.08867 2.66667 8.58801 2.66667 8C2.66667 7.412 2.284 6.91134 1.75467 6.73467C1.492 6.64667 1.33333 6.37667 1.33333 6.09934C1.33333 5.662 1.76 5.33067 2.17467 5.46934C3.234 5.82267 4 6.82334 4 8C4 9.17667 3.234 10.1773 2.17467 10.5307ZM16.0127 7.68067V12.6667C16.0127 13.0347 15.714 13.3333 15.346 13.3333H12.7993C11.696 13.3333 10.6413 12.8773 9.88533 12.0733L8.38 10.472C7.75733 9.80067 7.88133 8.69867 8.712 8.19734C9.252 7.872 9.94867 7.964 10.438 8.36067L11.974 9.55267C12.2647 9.77867 12.6833 9.726 12.9093 9.43467C13.1353 9.144 13.0827 8.72534 12.7913 8.49934L11.3333 7.36734V5.99867C11.3333 5.28534 11.172 4.60867 10.8847 4.00267C12.2353 4.05334 13.5193 4.61467 14.474 5.578L15.6573 6.77267C15.886 7.01934 16.0127 7.34267 16.0127 7.67934V7.68067Z" fill="#5B55C9"/>
</g>
<defs>
<clipPath id="clip0_2010_2053">
<rect width="16" height="16" fill="white"/>
</clipPath>
</defs>
</svg>
