<svg width="1920" height="1594" viewBox="0 0 1920 1594" fill="none" xmlns="http://www.w3.org/2000/svg">
<g opacity="0.4">
<path d="M492.048 932.066L492.048 806.901L727.302 950.239L727.302 1075.4L492.048 932.066Z" fill="white"/>
<path d="M-192 1217.71L-192 1092.54L43.2537 1235.8L43.2537 1361.04L-192 1217.71Z" fill="white"/>
<path d="M373.427 932.065L373.427 806.901L138.173 950.238L138.173 1075.4L373.427 932.065Z" fill="white"/>
<path d="M373.424 1217.7L373.424 1092.54L138.171 1235.8L138.171 1361.04L373.424 1217.7Z" fill="white"/>
<path d="M373.427 679.134L373.427 553.891L138.173 697.229L138.173 822.393L373.427 679.134Z" fill="white"/>
<path d="M43.2549 948.405L43.2549 823.24L-191.999 966.499L-191.999 1091.66L43.2549 948.405Z" fill="white"/>
<path d="M915.392 1164.3L915.392 1039.13L680.138 1182.47L680.138 1307.63L915.392 1164.3Z" fill="white"/>
<path d="M1599.44 1449.94L1599.44 1324.77L1364.19 1468.03L1364.19 1593.27L1599.44 1449.94Z" fill="white"/>
<path d="M1034.01 1164.3L1034.01 1039.13L1269.27 1182.47L1269.27 1307.63L1034.01 1164.3Z" fill="white"/>
<path d="M1034.02 1449.93L1034.02 1324.77L1269.27 1468.03L1269.27 1593.27L1034.02 1449.93Z" fill="white"/>
<path d="M1034.01 911.365L1034.01 786.122L1269.27 929.459L1269.27 1054.62L1034.01 911.365Z" fill="white"/>
<path d="M1364.19 1180.63L1364.19 1055.47L1599.44 1198.73L1599.44 1323.89L1364.19 1180.63Z" fill="white"/>
<path d="M1152.61 378.174L1152.61 253.01L1387.86 396.347L1387.86 521.512L1152.61 378.174Z" fill="white"/>
<path d="M468.56 663.816L468.56 538.651L703.814 681.91L703.814 807.153L468.56 663.816Z" fill="white"/>
<path d="M1033.99 378.174L1033.99 253.01L798.733 396.347L798.733 521.512L1033.99 378.174Z" fill="white"/>
<path d="M1033.98 663.813L1033.98 538.649L798.731 681.908L798.731 807.151L1033.98 663.813Z" fill="white"/>
<path d="M1033.99 125.243L1033.99 3.05176e-05L798.734 143.337L798.734 268.502L1033.99 125.243Z" fill="white"/>
<path d="M703.815 394.514L703.815 269.349L468.561 412.608L468.561 537.772L703.815 394.514Z" fill="white"/>
<path d="M1575.95 610.405L1575.95 485.24L1340.7 628.577L1340.7 753.742L1575.95 610.405Z" fill="white"/>
<path d="M1694.57 610.404L1694.57 485.24L1929.83 628.577L1929.83 753.742L1694.57 610.404Z" fill="white"/>
<path d="M1694.58 896.043L1694.58 770.879L1929.83 914.138L1929.83 1039.38L1694.58 896.043Z" fill="white"/>
<path d="M1694.57 357.474L1694.57 232.23L1929.83 375.568L1929.83 500.732L1694.57 357.474Z" fill="white"/>
</g>
</svg>
