<svg width="1708" height="1594" viewBox="0 0 1708 1594" fill="none" xmlns="http://www.w3.org/2000/svg">
<g opacity="0.4">
<path d="M-59.952 932.066L-59.952 806.901L175.302 950.239L175.302 1075.4L-59.952 932.066Z" fill="white"/>
<path d="M363.392 1164.3L363.392 1039.13L128.138 1182.47L128.138 1307.63L363.392 1164.3Z" fill="white"/>
<path d="M1047.44 1449.94L1047.44 1324.77L812.186 1468.03L812.186 1593.27L1047.44 1449.94Z" fill="white"/>
<path d="M482.014 1164.3L482.014 1039.13L717.267 1182.47L717.267 1307.63L482.014 1164.3Z" fill="white"/>
<path d="M482.016 1449.93L482.016 1324.77L717.269 1468.03L717.269 1593.27L482.016 1449.93Z" fill="white"/>
<path d="M482.013 911.365L482.013 786.122L717.267 929.459L717.267 1054.62L482.013 911.365Z" fill="white"/>
<path d="M812.185 1180.63L812.185 1055.47L1047.44 1198.73L1047.44 1323.89L812.185 1180.63Z" fill="white"/>
<path d="M600.608 378.174L600.608 253.01L835.862 396.347L835.862 521.512L600.608 378.174Z" fill="white"/>
<path d="M-83.4396 663.816L-83.4396 538.651L151.814 681.91L151.814 807.153L-83.4396 663.816Z" fill="white"/>
<path d="M481.987 378.174L481.987 253.01L246.733 396.347L246.733 521.512L481.987 378.174Z" fill="white"/>
<path d="M481.985 663.813L481.985 538.649L246.731 681.908L246.731 807.151L481.985 663.813Z" fill="white"/>
<path d="M481.987 125.243L481.987 0.000152588L246.734 143.338L246.734 268.502L481.987 125.243Z" fill="white"/>
<path d="M151.815 394.514L151.815 269.349L-83.4386 412.608L-83.4386 537.772L151.815 394.514Z" fill="white"/>
<path d="M1023.95 610.405L1023.95 485.24L788.699 628.578L788.699 753.742L1023.95 610.405Z" fill="white"/>
<path d="M1708 896.046L1708 770.882L1472.75 914.141L1472.75 1039.38L1708 896.046Z" fill="white"/>
<path d="M1142.57 610.404L1142.57 485.24L1377.83 628.577L1377.83 753.742L1142.57 610.404Z" fill="white"/>
<path d="M1142.58 896.043L1142.58 770.879L1377.83 914.138L1377.83 1039.38L1142.58 896.043Z" fill="white"/>
<path d="M1142.57 357.474L1142.57 232.231L1377.83 375.568L1377.83 500.732L1142.57 357.474Z" fill="white"/>
<path d="M1472.75 626.744L1472.75 501.58L1708 644.838L1708 770.003L1472.75 626.744Z" fill="white"/>
</g>
</svg>
