<svg width="1920" height="3545" viewBox="0 0 1920 3545" fill="none" xmlns="http://www.w3.org/2000/svg">
<g opacity="0.4">
<path d="M480.048 932.066L480.048 806.901L715.302 950.239L715.302 1075.4L480.048 932.066Z" fill="white"/>
<path d="M-204 1217.71L-204 1092.54L31.2537 1235.8L31.2537 1361.04L-204 1217.71Z" fill="white"/>
<path d="M361.427 932.065L361.427 806.901L126.173 950.238L126.173 1075.4L361.427 932.065Z" fill="white"/>
<path d="M361.424 1217.7L361.424 1092.54L126.171 1235.8L126.171 1361.04L361.424 1217.7Z" fill="white"/>
<path d="M361.427 679.134L361.427 553.891L126.173 697.229L126.173 822.393L361.427 679.134Z" fill="white"/>
<path d="M31.2549 948.405L31.2549 823.24L-203.999 966.499L-203.999 1091.66L31.2549 948.405Z" fill="white"/>
<path d="M903.392 1164.3L903.392 1039.13L668.138 1182.47L668.138 1307.63L903.392 1164.3Z" fill="white"/>
<path d="M1587.44 1449.94L1587.44 1324.77L1352.19 1468.03L1352.19 1593.27L1587.44 1449.94Z" fill="white"/>
<path d="M1022.01 1164.3L1022.01 1039.13L1257.27 1182.47L1257.27 1307.63L1022.01 1164.3Z" fill="white"/>
<path d="M1022.02 1449.93L1022.02 1324.77L1257.27 1468.03L1257.27 1593.27L1022.02 1449.93Z" fill="white"/>
<path d="M1022.01 911.365L1022.01 786.122L1257.27 929.459L1257.27 1054.62L1022.01 911.365Z" fill="white"/>
<path d="M1352.19 1180.63L1352.19 1055.47L1587.44 1198.73L1587.44 1323.89L1352.19 1180.63Z" fill="white"/>
<path d="M1140.61 378.174L1140.61 253.01L1375.86 396.347L1375.86 521.512L1140.61 378.174Z" fill="white"/>
<path d="M456.56 663.816L456.56 538.651L691.814 681.91L691.814 807.153L456.56 663.816Z" fill="white"/>
<path d="M1021.99 378.174L1021.99 253.01L786.733 396.347L786.733 521.512L1021.99 378.174Z" fill="white"/>
<path d="M1021.98 663.813L1021.98 538.649L786.731 681.908L786.731 807.151L1021.98 663.813Z" fill="white"/>
<path d="M1021.99 125.243L1021.99 0.000152588L786.734 143.338L786.734 268.502L1021.99 125.243Z" fill="white"/>
<path d="M691.815 394.514L691.815 269.349L456.561 412.608L456.561 537.772L691.815 394.514Z" fill="white"/>
<path d="M1563.95 610.405L1563.95 485.24L1328.7 628.578L1328.7 753.742L1563.95 610.405Z" fill="white"/>
<path d="M1682.57 610.404L1682.57 485.24L1917.83 628.577L1917.83 753.742L1682.57 610.404Z" fill="white"/>
<path d="M1682.58 896.043L1682.58 770.879L1917.83 914.138L1917.83 1039.38L1682.58 896.043Z" fill="white"/>
<path d="M1682.57 357.474L1682.57 232.231L1917.83 375.568L1917.83 500.732L1682.57 357.474Z" fill="white"/>
</g>
<g opacity="0.4">
<path d="M480.048 1776.07L480.048 1650.9L715.302 1794.24L715.302 1919.4L480.048 1776.07Z" fill="white"/>
<path d="M-204 2061.71L-204 1936.54L31.2537 2079.8L31.2537 2205.04L-204 2061.71Z" fill="white"/>
<path d="M361.427 1776.06L361.427 1650.9L126.173 1794.24L126.173 1919.4L361.427 1776.06Z" fill="white"/>
<path d="M361.424 2061.7L361.424 1936.54L126.171 2079.8L126.171 2205.04L361.424 2061.7Z" fill="white"/>
<path d="M361.427 1523.13L361.427 1397.89L126.173 1541.23L126.173 1666.39L361.427 1523.13Z" fill="white"/>
<path d="M31.2549 1792.4L31.2549 1667.24L-203.999 1810.5L-203.999 1935.66L31.2549 1792.4Z" fill="white"/>
<path d="M903.392 2008.3L903.392 1883.13L668.138 2026.47L668.138 2151.63L903.392 2008.3Z" fill="white"/>
<path d="M1587.44 2293.94L1587.44 2168.77L1352.19 2312.03L1352.19 2437.27L1587.44 2293.94Z" fill="white"/>
<path d="M1022.01 2008.3L1022.01 1883.13L1257.27 2026.47L1257.27 2151.63L1022.01 2008.3Z" fill="white"/>
<path d="M1022.02 2293.93L1022.02 2168.77L1257.27 2312.03L1257.27 2437.27L1022.02 2293.93Z" fill="white"/>
<path d="M1022.01 1755.36L1022.01 1630.12L1257.27 1773.46L1257.27 1898.62L1022.01 1755.36Z" fill="white"/>
<path d="M1352.19 2024.63L1352.19 1899.47L1587.44 2042.73L1587.44 2167.89L1352.19 2024.63Z" fill="white"/>
<path d="M1140.61 1222.17L1140.61 1097.01L1375.86 1240.35L1375.86 1365.51L1140.61 1222.17Z" fill="white"/>
<path d="M456.56 1507.82L456.56 1382.65L691.814 1525.91L691.814 1651.15L456.56 1507.82Z" fill="white"/>
<path d="M1021.99 1222.17L1021.99 1097.01L786.733 1240.35L786.733 1365.51L1021.99 1222.17Z" fill="white"/>
<path d="M1021.98 1507.81L1021.98 1382.65L786.731 1525.91L786.731 1651.15L1021.98 1507.81Z" fill="white"/>
<path d="M1021.99 969.243L1021.99 844L786.734 987.338L786.734 1112.5L1021.99 969.243Z" fill="white"/>
<path d="M691.815 1238.51L691.815 1113.35L456.561 1256.61L456.561 1381.77L691.815 1238.51Z" fill="white"/>
<path d="M1563.95 1454.4L1563.95 1329.24L1328.7 1472.58L1328.7 1597.74L1563.95 1454.4Z" fill="white"/>
<path d="M1682.57 1454.4L1682.57 1329.24L1917.83 1472.58L1917.83 1597.74L1682.57 1454.4Z" fill="white"/>
<path d="M1682.58 1740.04L1682.58 1614.88L1917.83 1758.14L1917.83 1883.38L1682.58 1740.04Z" fill="white"/>
<path d="M1682.57 1201.47L1682.57 1076.23L1917.83 1219.57L1917.83 1344.73L1682.57 1201.47Z" fill="white"/>
</g>
<g opacity="0.4">
<path d="M480.048 2919.6L480.048 2801.21L715.302 2936.78L715.302 3055.17L480.048 2919.6Z" fill="white"/>
<path d="M-204 3189.77L-204 3071.38L31.2537 3206.88L31.2537 3325.34L-204 3189.77Z" fill="white"/>
<path d="M361.427 2919.59L361.427 2801.21L126.173 2936.78L126.173 3055.17L361.427 2919.59Z" fill="white"/>
<path d="M361.424 3189.77L361.424 3071.38L126.171 3206.88L126.171 3325.34L361.424 3189.77Z" fill="white"/>
<path d="M361.427 2680.36L361.427 2561.9L126.173 2697.47L126.173 2815.86L361.427 2680.36Z" fill="white"/>
<path d="M31.2549 2935.05L31.2549 2816.66L-203.999 2952.16L-203.999 3070.55L31.2549 2935.05Z" fill="white"/>
<path d="M903.392 3139.25L903.392 3020.86L668.138 3156.44L668.138 3274.83L903.392 3139.25Z" fill="white"/>
<path d="M1587.44 3409.42L1587.44 3291.04L1352.19 3426.54L1352.19 3545L1587.44 3409.42Z" fill="white"/>
<path d="M1022.01 3139.25L1022.01 3020.86L1257.27 3156.44L1257.27 3274.83L1022.01 3139.25Z" fill="white"/>
<path d="M1022.02 3409.42L1022.02 3291.03L1257.27 3426.54L1257.27 3545L1022.02 3409.42Z" fill="white"/>
<path d="M1022.01 2900.01L1022.01 2781.55L1257.27 2917.13L1257.27 3035.52L1022.01 2900.01Z" fill="white"/>
<path d="M1352.18 3154.7L1352.18 3036.32L1587.44 3171.82L1587.44 3290.21L1352.18 3154.7Z" fill="white"/>
<path d="M1140.61 2395.7L1140.61 2277.31L1375.86 2412.89L1375.86 2531.27L1140.61 2395.7Z" fill="white"/>
<path d="M456.56 2665.87L456.56 2547.48L691.814 2682.98L691.814 2801.45L456.56 2665.87Z" fill="white"/>
<path d="M1021.99 2395.7L1021.99 2277.31L786.733 2412.89L786.733 2531.27L1021.99 2395.7Z" fill="white"/>
<path d="M1021.98 2665.87L1021.98 2547.48L786.731 2682.98L786.731 2801.44L1021.98 2665.87Z" fill="white"/>
<path d="M1021.99 2156.46L1021.99 2038L786.733 2173.58L786.733 2291.96L1021.99 2156.46Z" fill="white"/>
<path d="M691.815 2411.15L691.815 2292.76L456.561 2428.27L456.561 2546.65L691.815 2411.15Z" fill="white"/>
<path d="M1563.95 2615.35L1563.95 2496.96L1328.7 2632.54L1328.7 2750.93L1563.95 2615.35Z" fill="white"/>
<path d="M1682.57 2615.35L1682.57 2496.96L1917.83 2632.54L1917.83 2750.93L1682.57 2615.35Z" fill="white"/>
<path d="M1682.58 2885.52L1682.58 2767.14L1917.83 2902.64L1917.83 3021.1L1682.58 2885.52Z" fill="white"/>
<path d="M1682.57 2376.12L1682.57 2257.66L1917.83 2393.23L1917.83 2511.62L1682.57 2376.12Z" fill="white"/>
</g>
</svg>
