<svg width="2471" height="1577" viewBox="0 0 2471 1577" fill="none" xmlns="http://www.w3.org/2000/svg">
<g opacity="0.4">
<path d="M689.99 657.12L690.375 780.335L926.474 638.383L926.089 515.168L689.99 657.12Z" fill="white" fill-opacity="0.11"/>
<path d="M1.32468 378.391L1.70941 501.606L237.809 359.732L237.424 236.439L1.32468 378.391Z" fill="white" fill-opacity="0.11"/>
<path d="M570.72 657.548L571.104 780.763L334.124 640.505L333.739 517.29L570.72 657.548Z" fill="white" fill-opacity="0.11"/>
<path d="M569.84 376.357L570.225 499.572L333.245 359.392L332.86 236.099L569.84 376.357Z" fill="white" fill-opacity="0.11"/>
<path d="M571.498 906.539L571.883 1029.83L334.902 889.573L334.518 766.359L571.498 906.539Z" fill="white" fill-opacity="0.11"/>
<path d="M238.693 642.651L239.078 765.866L2.09768 625.686L1.71295 502.471L238.693 642.651Z" fill="white" fill-opacity="0.11"/>
<path d="M1114.93 426.983L1115.32 550.198L878.339 409.94L877.954 286.725L1114.93 426.983Z" fill="white" fill-opacity="0.11"/>
<path d="M1801.84 143.327L1802.23 266.542L1565.25 126.362L1564.86 3.06909L1801.84 143.327Z" fill="white" fill-opacity="0.11"/>
<path d="M1234.2 426.556L1234.59 549.771L1470.69 407.819L1470.3 284.604L1234.2 426.556Z" fill="white" fill-opacity="0.11"/>
<path d="M1233.33 145.366L1233.71 268.58L1469.81 126.706L1469.43 3.41361L1233.33 145.366Z" fill="white" fill-opacity="0.11"/>
<path d="M1234.98 675.547L1235.37 798.839L1471.47 656.887L1471.08 533.673L1234.98 675.547Z" fill="white" fill-opacity="0.11"/>
<path d="M1566.13 409.282L1566.52 532.497L1802.61 390.622L1802.23 267.407L1566.13 409.282Z" fill="white" fill-opacity="0.11"/>
<path d="M1355.86 1200.01L1356.25 1323.22L1592.35 1181.27L1591.96 1058.05L1355.86 1200.01Z" fill="white" fill-opacity="0.11"/>
<path d="M667.199 921.276L667.583 1044.49L903.683 902.617L903.298 779.324L667.199 921.276Z" fill="white" fill-opacity="0.11"/>
<path d="M1236.59 1200.43L1236.98 1323.65L999.998 1183.39L999.614 1060.18L1236.59 1200.43Z" fill="white" fill-opacity="0.11"/>
<path d="M1235.71 919.242L1236.1 1042.46L999.118 902.277L998.733 778.984L1235.71 919.242Z" fill="white" fill-opacity="0.11"/>
<path d="M1237.37 1449.42L1237.76 1572.72L1000.78 1432.46L1000.39 1309.24L1237.37 1449.42Z" fill="white" fill-opacity="0.11"/>
<path d="M904.567 1185.54L904.952 1308.75L667.972 1168.57L667.587 1045.36L904.567 1185.54Z" fill="white" fill-opacity="0.11"/>
<path d="M1780.81 969.867L1781.19 1093.08L1544.21 952.825L1543.83 829.61L1780.81 969.867Z" fill="white" fill-opacity="0.11"/>
<path d="M2467.72 686.212L2468.1 809.427L2231.12 669.247L2230.74 545.954L2467.72 686.212Z" fill="white" fill-opacity="0.11"/>
<path d="M1900.08 969.441L1900.46 1092.66L2136.56 950.704L2136.18 827.489L1900.08 969.441Z" fill="white" fill-opacity="0.11"/>
<path d="M1899.2 688.25L1899.59 811.465L2135.69 669.591L2135.3 546.298L1899.2 688.25Z" fill="white" fill-opacity="0.11"/>
<path d="M1900.86 1218.43L1901.24 1341.72L2137.34 1199.77L2136.95 1076.56L1900.86 1218.43Z" fill="white" fill-opacity="0.11"/>
<path d="M2232 952.167L2232.39 1075.38L2468.49 933.507L2468.1 810.292L2232 952.167Z" fill="white" fill-opacity="0.11"/>
</g>
</svg>
