<svg width="1920" height="1229" viewBox="0 0 1920 1229" fill="none" xmlns="http://www.w3.org/2000/svg">
<g opacity="0.4">
<path d="M1660.05 627.826L1660.3 708.241L1812.92 615.602L1812.67 535.187L1660.05 627.826Z" fill="white" fill-opacity="0.11"/>
<path d="M1214.86 445.902L1215.12 526.317L1367.74 433.729L1367.49 353.263L1214.86 445.902Z" fill="white" fill-opacity="0.11"/>
<path d="M1582.95 628.102L1583.2 708.517L1430 616.974L1429.75 536.559L1582.95 628.102Z" fill="white" fill-opacity="0.11"/>
<path d="M1582.38 444.586L1582.63 525.001L1429.43 433.509L1429.18 353.043L1582.38 444.586Z" fill="white" fill-opacity="0.11"/>
<path d="M1583.46 790.603L1583.71 871.069L1430.51 779.526L1430.26 699.111L1583.46 790.603Z" fill="white" fill-opacity="0.11"/>
<path d="M1368.31 618.374L1368.57 698.789L1215.37 607.297L1215.12 526.881L1368.31 618.374Z" fill="white" fill-opacity="0.11"/>
<path d="M1934.75 477.637L1935 558.052L1781.8 466.51L1781.55 386.095L1934.75 477.637Z" fill="white" fill-opacity="0.11"/>
<path d="M1645.32 800.224L1645.57 880.639L1798.2 788.051L1797.94 707.585L1645.32 800.224Z" fill="white" fill-opacity="0.11"/>
<path d="M2013.41 982.424L2013.66 1062.84L1860.46 971.297L1860.21 890.881L2013.41 982.424Z" fill="white" fill-opacity="0.11"/>
<path d="M2012.83 798.908L2013.09 879.323L1859.89 787.831L1859.64 707.365L2012.83 798.908Z" fill="white" fill-opacity="0.11"/>
<path d="M2013.92 1144.93L2014.17 1225.39L1860.97 1133.85L1860.72 1053.43L2013.92 1144.93Z" fill="white" fill-opacity="0.11"/>
<path d="M1798.77 972.696L1799.02 1053.11L1645.83 961.619L1645.58 881.204L1798.77 972.696Z" fill="white" fill-opacity="0.11"/>
</g>
<g opacity="0.4">
<path d="M374.788 93.5266L375.039 173.942L221.843 82.4495L221.591 1.98389L374.788 93.5266Z" fill="white" fill-opacity="0.11"/>
<path d="M7.84864 278.362L8.09989 358.777L160.721 266.138L160.47 185.723L7.84864 278.362Z" fill="white" fill-opacity="0.11"/>
<path d="M7.2765 94.8456L7.52774 175.26L160.149 82.6725L159.898 2.20692L7.2765 94.8456Z" fill="white" fill-opacity="0.11"/>
<path d="M8.35617 440.863L8.60758 521.328L161.229 428.69L160.977 348.275L8.35617 440.863Z" fill="white" fill-opacity="0.11"/>
<path d="M222.419 267.095L222.67 347.51L375.291 254.922L375.04 174.507L222.419 267.095Z" fill="white" fill-opacity="0.11"/>
<path d="M86.5104 783.148L86.7617 863.563L239.383 770.924L239.131 690.509L86.5104 783.148Z" fill="white" fill-opacity="0.11"/>
<path d="M9.40945 783.424L9.66071 863.839L-143.536 772.297L-143.787 691.881L9.40945 783.424Z" fill="white" fill-opacity="0.11"/>
<path d="M8.8345 599.908L9.08576 680.323L-144.111 588.831L-144.362 508.365L8.8345 599.908Z" fill="white" fill-opacity="0.11"/>
<path d="M9.91735 945.926L10.1688 1026.39L-143.028 934.849L-143.279 854.434L9.91735 945.926Z" fill="white" fill-opacity="0.11"/>
<path d="M361.207 632.96L361.458 713.375L208.262 621.832L208.01 541.417L361.207 632.96Z" fill="white" fill-opacity="0.11"/>
<path d="M805.247 447.849L805.499 528.264L652.302 436.772L652.051 356.306L805.247 447.849Z" fill="white" fill-opacity="0.11"/>
<path d="M438.308 632.683L438.559 713.099L591.18 620.46L590.929 540.045L438.308 632.683Z" fill="white" fill-opacity="0.11"/>
<path d="M437.736 449.167L437.987 529.582L590.609 436.994L590.357 356.529L437.736 449.167Z" fill="white" fill-opacity="0.11"/>
<path d="M438.815 795.185L439.067 875.651L591.688 783.012L591.437 702.597L438.815 795.185Z" fill="white" fill-opacity="0.11"/>
<path d="M652.878 621.417L653.13 701.832L805.751 609.244L805.5 528.828L652.878 621.417Z" fill="white" fill-opacity="0.11"/>
</g>
</svg>
