<svg width="1920" height="1229" viewBox="0 0 1920 1229" fill="none" xmlns="http://www.w3.org/2000/svg">
<g opacity="0.4">
<path d="M1712.05 627.826L1712.3 708.241L1864.92 615.603L1864.67 535.188L1712.05 627.826Z" fill="white" fill-opacity="0.11"/>
<path d="M1266.86 445.902L1267.12 526.317L1419.74 433.729L1419.49 353.263L1266.86 445.902Z" fill="white" fill-opacity="0.11"/>
<path d="M1634.95 628.103L1635.2 708.518L1482 616.975L1481.75 536.56L1634.95 628.103Z" fill="white" fill-opacity="0.11"/>
<path d="M1634.38 444.587L1634.63 525.001L1481.43 433.509L1481.18 353.044L1634.38 444.587Z" fill="white" fill-opacity="0.11"/>
<path d="M1635.46 790.604L1635.71 871.07L1482.51 779.527L1482.26 699.112L1635.46 790.604Z" fill="white" fill-opacity="0.11"/>
<path d="M1420.31 618.374L1420.57 698.789L1267.37 607.297L1267.12 526.882L1420.31 618.374Z" fill="white" fill-opacity="0.11"/>
<path d="M1986.75 477.638L1987 558.053L1833.8 466.51L1833.55 386.095L1986.75 477.638Z" fill="white" fill-opacity="0.11"/>
<path d="M1697.32 800.224L1697.57 880.639L1850.2 788.051L1849.94 707.586L1697.32 800.224Z" fill="white" fill-opacity="0.11"/>
<path d="M2065.41 982.425L2065.66 1062.84L1912.46 971.297L1912.21 890.882L2065.41 982.425Z" fill="white" fill-opacity="0.11"/>
<path d="M2064.83 798.909L2065.09 879.324L1911.89 787.832L1911.64 707.366L2064.83 798.909Z" fill="white" fill-opacity="0.11"/>
<path d="M2065.92 1144.93L2066.17 1225.39L1912.97 1133.85L1912.72 1053.43L2065.92 1144.93Z" fill="white" fill-opacity="0.11"/>
<path d="M1850.77 972.696L1851.02 1053.11L1697.83 961.619L1697.58 881.204L1850.77 972.696Z" fill="white" fill-opacity="0.11"/>
</g>
<g opacity="0.4">
<path d="M350.788 93.5274L351.039 173.942L197.843 82.4502L197.591 1.98462L350.788 93.5274Z" fill="white" fill-opacity="0.11"/>
<path d="M-16.1514 278.362L-15.9001 358.777L136.721 266.139L136.47 185.724L-16.1514 278.362Z" fill="white" fill-opacity="0.11"/>
<path d="M-16.7235 94.8461L-16.4723 175.261L136.149 82.673L135.898 2.2074L-16.7235 94.8461Z" fill="white" fill-opacity="0.11"/>
<path d="M-15.6438 440.864L-15.3924 521.329L137.229 428.69L136.977 348.276L-15.6438 440.864Z" fill="white" fill-opacity="0.11"/>
<path d="M198.419 267.095L198.67 347.51L351.291 254.922L351.04 174.507L198.419 267.095Z" fill="white" fill-opacity="0.11"/>
<path d="M62.5104 783.148L62.7617 863.563L215.383 770.925L215.131 690.51L62.5104 783.148Z" fill="white" fill-opacity="0.11"/>
<path d="M337.207 632.96L337.458 713.375L184.262 621.833L184.01 541.417L337.207 632.96Z" fill="white" fill-opacity="0.11"/>
<path d="M781.247 447.85L781.499 528.264L628.302 436.772L628.051 356.307L781.247 447.85Z" fill="white" fill-opacity="0.11"/>
<path d="M414.308 632.684L414.559 713.099L567.18 620.461L566.929 540.046L414.308 632.684Z" fill="white" fill-opacity="0.11"/>
<path d="M413.736 449.168L413.987 529.583L566.609 436.995L566.357 356.529L413.736 449.168Z" fill="white" fill-opacity="0.11"/>
<path d="M414.815 795.186L415.067 875.651L567.688 783.013L567.437 702.598L414.815 795.186Z" fill="white" fill-opacity="0.11"/>
<path d="M628.878 621.417L629.13 701.832L781.751 609.244L781.5 528.829L628.878 621.417Z" fill="white" fill-opacity="0.11"/>
</g>
</svg>
