<svg width="1711" height="1218" viewBox="0 0 1711 1218" fill="none" xmlns="http://www.w3.org/2000/svg">
<g opacity="0.4">
<path d="M516.91 477.89L506.704 557.655L670.074 485.645L680.28 405.88L516.91 477.89Z" fill="white" fill-opacity="0.11"/>
<path d="M99.1534 239.63L88.9477 319.395L252.311 247.435L262.523 167.62L99.1534 239.63Z" fill="white" fill-opacity="0.11"/>
<path d="M440.427 468.139L430.221 547.905L290.227 437.222L300.432 357.456L440.427 468.139Z" fill="white" fill-opacity="0.11"/>
<path d="M463.717 286.106L453.511 365.871L313.51 255.239L323.722 175.423L463.717 286.106Z" fill="white" fill-opacity="0.11"/>
<path d="M419.804 629.328L409.592 709.144L269.597 598.461L279.803 518.696L419.804 629.328Z" fill="white" fill-opacity="0.11"/>
<path d="M228.878 430.588L218.672 510.353L78.6709 399.721L88.8766 319.956L228.878 430.588Z" fill="white" fill-opacity="0.11"/>
<path d="M808.801 364.69L798.595 444.455L658.601 333.772L668.806 254.007L808.801 364.69Z" fill="white" fill-opacity="0.11"/>
<path d="M1273.14 238.88L1262.93 318.645L1122.93 208.013L1133.14 128.197L1273.14 238.88Z" fill="white" fill-opacity="0.11"/>
<path d="M885.283 374.44L875.078 454.205L1038.45 382.195L1048.65 302.43L885.283 374.44Z" fill="white" fill-opacity="0.11"/>
<path d="M908.575 192.407L898.37 272.172L1061.73 200.212L1071.95 120.397L908.575 192.407Z" fill="white" fill-opacity="0.11"/>
<path d="M864.66 535.628L854.448 615.444L1017.82 543.434L1028.02 463.669L864.66 535.628Z" fill="white" fill-opacity="0.11"/>
<path d="M1099.5 391.165L1089.29 470.931L1252.66 398.971L1262.86 319.206L1099.5 391.165Z" fill="white" fill-opacity="0.11"/>
<path d="M897.65 885.169L887.444 964.934L1050.81 892.924L1061.02 813.159L897.65 885.169Z" fill="white" fill-opacity="0.11"/>
<path d="M479.893 646.91L469.688 726.675L633.051 654.716L643.263 574.9L479.893 646.91Z" fill="white" fill-opacity="0.11"/>
<path d="M821.167 875.419L810.962 955.184L670.967 844.501L681.173 764.736L821.167 875.419Z" fill="white" fill-opacity="0.11"/>
<path d="M844.456 693.386L834.251 773.151L694.25 662.518L704.462 582.703L844.456 693.386Z" fill="white" fill-opacity="0.11"/>
<path d="M800.544 1036.61L790.332 1116.42L650.337 1005.74L660.543 925.975L800.544 1036.61Z" fill="white" fill-opacity="0.11"/>
<path d="M609.618 837.868L599.412 917.633L459.411 807L469.617 727.235L609.618 837.868Z" fill="white" fill-opacity="0.11"/>
<path d="M1189.54 771.969L1179.34 851.734L1039.34 741.051L1049.55 661.286L1189.54 771.969Z" fill="white" fill-opacity="0.11"/>
<path d="M1653.88 646.16L1643.67 725.925L1503.67 615.292L1513.88 535.477L1653.88 646.16Z" fill="white" fill-opacity="0.11"/>
<path d="M1266.02 781.72L1255.82 861.485L1419.19 789.475L1429.39 709.71L1266.02 781.72Z" fill="white" fill-opacity="0.11"/>
<path d="M1289.32 599.686L1279.11 679.451L1442.47 607.492L1452.69 527.676L1289.32 599.686Z" fill="white" fill-opacity="0.11"/>
<path d="M1245.4 942.908L1235.19 1022.72L1398.56 950.713L1408.76 870.948L1245.4 942.908Z" fill="white" fill-opacity="0.11"/>
<path d="M1480.24 798.445L1470.03 878.21L1633.4 806.25L1643.6 726.485L1480.24 798.445Z" fill="white" fill-opacity="0.11"/>
</g>
</svg>
