<svg width="23" height="23" viewBox="0 0 23 23" fill="none" xmlns="http://www.w3.org/2000/svg">
<path fill-rule="evenodd" clip-rule="evenodd" d="M6.33328 4.80386C7.63565 3.68065 9.44953 2.875 11.5 2.875C15.3672 2.875 18.5772 5.74919 18.9257 9.45729C21.2148 9.7809 23 11.6963 23 14.0483C23 16.6311 20.8471 18.6875 18.2383 18.6875H5.43555C2.45459 18.6875 0 16.3386 0 13.3949C0 10.8605 1.81968 8.76173 4.22945 8.22968C4.43439 6.9887 5.23229 5.7534 6.33328 4.80386ZM7.27211 5.89244C6.18456 6.83038 5.61523 7.9613 5.61523 8.84716V9.49124L4.97501 9.56161C2.96658 9.78236 1.4375 11.4319 1.4375 13.3949C1.4375 15.5033 3.20648 17.25 5.43555 17.25H18.2383C20.0952 17.25 21.5625 15.7959 21.5625 14.0483C21.5625 12.3007 20.0952 10.8466 18.2383 10.8466H17.5195V10.1278C17.5195 6.9368 14.8455 4.3125 11.5 4.3125C9.82902 4.3125 8.34114 4.97048 7.27211 5.89244Z" fill="white"/>
<path fill-rule="evenodd" clip-rule="evenodd" d="M10.9918 15.602C11.2725 15.8827 11.7275 15.8827 12.0082 15.602L14.8832 12.727C15.1639 12.4463 15.1639 11.9912 14.8832 11.7105C14.6025 11.4298 14.1475 11.4298 13.8668 11.7105L12.2188 13.3585V7.90625C12.2188 7.5093 11.897 7.1875 11.5 7.1875C11.103 7.1875 10.7812 7.5093 10.7812 7.90625V13.3585L9.13323 11.7105C8.85254 11.4298 8.39746 11.4298 8.11677 11.7105C7.83608 11.9912 7.83608 12.4463 8.11677 12.727L10.9918 15.602Z" fill="white"/>
</svg>
