<svg width="38" height="24" viewBox="0 0 38 24" fill="none" xmlns="http://www.w3.org/2000/svg">
<g clip-path="url(#clip0_128_359)">
<path d="M-2.61035 -0.130432V24.134H40.6107V-0.130432H-2.61035Z" fill="#012169"/>
<path d="M-2.61035 -0.130432L40.6107 24.134L-2.61035 -0.130432ZM40.6107 -0.130432L-2.61035 24.1318L40.6107 -0.130432Z" fill="black"/>
<path d="M39.6449 26.3041L19.0002 14.713L-1.64451 26.3041L-3.57617 21.9597L14.1671 11.9997L-3.57617 2.0397L-1.64451 -2.30475L19.0002 9.28636L39.6449 -2.30475L41.5765 2.0397L23.8333 11.9997L41.5765 21.9597L39.6449 26.3041Z" fill="white"/>
<path d="M-2.61035 -0.130432L40.6107 24.134L-2.61035 -0.130432ZM40.6107 -0.130432L-2.61035 24.1318L40.6107 -0.130432Z" fill="black"/>
<path d="M39.9652 25.5794L18.9999 13.8061L-1.96544 25.5794L-3.25586 22.6839L15.7798 11.9994L-3.25586 1.31499L-1.96544 -1.58057L18.9999 10.1928L39.9652 -1.58057L41.2556 1.31499L22.22 11.9994L41.2556 22.6839L39.9652 25.5794Z" fill="#C8102E"/>
<path d="M19.0002 -0.130432V24.134V-0.130432ZM-2.61035 12.0007H40.6107H-2.61035Z" fill="black"/>
<path d="M22.6022 24.1318H15.3981V16.0451H-2.61035V7.95623H15.3981V-0.130432H22.6022V7.95623H40.6107V16.0451H22.6022V24.1318Z" fill="white"/>
<path d="M19.0002 -0.130432V24.134V-0.130432ZM-2.61035 12.0007H40.6107H-2.61035Z" fill="black"/>
<path d="M21.1614 24.1318H16.8389V14.4273H-2.61035V9.57401H16.8389V-0.130432H21.1614V9.57401H40.6107V14.4273H21.1614V24.1318Z" fill="#C8102E"/>
</g>
<defs>
<clipPath id="clip0_128_359">
<path d="M0 3C0 1.34315 1.34315 0 3 0H35C36.6569 0 38 1.34315 38 3V21C38 22.6569 36.6569 24 35 24H3C1.34315 24 0 22.6569 0 21V3Z" fill="white"/>
</clipPath>
</defs>
</svg>
