<svg width="280" height="280" viewBox="0 0 280 280" fill="none" xmlns="http://www.w3.org/2000/svg">
<path d="M55.2124 241.69C71.7032 241.69 85.0716 228.322 85.0716 211.831C85.0716 195.34 71.7032 181.972 55.2124 181.972C38.7217 181.972 25.3533 195.34 25.3533 211.831C25.3533 228.322 38.7217 241.69 55.2124 241.69Z" fill="#CBCBCB"/>
<path d="M247.324 215.211C261.637 215.211 273.24 203.608 273.24 189.296C273.24 174.983 261.637 163.38 247.324 163.38C233.011 163.38 221.409 174.983 221.409 189.296C221.409 203.608 233.011 215.211 247.324 215.211Z" fill="#E3E3E3"/>
<path d="M223.662 84.5071C235.485 84.5071 245.07 74.9222 245.07 63.0986C245.07 51.2751 235.485 41.6902 223.662 41.6902C211.838 41.6902 202.253 51.2751 202.253 63.0986C202.253 74.9222 211.838 84.5071 223.662 84.5071Z" fill="#EDEDED"/>
<path d="M31.6873 168.804C49.1877 168.804 63.3746 154.963 63.3746 137.889C63.3746 120.815 49.1877 106.974 31.6873 106.974C14.1869 106.974 0 120.815 0 137.889C0 154.963 14.1869 168.804 31.6873 168.804Z" fill="#C1C1C1"/>
<path d="M122.717 280C138.626 280 151.523 267.433 151.523 251.93C151.523 236.427 138.626 223.859 122.717 223.859C106.807 223.859 93.9099 236.427 93.9099 251.93C93.9099 267.433 106.807 280 122.717 280Z" fill="#D9D9D9"/>
<path d="M196.752 267.701C211.866 267.701 224.118 255.772 224.118 241.055C224.118 226.339 211.866 214.409 196.752 214.409C181.638 214.409 169.385 226.339 169.385 241.055C169.385 255.772 181.638 267.701 196.752 267.701Z" fill="#E0E0E0"/>
<path d="M65.9669 97.0086C84.2626 97.0086 99.0942 82.5311 99.0942 64.6723C99.0942 46.8134 84.2626 32.3359 65.9669 32.3359C47.6712 32.3359 32.8396 46.8134 32.8396 64.6723C32.8396 82.5311 47.6712 97.0086 65.9669 97.0086Z" fill="#BABABA"/>
<path d="M255.512 145.991C269.035 145.991 279.998 135.232 279.998 121.959C279.998 108.687 269.035 97.9279 255.512 97.9279C241.989 97.9279 231.026 108.687 231.026 121.959C231.026 135.232 241.989 145.991 255.512 145.991Z" fill="#EAEAEA"/>
<path d="M148.172 69.8592C167.463 69.8592 183.102 54.2207 183.102 34.9296C183.102 15.6385 167.463 0 148.172 0C128.881 0 113.242 15.6385 113.242 34.9296C113.242 54.2207 128.881 69.8592 148.172 69.8592Z" fill="#B5B5B5"/>
</svg>
