<svg width="234" height="64" viewBox="0 0 234 64" fill="none" xmlns="http://www.w3.org/2000/svg">
<g clip-path="url(#clip0_1884_135)">
<path d="M102.402 23.2841V37.5213C102.402 38.2371 102.165 38.8605 101.691 39.3974C101.217 39.9281 100.424 40.1996 99.3131 40.1996C97.8465 40.1996 96.773 39.6874 96.099 38.6691L89.5023 28.8506C89.3275 28.5791 89.1715 28.4433 89.0404 28.4433C88.847 28.4433 88.7534 28.6037 88.7534 28.9185V40.0021H85.0774V25.7156C85.0774 24.8393 85.3707 24.1851 85.9574 23.7469C86.544 23.3088 87.3117 23.0928 88.2666 23.0928C89.6957 23.0928 90.738 23.568 91.3808 24.5245L98.0212 34.4418C98.04 34.4603 98.0649 34.5035 98.1086 34.5714C98.146 34.6455 98.1772 34.6887 98.2022 34.7133C98.2272 34.738 98.2646 34.7627 98.3083 34.7997C98.3582 34.8306 98.4019 34.8491 98.4519 34.8491C98.6266 34.8491 98.7202 34.7133 98.7202 34.4418V23.2841H102.402V23.2841Z" fill="#0C212E"/>
<path d="M119.24 23.2844V26.5367H110.54C110.122 26.5367 109.829 26.6231 109.66 26.7897C109.492 26.9563 109.411 27.2464 109.411 27.6599V29.9803H119.028V33.0845H109.411V35.6394C109.411 36.0529 109.498 36.3429 109.66 36.5095C109.829 36.6761 110.122 36.7625 110.54 36.7625H119.334V40.0148H107.62C105.91 40.0148 105.061 39.1632 105.061 37.4599V25.8702C105.061 24.1484 105.916 23.2906 107.62 23.2906H119.24V23.2844Z" fill="#0C212E"/>
<path d="M125.787 23.4507C126.867 23.21 128.277 23.0928 130.012 23.0928C131.754 23.0928 133.164 23.21 134.237 23.4507C135.317 23.6914 136.228 24.1295 136.977 24.7652C137.726 25.4008 138.25 26.271 138.55 27.3695C138.85 28.468 138.999 29.8936 138.999 31.6462C138.999 33.3989 138.85 34.8244 138.55 35.9229C138.25 37.0214 137.726 37.8916 136.977 38.5395C136.228 39.1875 135.311 39.6257 134.237 39.854C133.158 40.0824 131.747 40.1996 130.012 40.1996C128.271 40.1996 126.867 40.0824 125.787 39.854C124.707 39.6257 123.796 39.1875 123.047 38.5395C122.298 37.8916 121.774 37.0214 121.475 35.9229C121.175 34.8244 121.025 33.3989 121.025 31.6462C121.025 29.8936 121.175 28.468 121.475 27.3695C121.768 26.271 122.298 25.4008 123.047 24.7652C123.796 24.1295 124.707 23.6914 125.787 23.4507ZM126.43 27.5485C125.793 28.289 125.475 29.6529 125.475 31.6462C125.475 33.6395 125.793 35.0034 126.43 35.7439C127.067 36.4845 128.259 36.8548 130.019 36.8548C131.772 36.8548 132.971 36.4845 133.607 35.7439C134.244 35.0034 134.562 33.6395 134.562 31.6462C134.562 29.6529 134.244 28.289 133.607 27.5485C132.971 26.8079 131.772 26.4376 130.019 26.4376C128.259 26.4376 127.067 26.8079 126.43 27.5485Z" fill="#0C212E"/>
<path d="M155.745 29.8486L146.283 30.1763L146.393 33.2786L155.854 32.9509L155.745 29.8486Z" fill="#0055FF"/>
<path d="M167.053 26.006H163.283V23.2844H167.053V26.006ZM163.283 27.3451H167.053V40.0086H163.283V27.3451Z" fill="#0C212E"/>
<path d="M169.081 40.0086V29.7334C169.081 28.1412 169.886 27.3451 171.496 27.3451H176.714C178.293 27.3451 179.522 27.7154 180.408 28.4559C181.295 29.1965 181.738 30.3443 181.738 31.9057V40.0024H177.968V32.8622C177.968 31.8933 177.762 31.1836 177.35 30.7455C176.938 30.3073 176.258 30.0913 175.31 30.0913H173.693C173.387 30.0913 173.169 30.153 173.038 30.2826C172.907 30.4122 172.844 30.622 172.844 30.9244V40.0024H169.081V40.0086Z" fill="#0C212E"/>
<path d="M186.431 27.3451L189.695 35.7072C189.826 36.0096 189.939 36.1639 190.032 36.1639C190.113 36.1639 190.219 36.0158 190.344 35.7072L193.608 27.3451H197.521L192.379 39.0274C192.167 39.5026 191.873 39.8111 191.486 39.9469C191.099 40.0826 190.619 40.1505 190.038 40.1505C189.67 40.1505 189.364 40.132 189.121 40.1012C188.878 40.0703 188.616 39.9654 188.322 39.7926C188.035 39.6198 187.817 39.3606 187.673 39.0274L182.524 27.3451H186.431Z" fill="#0C212E"/>
<path d="M210.54 40.0085H202.807C200.829 40.0085 199.518 39.5518 198.882 38.6446C198.245 37.7374 197.927 36.065 197.927 33.6273C197.927 32.2573 198.02 31.165 198.214 30.3565C198.407 29.5419 198.769 28.8939 199.3 28.4126C199.83 27.925 200.492 27.6041 201.272 27.4437C202.052 27.2832 203.113 27.203 204.449 27.203C205.61 27.203 206.552 27.2647 207.276 27.382C208 27.4992 208.668 27.7399 209.267 28.0855C209.872 28.4373 210.309 28.9557 210.571 29.6407C210.833 30.3257 210.971 31.2082 210.971 32.2943C210.971 34.047 210.303 34.9233 208.961 34.9233H201.746C201.746 35.7503 201.927 36.3612 202.289 36.75C202.651 37.1388 203.325 37.3363 204.305 37.3363H210.54V40.0085ZM201.746 32.3375H206.433C206.901 32.3375 207.139 32.0845 207.139 31.5723C207.139 30.986 206.87 30.554 206.327 30.2825C205.791 30.0109 205.16 29.8752 204.455 29.8752C203.519 29.8752 202.832 30.0603 202.402 30.4244C201.965 30.7947 201.746 31.4303 201.746 32.3375Z" fill="#0C212E"/>
<path d="M212.325 40.0086V37.2624H219.428C220.008 37.2624 220.295 37.0093 220.295 36.4971C220.295 36.3367 220.245 36.1947 220.152 36.0651C220.052 35.9355 219.908 35.8306 219.715 35.7442C219.521 35.6578 219.34 35.5838 219.172 35.5282C219.003 35.4727 218.797 35.4171 218.554 35.3616C218.31 35.3061 218.142 35.2629 218.048 35.232L215.44 34.4421C214.235 34.078 213.386 33.6213 212.906 33.0782C212.425 32.5351 212.182 31.7514 212.182 30.7146C212.182 29.5544 212.469 28.7028 213.037 28.1597C213.611 27.6166 214.497 27.3451 215.708 27.3451H223.678V30.0913H216.819C216.145 30.0913 215.808 30.3073 215.808 30.7331C215.808 31.0355 215.939 31.2639 216.207 31.412C216.476 31.5601 216.863 31.7205 217.381 31.881L220.376 32.7882C221.019 32.9795 221.537 33.1585 221.924 33.3251C222.311 33.4917 222.698 33.72 223.085 34.0163C223.472 34.3125 223.746 34.6828 223.921 35.1271C224.09 35.5714 224.177 36.1083 224.177 36.7255C224.177 37.8239 223.915 38.6447 223.391 39.1878C222.866 39.7309 222.043 40.0024 220.913 40.0024H212.325V40.0086Z" fill="#0C212E"/>
<path d="M234 40.0088H231.366C228.196 40.0088 226.605 38.6079 226.605 35.8062V30.0977H224.82V27.3515H226.605V23.2908H230.374V27.3515H234V30.0977H230.374V34.4423C230.374 35.4174 230.611 36.1271 231.073 36.5838C231.541 37.0404 232.284 37.2626 233.295 37.2626H233.994V40.0088H234Z" fill="#0C212E"/>
<path d="M18.1301 33.6521V43.4706L0 32.2265V22.408L18.1301 33.6521Z" fill="#0055FF"/>
<path d="M70.848 11.2441V21.0626L52.7179 9.82471V0L70.848 11.2441Z" fill="#003FC4"/>
<path d="M27.2732 33.6521V43.4706L45.4033 32.2265V22.408L27.2732 33.6521Z" fill="#003FC4"/>
<path d="M27.2732 11.2441V21.0626L45.4033 9.82471V0L27.2732 11.2441Z" fill="#0055FF"/>
<path d="M27.2732 53.4931V63.3178L45.4033 52.0736V42.2551L27.2732 53.4931Z" fill="#0055FF"/>
<path d="M52.7179 32.3685V42.1871L70.848 30.9492V21.1306L52.7179 32.3685Z" fill="#003FC4"/>
</g>
<defs>
<clipPath id="clip0_1884_135">
<rect width="234" height="63.3176" fill="white"/>
</clipPath>
</defs>
</svg>
