<svg width="117" height="135" viewBox="0 0 117 135" fill="none" xmlns="http://www.w3.org/2000/svg">
<g clip-path="url(#clip0_26_872)">
<path d="M45.8824 30.7193C44.4225 30.5103 44.353 30.4406 45.0482 30.371C46.369 30.162 49.4279 30.4406 51.5829 30.9283C56.5883 32.1125 61.107 35.1775 65.9038 40.5413L67.1551 42.0041L68.9626 41.7255C76.6792 40.4716 84.6043 41.4468 91.2086 44.5118C93.0161 45.3478 95.8664 47.0196 96.214 47.4375C96.353 47.5769 96.5616 48.4824 96.7006 49.388C97.1872 52.662 96.9787 55.1001 95.9359 56.9809C95.3797 58.0258 95.3797 58.3044 95.7273 59.21C96.0054 59.9066 96.8396 60.3942 97.6043 60.3942C99.2728 60.3942 101.011 57.7471 101.845 54.0552L102.193 52.5923L102.818 53.2889C106.364 57.2595 109.144 62.7626 109.562 66.6635L109.701 67.7084L109.075 66.8029C108.032 65.2007 107.059 64.1558 105.738 63.2502C103.374 61.6481 100.872 61.1605 94.2675 60.8122C88.2888 60.4639 84.8824 59.9762 81.5455 58.8617C75.845 56.9809 72.9252 54.5428 66.1819 45.5567C63.1926 41.5862 61.3156 39.4267 59.4386 37.6156C55.337 33.645 51.2353 31.5552 45.8824 30.7193Z" fill="#3E4665" fill-opacity="0.3"/>
<path d="M97.6737 39.5665C97.8128 36.9195 98.1604 35.178 98.9251 33.5758C99.2032 32.9489 99.4812 32.3916 99.5507 32.3916C99.6203 32.3916 99.4812 32.8792 99.2727 33.4365C98.7165 34.969 98.647 37.1284 98.9946 39.5665C99.4812 42.7012 99.6898 43.1192 103.027 46.5325C104.556 48.1346 106.364 50.1548 107.059 50.9907L108.241 52.5232L107.059 51.4086C105.599 50.0154 102.262 47.3684 101.497 47.0201C101.011 46.7414 100.941 46.7414 100.594 47.0897C100.315 47.3684 100.246 47.7863 100.246 49.8065C100.176 52.9411 99.7593 54.8916 98.7165 56.9117C98.1604 57.9566 98.0909 57.7476 98.5775 56.5634C98.9251 55.6579 98.9946 55.2399 98.9946 52.2445C98.9946 46.1842 98.2994 44.7213 94.0588 42.2832C93.016 41.6563 91.2085 40.7507 90.1657 40.2631C89.0534 39.7755 88.2192 39.3575 88.2887 39.3575C88.4278 39.2182 92.5294 40.4024 94.1283 41.099C96.5614 42.0743 96.9786 42.1439 97.2566 42.0743C97.4652 41.8653 97.6042 41.308 97.6737 39.5665Z" fill="#3E4665" fill-opacity="0.3"/>
<path d="M48.7327 49.9455C45.8129 45.9052 43.9359 39.6359 44.353 34.9687L44.4921 33.5059L45.1872 33.6452C46.4386 33.8542 48.5937 34.6901 49.6364 35.317C52.4172 36.9888 53.6685 39.2876 54.8504 44.9997C55.1979 46.6715 55.6846 48.6219 55.8931 49.2489C56.2407 50.2938 57.5616 52.7319 58.6739 54.2644C59.4386 55.3789 58.952 55.9362 57.214 55.7969C54.5723 55.5182 51.0268 53.0802 48.7327 49.9455Z" fill="#3E4665" fill-opacity="0.3"/>
<path d="M94.1283 80.2474C80.3636 74.6747 75.4973 69.8682 75.4973 61.718C75.4973 60.5338 75.5668 59.5586 75.5668 59.5586C75.6364 59.5586 76.123 59.9766 76.7487 60.4642C79.5294 62.6933 82.6577 63.6685 91.3476 64.9224C96.4224 65.6886 99.3422 66.2459 101.984 67.1515C110.396 69.9379 115.61 75.6499 116.861 83.3821C117.209 85.6112 117 89.8604 116.444 92.0896C115.957 93.831 114.567 97.0354 114.219 97.105C114.15 97.105 114.011 96.7567 114.011 96.1995C113.872 93.2738 112.412 90.4874 109.979 88.3279C107.059 85.8202 103.305 83.9394 94.1283 80.2474Z" fill="#3E4665" fill-opacity="0.3"/>
<path d="M84.3956 82.5468C84.2566 81.5019 83.909 80.1783 83.7004 79.6211L83.3528 78.5762L83.9785 79.3424C84.8822 80.3873 85.5774 81.6412 86.2031 83.3827C86.6897 84.7062 86.6897 85.1242 86.6897 87.2836C86.6897 89.3734 86.6202 89.861 86.2031 91.0452C85.5079 92.926 84.6737 94.2495 83.2833 95.7124C80.7806 98.2898 77.5132 99.683 72.8555 100.31C72.0213 100.38 69.6576 100.589 67.5721 100.728C62.3582 101.007 58.8822 101.564 55.7539 102.678C55.3368 102.818 54.9197 102.957 54.8501 102.887C54.7111 102.748 56.8662 101.494 58.6042 100.658C61.0373 99.474 63.54 98.8471 69.032 97.8718C71.7432 97.4539 74.5239 96.8966 75.2191 96.618C82.1015 94.4585 85.5079 89.0947 84.3956 82.5468Z" fill="#3E4665" fill-opacity="0.3"/>
<path d="M90.722 93.7617C88.9145 89.7911 88.4974 86.0295 89.4707 82.4769C89.6097 82.1286 89.7488 81.7803 89.8878 81.7803C90.0268 81.7803 90.4439 81.9892 90.8611 82.2679C91.6953 82.8252 93.4332 83.8004 97.8824 86.2385C103.513 89.3035 106.711 91.6719 108.936 94.3886C110.882 96.757 112.064 99.4738 112.62 102.817C112.968 104.698 112.759 109.226 112.273 111.107C110.743 117.028 107.267 121.765 102.193 124.481C101.428 124.899 100.802 125.178 100.733 125.178C100.663 125.178 100.941 124.481 101.358 123.646C103.027 120.093 103.235 116.68 101.984 112.848C101.219 110.48 99.6204 107.624 96.4226 102.817C92.599 97.2447 91.6953 95.7818 90.722 93.7617Z" fill="#3E4665" fill-opacity="0.3"/>
<path d="M38.9304 115.078C44.0747 110.759 50.4009 107.694 56.2405 106.718C58.7432 106.3 62.9143 106.44 65.2084 107.067C68.8929 108.042 72.2298 110.132 73.9678 112.709C75.6362 115.217 76.4009 117.376 77.1657 122.183C77.4437 124.064 77.7913 126.014 77.8608 126.432C78.417 128.94 79.5293 130.89 80.9197 131.935C83.0747 133.537 86.8288 133.607 90.5132 132.214C91.1389 132.005 91.6951 131.796 91.6951 131.865C91.8341 132.005 89.9571 133.259 88.7058 133.886C86.9678 134.791 85.5774 135.07 83.7004 135.07C80.3635 135.07 77.5132 133.328 75.2191 129.845C74.7325 129.149 73.7592 127.129 72.925 125.248C70.4919 119.605 69.2405 117.934 66.3903 116.053C63.8876 114.451 60.6897 114.102 58.2566 115.287C55.0587 116.819 54.2245 120.929 56.4491 123.437C57.3528 124.482 59.0213 125.317 60.4116 125.526C62.9838 125.875 65.2084 123.855 65.2084 121.277C65.2084 119.605 64.5828 118.63 62.9143 117.864C60.6897 116.889 58.2566 118.003 58.3261 120.163C58.3261 121.068 58.7432 121.626 59.6469 122.043C60.2031 122.322 60.2031 122.322 59.786 122.252C57.7699 121.835 57.2833 119.327 58.8822 117.725C60.8288 115.774 64.9304 116.61 66.3207 119.327C66.8769 120.441 66.9464 122.67 66.4598 124.064C65.278 127.129 61.941 128.731 58.5346 127.825C56.2405 127.198 55.2673 126.571 52.4865 123.715C47.6202 118.7 45.7432 117.725 38.7913 116.68L37.4705 116.471L38.9304 115.078Z" fill="#3E4665" fill-opacity="0.3"/>
<path fill-rule="evenodd" clip-rule="evenodd" d="M2.36282 2.99536C18.5607 22.709 43.5179 53.3591 44.7692 55.031C45.812 56.4241 45.3949 57.7477 43.6569 58.7229C42.6837 59.2802 40.6676 59.8375 39.6944 59.8375C38.5821 59.8375 37.2612 59.2802 36.3575 58.3746C35.7318 57.7477 33.0206 53.7771 26.9029 44.2337C22.2452 36.9195 18.2826 30.8591 18.2131 30.7895C17.935 30.6502 17.935 30.6502 26.4163 45.8359C31.7692 55.3793 33.5072 58.7926 33.5072 59.2105C33.5072 60.1161 33.2291 60.6037 32.1168 61.8576C30.2398 63.9474 29.4056 66.3158 28.7799 71.2616C28.0847 76.7647 26.2077 80.6656 20.8548 87.2833C17.7265 91.1842 17.2398 91.8808 16.4751 93.483C15.5019 95.4334 15.2238 96.548 15.0847 99.0557C14.9457 101.703 15.2238 103.375 15.9885 105.882C16.6837 108.111 17.4484 109.574 19.3254 112.43C20.9243 114.938 21.8976 116.819 21.8976 117.515C21.8976 118.073 22.0366 118.073 24.5393 117.515C30.5179 116.122 35.4537 113.754 38.165 110.828C39.8334 109.017 40.2505 108.042 40.2505 105.534C40.2505 103.932 40.181 103.584 39.7639 102.608C39.0687 101.076 37.7478 99.822 34.8976 97.8715C31.1436 95.2941 29.5446 93.2043 29.1275 90.418C28.7799 88.0495 29.197 86.4474 31.2826 82.0588C33.4377 77.531 33.9938 75.6502 34.3414 71.0526C34.55 68.1269 34.8976 66.9427 35.7318 66.0372C36.6356 65.0619 37.4003 64.7136 39.5553 64.435C43.1008 63.9474 45.3949 63.0418 47.2024 61.3003C48.8013 59.8375 49.4965 58.3746 49.566 56.2152L49.6356 54.613L48.7318 53.6378C45.4644 49.8762 0.207742 0 -0.000814025 0C-0.0703327 0 1.04197 1.32353 2.36282 2.99536ZM23.7051 102.051C24.4698 100.728 24.0527 99.0557 22.8013 98.2198C21.6195 97.4536 19.812 97.8018 19.812 98.8467C19.812 99.1254 19.9511 99.404 20.3682 99.5433C20.9938 99.8916 21.0634 100.24 20.5767 101.006C20.0901 101.772 20.0901 102.469 20.7158 102.957C21.689 103.723 23.0099 103.305 23.7051 102.051Z" fill="#3E4665" fill-opacity="0.3"/>
<path fill-rule="evenodd" clip-rule="evenodd" d="M51.8611 65.4105C50.1926 65.8981 48.5937 67.7093 48.1071 69.5204C47.829 70.635 47.968 72.6551 48.4547 73.282C49.2194 74.2572 49.9145 74.5359 51.8611 74.5359C55.6846 74.5359 58.952 72.8641 59.2996 70.8439C59.6472 69.1721 58.1873 66.8734 56.1712 65.8285C55.1285 65.2712 52.9734 65.0622 51.8611 65.4105ZM56.3103 68.8935C56.8664 68.0576 56.6579 67.152 55.6151 66.5251C53.7381 65.3409 50.8878 66.3161 50.8878 68.1272C50.8878 69.0328 52.3477 70.008 53.7381 70.008C54.6418 70.008 55.8932 69.4508 56.3103 68.8935Z" fill="#3E4665" fill-opacity="0.3"/>
</g>
<defs>
<clipPath id="clip0_26_872">
<rect width="117" height="135" fill="white"/>
</clipPath>
</defs>
</svg>
