<svg width="101" height="23" viewBox="0 0 101 23" fill="none" xmlns="http://www.w3.org/2000/svg">
<path fill-rule="evenodd" clip-rule="evenodd" d="M8.53439 19.661C9.30891 19.661 10.0246 19.5193 10.703 19.2527C10.7088 19.266 12.0897 21.4242 12.1096 21.4392C10.8596 22.115 9.55328 22.4125 8.12518 22.4125C3.87984 22.4125 0.79834 19.5985 0.79834 15.1064C0.79834 10.5817 4.03723 7.76777 8.12518 7.76777C9.58061 7.76777 10.7279 8.08524 11.8835 8.70686C11.7559 8.92018 10.5664 10.9517 10.5622 10.96C9.87716 10.6859 9.14489 10.5467 8.40765 10.5517C5.89193 10.5517 3.94279 12.1649 3.94279 15.1064C3.94279 17.8895 5.82897 19.661 8.53439 19.661ZM19.2418 7.76777C23.4242 7.76777 26.4427 10.7417 26.4427 15.1064C26.4427 19.4394 23.4242 22.4125 19.2418 22.4125C15.0917 22.4125 12.0731 19.4402 12.0731 15.1064C12.0731 10.7417 15.0917 7.76777 19.2418 7.76777ZM19.2418 10.4567C16.9157 10.4567 15.2168 12.2599 15.2168 15.1064C15.2168 17.922 16.9149 19.7243 19.2426 19.7243C21.6324 19.7243 23.2991 17.922 23.2991 15.1064C23.2991 12.2599 21.6324 10.4567 19.2418 10.4567ZM28.4241 22.0966V8.08358H31.5363V22.0966H28.4241ZM28.0149 3.78141C28.0149 2.7065 28.9278 1.85323 29.9649 1.85323C31.0028 1.85323 31.914 2.7065 31.914 3.78224C31.914 4.88966 31.0028 5.77542 29.9649 5.77542C28.9278 5.77542 28.0149 4.88966 28.0149 3.78224V3.78141ZM34.2525 8.97017C36.2016 8.21107 38.5931 7.76777 40.6358 7.76777C44.1895 7.76777 46.4534 9.12766 46.4534 13.0815V22.0966H43.3719V13.3665C43.3719 11.3425 42.1144 10.6142 40.384 10.6142C39.2831 10.6142 38.1839 10.7725 37.3655 11.0258V22.0966H34.2525V8.97017ZM49.0602 0.587494H52.1724V8.46438C52.8326 8.11607 54.1215 7.76777 55.3475 7.76777C59.3733 7.76777 62.391 10.3609 62.391 14.853C62.391 19.376 59.4048 22.4125 54.2483 22.4125C52.4797 22.4075 50.7244 22.0975 49.0602 21.4959V0.587494ZM52.1724 19.4402C52.7696 19.6293 53.5558 19.7235 54.3419 19.7235C57.203 19.7235 59.2474 18.1428 59.2474 14.9155C59.2474 12.1958 57.3298 10.5825 54.9714 10.5825C53.7455 10.5825 52.8011 10.8992 52.1716 11.2475L52.1724 19.4402ZM71.3837 12.7015C71.3837 11.1833 70.2514 10.4884 68.7106 10.4884C67.1069 10.4884 65.8494 10.9625 64.6864 11.6266V8.90601C65.9124 8.21107 67.4838 7.76777 69.2142 7.76777C72.2634 7.76777 74.4329 9.03267 74.4329 12.5432V21.8117C73.1125 22.1591 71.2272 22.3816 69.6549 22.3816C66.0383 22.3816 63.3967 21.2742 63.3967 18.1111C63.3967 15.2647 65.8171 13.8731 69.8421 13.8731H71.3829L71.3837 12.7015ZM71.3837 15.9596H70.0633C67.893 15.9596 66.4782 16.5929 66.4782 18.0161C66.4782 19.471 67.7994 20.0401 69.6856 20.0401C70.1578 20.0401 70.8179 19.9768 71.3837 19.8818V15.9596ZM76.6968 18.3011C77.9866 19.281 79.5265 19.8818 80.9413 19.8818C82.3255 19.8818 83.2376 19.4077 83.2376 18.3011C83.2376 17.1612 82.42 16.7504 80.6282 16.2763C77.7348 15.6122 76.508 14.4422 76.508 12.0066C76.508 9.15932 78.6468 7.76777 81.4765 7.76777C83.0487 7.76777 84.3061 8.11607 85.4691 8.84268V11.7216C84.2432 10.8367 83.0487 10.2984 81.5709 10.2984C80.219 10.2984 79.4958 10.9625 79.4958 11.8799C79.4958 12.7965 80.0923 13.2715 81.6968 13.7131C84.8736 14.4097 86.2561 15.613 86.2561 18.1428C86.2561 21.0842 84.0237 22.4125 81.0051 22.4125C79.3699 22.4125 77.7348 21.9708 76.6976 21.2742L76.6968 18.3011ZM90.5172 15.8021V15.8655C90.706 18.3636 92.8432 19.7235 95.0127 19.7235C96.9312 19.7235 98.3154 19.281 99.6979 18.3636V21.1167C98.4404 22.0017 96.5849 22.4125 94.794 22.4125C90.4542 22.4125 87.4986 19.6293 87.4986 15.2014C87.4986 10.7417 90.3904 7.7686 94.2274 7.7686C98.2831 7.7686 100.202 10.3934 100.202 14.2198V15.803L90.5172 15.8021ZM97.2766 13.7773C97.2145 11.5941 96.1459 10.3934 94.133 10.3934C92.3404 10.3934 91.02 11.6591 90.6116 13.7781L97.2766 13.7773Z" fill="white" />
</svg>
