<svg width="47" height="20" viewBox="0 0 47 20" fill="none" xmlns="http://www.w3.org/2000/svg">
<g clip-path="url(#clip0_26_193)">
<path d="M31.4831 2.34444L25.341 19.5667L25.3026 19.6722L24.1739 17.3278L21.8179 18.4389L27.9984 1.11111L30.3544 0L31.4831 2.34444ZM46.863 2.77778L40.7209 20L39.5922 17.65L37.2362 18.7611L37.3786 18.3556L43.5207 1.11111L45.8768 0L46.9726 2.34444L46.863 2.77778ZM33.7131 17.6944L37.3293 7.55556L34.9678 8.66667L33.872 6.31667L30.2174 16.4278L31.3406 18.7778L33.7131 17.6944ZM14.1416 7.69445H3.33679L5.17778 9.44444L3.33679 11.25H14.1307L15.9662 9.44444L14.1416 7.69445ZM1.84099 15.1833H19.3085L17.473 16.9778L19.3085 18.7667H1.84099L0 16.9778L1.84099 15.1833ZM7.19958 0.144444H24.6561L22.8261 1.93889L24.6561 3.72778H7.19958L5.35859 1.93889L7.19958 0.144444Z" fill="white" />
</g>
<defs>
<clipPath id="clip0_26_193">
<rect width="47" height="20" fill="white"/>
</clipPath>
</defs>
</svg>
