<svg width="106" height="16" viewBox="0 0 106 16" fill="none" xmlns="http://www.w3.org/2000/svg">
<path fill-rule="evenodd" clip-rule="evenodd" d="M101.017 0.186667L98.9793 3.072L101.43 6.51733L105.753 0.186667H101.017ZM98.9793 12.7413L101.292 15.8391H106L101.402 9.45511L98.9793 12.7413ZM3.63403 2.83111V7.90667H7.29633C7.70885 7.90667 8.03922 7.88 8.31482 7.8C8.58953 7.72 8.78298 7.61333 8.94817 7.45156C9.11335 7.29156 9.22288 7.10489 9.27853 6.86489C9.3333 6.62489 9.36068 5.12889 9.36068 4.80889C9.36068 4.46044 9.33418 4.16711 9.27853 3.92711C9.2298 3.69425 9.11505 3.4806 8.94817 3.312C8.78298 3.152 8.56215 3.04533 8.28743 2.96444C8.01183 2.88444 7.65408 2.85778 7.18592 2.85778H3.63492V2.83111H3.63403ZM8.48 0.186667C10.0488 0.186667 11.2051 0.560889 11.9489 1.336C12.6917 2.11022 13.0504 3.73956 13.0504 5.26222C13.0504 6.81156 12.6643 8.65422 11.8941 9.42933C11.1229 10.2036 9.99492 10.5778 8.48 10.5778H3.63403V15.8667H0V0.186667H8.48ZM21.0896 3.01778C20.5119 3.01778 20.0437 3.04444 19.6312 3.12444C19.2461 3.20622 18.9157 3.33867 18.6675 3.55289C18.4201 3.76622 18.2258 4.05956 18.1172 4.46044C18.0059 4.86133 17.9511 5.79644 17.9511 6.43822V9.616C17.9511 10.2578 18.0068 11.192 18.1172 11.5653C18.2258 11.9404 18.4193 12.2613 18.6666 12.4738C18.9148 12.6871 19.2452 12.8471 19.6303 12.9289C20.0163 13.008 20.5119 13.0356 21.0896 13.0356H21.3104C21.8881 13.0356 22.3563 13.008 22.7688 12.9289C23.1539 12.848 23.4843 12.7156 23.7325 12.5013C23.9799 12.2871 24.1742 11.9929 24.2828 11.5929C24.3941 11.1929 24.4489 10.2578 24.4489 9.616V6.41067C24.4489 5.77067 24.3932 4.83467 24.2828 4.46044C24.1959 4.10863 24.0042 3.79196 23.7334 3.55289C23.4852 3.33956 23.1548 3.20622 22.7697 3.12533C22.3563 3.04533 21.8881 3.01867 21.3104 3.01867H21.0896V3.01778ZM14.2349 5.34222C14.2349 4.38044 14.3436 3.57956 14.5927 2.88533C14.84 2.21689 15.1986 1.656 15.6942 1.22844C16.1889 0.801778 16.8222 0.480889 17.5933 0.294222C18.3645 0.106667 19.3008 0 20.3732 0H22.1089C23.1822 0 24.1176 0.106667 24.8897 0.293333C25.66 0.48 26.2942 0.801778 26.7888 1.22844C27.2844 1.656 27.6421 2.21689 27.8621 2.88533C28.0829 3.552 28.1933 4.38044 28.1933 5.34222V10.2302C28.1933 11.192 28.0829 12.4213 27.8356 13.1147C27.6258 13.7579 27.2448 14.3309 26.7341 14.7716C26.2394 15.1991 25.6043 15.5191 24.8349 15.7058C24.0638 15.8924 23.1548 15.9991 22.0816 15.9991H20.3732C19.2999 15.9991 18.3645 15.8924 17.6207 15.7058C16.8505 15.5191 16.2162 15.1991 15.7216 14.7716C15.226 14.3431 14.8683 13.7822 14.6201 13.1147C14.3727 12.4471 14.2623 11.192 14.2623 10.2302V5.34222H14.234H14.2349ZM33.3423 12.848H39.5645V15.8667H29.7083V0.186667H33.3423V12.848ZM47.1903 3.01778C46.6126 3.01778 46.1436 3.04444 45.731 3.12444C45.3459 3.20622 45.0155 3.33867 44.7682 3.55289C44.5209 3.76622 44.3265 4.05956 44.217 4.46044C44.1066 4.86133 44.0518 5.79644 44.0518 6.43822V9.616C44.0518 10.2578 44.1066 11.192 44.217 11.5653C44.3265 11.9404 44.52 12.2613 44.7673 12.4738C45.0155 12.6871 45.3459 12.8471 45.731 12.9289C46.1162 13.008 46.6126 13.0356 47.1903 13.0356H47.4111C47.9888 13.0356 48.457 13.008 48.8695 12.9289C49.2556 12.848 49.5859 12.7156 49.8333 12.5013C50.0815 12.2871 50.2749 11.9929 50.3844 11.5929C50.494 11.1929 50.5496 10.2578 50.5496 9.616V6.41067C50.5496 5.77067 50.494 4.83467 50.3844 4.46044C50.274 4.06044 50.0815 3.76711 49.8333 3.55289C49.5859 3.33956 49.2556 3.20622 48.8704 3.12533C48.457 3.04533 47.9888 3.01867 47.4111 3.01867H47.1903V3.01778ZM40.3356 5.34222C40.3356 4.38044 40.4452 3.57956 40.6925 2.88533C40.9407 2.21689 41.2985 1.656 41.794 1.22844C42.2896 0.801778 42.9229 0.480889 43.6941 0.294222C44.4643 0.106667 45.3733 0 46.4474 0H48.1814C49.2555 0 50.191 0.106667 50.9622 0.293333C51.7333 0.48 52.3666 0.801778 52.8622 1.22844C53.3577 1.656 53.7155 2.21689 53.9354 2.88533C54.1563 3.552 54.2658 4.38044 54.2658 5.34222V10.2302C54.2658 11.192 54.1563 12.4213 53.9081 13.1147C53.6982 13.7579 53.3173 14.3309 52.8065 14.7716C52.3119 15.1991 51.6785 15.5191 50.9074 15.7058C50.1362 15.8924 49.229 15.9991 48.154 15.9991H46.4192C45.3459 15.9991 44.4096 15.8924 43.6658 15.7058C42.8955 15.5191 42.2622 15.1991 41.7667 14.7716C41.272 14.3431 40.9133 13.7822 40.6651 13.1147C40.4178 12.4471 40.3074 11.192 40.3074 10.2302V5.34222H40.3348H40.3356ZM56.0016 0.186667H60.1859L66.2438 10.8711V0.186667H69.657V15.8667H65.4727L59.4139 5.04889V15.8667H56.0007L56.0016 0.186667ZM71.8318 15.8667H75.4658V0.186667H71.8318V15.8667ZM77.6689 0.186667H88.8474V3.20533H81.3038V6.41155H88.6001V9.40178H81.3038V12.848H88.8474V15.8667H77.6689V0.186667ZM100.355 8.01333L94.5458 15.84H89.8385L95.483 8.01333L90.0859 0.186667H94.8214L100.355 8.01333Z" fill="white"/>
</svg>
