<svg width="131" height="27" viewBox="0 0 131 27" fill="none" xmlns="http://www.w3.org/2000/svg">
<path d="M8.72615 15.5651L13.7515 20.5905L18.779 15.5631L21.7035 18.4835L21.7014 18.4855L13.7515 26.4375L5.80165 18.4896L5.79756 18.4855L8.72615 15.5651ZM16.7169 13.4989H16.719L16.7169 13.501L13.7515 16.4684L10.7862 13.5051L10.7821 13.4989L11.3053 12.9758L11.5587 12.7244L13.7515 10.5315L16.7169 13.4989ZM20.8392 13.5012L23.7627 10.5777L26.6862 13.5012L23.7627 16.4245L20.8392 13.5012ZM0.812012 13.5004L3.73549 10.5769L6.65877 13.5004L3.73549 16.4239L0.812012 13.5004ZM8.72615 11.4348L13.7515 6.41147L18.779 11.4389L21.7014 8.51442L13.7515 0.562469L5.80165 8.51237L8.72615 11.4348Z" fill="white" />
<path d="M31.2473 6.83249H37.6072C39.185 6.83249 40.3785 7.24122 41.1878 8.0587C41.8037 8.66873 42.143 9.50542 42.1258 10.3721V10.411C42.1313 10.7625 42.0823 11.1126 41.9807 11.4492C41.8902 11.7387 41.7588 12.014 41.5904 12.2666C41.4334 12.5047 41.2436 12.7195 41.0263 12.9043C40.8142 13.087 40.5816 13.2445 40.3335 13.3743C41.049 13.6236 41.6926 14.0446 42.2076 14.6005C42.6627 15.1182 42.8901 15.8335 42.8901 16.7464V16.7852C42.903 17.3552 42.779 17.9203 42.5284 18.4324C42.2856 18.9043 41.9296 19.3087 41.4923 19.6096C40.9979 19.941 40.4473 20.18 39.8675 20.3146C39.1786 20.4779 38.4725 20.5568 37.7646 20.5497H31.2473V6.83249ZM36.9696 12.379C37.5198 12.4056 38.0675 12.2873 38.5576 12.0357C38.9469 11.8082 39.1741 11.3776 39.142 10.928V10.8892C39.1627 10.4762 38.9704 10.0801 38.6332 9.84078C38.2939 9.59963 37.804 9.47905 37.1638 9.47905H34.1882V12.379H36.9696ZM37.7728 17.9072C38.3209 17.9378 38.8668 17.8124 39.3464 17.5454C39.7265 17.3012 39.9446 16.8682 39.9146 16.4173V16.3785C39.9295 15.9512 39.7308 15.5431 39.3852 15.2913C39.0337 15.0188 38.4656 14.8825 37.6808 14.8825H34.1882V17.9072H37.7728Z" fill="white" />
<path d="M46.6792 6.83249H49.6977V20.5537H46.6792V6.83249Z" fill="white" />
<path d="M54.2653 6.83249H57.0487L63.4822 15.277V6.83249H66.4619V20.5537H63.893L57.249 11.8313V20.5537H54.2653V6.83249Z" fill="white" />
<path d="M75.6012 6.73431H78.3806L84.2603 20.5537H81.1089L79.8541 17.4759H74.0521L72.7973 20.5537H69.7195L75.6012 6.73431ZM78.7771 14.8109L76.95 10.3598L75.1311 14.8109H78.7771Z" fill="white" />
<path d="M87.5239 6.83249H90.3074L96.7368 15.277V6.83249H99.7165V20.5537H97.1476L90.5036 11.8313V20.5537H87.5239V6.83249Z" fill="white" />
<path d="M110.581 20.7948C109.619 20.803 108.665 20.6168 107.777 20.2471C106.088 19.5498 104.751 18.199 104.072 16.5031C103.717 15.6247 103.537 14.6855 103.542 13.738V13.6992C103.527 11.8325 104.246 10.0324 105.543 8.69014C106.182 8.03432 106.947 7.51421 107.791 7.16147C108.71 6.78093 109.697 6.59108 110.691 6.60354C111.279 6.59925 111.867 6.65177 112.445 6.76091C112.939 6.85451 113.423 6.99899 113.887 7.19212C114.309 7.36972 114.71 7.59309 115.083 7.85836C115.447 8.11709 115.789 8.40566 116.105 8.72079L114.186 10.9361C113.695 10.4837 113.145 10.1007 112.551 9.79781C111.967 9.51864 111.326 9.37865 110.679 9.38907C109.59 9.37743 108.547 9.8348 107.818 10.6439C107.46 11.043 107.18 11.5053 106.992 12.007C106.795 12.5372 106.696 13.0988 106.7 13.6644V13.7033C106.698 14.2681 106.797 14.8287 106.992 15.3587C107.178 15.8622 107.455 16.3272 107.81 16.73C108.533 17.5491 109.578 18.0148 110.671 18.0052C111.359 18.0269 112.042 17.8787 112.659 17.574C113.247 17.2538 113.79 16.8579 114.276 16.3968L116.197 18.3383C115.858 18.7064 115.491 19.0481 115.099 19.3602C114.715 19.6643 114.297 19.924 113.855 20.1347C113.383 20.3567 112.886 20.5208 112.375 20.6232C111.785 20.7415 111.183 20.7991 110.581 20.7948V20.7948Z" fill="white" />
<path d="M119.759 6.83249H130.086V9.51788H122.729V12.3014H129.207V14.9868H122.739V17.8683H130.188V20.5537H119.765L119.759 6.83249Z" fill="white" />
</svg>
