<svg width="86" height="27" viewBox="0 0 86 27" fill="none" xmlns="http://www.w3.org/2000/svg">
<path d="M31.5694 7.1095V14.3008H24.4249V8.03811C24.4249 7.52341 24.0074 7.1059 23.4927 7.1059H21.074V24.3212C21.074 24.8359 21.4915 25.2534 22.0062 25.2534H24.4249V17.2234H31.573V24.3176C31.5658 24.8323 31.9762 25.257 32.4908 25.2642H34.924V8.03811C34.924 7.52341 34.5064 7.1059 33.9917 7.1059H31.5694V7.1095ZM45.7577 11.6086V20.236C45.7649 21.0207 45.3546 21.7513 44.678 22.1544C42.7847 23.2486 40.8231 21.8773 40.8231 20.0776V12.5408C40.8231 12.0261 40.4056 11.6086 39.8909 11.6086H37.4722V20.3872C37.4794 23.2162 39.7686 25.5053 42.5976 25.5197H43.9725C46.8051 25.5125 49.1015 23.2162 49.1087 20.3836V12.5408C49.1087 12.0261 48.6911 11.6086 48.1764 11.6086H45.7577Z" fill="white" />
<path d="M82.3514 25.2641H84.7701V13.041C84.7701 12.5263 84.3526 12.1088 83.8379 12.1088H81.4192V24.3247C81.4156 24.8394 81.8295 25.2605 82.3442 25.2641H82.3514Z" fill="white" />
<path d="M84.8213 9.66416C85.2161 8.71099 84.7635 7.61823 83.8103 7.22341C82.8571 6.82858 81.7644 7.28122 81.3696 8.23438C80.9747 9.18755 81.4274 10.2803 82.3805 10.6751C83.3337 11.0699 84.4265 10.6173 84.8213 9.66416Z" fill="white" />
<path d="M57.7542 11.6013C54.2449 11.6013 51.3727 14.1099 51.3727 17.6192V19.516C51.3727 23.0253 54.2449 25.5196 57.7542 25.5196C61.2635 25.5196 64.1357 23.0253 64.1357 19.516V17.6192C64.1393 14.1099 61.2671 11.6013 57.7542 11.6013V11.6013ZM60.7704 19.7428C60.7704 21.4021 59.4134 22.507 57.7506 22.507C56.0877 22.507 54.7344 21.4021 54.7344 19.7428V17.3745C54.7344 15.7152 56.0913 14.6102 57.7506 14.6102C59.4098 14.6102 60.7704 15.7152 60.7704 17.3745V19.7428Z" fill="white" />
<path d="M72.781 11.6013C71.73 11.5941 70.6934 11.8316 69.7468 12.2887V8.05599C69.7468 7.54129 69.3293 7.12378 68.8146 7.12378H66.3959V19.5161C66.3959 23.0253 69.2681 25.5196 72.7774 25.5196C76.2866 25.5196 79.1589 23.0253 79.1589 19.5161V17.6192C79.1625 14.11 76.2974 11.6013 72.781 11.6013V11.6013ZM75.8008 19.7428C75.8008 21.4021 74.4438 22.507 72.781 22.507C71.1217 22.507 69.7648 21.4021 69.7648 19.7428V17.3745C69.7648 15.7152 71.1217 14.6103 72.781 14.6103C74.4402 14.6103 75.8008 15.7152 75.8008 17.3745V19.7428Z" fill="white" />
<path d="M10.9457 8.59594C10.9457 4.93908 9.16402 1.78973 7.8071 0.767536C7.8071 0.767536 7.70272 0.709947 7.71352 0.857517C7.60194 7.92287 3.99188 9.83768 2.00869 12.4148C-2.56958 18.3679 1.68475 24.8934 6.02547 26.0992C8.44417 26.7758 5.46398 24.9042 5.07886 20.9558C4.60736 16.1904 10.9457 12.5479 10.9457 8.59594V8.59594Z" fill="white" />
<path d="M13.0261 11.0038C12.9973 10.9858 12.9577 10.9714 12.9325 11.0182C12.8569 11.9072 11.9499 13.8076 10.7982 15.5569C6.89295 21.4812 9.1173 24.3391 10.3698 25.876C11.0969 26.765 10.3698 25.8759 12.1839 24.9653C14.4262 23.6048 15.8803 21.2509 16.0963 18.6378C16.4526 14.4267 13.9259 11.774 13.0261 11.0038V11.0038Z" fill="white" />
</svg>
