<svg width="30" height="31" viewBox="0 0 30 31" fill="none" xmlns="http://www.w3.org/2000/svg">
<path fill-rule="evenodd" clip-rule="evenodd" d="M13.0324 1.3199C14.1191 0.233207 15.8809 0.23321 16.9676 1.31991L29.185 13.5372C30.2717 14.6239 30.2717 16.3858 29.185 17.4725L16.9676 29.6899C15.8809 30.7766 14.1191 30.7766 13.0324 29.6899L0.815022 17.4725C-0.271676 16.3858 -0.271673 14.6239 0.815023 13.5372L13.0324 1.3199Z" fill="#E3E6EB"/>
<path fill-rule="evenodd" clip-rule="evenodd" d="M23.7364 6.2636C24.0879 6.61508 24.0879 7.18492 23.7364 7.5364L7.5364 23.7364C7.18492 24.0879 6.61508 24.0879 6.2636 23.7364C5.91213 23.3849 5.91213 22.8151 6.2636 22.4636L22.4636 6.2636C22.8151 5.91213 23.3849 5.91213 23.7364 6.2636Z" fill="white"/>
<path fill-rule="evenodd" clip-rule="evenodd" d="M6.2636 6.2636C5.91213 6.61508 5.91213 7.18492 6.2636 7.5364L22.4636 23.7364C22.8151 24.0879 23.3849 24.0879 23.7364 23.7364C24.0879 23.3849 24.0879 22.8151 23.7364 22.4636L7.5364 6.2636C7.18492 5.91213 6.61508 5.91213 6.2636 6.2636Z" fill="white"/>
</svg>
