<svg width="16" height="16" viewBox="0 0 16 16" fill="none" xmlns="http://www.w3.org/2000/svg">
<path d="M8 1.5C6.71442 1.5 5.45772 1.88122 4.3888 2.59545C3.31988 3.30968 2.48676 4.32484 1.99479 5.51256C1.50282 6.70028 1.37409 8.00721 1.6249 9.26809C1.8757 10.529 2.49477 11.6872 3.40381 12.5962C4.31285 13.5052 5.47104 14.1243 6.73192 14.3751C7.99279 14.6259 9.29972 14.4972 10.4874 14.0052C11.6752 13.5132 12.6903 12.6801 13.4046 11.6112C14.1188 10.5423 14.5 9.28558 14.5 8C14.4981 6.27669 13.8126 4.62452 12.594 3.40596C11.3755 2.1874 9.72331 1.50195 8 1.5ZM8.75006 11.5002C8.75003 11.6992 8.67098 11.89 8.53029 12.0306C8.38961 12.1713 8.19881 12.2503 7.99988 12.2502C7.80094 12.2502 7.61016 12.1712 7.4695 12.0305C7.32884 11.8898 7.24981 11.6991 7.24981 11.5001C7.24981 11.3012 7.32884 11.1104 7.4695 10.9697C7.61016 10.8291 7.80094 10.75 7.99988 10.75C8.19881 10.75 8.38961 10.829 8.53029 10.9696C8.67098 11.1103 8.75003 11.3011 8.75006 11.5V11.5002ZM9.76783 8.76782C9.42191 9.11556 8.98075 9.35304 8.5 9.45032V9.5C8.5 9.63261 8.44733 9.75978 8.35356 9.85355C8.25979 9.94732 8.13261 10 8 10C7.8674 10 7.74022 9.94732 7.64645 9.85355C7.55268 9.75978 7.5 9.63261 7.5 9.5V9C7.50001 8.86739 7.55269 8.74022 7.64646 8.64645C7.74022 8.55269 7.8674 8.50001 8 8.5C8.29665 8.49998 8.58664 8.412 8.83329 8.24719C9.07994 8.08237 9.27218 7.84811 9.38569 7.57404C9.49921 7.29996 9.52891 6.99839 9.47103 6.70744C9.41315 6.41649 9.2703 6.14923 9.06054 5.93947C8.85077 5.7297 8.58352 5.58685 8.29257 5.52897C8.00162 5.4711 7.70004 5.50079 7.42597 5.61431C7.1519 5.72783 6.91764 5.92006 6.75282 6.16671C6.588 6.41336 6.50002 6.70335 6.5 7C6.5 7.13261 6.44733 7.25979 6.35356 7.35355C6.25979 7.44732 6.13261 7.5 6 7.5C5.8674 7.5 5.74022 7.44732 5.64645 7.35355C5.55268 7.25979 5.5 7.13261 5.5 7C5.50002 6.58888 5.60143 6.18411 5.79524 5.82154C5.98906 5.45897 6.26929 5.1498 6.61113 4.9214C6.95297 4.693 7.34586 4.55244 7.755 4.51215C8.16414 4.47185 8.5769 4.53309 8.95673 4.69042C9.33655 4.84775 9.67171 5.09632 9.93252 5.41412C10.1933 5.73192 10.3717 6.10914 10.452 6.51235C10.5322 6.91557 10.5117 7.33235 10.3924 7.72577C10.273 8.11919 10.0585 8.47711 9.76783 8.76782Z" fill="#0055FF"/>
</svg>
