<svg width="20" height="20" viewBox="0 0 20 20" fill="none" xmlns="http://www.w3.org/2000/svg">
<g clip-path="url(#clip0_2015_5)">
<g clip-path="url(#clip1_2015_5)">
<path d="M0 10C0 4.47715 4.47715 0 10 0C15.5228 0 20 4.47715 20 10C20 15.5228 15.5228 20 10 20C4.47715 20 0 15.5228 0 10Z" fill="#C99455"/>
<g clip-path="url(#clip2_2015_5)">
<path d="M10.0233 9.67123L13.3729 12.4704L11.0004 14.25C10.4079 14.6946 9.59292 14.6946 9.00042 14.25L6.445 12.3333C6.22875 12.1712 5.96542 12.0833 5.695 12.0833H5.41708C5.18667 12.0833 5 11.8966 5 11.6666V7.05706C5 6.8454 5.15792 6.66915 5.36833 6.6454C5.93375 6.58248 6.44292 6.3554 6.96375 6.05206C7.71292 5.66665 8.69583 5.80415 9.30375 6.37373L9.56083 6.62081L7.89125 8.2504C7.44417 8.69706 7.37292 9.40331 7.72542 9.89123C7.94208 10.1925 8.33417 10.4158 8.74375 10.4158C9.07417 10.4158 9.39125 10.2858 9.62042 10.0562L10.0233 9.67081V9.67123ZM13.3142 6.05206C12.61 5.69998 11.7317 5.79165 11.1025 6.2804L8.47625 8.84373C8.32167 8.99873 8.28667 9.24665 8.40083 9.40498C8.47583 9.50915 8.58458 9.57165 8.70875 9.58206C8.83167 9.59248 8.95083 9.5479 9.03708 9.46123L10.5446 8.03248C10.94 7.65706 11.5129 8.25623 11.1208 8.63456L10.6287 9.09165L14.2092 12.0837H14.5829C14.8129 12.0837 14.9996 11.8971 14.9996 11.6671V7.0429C14.9996 6.83873 14.8504 6.66998 14.6492 6.63373C13.9433 6.50623 13.3137 6.05248 13.3137 6.05248L13.3142 6.05206Z" fill="white"/>
</g>
</g>
</g>
<defs>
<clipPath id="clip0_2015_5">
<rect width="20" height="20" fill="white"/>
</clipPath>
<clipPath id="clip1_2015_5">
<rect width="20.8333" height="20" fill="white" transform="translate(-0.833984)"/>
</clipPath>
<clipPath id="clip2_2015_5">
<rect width="10" height="10" fill="white" transform="translate(5 5)"/>
</clipPath>
</defs>
</svg>
