<svg width="20" height="20" viewBox="0 0 20 20" fill="none" xmlns="http://www.w3.org/2000/svg">
<g clip-path="url(#clip0_2015_3081)">
<g clip-path="url(#clip1_2015_3081)">
<path d="M0 10C0 4.47715 4.47715 0 10 0C15.5228 0 20 4.47715 20 10C20 15.5228 15.5228 20 10 20C4.47715 20 0 15.5228 0 10Z" fill="#55C2C9"/>
<g clip-path="url(#clip2_2015_3081)">
<path d="M10.0004 5.83347C11.1167 5.83714 12.1852 6.28723 12.9678 7.08343H11.667C11.4369 7.08343 11.2503 7.26997 11.2503 7.50008C11.2503 7.73019 11.4369 7.91672 11.667 7.91672H13.3932C13.8204 7.91649 14.1667 7.57021 14.1669 7.143V5.4168C14.1669 5.18669 13.9804 5.00016 13.7502 5.00016C13.5201 5.00016 13.3336 5.18669 13.3336 5.4168V6.28262C11.285 4.43761 8.12856 4.60269 6.28356 6.65132C5.56153 7.45305 5.11867 8.46714 5.02135 9.54167C4.99995 9.77241 5.16965 9.9768 5.40038 9.9982C5.41288 9.99935 5.42544 9.99996 5.43802 10C5.6492 10.0027 5.82773 9.8442 5.8501 9.63417C6.04232 7.48455 7.84216 5.8363 10.0004 5.83347Z" fill="white"/>
<path d="M14.5633 10C14.3521 9.99731 14.1736 10.1558 14.1512 10.3658C13.9524 12.6551 11.9354 14.3497 9.64609 14.1509C8.6556 14.0649 7.72865 13.627 7.03311 12.9166H8.33391C8.56402 12.9166 8.75055 12.73 8.75055 12.4999C8.75055 12.2698 8.56402 12.0833 8.33391 12.0833H6.60771C6.18061 12.083 5.83422 12.4291 5.83398 12.8562C5.83398 12.8564 5.83398 12.8567 5.83398 12.857V14.5832C5.83398 14.8133 6.02052 14.9998 6.25063 14.9998C6.48074 14.9998 6.66728 14.8133 6.66728 14.5832V13.7174C8.71591 15.5624 11.8723 15.3973 13.7173 13.3487C14.4393 12.547 14.8822 11.5329 14.9795 10.4583C15.0009 10.2276 14.8312 10.0232 14.6005 10.0018C14.5881 10.0006 14.5757 10 14.5633 10Z" fill="white"/>
</g>
</g>
</g>
<defs>
<clipPath id="clip0_2015_3081">
<rect width="20" height="20" fill="white"/>
</clipPath>
<clipPath id="clip1_2015_3081">
<rect width="20.8333" height="20" fill="white" transform="translate(-0.833984)"/>
</clipPath>
<clipPath id="clip2_2015_3081">
<rect width="10" height="10" fill="white" transform="translate(5 5)"/>
</clipPath>
</defs>
</svg>
