<svg width="20" height="20" viewBox="0 0 20 20" fill="none" xmlns="http://www.w3.org/2000/svg">
<g clip-path="url(#clip0_145_8842)">
<g clip-path="url(#clip1_145_8842)">
<path d="M0 10C0 4.47715 4.47715 0 10 0C15.5228 0 20 4.47715 20 10C20 15.5228 15.5228 20 10 20C4.47715 20 0 15.5228 0 10Z" fill="#5B55C9"/>
<path d="M12.3276 11.25L7.67256 11.25C7.59017 11.25 7.50963 11.2255 7.44112 11.1798C7.37262 11.134 7.31923 11.0689 7.2877 10.9928C7.25617 10.9166 7.24792 10.8329 7.26399 10.7521C7.28006 10.6713 7.31973 10.597 7.37798 10.5387L9.70548 8.21125C9.78362 8.13314 9.88958 8.08926 10.0001 8.08926C10.1105 8.08926 10.2165 8.13314 10.2946 8.21125L12.6221 10.5388C12.6804 10.597 12.7201 10.6713 12.7361 10.7521C12.7522 10.8329 12.744 10.9166 12.7124 10.9928C12.6809 11.0689 12.6275 11.134 12.559 11.1798C12.4905 11.2255 12.41 11.25 12.3276 11.25Z" fill="white"/>
</g>
</g>
<defs>
<clipPath id="clip0_145_8842">
<rect width="20" height="20" fill="white"/>
</clipPath>
<clipPath id="clip1_145_8842">
<rect width="20.8333" height="20" fill="white" transform="translate(-0.833984)"/>
</clipPath>
</defs>
</svg>
