<svg width="20" height="20" viewBox="0 0 20 20" fill="none" xmlns="http://www.w3.org/2000/svg">
<g clip-path="url(#clip0_2015_2839)">
<g clip-path="url(#clip1_2015_2839)">
<path d="M0 10C0 4.47715 4.47715 0 10 0C15.5228 0 20 4.47715 20 10C20 15.5228 15.5228 20 10 20C4.47715 20 0 15.5228 0 10Z" fill="#C95555"/>
<path d="M7.67244 8.75H12.3274C12.4098 8.75002 12.4904 8.77446 12.5589 8.82025C12.6274 8.86603 12.6808 8.9311 12.7123 9.00723C12.7438 9.08335 12.7521 9.16712 12.736 9.24793C12.7199 9.32874 12.6803 9.40298 12.622 9.46125L10.2945 11.7887C10.2164 11.8669 10.1104 11.9107 9.99994 11.9107C9.88945 11.9107 9.78349 11.8669 9.70535 11.7887L7.37785 9.46125C7.3196 9.40298 7.27993 9.32874 7.26386 9.24793C7.24779 9.16712 7.25604 9.08335 7.28757 9.00723C7.3191 8.9311 7.37249 8.86603 7.441 8.82025C7.5095 8.77446 7.59004 8.75002 7.67244 8.75Z" fill="white"/>
</g>
</g>
<defs>
<clipPath id="clip0_2015_2839">
<rect width="20" height="20" fill="white"/>
</clipPath>
<clipPath id="clip1_2015_2839">
<rect width="20.8333" height="20" fill="white" transform="translate(-0.833984)"/>
</clipPath>
</defs>
</svg>
