<svg width="20" height="20" viewBox="0 0 20 20" fill="none" xmlns="http://www.w3.org/2000/svg">
<g clip-path="url(#clip0_2015_3154)">
<g clip-path="url(#clip1_2015_3154)">
<path d="M0 10C0 4.47715 4.47715 0 10 0C15.5228 0 20 4.47715 20 10C20 15.5228 15.5228 20 10 20C4.47715 20 0 15.5228 0 10Z" fill="#9655C9"/>
<g clip-path="url(#clip2_2015_3154)">
<path d="M5.41677 15C5.3101 15 5.20344 14.9591 5.12219 14.8779C4.95927 14.715 4.95927 14.4516 5.12219 14.2887L14.2889 5.12207C14.4518 4.95915 14.7151 4.95915 14.878 5.12207C15.0409 5.28498 15.0409 5.54832 14.878 5.71123L5.71135 14.8779C5.6301 14.9591 5.52344 15 5.41677 15ZM8.7501 7.08332C8.7501 6.16415 8.0026 5.41665 7.08344 5.41665C6.16427 5.41665 5.41677 6.16415 5.41677 7.08332C5.41677 8.00248 6.16427 8.74998 7.08344 8.74998C8.0026 8.74998 8.7501 8.00248 8.7501 7.08332ZM7.91677 7.08332C7.91677 7.5429 7.54302 7.91665 7.08344 7.91665C6.62385 7.91665 6.2501 7.5429 6.2501 7.08332C6.2501 6.62373 6.62385 6.24998 7.08344 6.24998C7.54302 6.24998 7.91677 6.62373 7.91677 7.08332ZM14.5834 12.9166C14.5834 11.9975 13.8359 11.25 12.9168 11.25C11.9976 11.25 11.2501 11.9975 11.2501 12.9166C11.2501 13.8358 11.9976 14.5833 12.9168 14.5833C13.8359 14.5833 14.5834 13.8358 14.5834 12.9166ZM13.7501 12.9166C13.7501 13.3762 13.3764 13.75 12.9168 13.75C12.4572 13.75 12.0834 13.3762 12.0834 12.9166C12.0834 12.4571 12.4572 12.0833 12.9168 12.0833C13.3764 12.0833 13.7501 12.4571 13.7501 12.9166Z" fill="white"/>
</g>
</g>
</g>
<defs>
<clipPath id="clip0_2015_3154">
<rect width="20" height="20" fill="white"/>
</clipPath>
<clipPath id="clip1_2015_3154">
<rect width="20.8333" height="20" fill="white" transform="translate(-0.833984)"/>
</clipPath>
<clipPath id="clip2_2015_3154">
<rect width="10" height="10" fill="white" transform="translate(5 5)"/>
</clipPath>
</defs>
</svg>
